<svg width="84" height="36" viewBox="0 0 84 36" version="1.1" xmlns="http://www.w3.org/2000/svg" xmlns:xlink="http://www.w3.org/1999/xlink">
<g id="Canvas" fill="none">
<g id="Vytelogo" clip-path="url(#clip0)">
<g id="Vyte Copy 4 + Group">
<g id="Vyte Copy 4">
<path d="M 0.022 7.546L 1.76 7.546L 4.18 15.51C 4.41467 16.346 4.58333 16.918 4.686 17.226C 4.93533 18.1647 5.236 19.1913 5.588 20.306L 5.676 20.306C 5.83733 19.822 6.17467 18.7073 6.688 16.962L 7.106 15.51L 9.526 7.546L 11.176 7.546L 6.556 22L 4.686 22L 0.022 7.546ZM 12.892 26.664C 12.452 26.664 12.0487 26.5907 11.682 26.444L 11.99 25.146C 12.2833 25.2633 12.562 25.322 12.826 25.322C 13.4127 25.322 13.9113 25.102 14.322 24.662C 14.7327 24.222 15.0627 23.628 15.312 22.88L 15.576 22.066L 11.264 11.33L 12.914 11.33L 15.202 17.446L 16.258 20.438L 16.346 20.438C 16.5513 19.822 16.764 19.1473 16.984 18.414L 17.27 17.446L 19.272 11.33L 20.834 11.33L 16.786 22.99C 16.3753 24.134 15.862 25.0287 15.246 25.674C 14.6447 26.334 13.86 26.664 12.892 26.664ZM 26.2017 22.264C 25.1457 22.264 24.3903 21.9633 23.9357 21.362C 23.481 20.7607 23.2537 19.9027 23.2537 18.788L 23.2537 12.65L 21.6477 12.65L 21.6477 11.44L 23.3197 11.33L 23.5177 8.316L 24.8597 8.316L 24.8597 11.33L 27.7857 11.33L 27.7857 12.65L 24.8597 12.65L 24.8597 18.832C 24.8597 19.536 24.9843 20.064 25.2337 20.416C 25.4977 20.768 25.9377 20.944 26.5537 20.944C 26.8617 20.944 27.2723 20.8487 27.7857 20.658L 28.1157 21.868C 27.3237 22.132 26.6857 22.264 26.2017 22.264ZM 38.1116 16.06C 38.1116 16.4413 38.0896 16.764 38.0456 17.028L 30.6756 17.028C 30.7489 18.2747 31.1302 19.2427 31.8196 19.932C 32.5236 20.6213 33.3816 20.966 34.3936 20.966C 35.3322 20.966 36.2342 20.68 37.0996 20.108L 37.6936 21.164C 37.1656 21.5013 36.6229 21.7727 36.0656 21.978C 35.5082 22.1687 34.8849 22.264 34.1956 22.264C 33.2569 22.264 32.3989 22.044 31.6216 21.604C 30.8589 21.1493 30.2502 20.4967 29.7956 19.646C 29.3556 18.7953 29.1356 17.8053 29.1356 16.676C 29.1356 15.5613 29.3556 14.5787 29.7956 13.728C 30.2502 12.8773 30.8442 12.2247 31.5776 11.77C 32.3109 11.3007 33.0882 11.066 33.9096 11.066C 35.2296 11.066 36.2562 11.5133 36.9896 12.408C 37.7376 13.288 38.1116 14.5053 38.1116 16.06ZM 36.6816 15.862C 36.6816 14.7327 36.4396 13.8673 35.9556 13.266C 35.4716 12.6647 34.7969 12.364 33.9316 12.364C 33.1396 12.364 32.4356 12.6647 31.8196 13.266C 31.2036 13.8673 30.8369 14.7327 30.7196 15.862L 36.6816 15.862Z" transform="translate(44.1841 0.517822)" fill="#4A4A4A"/>
</g>
</g>
<g id="app-logo">
<g id="Group 3 Copy 2">
<g id="Rectangle 276">
<path fill-rule="evenodd" clip-rule="evenodd" d="M 0 3C 0 1.34315 1.34315 0 3 0L 24.541 0C 26.1978 0 27.541 1.34315 27.541 3L 27.541 10.9197C 27.541 12.5766 26.1978 13.9197 24.541 13.9197L 3 13.9197C 1.34315 13.9197 0 12.5766 0 10.9197L 0 3Z" transform="translate(2.02295 13.9197) scale(1 -1)" fill="url(#paint0_linear)"/>
</g>
<g id="Oval 89">
<path fill-rule="evenodd" clip-rule="evenodd" d="M 0.765027 1.54664C 1.18754 1.54664 1.53005 1.20041 1.53005 0.773318C 1.53005 0.346226 1.18754 0 0.765027 0C 0.342514 0 0 0.346226 0 0.773318C 0 1.20041 0.342514 1.54664 0.765027 1.54664Z" transform="translate(23.4436 3.09332) scale(1 -1)" fill="white"/>
</g>
<g id="Oval 89 Copy 2">
<path fill-rule="evenodd" clip-rule="evenodd" d="M 0.765027 1.54664C 1.18754 1.54664 1.53005 1.20041 1.53005 0.773318C 1.53005 0.346226 1.18754 0 0.765027 0C 0.342514 0 0 0.346226 0 0.773318C 0 1.20041 0.342514 1.54664 0.765027 1.54664Z" transform="translate(7.37793 3.09332) scale(1 -1)" fill="white"/>
</g>
<g id="Rectangle 248 Copy">
<path fill-rule="evenodd" clip-rule="evenodd" d="M 0 3C 0 1.34315 1.34315 0 3 0L 26.071 0C 27.7279 0 29.071 1.34315 29.071 3L 29.071 14.013C 29.071 15.6699 27.7279 17.013 26.071 17.013L 3 17.013C 1.34315 17.013 0 15.6699 0 14.013L 0 3Z" transform="translate(1.25781 35.668) scale(1 -1)" fill="#E8E8E8"/>
</g>
<g id="Rectangle 246 Copy 4">
<path fill-rule="evenodd" clip-rule="evenodd" d="M 30.541 14.1697L 30.3288 14.1697L 1.25781 14.1697L 1.04565 14.1697L 1.01114 13.9604L -0.51713 4.6914C -0.943889 2.1031 1.053 -0.25 3.67625 -0.25L 27.9104 -0.25C 30.5337 -0.25 32.5305 2.1031 32.1038 4.6914L 30.5755 13.9604L 30.541 14.1697Z" transform="translate(0 32.4794) scale(1 -1)" fill="white"/>
<path fill-rule="evenodd" clip-rule="evenodd" d="M 30.541 14.1697L 30.3288 14.1697L 1.25781 14.1697L 1.04565 14.1697L 1.01114 13.9604L -0.51713 4.6914C -0.943889 2.1031 1.053 -0.25 3.67625 -0.25L 27.9104 -0.25C 30.5337 -0.25 32.5305 2.1031 32.1038 4.6914L 30.5755 13.9604L 30.541 14.1697Z" stroke-width="0.5" stroke-miterlimit="8" transform="translate(0 32.4794) scale(1 -1)" stroke="#E8E8E8"/>
</g>
<g id="Rectangle 246 Copy 8">
<path fill-rule="evenodd" clip-rule="evenodd" d="M 0 3C 0 1.34315 1.34315 0 3 0L 26.071 0C 27.7279 0 29.071 1.34315 29.071 3L 29.071 12.6094L 0 12.6094L 0 3Z" transform="translate(1.25781 4.63995)" fill="url(#paint1_linear)"/>
<g mask="url(#path6_out1)" transform="translate(1.25781 4.63995)">
<path d="M 29.071 12.6094L 29.071 3C 29.071 1.34315 27.7279 0 26.071 0L 3 0C 1.34315 0 0 1.34315 0 3L 0 12.6094L 29.071 12.6094Z" stroke="#E8E8E8"/>
</g>
</g>
<g id="Rectangle 246 Copy 5">
<path fill-rule="evenodd" clip-rule="evenodd" d="M 0 3C 0 1.34315 1.34315 0 3 0L 26.071 0C 27.7279 0 29.071 1.34315 29.071 3L 29.071 13.9197L 0 13.9197L 0 3Z" transform="translate(1.25781 4.63995)" fill="url(#paint2_linear)"/>
</g>
<g id="Group 4">
<g id="Group 5">
<g id="Path">
<path fill-rule="evenodd" clip-rule="evenodd" d="M 1.69377 3.39972C 2.62905 3.39972 3.38753 2.63851 3.38753 1.69986C 3.38753 0.761216 2.62905 0 1.69377 0C 0.758487 0 0 0.761216 0 1.69986C 0 2.63851 0.758487 3.39972 1.69377 3.39972" transform="matrix(-0.99863 -0.052336 0.052336 -0.99863 19.7759 28.6021)" fill="#F0D050"/>
</g>
<g id="Path_2">
<path fill-rule="evenodd" clip-rule="evenodd" d="M 1.69377 3.39972C 2.62905 3.39972 3.38753 2.63851 3.38753 1.69986C 3.38753 0.761216 2.62905 0 1.69377 0C 0.758487 0 0 0.761216 0 1.69986C 0 2.63851 0.758487 3.39972 1.69377 3.39972" transform="matrix(-0.669131 -0.743145 0.743145 -0.669131 11.626 28.491)" fill="#E76548"/>
</g>
<g id="Path_3">
<path fill-rule="evenodd" clip-rule="evenodd" d="M 1.69377 3.39972C 2.62905 3.39972 3.38753 2.63851 3.38753 1.69986C 3.38753 0.761216 2.62905 0 1.69377 0C 0.758487 0 0 0.761216 0 1.69986C 0 2.63851 0.758487 3.39972 1.69377 3.39972" transform="matrix(0.052336 -0.99863 0.99863 0.052336 5.94141 22.5945)" fill="#42C671"/>
</g>
<g id="Path_4">
<path fill-rule="evenodd" clip-rule="evenodd" d="M 3.38753 1.69986C 3.38753 0.761216 2.62905 0 1.69377 0C 0.758487 0 0 0.761216 0 1.69986C 0 2.63851 0.758487 3.39972 1.69377 3.39972C 2.62905 3.39972 3.38753 2.63851 3.38753 1.69986Z" transform="matrix(0.743145 -0.669131 0.669131 0.743145 6.052 14.3668)" fill="#35495E"/>
</g>
<g id="Path_5">
<path fill-rule="evenodd" clip-rule="evenodd" d="M 1.69377 3.39972C 2.62905 3.39972 3.38753 2.63851 3.38753 1.69986C 3.38753 0.761216 2.62905 0 1.69377 0C 0.758487 0 0 0.761216 0 1.69986C 0 2.63851 0.758487 3.39972 1.69377 3.39972" transform="matrix(0.99863 0.052336 -0.052336 0.99863 11.8931 8.62738)" fill="#60D2E2"/>
</g>
<g id="Path_6">
<path fill-rule="evenodd" clip-rule="evenodd" d="M 1.69377 3.39972C 2.62905 3.39972 3.38753 2.63851 3.38753 1.69986C 3.38753 0.761216 2.62905 0 1.69377 0C 0.758487 0 0 0.761216 0 1.69986C 0 2.63851 0.758487 3.39972 1.69377 3.39972" transform="matrix(0.669131 0.743145 -0.743145 0.669131 20.0427 8.7384)" fill="#308FF0"/>
</g>
<g id="Path_7">
<path fill-rule="evenodd" clip-rule="evenodd" d="M 1.69377 3.39972C 2.62905 3.39972 3.38753 2.63851 3.38753 1.69986C 3.38753 0.761216 2.62905 0 1.69377 0C 0.758487 0 0 0.761216 0 1.69986C 0 2.63851 0.758487 3.39972 1.69377 3.39972" transform="matrix(-0.052336 0.99863 -0.99863 -0.052336 25.7275 14.6349)" fill="#E549A3"/>
</g>
<g id="Path_8">
<path fill-rule="evenodd" clip-rule="evenodd" d="M 1.69377 3.39972C 2.62905 3.39972 3.38753 2.63851 3.38753 1.69986C 3.38753 0.761216 2.62905 0 1.69377 0C 0.758487 0 0 0.761216 0 1.69986C 0 2.63851 0.758487 3.39972 1.69377 3.39972" transform="matrix(-0.743145 0.669131 -0.669131 -0.743145 25.6169 22.8627)" fill="#14BC9B"/>
</g>
</g>
</g>
</g>
</g>
</g>
</g>
<defs>

<linearGradient id="paint0_linear" x2="1" gradientUnits="userSpaceOnUse" gradientTransform="matrix(-50.048 -26.2052 51.8485 -25.2952 46.6323 42.5574)">
<stop stop-color="#51A7FF"/>
<stop offset="1" stop-color="#308FF0"/>
</linearGradient>
<linearGradient id="paint1_linear" x2="1" gradientUnits="userSpaceOnUse" gradientTransform="matrix(0 6.84543 -15.7822 0 14.5355 5.76395)">
<stop stop-color="white"/>
<stop offset="1" stop-color="#F8F8F8"/>
</linearGradient>
<linearGradient id="paint2_linear" x2="1" gradientUnits="userSpaceOnUse" gradientTransform="matrix(0 7.5568 -15.7822 0 14.5355 6.36293)">
<stop stop-color="white"/>
<stop offset="1" stop-color="#F8F8F8"/>
</linearGradient>

<clipPath id="clip0">
<rect width="83.184" height="35.668" fill="white"/>
</clipPath>
<mask id="path6_out1" maskUnits="userSpaceOnUse" x="-1" y="-1" width="31" height="15" fill="black">
<rect fill="white" x="-1" y="-1" width="31" height="15"/>
<path fill-rule="evenodd" clip-rule="evenodd" d="M 0 3C 0 1.34315 1.34315 0 3 0L 26.071 0C 27.7279 0 29.071 1.34315 29.071 3L 29.071 12.6094L 0 12.6094L 0 3Z"/>
</mask>

</defs>
</svg>

