<?xml version="1.0" encoding="utf-8"?>
<!-- Generator: Adobe Illustrator 23.0.2, SVG Export Plug-In . SVG Version: 6.00 Build 0)  -->
<svg version="1.1" id="Calque_1" xmlns="http://www.w3.org/2000/svg" xmlns:xlink="http://www.w3.org/1999/xlink" x="0px" y="0px"
	 viewBox="0 0 96.9 36" style="enable-background:new 0 0 96.9 36;" xml:space="preserve">
<style type="text/css">
	.st0{clip-path:url(#SVGID_2_);}
	.st1{fill:#4A4A4A;}
	.st2{fill-rule:evenodd;clip-rule:evenodd;fill:url(#SVGID_3_);}
	.st3{fill-rule:evenodd;clip-rule:evenodd;fill:#FFFFFF;}
	.st4{fill-rule:evenodd;clip-rule:evenodd;fill:#E8E8E8;}
	.st5{fill:none;stroke:#E8E8E8;stroke-width:0.5;stroke-miterlimit:8;}
	.st6{fill-rule:evenodd;clip-rule:evenodd;fill:url(#SVGID_4_);}
	.st7{fill:none;stroke:#E8E8E8;}
	.st8{fill-rule:evenodd;clip-rule:evenodd;fill:url(#SVGID_5_);}
	.st9{fill-rule:evenodd;clip-rule:evenodd;fill:#F0D050;}
	.st10{fill-rule:evenodd;clip-rule:evenodd;fill:#E76548;}
	.st11{fill-rule:evenodd;clip-rule:evenodd;fill:#42C671;}
	.st12{fill-rule:evenodd;clip-rule:evenodd;fill:#35495E;}
	.st13{fill-rule:evenodd;clip-rule:evenodd;fill:#60D2E2;}
	.st14{fill-rule:evenodd;clip-rule:evenodd;fill:#308FF0;}
	.st15{fill-rule:evenodd;clip-rule:evenodd;fill:#E549A3;}
	.st16{fill-rule:evenodd;clip-rule:evenodd;fill:#14BC9B;}
	.st17{fill:#3492F2;}
	.st18{font-family:'ElliotSans-Medium';}
	.st19{font-size:8px;}
</style>
<g id="Canvas">
	<g>
		<defs>
			<rect id="SVGID_1_" x="1" width="83.2" height="35.7"/>
		</defs>
		<clipPath id="SVGID_2_">
			<use xlink:href="#SVGID_1_"  style="overflow:visible;"/>
		</clipPath>
		<g id="Vytelogo" class="st0">
			<g>
				<g>
					<path class="st1" d="M45.2,8.1h1.7l2.4,8c0.2,0.8,0.4,1.4,0.5,1.7c0.2,0.9,0.5,2,0.9,3.1h0.1c0.2-0.5,0.5-1.6,1-3.3l0.4-1.5
						l2.4-8h1.6l-4.6,14.5h-1.9L45.2,8.1z M58,27.2c-0.4,0-0.8-0.1-1.2-0.2l0.3-1.3c0.3,0.1,0.6,0.2,0.8,0.2c0.6,0,1.1-0.2,1.5-0.7
						c0.4-0.4,0.7-1,1-1.8l0.3-0.8l-4.3-10.7H58l2.3,6.1l1.1,3h0.1c0.2-0.6,0.4-1.3,0.6-2l0.3-1l2-6.1H66l-4,11.7
						c-0.4,1.1-0.9,2-1.5,2.7C59.8,26.9,59,27.2,58,27.2z M71.3,22.8c-1.1,0-1.8-0.3-2.3-0.9c-0.5-0.6-0.7-1.5-0.7-2.6v-6.1h-1.6V12
						l1.7-0.1l0.2-3H70v3h2.9v1.3H70v6.2c0,0.7,0.1,1.2,0.4,1.6c0.3,0.4,0.7,0.5,1.3,0.5c0.3,0,0.7-0.1,1.2-0.3l0.3,1.2
						C72.5,22.6,71.8,22.8,71.3,22.8z M83.2,16.6c0,0.4,0,0.7-0.1,1h-7.4c0.1,1.2,0.5,2.2,1.1,2.9c0.7,0.7,1.6,1,2.6,1
						c0.9,0,1.8-0.3,2.7-0.9l0.6,1.1c-0.5,0.3-1.1,0.6-1.6,0.8c-0.6,0.2-1.2,0.3-1.9,0.3c-0.9,0-1.8-0.2-2.6-0.7
						c-0.8-0.5-1.4-1.1-1.8-2c-0.4-0.9-0.7-1.8-0.7-3c0-1.1,0.2-2.1,0.7-2.9c0.5-0.9,1-1.5,1.8-2c0.7-0.5,1.5-0.7,2.3-0.7
						c1.3,0,2.3,0.4,3.1,1.3C82.9,13.8,83.2,15,83.2,16.6z M81.8,16.4c0-1.1-0.2-2-0.7-2.6s-1.2-0.9-2-0.9c-0.8,0-1.5,0.3-2.1,0.9
						c-0.6,0.6-1,1.5-1.1,2.6H81.8z"/>
				</g>
			</g>
			<g id="app-logo">
				<g>
					<g>
						
							<linearGradient id="SVGID_3_" gradientUnits="userSpaceOnUse" x1="-914.5948" y1="539.5593" x2="-913.5948" y2="539.5593" gradientTransform="matrix(-50.048 26.2052 -51.8485 -25.2952 -17730.5156 37595.6328)">
							<stop  offset="0" style="stop-color:#51A7FF"/>
							<stop  offset="1" style="stop-color:#308FF0"/>
						</linearGradient>
						<path class="st2" d="M3,10.9c0,1.7,1.3,3,3,3h21.5c1.7,0,3-1.3,3-3V3c0-1.7-1.3-3-3-3H6C4.3,0,3,1.3,3,3V10.9z"/>
					</g>
					<g>
						<path class="st3" d="M25.2,1.5c0.4,0,0.8,0.3,0.8,0.8s-0.3,0.8-0.8,0.8c-0.4,0-0.8-0.3-0.8-0.8S24.7,1.5,25.2,1.5z"/>
					</g>
					<g>
						<path class="st3" d="M9.1,1.5c0.4,0,0.8,0.3,0.8,0.8S9.5,3.1,9.1,3.1S8.3,2.7,8.3,2.3S8.7,1.5,9.1,1.5z"/>
					</g>
					<g>
						<path class="st4" d="M2.2,32.7c0,1.7,1.3,3,3,3h23.1c1.7,0,3-1.3,3-3v-11c0-1.7-1.3-3-3-3H5.2c-1.7,0-3,1.3-3,3V32.7z"/>
					</g>
					<g>
						<path class="st3" d="M31.5,18.3h-0.2H2.2H2l0,0.2l-1.5,9.3C0,30.4,2,32.7,4.6,32.7h24.2c2.6,0,4.6-2.4,4.2-4.9l-1.5-9.3
							L31.5,18.3z"/>
						<path class="st5" d="M31.5,18.3h-0.2H2.2H2l0,0.2l-1.5,9.3C0,30.4,2,32.7,4.6,32.7h24.2c2.6,0,4.6-2.4,4.2-4.9l-1.5-9.3
							L31.5,18.3z"/>
					</g>
					<g>
						
							<linearGradient id="SVGID_4_" gradientUnits="userSpaceOnUse" x1="-839.9401" y1="617.1035" x2="-838.9401" y2="617.1035" gradientTransform="matrix(0 6.8454 15.7822 0 -9722.5059 5760.1548)">
							<stop  offset="0" style="stop-color:#FFFFFF"/>
							<stop  offset="1" style="stop-color:#F8F8F8"/>
						</linearGradient>
						<path class="st6" d="M2.2,7.6c0-1.7,1.3-3,3-3h23.1c1.7,0,3,1.3,3,3v9.6H2.2V7.6z"/>
						<g transform="translate(1.25781 4.63995)">
							<path class="st7" d="M30,12.6V3c0-1.7-1.3-3-3-3H4C2.3,0,1,1.3,1,3v9.6H30z"/>
						</g>
					</g>
					<g>
						
							<linearGradient id="SVGID_5_" gradientUnits="userSpaceOnUse" x1="-847.1047" y1="617.1035" x2="-846.1047" y2="617.1035" gradientTransform="matrix(0 7.5568 15.7822 0 -9722.5059 6412.4038)">
							<stop  offset="0" style="stop-color:#FFFFFF"/>
							<stop  offset="1" style="stop-color:#F8F8F8"/>
						</linearGradient>
						<path class="st8" d="M2.2,7.6c0-1.7,1.3-3,3-3h23.1c1.7,0,3,1.3,3,3v10.9H2.2V7.6z"/>
					</g>
					<g>
						<g>
							<g id="Path">
								<path class="st9" d="M19.2,25.1c-0.9,0-1.7,0.7-1.8,1.6c0,0.9,0.7,1.7,1.6,1.8c0.9,0,1.7-0.7,1.8-1.6
									C20.9,26,20.1,25.2,19.2,25.1"/>
							</g>
							<g id="Path_2">
								<path class="st10" d="M14,25c-0.6-0.7-1.7-0.7-2.4-0.1c-0.7,0.6-0.8,1.7-0.1,2.4c0.6,0.7,1.7,0.7,2.4,0.1
									C14.5,26.7,14.6,25.7,14,25"/>
							</g>
							<g id="Path_3">
								<path class="st11" d="M10.4,21.1c0-0.9-0.7-1.7-1.6-1.8C7.8,19.3,7,20,7,20.9c0,0.9,0.7,1.7,1.6,1.8
									C9.5,22.7,10.3,22,10.4,21.1"/>
							</g>
							<g id="Path_4">
								<path class="st12" d="M10.7,13.4C10,12.7,9,12.6,8.3,13.2c-0.7,0.6-0.7,1.7-0.1,2.4c0.6,0.7,1.7,0.8,2.4,0.1
									C11.2,15.1,11.3,14.1,10.7,13.4z"/>
							</g>
							<g id="Path_5">
								<path class="st13" d="M14.4,12.1c0.9,0,1.7-0.7,1.8-1.6c0-0.9-0.7-1.7-1.6-1.8c-0.9,0-1.7,0.7-1.8,1.6
									C12.7,11.3,13.4,12.1,14.4,12.1"/>
							</g>
							<g id="Path_6">
								<path class="st14" d="M19.6,12.3c0.6,0.7,1.7,0.7,2.4,0.1c0.7-0.6,0.8-1.7,0.1-2.4c-0.6-0.7-1.7-0.7-2.4-0.1
									C19,10.5,19,11.6,19.6,12.3"/>
							</g>
							<g id="Path_7">
								<path class="st15" d="M23.2,16.1c0,0.9,0.7,1.7,1.6,1.8c0.9,0,1.7-0.7,1.8-1.6c0-0.9-0.7-1.7-1.6-1.8
									C24,14.5,23.2,15.2,23.2,16.1"/>
							</g>
							<g id="Path_8">
								<path class="st16" d="M23,21.5c-0.7,0.6-0.7,1.7-0.1,2.4c0.6,0.7,1.7,0.8,2.4,0.1c0.7-0.6,0.7-1.7,0.1-2.4
									C24.8,20.9,23.7,20.8,23,21.5"/>
							</g>
						</g>
					</g>
				</g>
			</g>
		</g>
	</g>
</g>
<text transform="matrix(1 0 0 1 83.6586 11.0831)" class="st17 st18 st19">API</text>
</svg>
