<svg xmlns="http://www.w3.org/2000/svg" viewBox="0 0 741.47 616.44"><defs><style>.cls-1{opacity:0.1;}.cls-2{fill:#14bc9b;}.cls-3{fill:#6e7f7f;}.cls-4{fill:#eaeff4;}.cls-5{fill:#1776ff;}.cls-6{fill:#fff;}.cls-7{fill:#e2eef2;}.cls-8{fill:#9cb2b7;}.cls-9{fill:#97a9ad;}.cls-10{fill:#a1c4db;}.cls-11{fill:#e3f4ff;}.cls-12{fill:#d6edfc;}.cls-13{fill:#7d8996;}.cls-14{fill:#e2cf64;}.cls-15{fill:#82abd1;}.cls-16{fill:#d478ea;}.cls-17{fill:#61ce7d;}.cls-18{fill:#dbc775;}.cls-19{fill:#343f3f;}.cls-20{fill:#d33562;}.cls-21{fill:#bf2c5d;}.cls-22{fill:#841a3e;}.cls-23{fill:#f8d135;}.cls-24{fill:#ba9e25;}.cls-25{fill:#2f6616;}.cls-26{fill:#409b1b;}.cls-27{fill:#cca372;}.cls-28{fill:#ead681;}.cls-29{fill:#9e7e5c;}.cls-30{fill:#44c19a;}.cls-31{fill:#664c35;}.cls-32{fill:#0d365b;}.cls-33{fill:#001a37;}.cls-34{fill:#44ad87;}.cls-35{fill:#288465;}.cls-36{fill:#3aa57e;}.cls-37{fill:#102a49;}.cls-38{fill:#eac62f;}.cls-39{fill:#c9a927;}.cls-40{fill:#2e2463;}.cls-41{fill:#40307a;}.cls-42{fill:#2e3987;}.cls-43{fill:#492a0a;}.cls-44{fill:#aa9126;}.cls-45{fill:#1c275e;}</style></defs><title>Vyte-API</title><g id="Layer_4" data-name="Layer 4"><g class="cls-1"><path class="cls-2" d="M291.39,248.53c42.12-14.95,74.56-54.29,81.21-98.48,3.13-20.82-.25-44.6-16.37-58.14-10.26-8.62-24-11.72-37.38-13-40.68-4-81.57,6.3-119.56,21.4-38.22,15.19-74.53,35.41-106.76,61C77.91,172.84,64,185.73,54.27,201.67c-6.5,10.71-11,23.44-8.42,35.69,1.7,8,6.34,15.17,12,21.1,16.81,17.65,42.18,25.05,66.55,25.11s48.23-6.42,71.74-12.85L292,244.52"/></g><g class="cls-1"><path class="cls-2" d="M518.54,95.46a30,30,0,0,0,19.19-23.28c.74-4.91-.06-10.54-3.87-13.73-2.42-2-5.68-2.77-8.83-3.08-9.61-.93-19.28,1.49-28.25,5.06a100.35,100.35,0,0,0-25.23,14.4,37.63,37.63,0,0,0-9,9.55c-1.54,2.53-2.6,5.54-2,8.44a10.61,10.61,0,0,0,2.83,5c4,4.17,10,5.92,15.73,5.94s11.4-1.52,16.95-3l22.65-6.19"/></g><g class="cls-1"><path class="cls-2" d="M217,360.71c-16.38,17-33,34.23-43.86,55.16s-15.36,46.4-6.42,68.21c8.48,20.7,28.06,35.43,49.33,42.36s44.17,6.94,66.45,4.93c24.76-2.22,49.24-6.84,73.58-11.87,68.42-14.16,137.51-32.31,196.13-70.32S658.11,350,663.74,280.4c1.48-18.31-.19-37.69-10.06-53.18-9.56-15-26-24.75-43.29-29s-35.43-3.58-53.08-1.24c-78.78,10.42-181,26.1-244.22,74.2C280.36,296,217,360.71,217,360.71Z"/></g></g><g id="Layer_1" data-name="Layer 1"><path class="cls-3" d="M238.58,522.68q-.53,28.13-1,56.26c60-2.61,120,0,180.06-2.62,24.28-1.06,47.65.34,76.88-1,.79-22.67.16-40.34-.84-64.88-83.59,4.34-167.7-.12-250.83,9.63-2.11.25-4.36.57-6,2"/><path class="cls-4" d="M212.33,525.12c-4.54,8.31,1.24,19.23,9.64,23.6s18.38,4,27.84,3.54l157.25-7.83c27.66-1.38,55.37-2.76,83-1.5,6.46.3,13.49.58,18.75-3.17,4.52-3.23,6.76-8.91,7.12-14.45s-.91-11-2.18-16.45c-46.66-.75-93.33.62-140,2-52.71,1.55-105.54,3.11-157.75,10.5-2.55.36-5.95,2.41-4.52,4.56"/><path class="cls-5" d="M480.75,171.54a159.14,159.14,0,0,0-10.2-35.33c-1.7-4.07-3.7-8.23-7.2-10.9-4.93-3.78-11.68-3.8-17.89-3.65l-162.31,3.86c-9.24.22-18.53.45-27.59,2.28a15.33,15.33,0,0,0-6.78,2.69c-2.09,1.71-3.21,4.3-4.23,6.79A352.58,352.58,0,0,0,231,176.76l6,16.56,111,7.5,123.5-10Z"/><path class="cls-6" d="M504.7,520.83c17.18-1,19.21-4.51,24.57-10.55s8-14.08,9.07-22.09c2.11-16.3-2-32.69-6.16-48.6L505,334.5l-4.44-18.62q6.06-50.56,8.79-101.44c.43-8,.78-16.24-1.61-23.91s-8.07-14.8-15.88-16.66l-4.84-.39q-133.56,6.24-267.31,6.69l-4.92,3c-8.95,8.59-13.24,21.15-14.2,33.52s1.1,24.76,3.15,37Q210,290.84,216.17,328l-.12,4.82-27.74,140.7c-2.13,10.83-2.77,19-.43,29.77s20.06,21.53,31,23Z"/><path class="cls-7" d="M481.68,326.61q-16.1-4.49-32-9.52s-4.2-13.85-6.52-18.37c-4.49-8.73-11.88-16.66-11.76-16.87l14.8-27.52c-3.24-2.2-11.94-10.24-11.94-10.24s-18.14,10.49-25.11,14.26l-2,.46a60.68,60.68,0,0,0-29.66-10.05l-2.29-.81a147,147,0,0,0-6.37-23.41l-17.1,0a1.41,1.41,0,0,0-.95.23,1.44,1.44,0,0,0-.33.78c-1.56,7.84-4.82,20.29-4.82,20.29-13.24,2.18-37.66,19.59-37.66,19.59l-.19-.21a9.89,9.89,0,0,0-1.91-1.4c-6.74-4.13-20-13.47-20-13.47-4.16,3.7-12.69,12.38-12.69,12.38,4.63,7.81,13.69,22.2,13.16,22.05,0,0-13.39,25.11-15.24,38.3l-27.78,13.88c.71,4.6,1.38,14.91,1.38,14.91A202.1,202.1,0,0,0,269.12,358c.12-.33.82,2,.82,2L275,373.67c2,5.28,11.28,17.85,11.28,17.85a306.66,306.66,0,0,0-13.85,28.05,2.1,2.1,0,0,0,.57,2.93l7.81,7.82a1.73,1.73,0,0,0,.8.54,1.67,1.67,0,0,0,1-.24c8.19-3.79,18.23-8.79,25.73-16.79,0,0,21.26,15.83,30.29,19.32a8.53,8.53,0,0,0,3.21.2l10.93,24.49A2.79,2.79,0,0,0,356,460l11.67.23a1.7,1.7,0,0,0,.78-.11,1.67,1.67,0,0,0,.71-1l9.59-26s24.62-4.37,34.18-15.49c0,0,19.36,17,20.66,16.81.77-.11,12-8,16.93-11.52-4.17-9.13-12.92-26.71-12.92-26.71,9.74-7.69,11.8-21.29,13.71-40.61l-.11-.65q15.24-2.57,30.27-6.32c.35-.09.77-.52.46-.71"/><path class="cls-6" d="M272.27,141.54a11,11,0,0,0-6.33,5.36,14.46,14.46,0,0,0,1.5,14.53,13.73,13.73,0,0,0,13.61,5A13.07,13.07,0,0,0,281,141C277.33,140.15,272.27,141.54,272.27,141.54Z"/><path class="cls-6" d="M428.61,136a10.91,10.91,0,0,0-6.33,5.36,14.48,14.48,0,0,0,1.49,14.53,13.73,13.73,0,0,0,13.61,5,13.07,13.07,0,0,0,5.67-22.65,13.21,13.21,0,0,0-5.7-2.86C433.66,134.59,428.61,136,428.61,136Z"/><path class="cls-8" d="M280.17,382.73l6.2,8.74,0,0,0,0q-4.72,8.61-8.89,17.51-2.08,4.46-4,9c-.31.74-.68,1.52-.93,2.24a1.41,1.41,0,0,0,0,1,2.47,2.47,0,0,0,.63.86l3.5,3.45,3.49,3.45.88.86c.3.31.56.55.75.55a2,2,0,0,0,.92-.3l1.1-.53c3-1.41,5.87-2.88,8.7-4.49a63.18,63.18,0,0,0,15.42-11.75l.41-.44.49.36c5.28,3.83,10.65,7.56,16.13,11.09,2.74,1.76,5.51,3.48,8.33,5.07,1.42.78,2.85,1.53,4.3,2.19a9.86,9.86,0,0,0,2,.76,9.36,9.36,0,0,0,2.18,0l.72-.08.29.65,8.51,18.68,2.61,5.93a3,3,0,0,0,.61,1,1.41,1.41,0,0,0,.86.29c.43,0,1,0,1.55.06l1.62,0,6.49.16,1.62,0,.81,0H368s0,.05,0,.09l0,.09a.68.68,0,0,0-.06-.09l-.06-.06h0l0,0a2.7,2.7,0,0,0,.23-.55l.57-1.52,9.07-24.33.19-.49.53-.1a101.34,101.34,0,0,0,18.09-5.23c5.79-2.33,11.5-5.31,15.65-9.86l.54-.59.58.51c5.9,5.17,11.81,10.39,18,15.21l1.16.86.59.39c.17.11.42.24.46.26-.29.06,0-.06.16-.17s.4-.24.61-.36l1.22-.79c1.64-1.07,3.26-2.17,4.88-3.28l9.68-6.73-.2.75-12.82-26.73L437,396l.32-.25a25.87,25.87,0,0,0,6.77-8.31,43.68,43.68,0,0,0,3.68-10.23c1.71-7.1,2.45-14.42,3.24-21.71v.09l-.11-.65-.05-.33.32,0q7.88-1.31,15.7-2.92c2.61-.53,5.21-1.1,7.81-1.69l3.89-.9,1.94-.47,1-.24a.72.72,0,0,0,.32-.2.3.3,0,0,0,.07-.11h0s0,0,0,0l-.1-.05v-.13c0-3.54.07-7.07.06-10.61s0-7.09-.24-10.6l.1.11-32-9.64,32,9.39.09,0v.08c.29,3.55.26,7.08.32,10.63s0,7.08,0,10.62l-.1-.18a.41.41,0,0,1,.2.42.65.65,0,0,1-.17.32,1.19,1.19,0,0,1-.51.33l-1,.25-1.94.48-3.88.94q-3.9.92-7.81,1.75-7.81,1.68-15.7,3l.27-.38.12.65v.09c-.73,7.3-1.41,14.63-3.09,21.83a45,45,0,0,1-3.68,10.46,26.83,26.83,0,0,1-7,8.67l.13-.61,13,26.67.22.46-.42.3-9.64,6.81c-1.62,1.12-3.23,2.24-4.88,3.34l-1.25.81c-.22.13-.42.27-.66.4a3.16,3.16,0,0,1-.39.21l-.31.11a.89.89,0,0,1-.48,0,3.75,3.75,0,0,1-.85-.41c-.21-.14-.44-.28-.64-.43-.42-.29-.82-.58-1.22-.88-6.27-4.84-12.19-10-18.15-15.14l1.12-.08A32.73,32.73,0,0,1,406,424.2a58.87,58.87,0,0,1-8.64,4.29,91.94,91.94,0,0,1-9.08,3.15c-3.08.9-6.16,1.7-9.34,2.31l.72-.6-8.89,24.4-.55,1.52a4.43,4.43,0,0,1-.42.94,2.13,2.13,0,0,1-1.26,1,4,4,0,0,1-1.08.06h-.81l-1.62,0-6.49-.11-1.63,0c-.55,0-1,0-1.7-.05a3.57,3.57,0,0,1-2.12-.82,4.84,4.84,0,0,1-1.16-1.71l-2.68-5.93L341,433.75l1,.57a10.71,10.71,0,0,1-2.71,0,4.86,4.86,0,0,1-1.38-.44l-1.16-.51c-1.51-.72-3-1.51-4.4-2.33-2.85-1.66-5.62-3.44-8.35-5.25-5.46-3.65-10.78-7.46-16-11.39l.9-.08A64.75,64.75,0,0,1,293,426c-2.89,1.58-5.85,3-8.83,4.39l-1.12.51a2.7,2.7,0,0,1-1.41.36,2.25,2.25,0,0,1-1.23-.81l-.87-.88-3.44-3.5-3.45-3.51a3.19,3.19,0,0,1-.77-1.12,2.12,2.12,0,0,1,0-1.41c.31-.83.66-1.52,1-2.29q2-4.48,4.16-8.91,4.31-8.83,9.17-17.39v.09Z"/><path class="cls-8" d="M442.69,296.8a55.4,55.4,0,0,0-4.82-8.13,28.63,28.63,0,0,0-6.57-6.7l-.11-.07.06-.12,14.58-27.65.13.53c-2.19-1.53-4.16-3.26-6.17-5s-4-3.45-5.9-5.22l.62.07L409.5,259l-.08.05-.11,0-2,.48-.32.07-.29-.18a59.76,59.76,0,0,0-29.29-9.67h-.13l-.14-.05-2.3-.78-.57-.2-.11-.61c-.64-3.24-1.37-6.47-2.22-9.67-1.16-4.58-2.54-9.11-4.14-13.56l1,.71-9.95-.07-5,0h-2.51l0-.06-.05-.1a.36.36,0,0,0-.06-.1s0,.05.2.13,0,0,0,.1l-.25,1.15c-1.39,6.52-3,13-4.71,19.39l-.15.57-.59.1a43,43,0,0,0-9.89,3.27c-3.22,1.42-6.37,3-9.46,4.76-6.19,3.44-12.21,7.24-18,11.27l-.56.39-.43-.51a10.73,10.73,0,0,0-2.51-1.84c-.95-.6-1.89-1.21-2.83-1.82q-2.8-1.84-5.58-3.74-5.54-3.77-11-7.64l.79-.05c-4.35,3.93-8.53,8.13-12.7,12.29l.08-.68c2.17,3.69,4.4,7.35,6.62,11l3.33,5.51,1.64,2.77.8,1.4.4.71.19.37.09.21a.46.46,0,0,1,.05.14.35.35,0,0,1,0,.13s.08.58-.6.53l.53-.23c-3.21,6.08-6.22,12.29-8.94,18.61-1.36,3.16-2.64,6.35-3.76,9.6a57.21,57.21,0,0,0-2.66,9.92l0,.15-.14.07-27.83,13.78.09-.18c.67,5,1,9.94,1.32,14.92l-.08-.1A200.2,200.2,0,0,0,269.12,358h0c0-.07.1,0,.11,0a.75.75,0,0,1,.07.12l.12.26.19.53c.12.35.24.7.34,1.06-.11-.35-.22-.71-.35-1.06l-.2-.52-.11-.26c0-.06-.1-.21-.15-.15h0a201,201,0,0,1-24.52-6.1l-.07,0v-.08c-.38-5-.74-9.95-1.44-14.88l0-.12.11-.06,27.73-14-.16.23a57.61,57.61,0,0,1,2.6-10.06c1.1-3.28,2.36-6.5,3.7-9.68,2.68-6.37,5.65-12.6,8.82-18.74l.54-.23a.47.47,0,0,0-.36.05.52.52,0,0,0-.16.18.49.49,0,0,0-.05.23s0,.06,0,0l0,0-.08-.16-.17-.34-.39-.69-.81-1.38-1.66-2.75-3.37-5.47c-2.25-3.65-4.51-7.29-6.71-11l-.23-.38.31-.31c4.15-4.21,8.28-8.43,12.66-12.45l.37-.34.42.29q5.5,3.83,11.06,7.55c1.85,1.24,3.71,2.47,5.58,3.67.94.61,1.88,1.21,2.82,1.79a11.92,11.92,0,0,1,2.87,2.11l-1-.12c5.85-4.12,11.85-8,18.08-11.51,3.1-1.77,6.28-3.43,9.56-4.91a45.12,45.12,0,0,1,10.3-3.48l-.73.67c1.62-6.41,3.2-12.86,4.53-19.32l.12-.61c.05-.2.07-.37.15-.68a2,2,0,0,1,.67-1.05,2.09,2.09,0,0,1,1.11-.4c.31,0,.5,0,.71,0h17.54l.26.71q2.47,6.75,4.3,13.73c.82,3.26,1.51,6.55,2.1,9.85l-.69-.8,2.28.82-.27-.06a61.7,61.7,0,0,1,30,10.44l-.61-.11,2-.45-.19.08,25.2-14,.35-.2.28.27c1.91,1.78,3.84,3.55,5.8,5.29s3.92,3.48,6,5l.29.22-.17.31-15,27.4,0-.2a29.05,29.05,0,0,1,6.51,6.86A55.75,55.75,0,0,1,442.69,296.8Z"/><path class="cls-9" d="M332,311.23a32.14,32.14,0,0,0-1.14-3.34,66,66,0,0,0-11.16.34s-9.94,28.6-13.92,42.64c-1.42,5-2.52,10.17-4.7,14.91l9.58-.25c1.55-5.2,4.72-15.27,4.72-15.27q9.84,0,19.68-.58a33.25,33.25,0,0,1,1.86,4.66q1.55,4.89,3.1,9.78l.78,2.49,9-.64Q341.33,338.46,332,311.23ZM317.27,343a155.41,155.41,0,0,1,7.7-26.41l1.06-.13c2.56,9.16,8,25.4,8,25.41C328.92,342.31,317.27,343,317.27,343Z"/><path class="cls-9" d="M393.45,316.76c-2.24-4-6.55-8.7-11.37-8.52,0,0-17-.67-25.21.55,0,0,2.09,57.58,1.65,58.14a48.25,48.25,0,0,0,7.83-.45l.57-22.43a85.82,85.82,0,0,0,10,.64,26.71,26.71,0,0,0,5.65-.43A17.35,17.35,0,0,0,395,333.37,20.16,20.16,0,0,0,393.45,316.76ZM383,335.25a18.65,18.65,0,0,1-5.13,1.54q-3.57.65-7.18.95a14.6,14.6,0,0,1-4.07-.06l.28-22c5.42-1.13,11.42-2.17,16.21.61a11.28,11.28,0,0,1,5.56,9.54A10.77,10.77,0,0,1,383,335.25Z"/><path class="cls-9" d="M417.82,309l-9.24-.34s-.2,46.65-.31,57.12c0,1.36,9.15.6,9.82.6C418.09,366.36,418.42,327.81,417.82,309Z"/><path class="cls-7" d="M221.2,180.18A19.34,19.34,0,0,0,210,187.05a28.94,28.94,0,0,0-5.76,11.77A72.33,72.33,0,0,0,202.48,212a83.7,83.7,0,0,0-.06,13.24,81.91,81.91,0,0,0,1.89,12.84c.87,4.37,1.65,8.77,2.32,13.17,1.33,8.8,2.29,17.64,3.13,26.47s1.56,17.66,2.44,26.47,2.14,17.59,5,26l.07.21-.13-.18-1.19-1.58,1.24,1.54-.06,0c-3.12-8.32-4.7-17.13-5.92-25.91s-2.24-17.59-3.41-26.37-2.43-17.52-4.07-26.19q-1.23-6.49-2.77-12.92a85.58,85.58,0,0,1-2.45-13.35,86.7,86.7,0,0,1,1.06-13.78,73.91,73.91,0,0,1,2.85-13.45,30.41,30.41,0,0,1,6.92-11.88A19.87,19.87,0,0,1,221.2,180.18Z"/><path class="cls-7" d="M215.41,339.28c-5.73,23.85-8.17,48.2-11.71,72.48-2.26,12.06-4.76,24.06-7.34,36l-3.9,17.95-2,9c-.65,3-1.3,6-1.82,9a68.51,68.51,0,0,0-1,9,36.6,36.6,0,0,0,.75,8.93,28.12,28.12,0,0,0,9.21,15.07,36.71,36.71,0,0,0,16.1,8,56,56,0,0,0,18.21,1,56.35,56.35,0,0,1-18.32-.48A37.58,37.58,0,0,1,197,517.41a29.49,29.49,0,0,1-10-15.49,37.9,37.9,0,0,1-1-9.3,69.83,69.83,0,0,1,.78-9.27c.45-3.06,1-6.08,1.59-9.09l1.71-9,3.41-18c2.25-12,4.43-24.06,6.35-36.12C204.62,387.14,208.4,362.78,215.41,339.28Z"/><path class="cls-7" d="M239.57,525.12q41.54-.71,83-3c27.66-.52,55.3-1.62,82.95-3.14s55.37-2.78,83.05-1.59c-27.7-.53-55.33,1.48-82.92,3.57s-55.27,3.94-83,5.12Q281.1,526.43,239.57,525.12Z"/><path class="cls-7" d="M218.23,180.81q43.92-1,87.78-2.8,87.8-.63,175.56-4.58-87.63,5.88-175.48,8.54Q262.14,181.83,218.23,180.81Z"/><path class="cls-7" d="M481.59,172.07a2.69,2.69,0,0,0,2.52,1.05c.95,0,1.95-.16,2.94-.22a35,35,0,0,1,6.06,0,17.79,17.79,0,0,1,6.12,1.63,19.13,19.13,0,0,1,5.27,3.78,30.84,30.84,0,0,1,5.37,11.26,60.33,60.33,0,0,1,1.78,12A64.75,64.75,0,0,1,508.51,225a63.57,63.57,0,0,0,1.16-23.34A58.11,58.11,0,0,0,507,190.42a27.61,27.61,0,0,0-5.53-9.55,15,15,0,0,0-8.73-6.05,34.48,34.48,0,0,0-5.72-.93c-1-.11-2-.12-3-.27a4.69,4.69,0,0,1-1.46-.46A2,2,0,0,1,481.59,172.07Z"/><path class="cls-7" d="M508.81,226.6q-1.08,14.19-1.91,28.39-4.44,27.11-7.86,54.4l0,.19-.1-.16-.92-1.57,1,1.5-.12,0q1.53-27.47,4.06-54.9Q505.75,240.5,508.81,226.6Z"/><path class="cls-7" d="M501,318.17c6,25.61,12,51.24,19.15,76.51,3.09,12.75,6.45,25.44,10.26,38s8.39,25,10.21,38.24a69.18,69.18,0,0,1,.06,19.91,51.23,51.23,0,0,1-2.48,9.67,43.2,43.2,0,0,1-4.55,8.87,35,35,0,0,1-15,12.75,33.45,33.45,0,0,1-9.57,2.44c-3.28.4-6.57.48-9.85.56,3.28-.16,6.57-.33,9.82-.8a33.49,33.49,0,0,0,9.4-2.65,34.38,34.38,0,0,0,14.35-12.84,42.75,42.75,0,0,0,4.22-8.75,49.5,49.5,0,0,0,2.16-9.46,67.91,67.91,0,0,0-.54-19.41c-2.1-12.87-7-25.1-11.08-37.63s-7.85-25.18-11.28-37.91C510.4,370,505.69,344.05,501,318.17Z"/><path class="cls-3" d="M273.23,575.86c-64.75-.39-129.7.32-193.68,2.12,19.46,1,40.09.69,60.27.49,60.15-.58,120.53-.44,180.58.43"/><path class="cls-3" d="M457.83,570.4a357.85,357.85,0,0,1,68.35,4.23c-6.87,1.92-14.15,1.38-21.27,1a467.42,467.42,0,0,0-63.73.84"/><path class="cls-5" d="M405.91,85.55l1.79.61c.14.12.34.2.44.43a1.94,1.94,0,0,1,.12.51l.15.92.15.93a1.47,1.47,0,0,1,0,.47.31.31,0,0,1-.34.29.27.27,0,0,0,.27-.29,1.42,1.42,0,0,0-.11-.44l-.29-.89-.28-.89a1.86,1.86,0,0,0-.15-.38c0-.07-.17-.1-.27-.16Z"/><polygon class="cls-5" points="407.45 89.21 406.95 88.78 406.72 87.57 407.46 88.55 407.45 89.21"/><path class="cls-5" d="M402.26,87.41a10.36,10.36,0,0,1,1.63,1.46A2.66,2.66,0,0,0,405.52,90a5.32,5.32,0,0,0,1.05.15l.55,0h.27c.07,0,.22,0,.19-.1.05.1-.12.13-.19.13l-.27,0-.54.06a5.88,5.88,0,0,1-1.11,0,3.14,3.14,0,0,1-2-1A10,10,0,0,0,402.26,87.41Z"/><path class="cls-5" d="M403.14,84.15q.47.12.93.21a12.93,12.93,0,0,0,1.52,1,14.51,14.51,0,0,1-1.79-.51C403.57,84.63,403.35,84.39,403.14,84.15Z"/><path class="cls-5" d="M409.38,83.42a7,7,0,0,0,3.09,1.75A2.85,2.85,0,0,1,414,86.38a9.05,9.05,0,0,1,.53,1.79c.12.6.22,1.21.28,1.81,0,.31.06.61.07.92l0,.45a.45.45,0,0,1,0,.23c0,.1-.2,0-.12-.06s.09.14.11,0a.41.41,0,0,0,0-.22l-.05-.45c0-.3-.09-.6-.14-.89a17.52,17.52,0,0,0-.42-1.77,8.29,8.29,0,0,0-.62-1.65,2.39,2.39,0,0,0-1.36-.89A7.43,7.43,0,0,1,409.38,83.42Z"/><path class="cls-5" d="M409.33,87.46a11.83,11.83,0,0,0,2,.24l.45.1c.12,0,.34,0,.57.23a1.5,1.5,0,0,1,.2.52c0,.16.07.32.1.47a8.23,8.23,0,0,1,.13,1.91V91l0,0a.64.64,0,0,0-.25-.18.55.55,0,0,1,.28.15h0a7.53,7.53,0,0,0-.37-1.83c-.05-.15-.1-.29-.16-.43a1.61,1.61,0,0,0-.17-.35,1.22,1.22,0,0,0-.31,0l-.49,0A11.7,11.7,0,0,1,409.33,87.46Z"/><path class="cls-5" d="M409.22,90.81a2.11,2.11,0,0,0,1.06.47,3,3,0,0,0,1.13.16l1.24,0-1.22.24a3.32,3.32,0,0,1-1.32.1A2.36,2.36,0,0,1,409.22,90.81Z"/><path class="cls-5" d="M413.46,91.58a1.39,1.39,0,0,0,.33-.36,1.26,1.26,0,0,0,.78-.3,1.51,1.51,0,0,1-.57.82A1.48,1.48,0,0,1,413.46,91.58Z"/><path class="cls-10" d="M189.1,171.29a13,13,0,0,0,3.58,8.22l3.95-12c.18.58-29.1-11.73-29.1-11.73L183,173.4l9.58,6.29"/><path class="cls-11" d="M228.25,197.24a.15.15,0,0,0,0,.26.52.52,0,0,0,.28.13c.22,0,.32-.23.27-.42-.1-.4-.47-.66-.77-1-.63-.58-1.25-1.15-1.89-1.71q-1.9-1.7-3.88-3.3a117.91,117.91,0,0,0-16.33-12.1,118.16,118.16,0,0,1,16.7,11.67q1.9,1.73,3.7,3.52c.61.6,1.21,1.2,1.8,1.81a2.32,2.32,0,0,1,.74,1,.62.62,0,0,1-.05.33.28.28,0,0,1-.3.13.54.54,0,0,1-.29-.15A.16.16,0,0,1,228.25,197.24Z"/><path class="cls-12" d="M206.06,161.67l-10.31,7.61a89.91,89.91,0,0,0-20.18-9.93l15.57,12.54L176.56,179a2.62,2.62,0,0,1-1.57.38c-.77-.14-1.23-.9-1.6-1.59a167.12,167.12,0,0,0-19.34-28.49C170,152.2,206.06,161.67,206.06,161.67Z"/><path class="cls-6" d="M501.91,215c-.09-.17-4.1,30.35-4.1,30.35l94,15.27,6.25-29Z"/><polygon class="cls-5" points="504.36 215.2 535.41 220.34 597.4 231.22 535.34 220.74 504.36 215.2"/><polygon class="cls-5" points="597.64 234.96 595.99 243.2 592.08 259.55 595.59 243.11 597.64 234.96"/><path class="cls-5" d="M501.66,216.26q-.59,4.47-1.11,9-1.33,8.91-2.43,17.87.9-9,2-17.93C500.63,222.18,501.14,219.22,501.66,216.26Z"/><path class="cls-5" d="M498.3,245.23c10.5,1.22,21,2.58,31.44,4.15q31.32,5,62.24,12.13-30.94-6.92-62.3-11.73Q514,247.23,498.3,245.23Z"/><path class="cls-13" d="M509.24,237.75l-.51-.08-.16,1-.4-.06.16-1-1.65-.26,0-.27,2-2.1.44.07-.35,2.29.51.08Zm-.86-.47.18-1.14c0-.14.07-.37.13-.68h0l-.22.27-.16.19-1.11,1.17Z"/><path class="cls-13" d="M510,236.76a.31.31,0,0,1-.05-.25.29.29,0,0,1,.13-.23.25.25,0,0,1,.23-.06.27.27,0,0,1,.21.13.35.35,0,0,1,.06.25.38.38,0,0,1-.13.23.34.34,0,0,1-.24.06A.33.33,0,0,1,510,236.76Zm-.32,2.09a.31.31,0,0,1-.06-.25.38.38,0,0,1,.13-.23.34.34,0,0,1,.24-.06.36.36,0,0,1,.21.13.33.33,0,0,1,.05.26.32.32,0,0,1-.13.22.26.26,0,0,1-.24.06A.27.27,0,0,1,509.72,238.85Z"/><path class="cls-13" d="M511.25,238.68a2.82,2.82,0,0,1-.08-1.46,2.73,2.73,0,0,1,.52-1.35,1,1,0,0,1,1.7.27,2.63,2.63,0,0,1,.08,1.44,2.73,2.73,0,0,1-.52,1.36.94.94,0,0,1-.92.37A1,1,0,0,1,511.25,238.68Zm1.44,0a2.89,2.89,0,0,0,.38-1.14,2.73,2.73,0,0,0,0-1.2.6.6,0,0,0-.49-.46.6.6,0,0,0-.6.29,2.56,2.56,0,0,0-.38,1.14,2.76,2.76,0,0,0,0,1.2.6.6,0,0,0,.49.48A.62.62,0,0,0,512.69,238.66Z"/><path class="cls-13" d="M514.07,239.12a2.73,2.73,0,0,1-.08-1.46,2.65,2.65,0,0,1,.52-1.35,1,1,0,0,1,1.69.26,3.43,3.43,0,0,1-.43,2.81,1,1,0,0,1-.93.37A1,1,0,0,1,514.07,239.12Zm1.43,0a2.74,2.74,0,0,0,.38-1.15,2.71,2.71,0,0,0,0-1.19.63.63,0,0,0-.49-.47.64.64,0,0,0-.61.3,3.54,3.54,0,0,0-.36,2.34.58.58,0,0,0,1.09.17Z"/><path class="cls-13" d="M517.18,237.19l.34.06v.34h0a1.43,1.43,0,0,1,1-.26,1,1,0,0,1,.76.5,1.72,1.72,0,0,1,.12,1.08,1.66,1.66,0,0,1-.29.77,1.26,1.26,0,0,1-.52.46,1.11,1.11,0,0,1-.62.09,1.32,1.32,0,0,1-.74-.45l-.07.49-.14,1-.42-.07Zm1.19,2.6a1,1,0,0,0,.36-.35,1.53,1.53,0,0,0,.2-.59,1.4,1.4,0,0,0-.06-.81.65.65,0,0,0-.54-.37,1.18,1.18,0,0,0-.84.28l-.24,1.5a1.5,1.5,0,0,0,.34.29,1.1,1.1,0,0,0,.33.12A.77.77,0,0,0,518.37,239.79Z"/><path class="cls-13" d="M520.34,237.69l.34.05,0,.42h0a1.24,1.24,0,0,1,.94-.35.74.74,0,0,1,.68.66,2.49,2.49,0,0,1,.53-.33.9.9,0,0,1,.48-.07c.56.09.79.5.67,1.22l-.27,1.76-.42-.06.27-1.72a1,1,0,0,0,0-.6.48.48,0,0,0-.39-.25,1.1,1.1,0,0,0-.79.34l-.32,2-.42-.07.27-1.71a1,1,0,0,0,0-.6.48.48,0,0,0-.38-.25,1.13,1.13,0,0,0-.8.33l-.32,2-.41-.07Z"/><path class="cls-13" d="M526.06,241.25a1.11,1.11,0,0,1-.08-.7l.25-1.6-.42-.06.05-.32.44,0,.17-.78.35.06-.12.78.76.12-.05.34-.76-.11-.25,1.61a.62.62,0,0,0,0,.42.37.37,0,0,0,.31.19.83.83,0,0,0,.34,0l0,.33a1.84,1.84,0,0,1-.51,0A.68.68,0,0,1,526.06,241.25Z"/><path class="cls-13" d="M528,241.62a1.25,1.25,0,0,1-.39-.58,1.63,1.63,0,0,1,0-.8,1.66,1.66,0,0,1,.29-.76,1.28,1.28,0,0,1,.55-.43,1.24,1.24,0,0,1,.66-.08,1.26,1.26,0,0,1,1,.86,1.63,1.63,0,0,1,0,.8,1.69,1.69,0,0,1-.29.75,1.32,1.32,0,0,1-.55.43,1.24,1.24,0,0,1-.66.08A1.35,1.35,0,0,1,528,241.62Zm1.12-.15a1,1,0,0,0,.36-.34,1.44,1.44,0,0,0,.2-.56,1.49,1.49,0,0,0,0-.6.86.86,0,0,0-.24-.44.77.77,0,0,0-.41-.21.72.72,0,0,0-.46.08.84.84,0,0,0-.36.34,1.62,1.62,0,0,0-.2.56,1.32,1.32,0,0,0,.11.84.75.75,0,0,0,.56.4A.72.72,0,0,0,529.16,241.47Z"/><path class="cls-13" d="M532,242.27a2.08,2.08,0,0,1-.45-.44l.25-.24a1.85,1.85,0,0,0,.37.37,1.12,1.12,0,0,0,.51.2.78.78,0,0,0,.43,0,.81.81,0,0,0,.35-.26,1,1,0,0,0,.18-.43.83.83,0,0,0-.13-.65.75.75,0,0,0-.54-.31,1,1,0,0,0-.34,0,1.56,1.56,0,0,0-.34.12l-.21-.18.39-1.73,1.8.28-.06.36-1.43-.22-.28,1.12a2.11,2.11,0,0,1,.3-.07,1.07,1.07,0,0,1,.31,0,1.18,1.18,0,0,1,.77.42,1.1,1.1,0,0,1,.18.9,1.29,1.29,0,0,1-.27.64,1.14,1.14,0,0,1-.51.36,1.19,1.19,0,0,1-.62,0A1.57,1.57,0,0,1,532,242.27Z"/><path class="cls-13" d="M535,240.63a.34.34,0,0,1-.06-.26.36.36,0,0,1,.13-.22.26.26,0,0,1,.24-.06.28.28,0,0,1,.21.12.33.33,0,1,1-.52.42Zm-.33,2.09a.3.3,0,0,1,0-.25.29.29,0,0,1,.13-.23.32.32,0,0,1,.23-.06.33.33,0,0,1,.21.13.38.38,0,0,1,.06.26.36.36,0,0,1-.13.22.32.32,0,0,1-.45-.07Z"/><path class="cls-13" d="M536.18,242.55a2.73,2.73,0,0,1-.08-1.46,2.64,2.64,0,0,1,.52-1.35,1,1,0,0,1,1.69.27,2.72,2.72,0,0,1,.09,1.44,2.82,2.82,0,0,1-.52,1.36,1,1,0,0,1-.93.37A1,1,0,0,1,536.18,242.55Zm1.43,0a2.74,2.74,0,0,0,.38-1.14,2.57,2.57,0,0,0,0-1.2.62.62,0,0,0-.48-.47.63.63,0,0,0-.61.3,2.64,2.64,0,0,0-.38,1.14,2.73,2.73,0,0,0,0,1.2.62.62,0,0,0,.48.48A.61.61,0,0,0,537.61,242.53Z"/><path class="cls-13" d="M539,243a2.82,2.82,0,0,1-.09-1.46,2.74,2.74,0,0,1,.52-1.35,1,1,0,0,1,.93-.36,1,1,0,0,1,.77.62,3.38,3.38,0,0,1-.44,2.81A1,1,0,0,1,539,243Zm1.43,0a2.74,2.74,0,0,0,.38-1.15,2.68,2.68,0,0,0,0-1.19.59.59,0,0,0-1.09-.17,2.64,2.64,0,0,0-.38,1.13,2.8,2.8,0,0,0,0,1.21.64.64,0,0,0,.49.48A.63.63,0,0,0,540.43,243Z"/><path class="cls-13" d="M542.1,241.06l.35.06,0,.33h0a1.4,1.4,0,0,1,1-.26,1,1,0,0,1,.76.5,1.71,1.71,0,0,1,.12,1.08,1.77,1.77,0,0,1-.29.77,1.41,1.41,0,0,1-.52.46,1,1,0,0,1-.63.08,1.27,1.27,0,0,1-.74-.45l-.06.5-.15,1-.41-.07Zm1.19,2.59a.88.88,0,0,0,.37-.35,1.59,1.59,0,0,0,.2-.58,1.4,1.4,0,0,0-.07-.81.66.66,0,0,0-.53-.38,1.29,1.29,0,0,0-.85.28l-.23,1.5a1.23,1.23,0,0,0,.33.29,1.07,1.07,0,0,0,.33.13A.7.7,0,0,0,543.29,243.65Z"/><path class="cls-13" d="M545.27,241.55l.34.06,0,.41h0a1.23,1.23,0,0,1,.94-.35.74.74,0,0,1,.68.66,2.27,2.27,0,0,1,.53-.33.9.9,0,0,1,.48-.07c.56.09.78.49.67,1.22l-.28,1.76-.41-.07.26-1.71a1,1,0,0,0,0-.6.46.46,0,0,0-.38-.25,1.14,1.14,0,0,0-.8.33l-.31,2-.42-.07.26-1.71a1,1,0,0,0,0-.6.46.46,0,0,0-.38-.25,1.16,1.16,0,0,0-.8.33l-.31,2-.42-.06Z"/><path class="cls-5" d="M509.17,224.28l-1.19-.22.14-.75,3.28.61-.14.75-1.19-.22-.66,3.52-.9-.17Z"/><path class="cls-5" d="M511.2,228a1.68,1.68,0,0,1-.07-1l.38-2,.89.16-.36,1.91a1,1,0,0,0,0,.52.42.42,0,0,0,.31.21.63.63,0,0,0,.34,0,1.22,1.22,0,0,0,.35-.24l.41-2.17.89.17-.6,3.24-.73-.14,0-.47h0a1.87,1.87,0,0,1-.54.31,1.13,1.13,0,0,1-.58,0A.88.88,0,0,1,511.2,228Z"/><path class="cls-5" d="M517.53,228.07l-2-.37a.89.89,0,0,0,.21.63,1,1,0,0,0,.55.29,1.45,1.45,0,0,0,.76-.08l.2.6a1.91,1.91,0,0,1-.59.16,2.07,2.07,0,0,1-.61,0,1.74,1.74,0,0,1-.79-.36,1.52,1.52,0,0,1-.48-.7,2,2,0,0,1,0-.94,1.83,1.83,0,0,1,.38-.86,1.6,1.6,0,0,1,.67-.49,1.4,1.4,0,0,1,.78-.07,1.25,1.25,0,0,1,.93.62,1.7,1.7,0,0,1,.15,1.18A1.47,1.47,0,0,1,517.53,228.07Zm-.61-.73a.8.8,0,0,0,0-.52.55.55,0,0,0-.41-.26.63.63,0,0,0-.46.09.91.91,0,0,0-.35.46Z"/><path class="cls-5" d="M519.21,229.26l1.23-.83a4.93,4.93,0,0,0,.7-.61,1.21,1.21,0,0,0,.34-.59.72.72,0,0,0-.08-.51.65.65,0,0,0-.42-.26.77.77,0,0,0-.42,0,1.8,1.8,0,0,0-.42.24l-.41-.57a2.7,2.7,0,0,1,.73-.38,1.65,1.65,0,0,1,.77,0,1.36,1.36,0,0,1,.92.54,1.26,1.26,0,0,1,.19,1,1.83,1.83,0,0,1-.54.94,11.76,11.76,0,0,1-1.27,1,4.8,4.8,0,0,1,.71.08l.9.17-.14.75-2.89-.54Z"/><path class="cls-5" d="M522.53,229.89l.52-.49a1.36,1.36,0,0,0,.84.59.78.78,0,0,0,.57-.08.7.7,0,0,0,.29-.48.69.69,0,0,0-.09-.54.71.71,0,0,0-.47-.28,1.18,1.18,0,0,0-.32,0,1.45,1.45,0,0,0-.35.12l-.36-.34.51-2.07,2.31.43-.14.76-1.54-.29-.23.84a1.27,1.27,0,0,1,.51,0,1.38,1.38,0,0,1,.88.51,1.22,1.22,0,0,1,.19,1,1.39,1.39,0,0,1-.35.74,1.42,1.42,0,0,1-.64.4,1.71,1.71,0,0,1-.78,0A2,2,0,0,1,522.53,229.89Z"/><path class="cls-5" d="M528.33,227.07l1,.18.35,2.1c0,.2.06.39.07.56l0,.29h0l.19-.35a3.74,3.74,0,0,1,.22-.4l1.06-1.84,1,.18-.8,4.28-.82-.15.32-1.7a10.56,10.56,0,0,1,.3-1.15l.07-.25h0l-.54.93-.95,1.62-.51-.09-.32-1.86-.15-1.06h0l0,.26c0,.55-.09.95-.13,1.18l-.31,1.7-.81-.15Z"/><path class="cls-5" d="M532.57,232.07a1,1,0,0,1-.14-.74.91.91,0,0,1,.59-.72,3.33,3.33,0,0,1,1.48-.13.48.48,0,0,0-.44-.62,1,1,0,0,0-.43,0,3.23,3.23,0,0,0-.5.14l-.21-.65a2.54,2.54,0,0,1,1.44-.17,1.19,1.19,0,0,1,.88.53,1.64,1.64,0,0,1,.12,1.15l-.35,1.87-.73-.14v-.35h0a1.49,1.49,0,0,1-1,.24A1,1,0,0,1,532.57,232.07Zm1.38-.25a1.74,1.74,0,0,0,.33-.17l.12-.63a2.14,2.14,0,0,0-.8.08.44.44,0,0,0-.3.32.31.31,0,0,0,.06.27.45.45,0,0,0,.28.15A.65.65,0,0,0,534,231.82Z"/><path class="cls-5" d="M535.49,234.09l.29-.66a1.44,1.44,0,0,0,.21.09.61.61,0,0,0,.68-.37l.09-.17-.67-3.4.9.17.22,1.55a6.21,6.21,0,0,1,.07.64c0,.12,0,.23,0,.32h0c.1-.24.23-.53.4-.88l.69-1.38.86.16-1.75,3.1a2.66,2.66,0,0,1-.72.83,1.19,1.19,0,0,1-.89.13A1.33,1.33,0,0,1,535.49,234.09Z"/><path class="cls-5" d="M540.42,233.2c.54-.35,1-.62,1.23-.83a3.93,3.93,0,0,0,.7-.61,1.22,1.22,0,0,0,.34-.58.69.69,0,0,0-.08-.52.58.58,0,0,0-.42-.25.76.76,0,0,0-.42,0,2.11,2.11,0,0,0-.42.25l-.4-.58a2.52,2.52,0,0,1,.72-.38,1.79,1.79,0,0,1,.77,0,1.43,1.43,0,0,1,.92.54,1.32,1.32,0,0,1,.2,1,1.81,1.81,0,0,1-.55.94,11.32,11.32,0,0,1-1.26,1,7,7,0,0,1,.71.08l.89.17-.14.75-2.88-.53Z"/><path class="cls-5" d="M544.47,234.31a1.63,1.63,0,0,1-.37-.84,3.41,3.41,0,0,1,0-1.22,2.77,2.77,0,0,1,.69-1.51,1.33,1.33,0,0,1,2.14.4,2.77,2.77,0,0,1,.1,1.66,3.69,3.69,0,0,1-.4,1.15,1.69,1.69,0,0,1-.65.65,1.33,1.33,0,0,1-.82.11A1.32,1.32,0,0,1,544.47,234.31Zm1.38-.55a3,3,0,0,0,.37-1.12,2.74,2.74,0,0,0,0-1.15.5.5,0,0,0-.39-.41.51.51,0,0,0-.52.23,2.8,2.8,0,0,0-.37,1.1,2.88,2.88,0,0,0,0,1.18q.1.38.39.42A.52.52,0,0,0,545.85,233.76Z"/><path class="cls-5" d="M547.32,234.27l.92.17.47-2.52-.78-.14.11-.56a3.37,3.37,0,0,0,.58,0,2.11,2.11,0,0,0,.49-.14l.66.13-.63,3.43.79.15-.14.73-2.6-.49Z"/><path class="cls-5" d="M551,235.64a1.39,1.39,0,0,1-.44-.5,1,1,0,0,1-.07-.63,1.18,1.18,0,0,1,.91-.9v0a1.2,1.2,0,0,1-.39-1.08,1.08,1.08,0,0,1,.52-.76,1.46,1.46,0,0,1,1-.13,1.31,1.31,0,0,1,.85.48,1.05,1.05,0,0,1,.19.89.92.92,0,0,1-.25.49,1.38,1.38,0,0,1-.47.33v0a1.48,1.48,0,0,1,.44.54,1.09,1.09,0,0,1,.08.68,1,1,0,0,1-.3.55,1.24,1.24,0,0,1-.59.31,1.85,1.85,0,0,1-.78,0A1.79,1.79,0,0,1,551,235.64Zm1.3-.41a.49.49,0,0,0,.24-.37.45.45,0,0,0-.05-.34,1,1,0,0,0-.24-.27l-.48-.33a1,1,0,0,0-.32.27.74.74,0,0,0-.17.37.55.55,0,0,0,.11.48.78.78,0,0,0,.46.26A.61.61,0,0,0,552.34,235.23Zm.54-2.33a.59.59,0,0,0-.07-.44.55.55,0,0,0-.74-.16.5.5,0,0,0-.21.35.47.47,0,0,0,.11.44,2.18,2.18,0,0,0,.51.41A1,1,0,0,0,552.88,232.9Z"/><circle class="cls-14" cx="569.43" cy="236.73" r="3.31"/><path class="cls-6" d="M525.45,150.22c-.13-.27-2.49,45.71-2.49,45.71l144.46,18.12,8.09-45.5Z"/><path class="cls-13" d="M538.22,183.75l-.79-.1-.19,1.61-.61-.08.19-1.6-2.57-.3,0-.42,2.92-3.37.69.08-.42,3.57.8.09Zm-1.34-.69.21-1.76c0-.22.08-.58.17-1.06h0a5.45,5.45,0,0,1-.33.44l-.22.29L535,182.84Z"/><path class="cls-13" d="M539.41,182.17a.57.57,0,0,1-.1-.39.53.53,0,0,1,.19-.36.5.5,0,0,1,.37-.11.51.51,0,0,1,.33.19.54.54,0,0,1,.09.4.5.5,0,0,1-.18.35.5.5,0,0,1-.37.11A.51.51,0,0,1,539.41,182.17Zm-.38,3.26a.49.49,0,0,1-.1-.39.53.53,0,0,1,.19-.36.46.46,0,0,1,.36-.11.47.47,0,0,1,.33.19.54.54,0,0,1,.1.4.51.51,0,0,1-.19.35.48.48,0,0,1-.69-.08Z"/><path class="cls-13" d="M541.4,185.07a4.32,4.32,0,0,1-.21-2.25,4.05,4.05,0,0,1,.73-2.11,1.53,1.53,0,0,1,2.63.31,4.11,4.11,0,0,1,.22,2.23,4.29,4.29,0,0,1-.73,2.13,1.52,1.52,0,0,1-2.64-.31Zm2.21-.1a4.38,4.38,0,0,0,.53-1.8,4.18,4.18,0,0,0-.1-1.85.91.91,0,0,0-1.7-.2,4.24,4.24,0,0,0-.52,1.78,4.18,4.18,0,0,0,.09,1.87,1,1,0,0,0,.78.71A1,1,0,0,0,543.61,185Z"/><path class="cls-13" d="M545.78,185.59a4.33,4.33,0,0,1-.21-2.25,4.12,4.12,0,0,1,.73-2.12,1.5,1.5,0,0,1,1.4-.6,1.48,1.48,0,0,1,1.23.91,4.14,4.14,0,0,1,.22,2.23,4.3,4.3,0,0,1-.73,2.14,1.52,1.52,0,0,1-2.64-.31Zm2.21-.11a5.47,5.47,0,0,0,.43-3.64.91.91,0,0,0-1.7-.2,4.19,4.19,0,0,0-.52,1.78,4.43,4.43,0,0,0,.09,1.86,1,1,0,0,0,.78.71A.92.92,0,0,0,548,185.48Z"/><path class="cls-13" d="M550.48,182.44l.53.06V183h0a2.3,2.3,0,0,1,1.48-.46,1.48,1.48,0,0,1,1.19.74A2.64,2.64,0,0,1,554,185a2.75,2.75,0,0,1-.41,1.21,1.87,1.87,0,0,1-.78.73,1.71,1.71,0,0,1-1,.18,2.07,2.07,0,0,1-1.17-.66l-.07.77-.18,1.49-.64-.08Zm2,3.94a1.53,1.53,0,0,0,.54-.56,2.69,2.69,0,0,0,.28-.92,2.22,2.22,0,0,0-.15-1.25,1,1,0,0,0-.85-.55,2,2,0,0,0-1.29.48l-.28,2.34a2.08,2.08,0,0,0,.54.43,1.61,1.61,0,0,0,.51.17A1.14,1.14,0,0,0,552.47,186.38Z"/><path class="cls-13" d="M555.4,183l.53.06,0,.65h0a2,2,0,0,1,1.44-.59,1.15,1.15,0,0,1,1.09,1,4,4,0,0,1,.8-.54,1.49,1.49,0,0,1,.74-.13c.87.11,1.24.72,1.11,1.84l-.33,2.75-.65-.08.32-2.66a1.64,1.64,0,0,0-.1-.94.78.78,0,0,0-.61-.36,1.7,1.7,0,0,0-1.21.56l-.37,3.17-.65-.08.31-2.66a1.62,1.62,0,0,0-.1-.93.73.73,0,0,0-.6-.37,1.73,1.73,0,0,0-1.22.56l-.37,3.17-.64-.08Z"/><path class="cls-13" d="M564.44,188.21a1.72,1.72,0,0,1-.16-1.08l.3-2.48-.65-.08.06-.49.68,0,.22-1.21.55.07-.15,1.22,1.19.14-.07.53-1.18-.14-.3,2.51a1.15,1.15,0,0,0,.08.65.62.62,0,0,0,.51.28,1.28,1.28,0,0,0,.51-.06l.08.51a2.74,2.74,0,0,1-.8.07A1.07,1.07,0,0,1,564.44,188.21Z"/><path class="cls-13" d="M567.53,188.66a1.86,1.86,0,0,1-.64-.86,2.82,2.82,0,0,1,.29-2.42,1.92,1.92,0,0,1,.82-.71,2,2,0,0,1,1-.15,1.86,1.86,0,0,1,1,.39,1.89,1.89,0,0,1,.64.87,2.67,2.67,0,0,1,.13,1.25,2.63,2.63,0,0,1-.42,1.17,1.91,1.91,0,0,1-1.84.85A1.86,1.86,0,0,1,567.53,188.66Zm1.72-.28a1.43,1.43,0,0,0,.54-.55,2.22,2.22,0,0,0,.28-.88A2.12,2.12,0,0,0,570,186a1.44,1.44,0,0,0-.39-.67,1.17,1.17,0,0,0-1.36-.16,1.39,1.39,0,0,0-.54.56,2.28,2.28,0,0,0-.27.88,2,2,0,0,0,.22,1.29,1.15,1.15,0,0,0,.89.58A1.12,1.12,0,0,0,569.25,188.38Z"/><path class="cls-13" d="M573.7,189.45a3,3,0,0,1-.72-.65l.38-.39a2.82,2.82,0,0,0,.59.56,1.89,1.89,0,0,0,.8.27,1.28,1.28,0,0,0,.67-.09,1.25,1.25,0,0,0,.52-.42,1.5,1.5,0,0,0,.25-.69,1.29,1.29,0,0,0-.23-1,1.24,1.24,0,0,0-.87-.46,1.69,1.69,0,0,0-.51,0,2.57,2.57,0,0,0-.52.21l-.33-.26.5-2.7,2.79.33-.06.56-2.22-.26-.37,1.75a2.13,2.13,0,0,1,.46-.13,1.52,1.52,0,0,1,.48,0,1.81,1.81,0,0,1,1.21.6,1.73,1.73,0,0,1,.33,1.39,2,2,0,0,1-.38,1,1.81,1.81,0,0,1-.78.59,1.94,1.94,0,0,1-1,.12A2.41,2.41,0,0,1,573.7,189.45Z"/><path class="cls-13" d="M578.18,186.74a.55.55,0,0,1-.1-.38.53.53,0,0,1,.19-.36.46.46,0,0,1,.37-.11.51.51,0,0,1,.33.19.59.59,0,0,1-.09.75.49.49,0,0,1-.37.1A.47.47,0,0,1,578.18,186.74ZM577.8,190a.5.5,0,0,1-.1-.38.49.49,0,0,1,.19-.36.43.43,0,0,1,.36-.11.47.47,0,0,1,.33.19.53.53,0,0,1,.1.39.53.53,0,0,1-.19.36.45.45,0,0,1-.36.1A.44.44,0,0,1,577.8,190Z"/><path class="cls-13" d="M580.17,189.65a4.34,4.34,0,0,1-.21-2.25,4.12,4.12,0,0,1,.73-2.12,1.46,1.46,0,0,1,1.4-.6,1.48,1.48,0,0,1,1.23.91,4.14,4.14,0,0,1,.22,2.23,4.3,4.3,0,0,1-.73,2.14,1.5,1.5,0,0,1-1.41.62A1.48,1.48,0,0,1,580.17,189.65Zm2.21-.11a4.32,4.32,0,0,0,.53-1.79,4.17,4.17,0,0,0-.1-1.85.91.91,0,0,0-1.7-.2,5.59,5.59,0,0,0-.43,3.64.9.9,0,0,0,1.7.2Z"/><path class="cls-13" d="M584.55,190.16a4.29,4.29,0,0,1-.21-2.24,4.09,4.09,0,0,1,.73-2.12,1.53,1.53,0,0,1,2.63.31,4.13,4.13,0,0,1,.22,2.23,4.26,4.26,0,0,1-.73,2.13,1.48,1.48,0,0,1-1.41.62A1.46,1.46,0,0,1,584.55,190.16Zm2.21-.1a5.47,5.47,0,0,0,.43-3.64.91.91,0,0,0-1.7-.2A4.19,4.19,0,0,0,585,188a4.47,4.47,0,0,0,.09,1.87.9.9,0,0,0,1.7.2Z"/><path class="cls-13" d="M589.25,187l.53.06v.52h0a2.34,2.34,0,0,1,1.47-.45,1.46,1.46,0,0,1,1.2.74,2.7,2.7,0,0,1,.26,1.66,2.94,2.94,0,0,1-.41,1.21,1.94,1.94,0,0,1-.78.73,1.7,1.7,0,0,1-1,.17,2,2,0,0,1-1.17-.65l-.07.77-.18,1.48-.64-.07Zm2,3.94a1.49,1.49,0,0,0,.54-.57,2.63,2.63,0,0,0,.28-.91,2.19,2.19,0,0,0-.15-1.25,1,1,0,0,0-.85-.55,2,2,0,0,0-1.3.48l-.27,2.33a1.86,1.86,0,0,0,.53.43,1.54,1.54,0,0,0,.52.18A1.14,1.14,0,0,0,591.24,191Z"/><path class="cls-13" d="M594.17,187.6l.53.06,0,.65h0a1.92,1.92,0,0,1,1.44-.59,1.15,1.15,0,0,1,1.09,1,3.41,3.41,0,0,1,.8-.54,1.3,1.3,0,0,1,.74-.13c.87.1,1.24.72,1.11,1.84l-.33,2.74-.65-.08.32-2.66a1.62,1.62,0,0,0-.1-.93.74.74,0,0,0-.61-.36,1.7,1.7,0,0,0-1.21.56l-.38,3.16-.65-.08.32-2.66a1.62,1.62,0,0,0-.1-.93.7.7,0,0,0-.6-.36,1.73,1.73,0,0,0-1.22.56L594.3,192l-.64-.07Z"/><polygon class="cls-5" points="525.46 150.22 524.88 157.79 522.81 172.83 524.26 157.72 525.46 150.22"/><path class="cls-5" d="M536.12,162.49l1.54.23.65,3.22c.06.31.11.6.14.88l.08.43h0l.27-.55c.16-.36.26-.57.31-.65l1.53-2.89,1.54.22-1,6.66-1.28-.19.39-2.64c.06-.37.19-1,.41-1.79l.09-.39h0l-.77,1.48-1.39,2.55-.79-.11-.59-2.85-.3-1.64h0l0,.41a16.25,16.25,0,0,1-.14,1.83l-.39,2.64-1.25-.18Z"/><path class="cls-5" d="M543.69,170.22a2.38,2.38,0,0,1-.76-1.05,2.82,2.82,0,0,1-.13-1.46,2.86,2.86,0,0,1,.55-1.37,2.36,2.36,0,0,1,1-.78,2.42,2.42,0,0,1,1.25-.14,2.47,2.47,0,0,1,1.16.5,2.35,2.35,0,0,1,.76,1.05,2.94,2.94,0,0,1,.12,1.46,2.81,2.81,0,0,1-.54,1.36,2.39,2.39,0,0,1-1,.79,2.44,2.44,0,0,1-1.25.13A2.37,2.37,0,0,1,543.69,170.22Zm2.13-.93a2,2,0,0,0,.43-1.07,2.1,2.1,0,0,0-.1-1.15.87.87,0,0,0-.69-.52.85.85,0,0,0-.81.3,2.11,2.11,0,0,0-.42,1.07,2,2,0,0,0,.1,1.15.84.84,0,0,0,.68.51A.86.86,0,0,0,545.82,169.29Z"/><path class="cls-5" d="M549.12,166.06l1.13.17v.67h0a3.18,3.18,0,0,1,.84-.46,1.93,1.93,0,0,1,.9-.08,1.37,1.37,0,0,1,1.1.7,2.48,2.48,0,0,1,.16,1.56l-.46,3.14-1.4-.2.44-3a1.45,1.45,0,0,0,0-.81.6.6,0,0,0-.48-.3,1,1,0,0,0-.52,0,2.77,2.77,0,0,0-.57.33l-.51,3.45-1.39-.21Z"/><path class="cls-5" d="M556,171.42q1.22-.85,1.86-1.35a7.23,7.23,0,0,0,1-1,1.81,1.81,0,0,0,.48-.93,1,1,0,0,0-.14-.78.94.94,0,0,0-.67-.38,1.18,1.18,0,0,0-.64.09,3.11,3.11,0,0,0-.64.41l-.66-.87a3.54,3.54,0,0,1,1.1-.62,2.46,2.46,0,0,1,1.19-.08,2.1,2.1,0,0,1,1.45.78,2,2,0,0,1,.36,1.57,2.77,2.77,0,0,1-.79,1.48,15.68,15.68,0,0,1-1.89,1.66,8.9,8.9,0,0,1,1.1.09l1.4.21-.18,1.17-4.49-.66Z"/><path class="cls-5" d="M566.16,172.12l-.77-.11-.24,1.59-1.29-.19.23-1.59-2.82-.42.14-1,3-3.57,1.68.25-.56,3.83.77.11Zm-1.91-1.36.18-1.2c0-.28.13-.75.26-1.41h0l-.57.81-.12.17-1.19,1.41Z"/><path class="cls-5" d="M570,167.52l1.54.22.66,3.23c.06.3.11.6.14.87l.07.44h0l.27-.56c.17-.35.27-.56.32-.64l1.53-2.9,1.54.23-1,6.66-1.27-.19.39-2.64c.06-.37.19-1,.4-1.8l.1-.39h0l-.77,1.48-1.39,2.55-.8-.12-.58-2.84-.3-1.64h0l0,.4c0,.85-.08,1.47-.14,1.84l-.39,2.64-1.25-.19Z"/><path class="cls-5" d="M576.83,175a1.55,1.55,0,0,1-.25-1.14,1.43,1.43,0,0,1,.87-1.15,5.24,5.24,0,0,1,2.28-.28.75.75,0,0,0-.71-.94,1.86,1.86,0,0,0-.66,0,5.1,5.1,0,0,0-.77.24l-.36-1a4,4,0,0,1,2.22-.35,1.88,1.88,0,0,1,1.38.78,2.51,2.51,0,0,1,.25,1.76l-.43,2.92-1.14-.17,0-.55h0a2.34,2.34,0,0,1-1.59.43A1.48,1.48,0,0,1,576.83,175Zm2.13-.47a2.05,2.05,0,0,0,.5-.29l.15-1a3.06,3.06,0,0,0-1.24.16.66.66,0,0,0-.44.5.51.51,0,0,0,.11.43.68.68,0,0,0,.44.21A1,1,0,0,0,579,174.55Z"/><path class="cls-5" d="M581.47,178l.41-1a1.4,1.4,0,0,0,.34.12.92.92,0,0,0,1-.6l.13-.27L582.14,171l1.41.21.43,2.39c0,.25.09.58.14,1,0,.19,0,.36.06.5h0c.15-.37.34-.83.57-1.37l1-2.18,1.34.2-2.54,4.9a4,4,0,0,1-1.06,1.31,1.8,1.8,0,0,1-1.38.26A2.23,2.23,0,0,1,581.47,178Z"/><path class="cls-5" d="M589.05,176.32c.8-.57,1.42-1,1.85-1.35a6.74,6.74,0,0,0,1.05-1,1.92,1.92,0,0,0,.49-.93,1,1,0,0,0-.15-.78.94.94,0,0,0-.67-.38,1.18,1.18,0,0,0-.64.09,3.11,3.11,0,0,0-.64.41l-.66-.87a3.54,3.54,0,0,1,1.1-.62,2.5,2.5,0,0,1,1.2-.08,2.1,2.1,0,0,1,1.44.78,2,2,0,0,1,.36,1.57,2.77,2.77,0,0,1-.79,1.48,14.93,14.93,0,0,1-1.89,1.66,8.9,8.9,0,0,1,1.1.09l1.4.21-.18,1.17-4.49-.66Z"/><path class="cls-5" d="M595.37,177.81a2.57,2.57,0,0,1-.62-1.28,5.6,5.6,0,0,1,0-1.88,4.34,4.34,0,0,1,1-2.39,2,2,0,0,1,1.8-.61,2,2,0,0,1,1.54,1.11,4.29,4.29,0,0,1,.24,2.56,5.54,5.54,0,0,1-.55,1.8,2.52,2.52,0,0,1-1,1,1.86,1.86,0,0,1-1.26.22A2,2,0,0,1,595.37,177.81Zm2.1-.93a4.67,4.67,0,0,0,.52-1.75,4.33,4.33,0,0,0,0-1.79.8.8,0,0,0-.63-.61.79.79,0,0,0-.78.4,4.17,4.17,0,0,0-.51,1.71,4.4,4.4,0,0,0,0,1.83.8.8,0,0,0,.62.63A.82.82,0,0,0,597.47,176.88Z"/><path class="cls-5" d="M599.78,177.58l1.43.21.58-3.91-1.21-.18.13-.87a5.7,5.7,0,0,0,.9-.09,4.22,4.22,0,0,0,.76-.25l1,.16-.8,5.35,1.24.18-.17,1.13-4.06-.6Z"/><path class="cls-5" d="M605.61,179.49a2,2,0,0,1-.71-.75,1.58,1.58,0,0,1-.15-1,1.82,1.82,0,0,1,1.36-1.45v0a1.9,1.9,0,0,1-.66-1.65,1.6,1.6,0,0,1,.77-1.2,2.19,2.19,0,0,1,1.54-.27,2.1,2.1,0,0,1,1.34.69,1.68,1.68,0,0,1,.34,1.37,1.41,1.41,0,0,1-.36.78,2.13,2.13,0,0,1-.71.53v0a2.8,2.8,0,0,1,.71.81,1.71,1.71,0,0,1-.26,1.92,1.92,1.92,0,0,1-.9.52,3,3,0,0,1-2.32-.34Zm2-.7a.8.8,0,0,0,.35-.59.78.78,0,0,0-.1-.52,1.38,1.38,0,0,0-.4-.4c-.16-.12-.41-.28-.75-.49a1.84,1.84,0,0,0-.48.44,1.29,1.29,0,0,0-.24.57.85.85,0,0,0,.2.74,1.13,1.13,0,0,0,.71.38A1,1,0,0,0,607.6,178.79Zm.7-3.63a1,1,0,0,0-.13-.69.83.83,0,0,0-.58-.33.77.77,0,0,0-.58.13.78.78,0,0,0-.31.55.77.77,0,0,0,.2.67,3.51,3.51,0,0,0,.81.61A1.57,1.57,0,0,0,608.3,175.16Z"/><path class="cls-5" d="M527.53,149.33q19.2,2.21,38.38,4.64c25.53,3.53,51,7.22,76.58,10.64-25.57-3.22-51.11-6.69-76.66-10Q546.69,151.86,527.53,149.33Z"/><path class="cls-5" d="M660.67,166.33c1.83.28,3.66.56,5.49.81q5,1.11,10,2.05h.06l-.05,0-.71.56.68-.6v.05c-3.36-.44-6.73-.93-10.08-1.49Q663.34,167.06,660.67,166.33Z"/><path class="cls-5" d="M672.11,189.16l-1.28,8.05-1.74,8-.87,4-.44,2-.22,1c0,.15-.12.35-.31.38s-.17-.09-.16-.17a.2.2,0,0,1,0-.13s.08,0,.11,0-.15.05-.14.13.06.17.14.15.25-.22.29-.37l.18-1,.36-2,.71-4,1.43-8Z"/><polygon class="cls-5" points="523.18 182.51 523.04 195.93 522.97 195.85 558.75 200.02 656.88 212.41 558.67 200.64 522.95 196.01 522.87 196 522.87 195.93 523.18 182.51"/><circle class="cls-15" cx="632.06" cy="177.97" r="5.12"/><circle class="cls-14" cx="645.71" cy="180.17" r="5.12"/><path class="cls-6" d="M514.27,73.3c-.21-.3-.5,61.9-.5,61.9L693,133.54l3.34-56.46Z"/><path class="cls-5" d="M696.36,77.41q-40.61-1.27-81.21-2.06Q564.72,74,514.27,73.45l.15-.14q-.92,15.36-1.23,30.76a272.37,272.37,0,0,0,.78,30.77,272.37,272.37,0,0,1-.93-30.77q.23-15.39,1.09-30.78v-.14h.14q50.46.33,100.89,1.43Q655.78,75.75,696.36,77.41Z"/><path class="cls-5" d="M696.37,77.08q-.24,10-.57,20Q694.6,116,693,134.9v0l0,0-1.53-1.36,1.56,1.33h0Q694.18,116,695,97,695.76,87.06,696.37,77.08Z"/><path class="cls-5" d="M689.1,134.58q-28.29-1.26-56.62-1.41-14.16-.22-28.32-.15l-7.08,0-7.08.15-14.15.3-56.64,1.21,56.63-1.59,14.16-.41,7.08-.2,7.08-.09q14.16-.16,28.33-.05Q660.81,132.93,689.1,134.58Z"/><path class="cls-5" d="M527.13,89.66l5.18,0v1.47l-3.44,0v2.08l2.94,0V94.7h-2.94V98h-1.75Z"/><path class="cls-5" d="M533.36,91.71h1.42l.12,1.11H535a2.48,2.48,0,0,1,.81-.93,1.72,1.72,0,0,1,1-.33,2,2,0,0,1,.74.14l-.3,1.5-.23-.06a1.91,1.91,0,0,0-.43,0,1.22,1.22,0,0,0-.8.29,2.17,2.17,0,0,0-.64.91l0,3.73h-1.74Z"/><path class="cls-5" d="M538.35,91.74h1.73l0,6.33h-1.74Zm.16-1.25a.89.89,0,0,1-.27-.67.86.86,0,0,1,.28-.67,1,1,0,0,1,.71-.26,1,1,0,0,1,.71.27,1,1,0,0,1,0,1.34,1,1,0,0,1-.71.26A1,1,0,0,1,538.51,90.49Z"/><path class="cls-5" d="M544,97.08q1.34-1.26,2-2a9.74,9.74,0,0,0,1.12-1.39,2.26,2.26,0,0,0,.43-1.22,1.36,1.36,0,0,0-.31-.95,1.21,1.21,0,0,0-.9-.34,1.41,1.41,0,0,0-.76.23,3.54,3.54,0,0,0-.72.61l-1-1a4.89,4.89,0,0,1,1.24-1,3.19,3.19,0,0,1,1.45-.31,2.69,2.69,0,0,1,1.92.71,2.44,2.44,0,0,1,.71,1.86,3.47,3.47,0,0,1-.71,2,20.69,20.69,0,0,1-2,2.37,11.35,11.35,0,0,1,1.37-.08h1.75v1.47l-5.63,0Z"/><path class="cls-5" d="M550.67,96.7h1.79l0-4.9H551V90.71a6.42,6.42,0,0,0,1.09-.27A4.22,4.22,0,0,0,553,90h1.29l0,6.7h1.54v1.42l-5.09,0Z"/><path class="cls-5" d="M559.86,89.83h1.93l1.38,3.84c.12.36.23.71.32,1l.17.52h.05l.23-.73q.21-.69.27-.84l1.38-3.82h1.92l0,8.34h-1.59V94.89c0-.47.06-1.23.18-2.27l0-.5h0l-.68,1.95-1.26,3.38h-1l-1.22-3.39-.65-2h0l0,.49q.15,1.57.15,2.28l0,3.31h-1.57Z"/><path class="cls-5" d="M569.56,97.83a1.89,1.89,0,0,1-.51-1.35,1.75,1.75,0,0,1,.87-1.56,6.43,6.43,0,0,1,2.75-.75,1,1,0,0,0-1-1,2.31,2.31,0,0,0-.8.15,7.14,7.14,0,0,0-.9.43l-.62-1.15a5.08,5.08,0,0,1,2.66-.82,2.38,2.38,0,0,1,1.84.72,3.12,3.12,0,0,1,.61,2.12l0,3.65H573l-.12-.66h0a2.91,2.91,0,0,1-1.88.81A1.85,1.85,0,0,1,569.56,97.83Zm2.52-1a2.31,2.31,0,0,0,.57-.44V95.23a3.82,3.82,0,0,0-1.48.42.8.8,0,0,0-.45.7.57.57,0,0,0,.2.5.81.81,0,0,0,.57.18A1.14,1.14,0,0,0,572.08,96.88Z"/><path class="cls-5" d="M575.76,100.64l.33-1.34a1.43,1.43,0,0,0,.43.09,1.17,1.17,0,0,0,1.16-.91l.1-.36-2.42-6.2h1.76l1,2.86c.1.29.21.69.35,1.19.06.23.11.43.16.6h0c.11-.49.27-1.08.46-1.79l.84-2.84h1.67l-2.25,6.45a4.86,4.86,0,0,1-1.07,1.79,2.29,2.29,0,0,1-1.64.57A3.23,3.23,0,0,1,575.76,100.64Z"/><path class="cls-5" d="M584.77,97.29c.89-.84,1.57-1.5,2-2a9.18,9.18,0,0,0,1.12-1.38,2.34,2.34,0,0,0,.43-1.23,1.34,1.34,0,0,0-.32-.94,1.18,1.18,0,0,0-.89-.34,1.36,1.36,0,0,0-.77.23,3.54,3.54,0,0,0-.72.61l-.95-1a4.47,4.47,0,0,1,1.24-1A3.16,3.16,0,0,1,587.4,90a2.66,2.66,0,0,1,1.91.71A2.42,2.42,0,0,1,590,92.6a3.47,3.47,0,0,1-.71,2,20.69,20.69,0,0,1-2,2.37,9.54,9.54,0,0,1,1.37-.08h1.75v1.47l-5.63,0Z"/><path class="cls-5" d="M592.8,98a3.11,3.11,0,0,1-1-1.46,6.39,6.39,0,0,1-.34-2.31,5.18,5.18,0,0,1,.78-3.09,2.56,2.56,0,0,1,4.18,0,5.4,5.4,0,0,1,.75,3.1,6.82,6.82,0,0,1-.37,2.31,3.14,3.14,0,0,1-1,1.44,2.42,2.42,0,0,1-1.51.49A2.45,2.45,0,0,1,592.8,98Zm2.4-1.51a5.76,5.76,0,0,0,.33-2.24,5.37,5.37,0,0,0-.31-2.19,1,1,0,0,0-.88-.64,1,1,0,0,0-.89.62,5.36,5.36,0,0,0-.32,2.2,5.55,5.55,0,0,0,.3,2.24.93.93,0,0,0,1.77,0Z"/><path class="cls-5" d="M598.16,97H600l0-4.9h-1.51V91a7.46,7.46,0,0,0,1.09-.28,4.47,4.47,0,0,0,.88-.43h1.29l0,6.7h1.54v1.42l-5.08,0Z"/><path class="cls-5" d="M605.65,98.27a2.44,2.44,0,0,1-1-.8,2,2,0,0,1-.36-1.16,2.28,2.28,0,0,1,1.42-2v0a2.34,2.34,0,0,1-1.09-1.91,2,2,0,0,1,.72-1.61,2.79,2.79,0,0,1,1.84-.6,2.54,2.54,0,0,1,1.77.62,2,2,0,0,1,.66,1.62,1.82,1.82,0,0,1-.31,1,2.69,2.69,0,0,1-.77.77v0a3,3,0,0,1,1,.87,2,2,0,0,1,.37,1.26,1.93,1.93,0,0,1-.36,1.14,2.31,2.31,0,0,1-1,.79,3.77,3.77,0,0,1-2.9,0ZM608,97.06a1,1,0,0,0,.32-.79,1,1,0,0,0-.21-.62,1.89,1.89,0,0,0-.56-.43c-.22-.11-.56-.26-1-.45a1.91,1.91,0,0,0-.51.62,1.52,1.52,0,0,0-.2.74,1.08,1.08,0,0,0,.38.87,1.44,1.44,0,0,0,.94.34A1.25,1.25,0,0,0,608,97.06Zm.21-4.59a1.17,1.17,0,0,0-.27-.81,1,1,0,0,0-.77-.3,1,1,0,0,0-.7.26,1.07,1.07,0,0,0,.08,1.52,4.41,4.41,0,0,0,1.11.6A1.92,1.92,0,0,0,608.18,92.47Z"/><path class="cls-13" d="M531.58,113.47h-1v2h-.77v-2l-3.2,0v-.52l3.13-4.55h.86l0,4.45h1Zm-1.76-.65,0-2.21c0-.28,0-.72.06-1.33h0c-.15.27-.26.46-.35.59l-.23.39-1.78,2.54Z"/><path class="cls-13" d="M532.8,115.43a.66.66,0,0,1-.18-.47.73.73,0,0,1,.18-.47.6.6,0,0,1,.44-.18.56.56,0,0,1,.43.19.64.64,0,0,1,.18.47.62.62,0,0,1-.18.46.6.6,0,0,1-.44.18A.58.58,0,0,1,532.8,115.43Zm0-4.07a.65.65,0,0,1-.18-.46.72.72,0,0,1,.19-.48.57.57,0,0,1,.43-.18.59.59,0,0,1,.43.19.64.64,0,0,1,.18.47.62.62,0,0,1-.18.46.6.6,0,0,1-.44.18A.58.58,0,0,1,532.82,111.36Z"/><path class="cls-13" d="M535.67,114.66a5.25,5.25,0,0,1-.57-2.74,5.06,5.06,0,0,1,.6-2.71,1.84,1.84,0,0,1,1.65-.94,1.87,1.87,0,0,1,1.64,1,5.09,5.09,0,0,1,.57,2.71,5.17,5.17,0,0,1-.6,2.73,1.82,1.82,0,0,1-1.65,1A1.84,1.84,0,0,1,535.67,114.66Zm2.71-.44a5.19,5.19,0,0,0,.39-2.28,5,5,0,0,0-.37-2.27,1.16,1.16,0,0,0-1-.74,1.17,1.17,0,0,0-1.07.73,7,7,0,0,0,0,4.55,1.12,1.12,0,0,0,2.12,0Z"/><path class="cls-13" d="M541.14,114.68a5.28,5.28,0,0,1-.58-2.73,5.15,5.15,0,0,1,.61-2.71,1.9,1.9,0,0,1,3.29,0A5.09,5.09,0,0,1,545,112a5.26,5.26,0,0,1-.6,2.73,1.86,1.86,0,0,1-1.65,1A1.82,1.82,0,0,1,541.14,114.68Zm2.71-.43a5.19,5.19,0,0,0,.39-2.28,5.13,5.13,0,0,0-.37-2.27,1.13,1.13,0,0,0-2.12,0,5.16,5.16,0,0,0-.4,2.26,5.41,5.41,0,0,0,.37,2.29,1.13,1.13,0,0,0,2.13,0Z"/><path class="cls-13" d="M546.49,110.15h.66l.07.64h0A2.9,2.9,0,0,1,549,110a1.89,1.89,0,0,1,1.58.75,3.37,3.37,0,0,1,.54,2,3.44,3.44,0,0,1-.33,1.55,2.6,2.6,0,0,1-.86,1,2.12,2.12,0,0,1-1.16.34,2.56,2.56,0,0,1-1.53-.64l0,1v1.85h-.8Zm3,4.58a1.73,1.73,0,0,0,.59-.77,3,3,0,0,0,.21-1.16,2.68,2.68,0,0,0-.35-1.52,1.24,1.24,0,0,0-1.12-.56,2.42,2.42,0,0,0-1.53.77l0,2.91a3,3,0,0,0,.72.46,1.91,1.91,0,0,0,.66.14A1.4,1.4,0,0,0,549.48,114.73Z"/><path class="cls-13" d="M552.62,110.19h.67l.06.8h0a2.36,2.36,0,0,1,1.69-.92,1.42,1.42,0,0,1,1.48,1.05,4.66,4.66,0,0,1,.9-.78,1.76,1.76,0,0,1,.9-.26c1.08,0,1.63.71,1.62,2.11l0,3.42h-.81l0-3.32a2,2,0,0,0-.25-1.14.92.92,0,0,0-.8-.36,2.13,2.13,0,0,0-1.42.86l0,3.95h-.81l0-3.32a2,2,0,0,0-.25-1.13.9.9,0,0,0-.79-.36,2.09,2.09,0,0,0-1.43.86l0,3.94h-.8Z"/><path class="cls-13" d="M564.48,115.31a2,2,0,0,1-.34-1.3v-3.1h-.81v-.61l.84-.06.11-1.52H565v1.52h1.48v.66H565V114a1.37,1.37,0,0,0,.19.8.76.76,0,0,0,.66.27,2,2,0,0,0,.62-.14l.17.61a3.39,3.39,0,0,1-1,.2A1.33,1.33,0,0,1,564.48,115.31Z"/><path class="cls-13" d="M568.34,115.45a2.52,2.52,0,0,1-.9-1,3.26,3.26,0,0,1-.33-1.51,3.15,3.15,0,0,1,.35-1.51,2.47,2.47,0,0,1,.91-1,2.44,2.44,0,0,1,2.47,0,2.55,2.55,0,0,1,.9,1,3.31,3.31,0,0,1,.33,1.52,3.22,3.22,0,0,1-.35,1.5,2.38,2.38,0,0,1-.91,1,2.34,2.34,0,0,1-1.24.34A2.43,2.43,0,0,1,568.34,115.45Zm2.09-.59a1.83,1.83,0,0,0,.59-.76,2.8,2.8,0,0,0,.21-1.12,2.67,2.67,0,0,0-.2-1.12,1.83,1.83,0,0,0-.58-.77,1.47,1.47,0,0,0-1.7,0,1.77,1.77,0,0,0-.58.75A2.83,2.83,0,0,0,568,113a2.43,2.43,0,0,0,.44,1.56,1.43,1.43,0,0,0,1.18.6A1.47,1.47,0,0,0,570.43,114.86Z"/><path class="cls-13" d="M576.06,115.56a3.74,3.74,0,0,1-1-.7l.42-.53a3.22,3.22,0,0,0,.8.6,2.12,2.12,0,0,0,1,.23,1.56,1.56,0,0,0,1.4-.8,1.82,1.82,0,0,0,.21-.88,1.62,1.62,0,0,0-.41-1.2,1.51,1.51,0,0,0-1.14-.43,1.72,1.72,0,0,0-.62.09,3.16,3.16,0,0,0-.62.33l-.45-.28.25-3.39,3.48,0v.7h-2.77l-.21,2.21a2.81,2.81,0,0,1,.55-.23,2.16,2.16,0,0,1,.59-.08,2.29,2.29,0,0,1,1.57.57,2.11,2.11,0,0,1,.6,1.67,2.38,2.38,0,0,1-.33,1.27,2.17,2.17,0,0,1-.87.83,2.46,2.46,0,0,1-1.16.29A3.13,3.13,0,0,1,576.06,115.56Z"/><path class="cls-13" d="M581.18,115.67a.62.62,0,0,1-.18-.46.64.64,0,0,1,.18-.47.6.6,0,0,1,.44-.18.58.58,0,0,1,.43.18.66.66,0,0,1,.18.48.71.71,0,0,1-.19.46.57.57,0,0,1-.43.18A.59.59,0,0,1,581.18,115.67Zm0-4.07a.62.62,0,0,1-.18-.46.69.69,0,0,1,.19-.47.57.57,0,0,1,.43-.18.58.58,0,0,1,.43.18.68.68,0,0,1,.18.48.63.63,0,0,1-.18.46.6.6,0,0,1-.44.18A.56.56,0,0,1,581.2,111.6Z"/><path class="cls-13" d="M584.05,114.9a5.21,5.21,0,0,1-.57-2.73,5.06,5.06,0,0,1,.6-2.71,1.9,1.9,0,0,1,3.29,0,6.64,6.64,0,0,1,0,5.45,1.88,1.88,0,0,1-3.29,0Zm2.71-.43a5.21,5.21,0,0,0,.39-2.29,4.94,4.94,0,0,0-.37-2.26,1.13,1.13,0,0,0-2.12,0,5.16,5.16,0,0,0-.4,2.26,5.23,5.23,0,0,0,.38,2.29,1.17,1.17,0,0,0,1.05.76A1.18,1.18,0,0,0,586.76,114.47Z"/><path class="cls-13" d="M589.52,114.93a5.34,5.34,0,0,1-.58-2.74,5.18,5.18,0,0,1,.61-2.71,1.91,1.91,0,0,1,3.29,0,5.22,5.22,0,0,1,.57,2.72,5.31,5.31,0,0,1-.6,2.73,1.88,1.88,0,0,1-3.29,0Zm2.71-.44a5.28,5.28,0,0,0,.39-2.28,5.08,5.08,0,0,0-.37-2.26,1.13,1.13,0,0,0-2.12,0,5.13,5.13,0,0,0-.4,2.26,5.36,5.36,0,0,0,.37,2.28,1.12,1.12,0,0,0,2.13,0Z"/><path class="cls-13" d="M594.86,110.4h.67l.06.65h0a2.82,2.82,0,0,1,1.75-.77A1.84,1.84,0,0,1,599,111a3.33,3.33,0,0,1,.54,2,3.72,3.72,0,0,1-.33,1.55,2.57,2.57,0,0,1-.86,1,2.13,2.13,0,0,1-1.16.35,2.63,2.63,0,0,1-1.53-.64v2.81h-.8Zm3,4.58a1.87,1.87,0,0,0,.59-.77,3,3,0,0,0,.21-1.17,2.7,2.7,0,0,0-.35-1.52,1.26,1.26,0,0,0-1.13-.55,2.37,2.37,0,0,0-1.52.77l0,2.91a2.64,2.64,0,0,0,.72.45,1.73,1.73,0,0,0,.66.15A1.4,1.4,0,0,0,597.86,115Z"/><path class="cls-13" d="M601,110.43h.67l.06.8h0a2.41,2.41,0,0,1,1.69-.93,1.44,1.44,0,0,1,1.48,1,4.3,4.3,0,0,1,.9-.77,1.66,1.66,0,0,1,.89-.26c1.09,0,1.63.71,1.63,2.11l0,3.42h-.81l0-3.33a2.05,2.05,0,0,0-.25-1.13.92.92,0,0,0-.8-.36,2.07,2.07,0,0,0-1.42.86l0,3.94h-.81l0-3.32a2,2,0,0,0-.25-1.13.92.92,0,0,0-.79-.37,2.17,2.17,0,0,0-1.43.86l0,4H601Z"/><circle class="cls-15" cx="642.8" cy="95.38" r="6.35"/><circle class="cls-14" cx="659.92" cy="95.23" r="6.35"/><circle class="cls-16" cx="676.87" cy="94.93" r="6.35"/><circle class="cls-17" cx="643.1" cy="112.33" r="6.35"/></g><g id="Layer_5" data-name="Layer 5"><path class="cls-18" d="M66.49,574.25c9-13.2,28.28-45.13,36.51-58.84C114.55,496.15,186,380.1,204,338.29c0,0,2.12-3.71,4.85-1.6.88.68,1.95,2.11-.23,5.8C200,357.12,179.39,399,169,417.76,125.12,497.5,95.43,550.28,79.55,575"/><path class="cls-19" d="M174.24,360.86a14.41,14.41,0,0,0-2.69,7.74c-.27,2.76-.17,5.55-.56,8.3a47,47,0,0,1-2.33,8.6,191.07,191.07,0,0,1-7.47,19.58l3.86,1.51c4.5-10.32,11.95-19.4,14.64-30.32l3,3.62c-4.06,5.51-8.16,11.06-11,17.27l2.56.9,16.33-18.76a2.29,2.29,0,0,0,.64-1.1,2.26,2.26,0,0,0-.27-1.21L185,363.23a15.72,15.72,0,0,1-10-3.35l-1.11,1.57"/><path class="cls-6" d="M171.9,397.45a4.33,4.33,0,0,0,1.18.4,4.21,4.21,0,0,0,2.34.59,4.51,4.51,0,0,1-2.57-.07A4.38,4.38,0,0,1,171.9,397.45Z"/><path class="cls-6" d="M161.92,405.51a4,4,0,0,0,1.17.41,4.34,4.34,0,0,0,2.34.59,2.67,2.67,0,0,1-3.51-1Z"/><path class="cls-20" d="M190.26,324.42a53.24,53.24,0,0,0,5.68,1.35,5.59,5.59,0,0,0,1.63.13,6.49,6.49,0,0,0,1.7-.5,97.49,97.49,0,0,1,13.89-4.31l-.26,2.47a113.84,113.84,0,0,0-13.78,4.76,7.12,7.12,0,0,1-2.05.66,5.88,5.88,0,0,1-1.62-.07,40.58,40.58,0,0,1-4.08-.88.65.65,0,0,1-.29-.14.59.59,0,0,1-.11-.38,10.55,10.55,0,0,0-.74-3.22"/><path class="cls-6" d="M175.69,371.79a53.21,53.21,0,0,1,6.6,7.3,2.17,2.17,0,0,1,.32.59,1,1,0,0,1-.08.76,9.42,9.42,0,0,1-.71,1c-.47.62-.93,1.24-1.39,1.87q-1.37,1.89-2.61,3.86a79.85,79.85,0,0,0-4.53,8.15l0,0,.51-.84-.49.86,0,0a81.41,81.41,0,0,1,4.31-8.29c.8-1.34,1.63-2.66,2.51-3.95.44-.64.88-1.28,1.34-1.92.21-.31.49-.65.63-.92s0-.46-.22-.79A52.88,52.88,0,0,0,175.69,371.79Z"/><path class="cls-6" d="M186.23,365.34l5.18,12a5.69,5.69,0,0,1,.28.8,1.25,1.25,0,0,1-.2.95c-.34.49-.68.85-1,1.27l-2.05,2.46c-1.37,1.63-2.76,3.24-4.16,4.85q-4.22,4.8-8.59,9.45l0,0,0,0,.26-.54-.25.55h0q4.28-4.74,8.38-9.63c1.37-1.63,2.72-3.28,4.05-4.93l2-2.5c.32-.41.7-.85,1-1.24a.68.68,0,0,0,.11-.56,6.53,6.53,0,0,0-.27-.7Z"/><path class="cls-6" d="M172.88,362.83q-.88,3.69-1.47,7.46c-.38,2.5-.65,5-1,7.55a58.54,58.54,0,0,1-1.59,7.27c-.6,2.42-1.33,4.79-2.05,7.16A73.67,73.67,0,0,1,161.18,406h0l.36-.58-.34.59h0a72.84,72.84,0,0,0,5.35-13.84c.67-2.38,1.37-4.77,1.91-7.18a58.08,58.08,0,0,0,1.45-7.27c.42-2.5.78-5,1.26-7.5S172.2,365.27,172.88,362.83Z"/><path class="cls-6" d="M179.3,376.79c-.8,2.56-1.64,5.11-2.54,7.63-2.06,4.95-4.34,9.81-6.8,14.56q3.43-7.25,6.27-14.77C177.31,381.76,178.32,379.29,179.3,376.79Z"/><path class="cls-20" d="M192,327.1a10.46,10.46,0,0,0,4.51,1.68,8.56,8.56,0,0,0,2.31-.29,61.23,61.23,0,0,0,8.77-3.42c1.79-.75,3.63-1.41,5.46-2.07a.33.33,0,0,1,.46.13l.69.94c-5.27,3.72-9.52,7-15.56,10.29a1.8,1.8,0,0,1-.48.24,1.17,1.17,0,0,1-.49-.07l-6.85-1.89A19.54,19.54,0,0,1,192,327"/><path class="cls-20" d="M185.58,318.54c-1.14,2.49-3.05,4.54-4.36,6.94a29.24,29.24,0,0,0-2.79,9.38c-1.42,8.4-2.11,17-4.56,25.14a9.49,9.49,0,0,0,5.67,2.88,28.65,28.65,0,0,0,6.48.06,1.07,1.07,0,0,0,.63-.19,1.08,1.08,0,0,0,.26-.63c1.06-6.59,2.32-13.3,5.68-19.06,1.07-1.85,2.38-3.66,2.68-5.78a11.72,11.72,0,0,0-.59-4.79,66.5,66.5,0,0,0-5-12.84,1,1,0,0,0-.3-.41,1.05,1.05,0,0,0-.46-.16l-3.43-.66"/><path class="cls-21" d="M185.06,330.24a17.54,17.54,0,0,1,2.06.75,12.48,12.48,0,0,0,1.48.29c2.15.4,4,1.71,6.16,2.21a.58.58,0,0,1,.29.12.45.45,0,0,1,.12.25,7.61,7.61,0,0,1-1.42,6.89,3.18,3.18,0,0,1-1.08.92,1.64,1.64,0,0,1-1.4.06,2,2,0,0,1-.75-.75c-.79-1.21-1-2.76-1.91-3.87-.75-.89-1.93-1.47-2.31-2.57-.11-.32-.15-.66-.24-1a10.86,10.86,0,0,0-.78-1.61,2.08,2.08,0,0,1-.16-1.73"/><path class="cls-22" d="M183.46,329.88,195,333.31l2.75.92a1,1,0,0,0,1.17-.08l1.21-.78,4.88-3.16,9.76-6.32v0a.73.73,0,0,0-.73.18.73.73,0,0,1,.74-.2h0l-9.6,6.55-4.8,3.27-1.2.82a1.58,1.58,0,0,1-.78.32,2.07,2.07,0,0,1-.8-.15l-2.78-.86Z"/><path class="cls-22" d="M185.64,323.47l7.89,3.87c1.26.71,2.59,1.43,4,1.16a12.51,12.51,0,0,0,2.06-.64l2.07-.74,8.27-3-8.17,3.23-2,.81a12.91,12.91,0,0,1-2.12.73,4.53,4.53,0,0,1-2.28-.16,15,15,0,0,1-2-.91Z"/><path class="cls-22" d="M190,319.1q.48,1.35,1.08,2.64a32.86,32.86,0,0,0,2,5.31,33.17,33.17,0,0,1-2.58-5.12C190.27,321,190.09,320,190,319.1Z"/><path class="cls-22" d="M194.41,334.77a5.39,5.39,0,0,1,0,4.93c-.68,1.59-1.7,3-2.42,4.46a36.46,36.46,0,0,0-3.45,9.44c-.76,3.28-1.23,6.64-1.68,10,.36-3.36.73-6.72,1.4-10a37,37,0,0,1,3.23-9.64c.83-1.51,1.93-2.82,2.66-4.31A5.27,5.27,0,0,0,194.41,334.77Z"/><path class="cls-22" d="M182.16,323a37.48,37.48,0,0,0-3.43,12.13c-.64,4.18-1.22,8.38-2,12.55s-1.72,8.3-2.88,12.37a125.63,125.63,0,0,0,2.6-12.42c.66-4.18,1.15-8.38,1.7-12.58A37.93,37.93,0,0,1,182.16,323Z"/><path class="cls-22" d="M174.28,360.43a16.45,16.45,0,0,0,4.08,1.74,17.17,17.17,0,0,0,8.78.52,17.52,17.52,0,0,1-8.95,0A16.55,16.55,0,0,1,174.28,360.43Z"/><path class="cls-22" d="M185.89,318a7,7,0,0,0,1.4.29,6,6,0,0,0,1.32.42,1.82,1.82,0,0,0,1.35-.15,2,2,0,0,1-1.38.44,7.37,7.37,0,0,1-1.47-.17A7.48,7.48,0,0,1,185.89,318Z"/><path class="cls-22" d="M185.28,318.45a20.56,20.56,0,0,1-.61,2.13,11.68,11.68,0,0,1-2.92,3.29,11.17,11.17,0,0,0,2.41-3.55A19.26,19.26,0,0,0,185.28,318.45Z"/><path class="cls-22" d="M192.84,325c1.27-.08,2.45.51,3.65.72A6.24,6.24,0,0,0,200,325l12.54-4h0v0a8.25,8.25,0,0,1,.51,1.67,7.77,7.77,0,0,0-.57-1.64h0l-12.38,4.48a15.36,15.36,0,0,1-1.83.49,4.44,4.44,0,0,1-1.92-.07C195.2,325.65,194.11,325,192.84,325Z"/><path class="cls-5" d="M196.5,304.81a6.56,6.56,0,0,0-.05,2.82,6.75,6.75,0,0,0,.75,2.7,1.3,1.3,0,0,1,.09.78,1.73,1.73,0,0,1-.38.66,4.5,4.5,0,0,1-1.16.88,4.63,4.63,0,0,0,1.05-1,1.06,1.06,0,0,0,.14-1.24,7.06,7.06,0,0,1-1.05-2.75A6.68,6.68,0,0,1,196.5,304.81Z"/><path class="cls-5" d="M195.75,312.75a5.9,5.9,0,0,1-1,3,3.45,3.45,0,0,1-3,1,3.32,3.32,0,0,1-1.47-.61,3.71,3.71,0,0,0-1.33-.77,3.66,3.66,0,0,1,1.4.65,3.07,3.07,0,0,0,1.43.44,3,3,0,0,0,2.55-1.12A5.68,5.68,0,0,0,195.75,312.75Z"/><path class="cls-5" d="M195,312.05a14,14,0,0,1-2.75,0,13.19,13.19,0,0,1-1.26-.4l.28-.16a1.27,1.27,0,0,0,.25.83,4.21,4.21,0,0,0,.58.82,4.43,4.43,0,0,0,1.67,1.15,4.53,4.53,0,0,1-1.82-1,4.19,4.19,0,0,1-.71-.8,1.67,1.67,0,0,1-.4-1.08l0-.23.25.06c.41.1.83.19,1.25.26A14.32,14.32,0,0,0,195,312.05Z"/><path class="cls-5" d="M194.5,306.76a2.52,2.52,0,0,0-.07,1.67.11.11,0,0,0,.07.08.09.09,0,0,0,.07,0,1,1,0,0,0,.36-.88,1.7,1.7,0,0,0-.37-.91,1.54,1.54,0,0,1-.25.26"/><path class="cls-5" d="M189,314.39l.24,1.29a5.6,5.6,0,0,0,0,2.51,5.93,5.93,0,0,1-.54-2.53Z"/><path class="cls-5" d="M186.71,313.55l0-.19h.06a6.77,6.77,0,0,1,.27,1.34c-.09.51-.22,1-.34,1.49a3.8,3.8,0,0,1-.58,1.39,3.54,3.54,0,0,0,.3-1.44c0-.5.06-1,0-1.48a6.25,6.25,0,0,0,.24-1.29h.06Z"/><path class="cls-5" d="M186.35,313.28a3.82,3.82,0,0,1-1.07-.83,5.88,5.88,0,0,1-.42-2.59,5.64,5.64,0,0,0,.91,2.3A3.74,3.74,0,0,0,186.35,313.28Z"/><path class="cls-23" d="M182.44,306a3.25,3.25,0,0,1,.75.86.44.44,0,0,1,.09.31.52.52,0,0,1-.13.24,4,4,0,0,0-1,1.84,5,5,0,0,0,.78,2.59,11.16,11.16,0,0,1-.12,9.5,15.73,15.73,0,0,1-1.3,2.11A10.56,10.56,0,0,1,179.1,326a9.66,9.66,0,0,1-3.31,1.38,1.9,1.9,0,0,1-.85.07c-.7-.16-1-1-1-1.74a7.23,7.23,0,0,1,0-1.23,1,1,0,0,1,.42-.85c.43-.22.9.17,1.35.36a1.65,1.65,0,0,0,1.78-.34.64.64,0,0,0,.19-.77c-.18-.24-.56-.19-.83-.05a2,2,0,0,0-.79.75,2.28,2.28,0,0,1-.44-1.07.81.81,0,0,1,.61-.87c.39,0,.8.3,1.14.11a.8.8,0,0,0,.26-.29,11.87,11.87,0,0,0,1.74-4.74c.4-2.94-.3-6,.49-8.87a2.9,2.9,0,0,1,1-1.65,1.26,1.26,0,0,1,1.74.23"/><path class="cls-24" d="M183.17,307.34a2.61,2.61,0,0,0-.86,2.08,6.31,6.31,0,0,0,.59,2.23,12.32,12.32,0,0,1,1.11,4.56,11.64,11.64,0,0,1-3.3,8.66,10.9,10.9,0,0,1-4.8,2.83,3.08,3.08,0,0,1-.75.07,1,1,0,0,1-.77-.38,2.37,2.37,0,0,1-.25-1.48,5.29,5.29,0,0,1,.21-1.41,2.27,2.27,0,0,1,.82-1.23l.26-.18.06.31a.93.93,0,0,0,.79.7,1.06,1.06,0,0,0,1-.49,1.14,1.14,0,0,0,.19-.55c.05-.06-.17-.14-.35-.15a.92.92,0,0,0-.89.61l-.11.37-.18-.34a1.74,1.74,0,0,1-.29-1.37,1,1,0,0,1,.52-.56.72.72,0,0,1,.74.14c.19.14.33.23.42.13s.26-.33.39-.49a11.29,11.29,0,0,0,.69-1.1,10.4,10.4,0,0,0,1.24-5c0-1.75-.16-3.5-.08-5.25a10.3,10.3,0,0,1,.41-2.59,2.24,2.24,0,0,1,.71-1.09,1.25,1.25,0,0,1,1.24-.21,1.28,1.28,0,0,0-1.23.22,2.23,2.23,0,0,0-.68,1.09,10.24,10.24,0,0,0-.37,2.58c-.06,1.75.17,3.49.16,5.25a10.61,10.61,0,0,1-1.19,5.11,11.75,11.75,0,0,1-.69,1.13,4.94,4.94,0,0,1-.42.54.42.42,0,0,1-.44.08,1.35,1.35,0,0,1-.32-.18c-.3-.3-.7-.06-.82.29a1.53,1.53,0,0,0,.28,1.11l-.29,0a1.25,1.25,0,0,1,1.2-.86,1.35,1.35,0,0,1,.4.08.52.52,0,0,1,.21.15.41.41,0,0,1,.09.26,1.51,1.51,0,0,1-.24.74,1.41,1.41,0,0,1-1.33.67,1.32,1.32,0,0,1-1.14-1l.32.13a2.84,2.84,0,0,0-.83,2.32,2.16,2.16,0,0,0,.18,1.19c.17.25.63.21,1.05.12a10.51,10.51,0,0,0,4.5-2.76,11.22,11.22,0,0,0,3.42-8.26,12,12,0,0,0-1-4.51,6.59,6.59,0,0,1-.52-2.28A2.61,2.61,0,0,1,183.17,307.34Z"/><path class="cls-5" d="M194.63,299.56a3.15,3.15,0,0,1,1,.59,3.61,3.61,0,0,1,.36,1l.26,1-.52-.91a3.46,3.46,0,0,0-.56-.83A2.88,2.88,0,0,0,194.63,299.56Z"/><path class="cls-24" d="M194.2,299.16a4.75,4.75,0,0,0-2.21-.73,13,13,0,0,0-2.33-.09,8.23,8.23,0,0,0-4.44,1,5.81,5.81,0,0,0-1.53,1.73,3.39,3.39,0,0,0-.72,2.18,3.53,3.53,0,0,1,.6-2.26,5.85,5.85,0,0,1,1.49-1.88,8.52,8.52,0,0,1,4.61-1.31,13.55,13.55,0,0,1,2.38.37A4.91,4.91,0,0,1,194.2,299.16Z"/><path class="cls-25" d="M196.16,302.24a18,18,0,0,1-3.74,3.65,18.74,18.74,0,0,1-4.83,2.07,20.4,20.4,0,0,1-2.57.48l-2.59.23,2.57-.37a22.91,22.91,0,0,0,11.16-6.06Z"/><path class="cls-23" d="M182.73,303.91a6.67,6.67,0,0,1,4.46-5.52,8.75,8.75,0,0,1,7.22.89,8.78,8.78,0,0,1-2.45,1.27l-1.87.73c-.68.27-1.37.53-2.06.77-1.76.6-3.6,1-5.31,1.75h.14"/><path class="cls-26" d="M182.69,304.08a3,3,0,0,0-.24,1.58,1.09,1.09,0,0,0,.11.39,2.2,2.2,0,0,0,.44.42,1,1,0,0,1,.25,1.07c-.22.41-.82.62-.79,1.08a23.13,23.13,0,0,0,6.76-1.4c.65-.28,1.28-.62,1.9-1a17.18,17.18,0,0,0,5.36-4,6,6,0,0,0-1.72-2.8.29.29,0,0,0-.15-.09.35.35,0,0,0-.17.06,22.45,22.45,0,0,1-4,1.8l-3.92,1.48c-1.19.45-2.39.9-3.61,1.25"/><path class="cls-25" d="M182.62,303.93c1.33-.42,2.64-.89,3.93-1.43a47.65,47.65,0,0,0,7.75-3.06,47.71,47.71,0,0,1-7.57,3.6C185.37,303.4,184,303.69,182.62,303.93Z"/><path class="cls-25" d="M184.36,304.55a5.74,5.74,0,0,0,.39.87,6.1,6.1,0,0,0,.38,1.82,6.09,6.09,0,0,1-.93-1.7A5.25,5.25,0,0,1,184.36,304.55Z"/><path class="cls-25" d="M185.6,304.23c.17.24.33.47.51.69.11.51.15,1.1.6,1.43a1.32,1.32,0,0,1-.68-.51,6.89,6.89,0,0,1-.46-.73C185.57,304.81,185.58,304.52,185.6,304.23Z"/><path class="cls-25" d="M187.46,303.51l.54.72.13.83a1.38,1.38,0,0,0,.3.77,1.44,1.44,0,0,1-.56-.66l-.41-.77Z"/><polygon class="cls-25" points="189.53 302.76 190.11 303.59 190.47 305.52 189.58 303.77 189.53 302.76"/><path class="cls-25" d="M191.23,302.27a8.17,8.17,0,0,1,.6.7,7.46,7.46,0,0,1,.09,1.76,7,7,0,0,0-.63-1.58A6.62,6.62,0,0,0,191.23,302.27Z"/><path class="cls-25" d="M193.38,301a8.93,8.93,0,0,1,.63.73q.09.47.15.93a1.77,1.77,0,0,1-.08.94,1.6,1.6,0,0,0-.19-.86c-.13-.28-.26-.55-.41-.81S193.43,301.32,193.38,301Z"/><path class="cls-25" d="M194.68,300.39a4,4,0,0,1,.59.63,4.57,4.57,0,0,1,0,1.65,4,4,0,0,0-.52-1.46A4.59,4.59,0,0,0,194.68,300.39Z"/><path class="cls-27" d="M160.76,422.49a11.65,11.65,0,0,1-5.1-2.3q1.71-3.92,3.16-7.92c.08-.24.16-.54,0-.71l.32-.57a5.43,5.43,0,0,0,3.79,1.34l-.37.37a9.17,9.17,0,0,1-1.16,3.13l-.6-.17c0,.15.13.27.26.35a17.29,17.29,0,0,0,2.7,1.32l3,2.16-3.84,3.75Z"/><path class="cls-27" d="M171.05,412.1a11.53,11.53,0,0,1-5.11-2.3c1.14-2.6,2.2-5.25,3.16-7.92.09-.24.16-.54,0-.71l.33-.57a5.39,5.39,0,0,0,3.78,1.34l-.36.38a9.35,9.35,0,0,1-1.17,3.13l-.6-.18c0,.16.13.27.27.35a16.87,16.87,0,0,0,2.7,1.32l2.95,2.17-3.84,3.75Z"/><path class="cls-23" d="M181.2,308a5,5,0,0,0-.28,3.81,27.05,27.05,0,0,1,.55,4,8,8,0,0,1-1,3.85,7.8,7.8,0,0,0,.76-3.85,27.45,27.45,0,0,0-.83-3.88A5.3,5.3,0,0,1,181.2,308Z"/><path class="cls-28" d="M69.9,576.16c8.89-13.29,27.84-45.41,35.93-59.2,11.36-19.38,81.6-136.12,99.26-178.12,0,0,2.08-3.73,4.83-1.64.89.67,2,2.08-.17,5.8-8.49,14.72-28.69,56.76-38.85,75.66C127.77,498.83,98.6,551.9,83,576.77"/><polygon class="cls-5" points="161.6 407.73 161.43 409.14 160.27 411.7 160.89 408.96 161.6 407.73"/><path class="cls-5" d="M164,407.23c-.14.5-.28,1-.44,1.48-.56.85-1.16,1.68-1.78,2.47.47-.9.9-1.81,1.28-2.74C163.34,408.05,163.65,407.64,164,407.23Z"/><path class="cls-5" d="M172.38,397.32q-.23.74-.42,1.47c-.5.87-1,1.76-1.4,2.68.25-1,.55-2,.89-2.92Q171.9,397.92,172.38,397.32Z"/><path class="cls-18" d="M92.82,544.62a2.23,2.23,0,0,0-1.28,1.08,2.91,2.91,0,0,0,.31,2.93,2.76,2.76,0,0,0,2.74,1,2.64,2.64,0,0,0,1.15-4.57,2.79,2.79,0,0,0-1.15-.58A4.55,4.55,0,0,0,92.82,544.62Z"/><path class="cls-18" d="M112.33,512.12a1.77,1.77,0,0,0-1,.84,2.28,2.28,0,0,0,.24,2.27,2.13,2.13,0,0,0,2.12.78,2,2,0,0,0,.88-3.53,2,2,0,0,0-.88-.44A3.5,3.5,0,0,0,112.33,512.12Z"/><path class="cls-18" d="M130.19,480.31a2,2,0,0,0-1.15,1,2.62,2.62,0,0,0,.27,2.63,2.5,2.5,0,0,0,2.47.92,2.37,2.37,0,0,0,1-4.11,2.28,2.28,0,0,0-1-.52A4,4,0,0,0,130.19,480.31Z"/><path class="cls-18" d="M147.91,448.94a1.32,1.32,0,0,0-.76.64,1.75,1.75,0,0,0,.18,1.75,1.65,1.65,0,0,0,1.63.6,1.57,1.57,0,0,0,.68-2.72,1.68,1.68,0,0,0-.68-.34A2.62,2.62,0,0,0,147.91,448.94Z"/><path class="cls-18" d="M163.28,423.34a1.3,1.3,0,0,0-.76.65,1.73,1.73,0,0,0,.18,1.74,1.65,1.65,0,0,0,1.63.61,1.57,1.57,0,0,0,.68-2.72,1.58,1.58,0,0,0-.68-.35A2.83,2.83,0,0,0,163.28,423.34Z"/><path class="cls-18" d="M175.51,400a1.3,1.3,0,0,0-.76.65,1.73,1.73,0,0,0,.18,1.74,1.63,1.63,0,0,0,1.63.6,1.56,1.56,0,0,0,.68-2.71,1.64,1.64,0,0,0-.68-.35A2.8,2.8,0,0,0,175.51,400Z"/><path class="cls-18" d="M186.46,379.78a1.35,1.35,0,0,0-.76.64,1.75,1.75,0,0,0,.18,1.74,1.67,1.67,0,0,0,1.64.61,1.58,1.58,0,0,0,.68-2.72,1.54,1.54,0,0,0-.69-.34A2.62,2.62,0,0,0,186.46,379.78Z"/><path class="cls-18" d="M197.1,358.41a1.33,1.33,0,0,0-.76.65,1.73,1.73,0,0,0,.18,1.74,1.66,1.66,0,0,0,1.63.61,1.57,1.57,0,0,0,.68-2.72,1.46,1.46,0,0,0-.68-.34A2.7,2.7,0,0,0,197.1,358.41Z"/><path class="cls-29" d="M474,260.54l-4.77,13a21.15,21.15,0,0,0-1.56,6.06,20.61,20.61,0,0,0,.45,4.69c.77,4.37,1.6,8.74,2.63,13.06a3.75,3.75,0,0,0,.62,1.53c.72.86,2,.89,3.13.84a118.32,118.32,0,0,1-1.36-14.8,9.84,9.84,0,0,1,.35-3.51,10.35,10.35,0,0,1,1.72-2.77l7.07-9a117.14,117.14,0,0,0-1,12.81,70.25,70.25,0,0,0,4,22.82l3.24-.33c0-7.16-1.69-14.53.51-21.35a38.91,38.91,0,0,1,2.17-5.06l8.36-17.13a49.37,49.37,0,0,1-18.52-1,48,48,0,0,0-5.15-1.19,1.88,1.88,0,0,0-.85,0c-.91.32-.93,1.75-1.79,2.18"/><path class="cls-30" d="M480.72,237.8a52.36,52.36,0,0,0-3.35-4.86c-.86-1.06-1.8-2.05-2.63-3.13s-1.5-2.15-2.19-3.26l-2.14-3.42a6.77,6.77,0,0,1-1.14-6.17q.9-5.53,2-11a1.87,1.87,0,0,1,.19-.62c.43-.83,1.61-.79,2.53-.63q.67,5.88.82,11.79a10.42,10.42,0,0,0,.68,4.27,9,9,0,0,0,1.74,2.28,39.82,39.82,0,0,0,8.24,6.5,1.68,1.68,0,0,1,.57.45,1.54,1.54,0,0,1,.26.78,9.45,9.45,0,0,1-1.78,6.9,1.46,1.46,0,0,1-.34.36,1.61,1.61,0,0,1-.76.19,4.27,4.27,0,0,1-3.13-.58"/><path class="cls-30" d="M483.41,231.62s2.44-4.54,3.46-4.91a12.13,12.13,0,0,0,3.43-2.1c-1.78-.9-5.48-1.48-8.15-3.35-3.48-2.44-4.75-7-7.5-10.21l1.93-2.15,3.47,4c2.24,2.55,4.7,5.24,8,6,1.17.27,2.85,1,3.68,1.27.3.1.49.14.49.06l6.69-.79c-.52,1.12.18,2.47,1.13,3.26s2.14,1.25,3.11,2a8,8,0,0,1,2.66,5.45,22.66,22.66,0,0,1-.49,6.19c-1.17,6.79-2.48,13.56-4,20.28-.46,2-1,4.21-2.54,5.63a8.71,8.71,0,0,1-3.66,1.82,23.88,23.88,0,0,1-20.12-3.6,2.72,2.72,0,0,1-1-1,2.83,2.83,0,0,1-.09-1.61c.88-5.92,3.58-11.39,5.74-17C479.83,240.4,483.41,231.62,483.41,231.62Z"/><path class="cls-5" d="M486.66,210.6a16,16,0,0,0,.39,4.06,5.2,5.2,0,0,0,1.88,3.38,3.24,3.24,0,0,0,3.78.11,3.38,3.38,0,0,1-3.94.13,5.59,5.59,0,0,1-2.27-3.51A16.12,16.12,0,0,1,486.66,210.6Z"/><path class="cls-5" d="M487.26,203.14a17.32,17.32,0,0,1-1.11,3.35c-.59,1-1.21,2-1.75,3-.35.49.2.94.65,1.25a3.26,3.26,0,0,0,1.63.54,3.29,3.29,0,0,1-1.7-.41,2.93,2.93,0,0,1-.72-.55.82.82,0,0,1-.21-.46,1.13,1.13,0,0,1,.09-.49c.46-1.09,1-2.13,1.5-3.18A16.24,16.24,0,0,0,487.26,203.14Z"/><path class="cls-5" d="M496.34,207.13c0-.2.28-.21.42-.14a1.52,1.52,0,0,1,.43.28,2.11,2.11,0,0,1,.56.89,2.78,2.78,0,0,1-.53,1.92,7.87,7.87,0,0,1-1.31,1.39,7.48,7.48,0,0,0,1.06-1.53,2.32,2.32,0,0,0,.22-1.68,1.67,1.67,0,0,0-.22-.81,1.27,1.27,0,0,0-.28-.34C496.61,207,496.38,207,496.34,207.13Z"/><path class="cls-5" d="M503,204.45a10.57,10.57,0,0,1-.87,5.27,10.41,10.41,0,0,1-1.58,2.2,11.88,11.88,0,0,0-1.75,2,11.51,11.51,0,0,0-1.25,5.07,11.62,11.62,0,0,1,1-5.22,12.26,12.26,0,0,1,1.67-2.09,12.87,12.87,0,0,0,2.77-7.19Z"/><path class="cls-31" d="M473.68,261.72l-4,11.68-1.11,2.88a11,11,0,0,0-.81,2.91,12.39,12.39,0,0,0,.16,3c.14,1,.3,2,.47,3q.51,3,1.19,6.06c.22,1,.45,2,.7,3l.39,1.5a2.36,2.36,0,0,1,.13.75c0,.12-.14.28-.27.22s-.25-.23-.1-.29c-.15.07,0,.25.1.28s.23-.09.25-.21a2.23,2.23,0,0,0-.15-.75l-.42-1.48c-.27-1-.53-2-.77-3-.49-2-.94-4-1.33-6-.19-1-.37-2-.54-3a13,13,0,0,1-.24-3.12,11.62,11.62,0,0,1,.78-3l1-2.91Z"/><path class="cls-31" d="M481,270a68.45,68.45,0,0,0-6.09,8.85c-.87,1.45-2,2.87-1.92,4.55a24.78,24.78,0,0,0,.2,2.54l.26,2.55,1.05,10.24h0l-.16-.93.19.93h0l-1.31-10.2-.33-2.55a24.23,24.23,0,0,1-.27-2.58,5.54,5.54,0,0,1,.6-2.59c.39-.79.84-1.52,1.27-2.26A70,70,0,0,1,481,270Z"/><path class="cls-31" d="M482.4,269.47l-.55,11.77a30.41,30.41,0,0,0-.06,5.48c.17,1.82.54,3.63.87,5.44l2,10.86v0l0,0a1.14,1.14,0,0,1-.61-1.23,1.11,1.11,0,0,0,.63,1.2l0,0-2.27-10.81c-.38-1.8-.79-3.61-1-5.45a31.31,31.31,0,0,1-.08-5.56Z"/><path class="cls-31" d="M496.93,264.66q-2.94,6.55-5.54,13.25c-.88,2.12-1.76,4.25-2.58,6.39a17.32,17.32,0,0,0-.92,3.27,15.54,15.54,0,0,0-.12,3.41l.91,13.76v0l0,0-.81-.8.82.79h0L487.48,291a15.59,15.59,0,0,1,0-3.48,18.33,18.33,0,0,1,.87-3.37c.79-2.17,1.62-4.31,2.47-6.45Q493.73,271.1,496.93,264.66Z"/><path class="cls-31" d="M471.35,299.11a4.68,4.68,0,0,0,1,.12,4.59,4.59,0,0,0,2,.41,4.72,4.72,0,0,1-2.12.13A4.93,4.93,0,0,1,471.35,299.11Z"/><path class="cls-31" d="M484.84,305a3.3,3.3,0,0,0,1.37.19,3.63,3.63,0,0,0,2.67-.32,3.91,3.91,0,0,1-2.75.88A3.68,3.68,0,0,1,484.84,305Z"/><polygon class="cls-5" points="472.16 300.59 472.87 302.09 473.48 305.32 472.33 302.24 472.16 300.59"/><polygon class="cls-5" points="473.8 300.71 474.32 302.07 474.53 304.96 473.76 302.17 473.8 300.71"/><polygon class="cls-5" points="485.74 306.2 486.06 307.65 485.85 310.57 485.5 307.67 485.74 306.2"/><polygon class="cls-5" points="487.69 306.08 488.06 307.52 487.97 310.45 487.5 307.55 487.69 306.08"/><path class="cls-32" d="M475.89,314.56a4.86,4.86,0,0,0,.92-4.76,15.07,15.07,0,0,0-.67-1.68,29.47,29.47,0,0,1-.93-3c-1.1.11-2.19.26-3.27.46,0,0,.28,1.4.45,2.56a13.65,13.65,0,0,0-4,2.87c-1.69,1.51-2.38,3.84-2.85,6.07,0,0-.83,2,0,3.05S475.89,314.56,475.89,314.56Z"/><path class="cls-33" d="M465.92,318.08a1.65,1.65,0,0,0,.23,2.63c1,.5,2.12-.11,3-.7,2.51-1.6,5.08-3.26,6.87-5.65a2.53,2.53,0,0,0,.61-2.48,1.83,1.83,0,0,0-1.8-.87,4.66,4.66,0,0,0-1.94.77C470.22,313.42,465.92,318.08,465.92,318.08Z"/><path class="cls-32" d="M489.22,317.79a3.81,3.81,0,0,0,.88-4.08,13.31,13.31,0,0,0-.64-1.45,24.76,24.76,0,0,1-.89-2.56c-1.05.08-2.1.22-3.14.39,0,0,.27,1.2.43,2.2a13.27,13.27,0,0,0-3.8,2.46,9,9,0,0,0-2.73,5.21s-.8,1.75,0,2.62S489.22,317.79,489.22,317.79Z"/><path class="cls-33" d="M479.65,320.82a1.33,1.33,0,0,0,.22,2.25c.93.43,2-.09,2.91-.59a23.73,23.73,0,0,0,6.59-4.86c.52-.62,1-1.44.59-2.13a1.82,1.82,0,0,0-1.72-.74,4.56,4.56,0,0,0-1.87.66C483.78,316.81,479.65,320.82,479.65,320.82Z"/><path class="cls-34" d="M476.31,257.53a6.1,6.1,0,0,0,3.14-3.2,53.24,53.24,0,0,0,4-10.33,18.67,18.67,0,0,1,2.32-5.56,2.72,2.72,0,0,1-2.51.46,16.73,16.73,0,0,1-2.52-.68l.05-.07a.46.46,0,0,0-.07.07c-.56,1.38-1,2.47-1.06,2.61-2.11,5.46-4.73,10.8-5.66,16.57A3.4,3.4,0,0,0,476.31,257.53Z"/><path class="cls-35" d="M478.43,234.84l-6-7.88-1.42-2a19.46,19.46,0,0,1-1.37-2.1,4.62,4.62,0,0,1-.34-2.53l.25-2.46,1-9.87-.69,9.89-.17,2.47a4.1,4.1,0,0,0,.36,2.31,21.16,21.16,0,0,0,1.39,2l1.48,2Z"/><path class="cls-35" d="M476.37,209.11l3.15,2.84,2.84,3.14a12.27,12.27,0,0,0,3.12,2.81,12.18,12.18,0,0,1-3.32-2.61l-3.05-2.94Z"/><path class="cls-35" d="M500.74,223.26a7.21,7.21,0,0,1,4,4.1,13.94,13.94,0,0,1,.73,5.8,174.64,174.64,0,0,1-4.2,22.87,174.45,174.45,0,0,0,3.64-22.91,13.67,13.67,0,0,0-.44-5.66A7,7,0,0,0,500.74,223.26Z"/><path class="cls-35" d="M485.73,230.87a5.25,5.25,0,0,1,1.8,3.93,5.32,5.32,0,0,1-2.16,3.8,1.36,1.36,0,0,1-1.1.3l-1.06-.21-2.13-.43,2.15.29c.71.06,1.47.37,2-.17a5.47,5.47,0,0,0,.53-7.51Z"/><path class="cls-35" d="M486.53,227.32a6.54,6.54,0,0,0,2.86-1.58,8.81,8.81,0,0,0,3.32-5.56,9,9,0,0,1-3,6A6.66,6.66,0,0,1,486.53,227.32Z"/><path class="cls-35" d="M501,223.71a3.88,3.88,0,0,1-1.89-1,6.81,6.81,0,0,1-1.22-4,6.49,6.49,0,0,0,1.65,3.6A3.55,3.55,0,0,0,501,223.71Z"/><path class="cls-35" d="M480.05,240.19c-1.78,5.12-4,10.1-5.15,15.38-.16.66-.3,1.31-.42,2l-.18,1a1.79,1.79,0,0,0-.06.87c.15.48.88.75,1.44,1.09s1.19.64,1.79,1a33.66,33.66,0,0,0,7.55,2.87,18.71,18.71,0,0,0,8,.22,13.58,13.58,0,0,0,7.11-3.66,13.66,13.66,0,0,1-7.08,3.8,19,19,0,0,1-8.11-.08,33.9,33.9,0,0,1-7.68-2.77l-1.82-.92-.9-.49a1.71,1.71,0,0,1-.8-.85,2.27,2.27,0,0,1,0-1.14l.16-1c.1-.68.24-1.35.38-2C475.66,250.13,478.1,245.24,480.05,240.19Z"/><path class="cls-35" d="M474.77,211a67.8,67.8,0,0,0,4,5.5,22,22,0,0,0,4.45,5.05,16.61,16.61,0,0,0,2.94,1.66,22.59,22.59,0,0,0,3.15,1.28,21.94,21.94,0,0,1-3.21-1.15,17.55,17.55,0,0,1-3.05-1.56,22.21,22.21,0,0,1-4.74-4.94Q476.4,214,474.77,211Z"/><path class="cls-35" d="M492.86,220.13q.86-.23,1.68-.48a10.17,10.17,0,0,0,3.35-.69,10.46,10.46,0,0,1-3.27,1.25C494,220.2,493.45,220.16,492.86,220.13Z"/><path class="cls-5" d="M493.5,216.79a2.67,2.67,0,0,1,.36,1.28c-.25.84-.59,1.61-.88,2.41.1-.84.26-1.68.32-2.49A2.31,2.31,0,0,0,493.5,216.79Z"/><rect class="cls-36" x="494.75" y="236.27" width="6.7" height="0.5" transform="translate(32.37 531.73) rotate(-57.77)"/><path class="cls-36" d="M496.79,231.73a29.15,29.15,0,0,0-5.11-.29l0-.5a30.07,30.07,0,0,1,5.2.29Z"/><rect class="cls-36" x="491.34" y="235.99" width="0.5" height="5.59" transform="translate(-47.52 149.12) rotate(-16.46)"/><rect class="cls-36" x="493.81" y="245.18" width="6.46" height="0.5" transform="translate(-22.37 51.79) rotate(-5.83)"/><path class="cls-36" d="M503.16,229.94h0a.39.39,0,0,1-.3-.16l.12-.09c-1.26-1.1-2.54-2.21-3.83-3.3l.32-.38c1.35,1.14,2.7,2.3,4,3.45l.21.19-.2.18A.4.4,0,0,1,503.16,229.94Z"/><rect class="cls-36" x="482.88" y="242.29" width="0.5" height="5.14" transform="translate(-39.84 385.83) rotate(-41.96)"/><path class="cls-36" d="M480.69,251.13l-1.87,0,0-.5a56.92,56.92,0,0,0,7.39-.24l0,.5C484.43,251,482.56,251.13,480.69,251.13Z"/><path class="cls-36" d="M490.57,253.6l-.5,0a59.9,59.9,0,0,0-.35-8.36l.5-.05a60.75,60.75,0,0,1,.36,8.21h0Z"/><polygon class="cls-36" points="494.68 252.78 494.65 252.29 499.99 252 500.01 252.5 494.68 252.78"/><path class="cls-36" d="M488.19,258.05s-.08-.08-.35-.08a37,37,0,0,1-5.15-.42l.08-.49a37.42,37.42,0,0,0,5.08.41.85.85,0,0,1,.79.36Z"/><path class="cls-36" d="M491.32,260.78l-.15-.48,6.33-2,0,0,.35-.14a.29.29,0,0,1,.19.35.36.36,0,0,1-.26.25Zm6.23-2.47s0,0,0,0a.21.21,0,0,0,.12.25l.08-.21Z"/><path class="cls-37" d="M485.49,202.7a1,1,0,0,0-.38,1.45,2.36,2.36,0,0,0,1.5.84,4.22,4.22,0,0,1,1.64.61c.54.43.9,1.2,1.59,1.24s1.27-.77,2-.64.85.91.9,1.55a19.48,19.48,0,0,1,0,3.5,1.46,1.46,0,0,0,.22,1.2,1,1,0,0,0,1.2,0,2.6,2.6,0,0,0,.77-1,21.35,21.35,0,0,0,1.15-2.84,3,3,0,0,1,.5-1.08,1,1,0,0,1,1.07-.36,1.19,1.19,0,0,1,.6,1c.16,1.37-.63,2.65-.94,4a2.59,2.59,0,0,0,.14,1.84,1.27,1.27,0,0,0,1.6.6,2,2,0,0,0,.6-.59l.84-1.11a19.94,19.94,0,0,0,2.62-4.2,6.63,6.63,0,0,0,.27-4.83,2.79,2.79,0,0,0-.81-1.21,3.78,3.78,0,0,0-1.42-.62q-2.5-.7-5.09-1.17a17,17,0,0,0-4.87-.3,19.7,19.7,0,0,0-5.73,1.94"/><path class="cls-5" d="M487.92,213.1l3-.81,1-.13.32,0-.05.3a3.9,3.9,0,0,1-1.39,2.3,9.49,9.49,0,0,1-2.27,1.34,9.41,9.41,0,0,0,2.11-1.51,3.63,3.63,0,0,0,1.08-2.18l.26.26-1,.22Z"/><path class="cls-5" d="M487.92,205.54a2.61,2.61,0,0,0-.22,1.26.19.19,0,0,0,.11.16.22.22,0,0,0,.15-.06,1.32,1.32,0,0,0,.45-.8.64.64,0,0,0-.07-.47.34.34,0,0,0-.42-.13"/><path class="cls-23" d="M484.17,201.35c.43-4.78,4.39-8.79,9-10.08a8.15,8.15,0,0,1,3.1-.35,7.78,7.78,0,0,1,2.31.68c9.43,4.24,6.63,13.09,6.63,13.09a7.81,7.81,0,0,1-4.32.62c-5.45-.26-11.12-.59-15.86-3.29Z"/><path class="cls-38" d="M484.8,197.54a.34.34,0,0,1,.09-.19.28.28,0,0,1,.24,0,7.75,7.75,0,0,1,1.9.87,17.36,17.36,0,0,0,5.34,1.6,83.12,83.12,0,0,0,13.19,1.07,1.08,1.08,0,0,1,.9.28,1.11,1.11,0,0,1,0,1.06l-.94,2.53a2.13,2.13,0,0,1-.3.58,2,2,0,0,1-1.5.54A48.3,48.3,0,0,1,489.14,204a11.06,11.06,0,0,1-5-2.26S484.59,198.88,484.8,197.54Z"/><path class="cls-39" d="M492,193.18a10.76,10.76,0,0,0-1,1.32,11,11,0,0,0-2.14,2.55,11.2,11.2,0,0,1,1.73-2.94A10.18,10.18,0,0,1,492,193.18Z"/><path class="cls-39" d="M494.53,193a12.64,12.64,0,0,0-1,1.67,13.34,13.34,0,0,0-2.09,3.31,13.7,13.7,0,0,1,1.63-3.65A12.61,12.61,0,0,1,494.53,193Z"/><path class="cls-39" d="M496.1,193.61c-.17.52-.34,1-.46,1.55a7.05,7.05,0,0,0-1,3,7.23,7.23,0,0,1,.46-3.21C495.43,194.47,495.76,194,496.1,193.61Z"/><path class="cls-39" d="M497.68,194.26c.08.54.14,1.09.17,1.64A14.08,14.08,0,0,1,496.8,199a13.57,13.57,0,0,0,.48-3.14A11.64,11.64,0,0,0,497.68,194.26Z"/><path class="cls-39" d="M498.59,193.64c.37,0,.54.46.71.73a8.1,8.1,0,0,1,.45.94,8.43,8.43,0,0,1-.24,4.09,8.24,8.24,0,0,0-.3-4c0-.32-.1-.65-.17-1S498.92,193.78,498.59,193.64Z"/><path class="cls-39" d="M501,194.09a6.84,6.84,0,0,1,1.26,1.55,7,7,0,0,1,.35,2,6.37,6.37,0,0,1-.05,1,3.85,3.85,0,0,1-.08.49c0,.15,0,.35-.2.43.14-.1.12-.28.13-.44a3.85,3.85,0,0,0,0-.48,16.49,16.49,0,0,0-1.42-4.5Z"/><path class="cls-39" d="M485.06,197.34a5.73,5.73,0,0,0-.16,1.42,14.94,14.94,0,0,0-.51,2.79,14.86,14.86,0,0,1-.05-2.91A6.29,6.29,0,0,1,485.06,197.34Z"/><path class="cls-39" d="M484.9,197.55a5.28,5.28,0,0,1,2.49.41,7.74,7.74,0,0,0,2.16,1.1,19.65,19.65,0,0,1,2.35.79,19.64,19.64,0,0,0-2.42-.52,8.24,8.24,0,0,1-2.36-.87A5,5,0,0,0,484.9,197.55Z"/><path class="cls-39" d="M499.36,200.77l3.85-.23,1.92.09a2.86,2.86,0,0,1,1,.17.8.8,0,0,1,.43.4,1.4,1.4,0,0,1,.11.53,3.78,3.78,0,0,1-.32,1l-.32.91a7.91,7.91,0,0,1-.84,1.73,7.25,7.25,0,0,0,.7-1.77l.26-.93a4,4,0,0,0,.23-.88,1.31,1.31,0,0,0-.1-.4.5.5,0,0,0-.28-.21,2.54,2.54,0,0,0-.89-.07l-1.92.05Z"/><path class="cls-39" d="M486.39,199.57c-.08.09,0,.22,0,.35l.07.37a6.07,6.07,0,0,0-.35,1.41,6.17,6.17,0,0,1-.21-1.5l.21-.34C486.19,199.77,486.24,199.59,486.39,199.57Z"/><path class="cls-39" d="M488.11,200.2c0,.23,0,.46.07.67a6.35,6.35,0,0,0-.47,1.17,5.76,5.76,0,0,1-.07-1.32A6,6,0,0,1,488.11,200.2Z"/><path class="cls-39" d="M490,200.72l.18.78a7.71,7.71,0,0,0-.37,1.45,8.65,8.65,0,0,1-.19-1.53Z"/><path class="cls-39" d="M492.46,201.54a2.15,2.15,0,0,0,.14.45,2,2,0,0,0-.34.71,2.31,2.31,0,0,1-.21-.85A2.94,2.94,0,0,1,492.46,201.54Z"/><path class="cls-39" d="M494.38,201.92a3.21,3.21,0,0,0,.24.45,6.14,6.14,0,0,0-.27.86,6.2,6.2,0,0,1-.3-.89Q494.22,202.12,494.38,201.92Z"/><path class="cls-39" d="M496.78,202.2a2.06,2.06,0,0,0,.17.53,2.38,2.38,0,0,0-.2,1,2.74,2.74,0,0,1-.36-1A2.27,2.27,0,0,1,496.78,202.2Z"/><path class="cls-39" d="M499.38,202.14a6,6,0,0,0,0,.74,8.37,8.37,0,0,0-.63,1.23,9.76,9.76,0,0,1,.09-1.42C499,202.5,499.2,202.32,499.38,202.14Z"/><path class="cls-39" d="M501.61,202.42a2.83,2.83,0,0,1,.25.59,3.18,3.18,0,0,1-.6,1,3,3,0,0,0,0-1.08A3,3,0,0,0,501.61,202.42Z"/><path class="cls-39" d="M503.73,202.54a2.79,2.79,0,0,1,.24.74,2.88,2.88,0,0,1-.83,1.2,2.52,2.52,0,0,0,.27-1.3A2.56,2.56,0,0,0,503.73,202.54Z"/><path class="cls-5" d="M470.9,203.84c-.3-1-.66-1.88-.88-2.91a4.53,4.53,0,0,1,.77-3,4.13,4.13,0,0,1,.49-.6A.92.92,0,0,1,472,197l1.5.05c-2.35-.6-3.28,2-2.93,3.79C470.6,201.84,470.79,202.85,470.9,203.84Z"/><path class="cls-5" d="M473.81,203.21a13.11,13.11,0,0,1,.08-1.77,7.8,7.8,0,0,1,.49-1.73c.23-.53.42-1.06.63-1.6s.24-1.14-.24-1.34a.39.39,0,0,0-.53.27,3.29,3.29,0,0,0-.07.85,2.78,2.78,0,0,1-.65,1.62,2.74,2.74,0,0,0,.51-1.63,3,3,0,0,1,0-.9.63.63,0,0,1,.82-.48,1,1,0,0,1,.64.78,2.26,2.26,0,0,1-.08.94c-.17.57-.33,1.16-.52,1.72a6.71,6.71,0,0,0-.73,1.56A12.07,12.07,0,0,0,473.81,203.21Z"/><path class="cls-5" d="M474.52,204.69l1,1a7.16,7.16,0,0,1,.94,2.63A7.09,7.09,0,0,0,475,206Z"/><path class="cls-40" d="M473.57,249.13a4.89,4.89,0,0,1,3.14-1,24.51,24.51,0,0,0-1.07,2.73,3.42,3.42,0,0,1-2-1.45c-.11-.16-.2-.39-.08-.55"/><path class="cls-40" d="M502.35,251.47l1.14.73a1.89,1.89,0,0,1,.61.51,2,2,0,0,1-.1,1.77,1.24,1.24,0,0,1-.25.43,1.41,1.41,0,0,1-.34.19l-.55.23a1.08,1.08,0,0,1-.43.1.64.64,0,0,1-.3-.11,1.75,1.75,0,0,1-.49-1.91,11.17,11.17,0,0,0,.54-2"/><path class="cls-41" d="M473.54,249.29a3.89,3.89,0,0,0,1.45,1.07,41.77,41.77,0,0,0,12.47,4.12,29,29,0,0,0,13-.89c.9-.29,1.79-.63,2.69-.91a1,1,0,0,1,.84,0,.78.78,0,0,1,.25.52,5.38,5.38,0,0,1-.22,2.18l-.78,3.23a2.31,2.31,0,0,1-.34.88,2.34,2.34,0,0,1-.95.65,26.59,26.59,0,0,1-28.76-4.64,1.84,1.84,0,0,1-.76-2.05,20.48,20.48,0,0,1,1-4.23"/><path class="cls-3" d="M408.08,87A282.44,282.44,0,0,0,444,112.7c3.13,1.94,6.31,3.79,9.51,5.62a17.78,17.78,0,0,1,4.45,3.37,13.11,13.11,0,0,1,2.59,4.94c.54,1.79.87,3.61,1.25,5.41l1.1,5.42L465,148.3q4.2,21.72,7.69,43.56-3.63-21.81-8-43.5l-2.21-10.83-1.14-5.41c-.39-1.8-.73-3.62-1.27-5.36a12.57,12.57,0,0,0-2.53-4.76,17.23,17.23,0,0,0-4.35-3.25c-3.21-1.81-6.42-3.64-9.57-5.56A283.4,283.4,0,0,1,408.08,87Z"/><polygon class="cls-3" points="472.92 228.32 474.41 235.28 476.55 249.33 473.85 235.37 472.92 228.32"/><path class="cls-23" d="M376.32,98.83c-.16,3.3,1.54,6.4,3.45,9.1s4.09,5.29,5.15,8.42c.71,2.13.87,4.43,1.73,6.51a1.62,1.62,0,0,0,.35.59,1.83,1.83,0,0,0,1.26.36,25.26,25.26,0,0,0,4-.25l.31-6a18,18,0,0,0-.13-4.28c-.3-1.61-1.05-3.11-1.27-4.73a32.17,32.17,0,0,0,8,3.33,8.83,8.83,0,0,1,2.36.83,7.88,7.88,0,0,1,2.71,3.61l2.56,5.26a2.36,2.36,0,0,0,.74,1,2.24,2.24,0,0,0,1.05.26,24.53,24.53,0,0,0,4.37-.08l-3.24-11.94a8.62,8.62,0,0,0-.85-2.25,8.39,8.39,0,0,0-2.61-2.34l-7.09-4.74A31.17,31.17,0,0,1,393.32,97a1.81,1.81,0,0,0-.7-.54,1.72,1.72,0,0,0-.75,0c-2.26.32-4.47.92-6.75,1.09-2.95.22-6-.26-8.82.71"/><path class="cls-42" d="M379.76,60.4c-.67,2.16-2.08,4-3.06,6-2.37,4.95-2,10.71-1.64,16.19l1,14.6a1.54,1.54,0,0,0,.21.8,1.38,1.38,0,0,0,.53.39c3.21,1.62,7,1.41,10.54.66a15.88,15.88,0,0,0,5.35-2,1.58,1.58,0,0,0,.64-.64,1.66,1.66,0,0,0,.07-.86c-.53-6.06-1.06-12.12-2-18.13a40.07,40.07,0,0,1-.65-5.46c0-1.36.08-2.72,0-4.07a6.45,6.45,0,0,0-1.43-3.75,13.28,13.28,0,0,0-3.11-2.1,4.53,4.53,0,0,1-2.37-2.79,13.65,13.65,0,0,1-4.25,1.13Z"/><path class="cls-43" d="M376.09,47.65c-.18.9-1.07,1.53-1.24,2.43a1.64,1.64,0,0,0,2.23,1.82,1.74,1.74,0,0,0,3.24,1.26,2.9,2.9,0,0,0,1.2,1.84,1.45,1.45,0,0,0,.61.27,1.64,1.64,0,0,0,1.28-.58,4,4,0,0,0,.86-4,1.67,1.67,0,0,0,1-2.1,1.11,1.11,0,0,0,.94-1,3.18,3.18,0,0,0-.25-1.45,1,1,0,0,0-.25-.45.91.91,0,0,0-.53-.18,8.57,8.57,0,0,0-4.13.59c-.7.29-1.36.67-2.07.93a13,13,0,0,1-3.16.59"/><path class="cls-44" d="M394,98.54l9,5.75,4.21,2.93a4.31,4.31,0,0,1,1.73,2c.32.83.48,1.66.71,2.48l2.61,9.92h0l-.33-.82.35.81h0l-2.87-9.85c-.25-.81-.45-1.66-.76-2.42a3.89,3.89,0,0,0-1.64-1.77l-4.29-2.82Z"/><path class="cls-44" d="M389.88,108.49a66.91,66.91,0,0,0,7.52,2.26c1.25.38,2.5.68,3.8,1a2.58,2.58,0,0,1,.93.51,3.21,3.21,0,0,1,.61.84l1,1.72,3.83,6.86L403.45,115l-1-1.68a2.12,2.12,0,0,0-1.37-1.12c-1.24-.28-2.56-.55-3.82-.88A65.42,65.42,0,0,1,389.88,108.49Z"/><path class="cls-44" d="M389.27,104.18c.78,1.9,1.58,3.78,2.35,5.7a24.45,24.45,0,0,1,1.24,6.06c.15,2.08-.46,4.09-.27,6.15-.28-2,.23-4.11,0-6.13a24.12,24.12,0,0,0-1.5-5.9C390.5,108.1,389.87,106.14,389.27,104.18Z"/><path class="cls-44" d="M375.9,101.59a46.25,46.25,0,0,0,4.38,6.59c1.48,2.15,3.44,4.06,4.52,6.54a34,34,0,0,1,2.17,7.64,34.22,34.22,0,0,0-2.42-7.52c-1.14-2.38-3.13-4.19-4.72-6.33A46,46,0,0,1,375.9,101.59Z"/><path class="cls-42" d="M391.48,81.27l11,2.41a10.49,10.49,0,0,0-1.45,2.43,3.65,3.65,0,0,0-1.71-.31l-8.06-.12a.5.5,0,0,1-.24-.06.34.34,0,0,1-.12-.26,4.11,4.11,0,0,1,0-1.16l.43-3"/><path class="cls-23" d="M375.7,47.44a8.46,8.46,0,0,1,3.22-8.77,5.67,5.67,0,0,1,1.91-1,5.15,5.15,0,0,1,1.66-.15,7.48,7.48,0,0,1,7.59,6.72,5.37,5.37,0,0,1-2.61,1.49c-3.57,1.22-7.3,2.46-11,1.94Z"/><path class="cls-38" d="M375.14,44.84a.26.26,0,0,1,0-.15s.1-.06.15-.07a5.43,5.43,0,0,1,1.45.07,11.86,11.86,0,0,0,3.84-.33,56.56,56.56,0,0,0,8.74-2.68.77.77,0,0,1,.66,0c.22.13.25.43.26.68l0,1.86a1.18,1.18,0,0,1,0,.46,1.36,1.36,0,0,1-.83.72,32.81,32.81,0,0,1-9.82,2.52,7.54,7.54,0,0,1-3.78-.18Z"/><path class="cls-39" d="M378.63,40.21a6.59,6.59,0,0,0-.26,1.15,7.39,7.39,0,0,0-.8,2.15,7.69,7.69,0,0,1,.28-2.37A7.83,7.83,0,0,1,378.63,40.21Z"/><path class="cls-39" d="M380.23,39.44a9,9,0,0,0-.16,1.36,9,9,0,0,0-.58,2.64,9.26,9.26,0,0,1,0-2.78A9.73,9.73,0,0,1,380.23,39.44Z"/><path class="cls-39" d="M381.4,39.43c.05.38.1.76.18,1.12a4.78,4.78,0,0,0,.05,2.16,5.08,5.08,0,0,1-.61-2.18C381.13,40.15,381.26,39.79,381.4,39.43Z"/><path class="cls-39" d="M382.58,39.45a10.76,10.76,0,0,1,.61,1,9.59,9.59,0,0,1,0,2.27,9.56,9.56,0,0,0-.57-2.13A10.65,10.65,0,0,0,382.58,39.45Z"/><path class="cls-39" d="M383,38.82c.26-.09.5.13.68.25a6.47,6.47,0,0,1,.57.47,5.8,5.8,0,0,1,.81,2.74,5.51,5.51,0,0,0-1.27-2.4,5.2,5.2,0,0,0-.32-.62C383.34,39.08,383.25,38.84,383,38.82Z"/><path class="cls-39" d="M384.68,38.49a4.37,4.37,0,0,1,1.27.61,4.6,4.6,0,0,1,.7,1.21,5.6,5.6,0,0,1,.21.66l.06.34c0,.1.05.24,0,.33.06-.1,0-.21,0-.31a2.88,2.88,0,0,0-.13-.31,4.08,4.08,0,0,0-.32-.58,4.33,4.33,0,0,0-.86-.95A4,4,0,0,0,384.68,38.49Z"/><path class="cls-39" d="M375.26,44.64a3.63,3.63,0,0,0,.34.94,9.52,9.52,0,0,0,.3,1.94,10.32,10.32,0,0,1-.86-1.84A4,4,0,0,1,375.26,44.64Z"/><path class="cls-39" d="M375.2,44.82a3.73,3.73,0,0,1,1.7-.46l.85.17a4.47,4.47,0,0,0,.82,0,14.06,14.06,0,0,1,1.72-.05,14.24,14.24,0,0,0-1.68.33,4.32,4.32,0,0,1-.88.11l-.86,0A3.37,3.37,0,0,0,375.2,44.82Z"/><path class="cls-39" d="M385.32,43.2,387.7,42l1.27-.41a1.91,1.91,0,0,1,.71-.14.63.63,0,0,1,.42.16,1.2,1.2,0,0,1,.21.34,2.87,2.87,0,0,1,0,.7v.67a5.45,5.45,0,0,1-.12,1.33,4.85,4.85,0,0,0,0-1.32l-.08-.66c0-.21,0-.49-.09-.61a.49.49,0,0,0-.16-.21.25.25,0,0,0-.2-.05,1.61,1.61,0,0,0-.56.19l-1.22.54Z"/><path class="cls-39" d="M376.68,45.74c0,.14.2.29.31.42a4.42,4.42,0,0,0,.05,1,4.34,4.34,0,0,1-.6-.89C376.51,46.1,376.51,45.89,376.68,45.74Z"/><path class="cls-39" d="M378,45.7a3.08,3.08,0,0,0,.3.41,3.17,3.17,0,0,0-.09.88,3.49,3.49,0,0,1-.47-.82A2.68,2.68,0,0,1,378,45.7Z"/><path class="cls-39" d="M379.26,45.57l.4.43a4.62,4.62,0,0,0,0,1,4.94,4.94,0,0,1-.6-.91Z"/><path class="cls-39" d="M381.08,45.46a2.17,2.17,0,0,0,.29.24,1.39,1.39,0,0,0-.12.55,1.57,1.57,0,0,1-.44-.48A1.63,1.63,0,0,1,381.08,45.46Z"/><path class="cls-39" d="M382.41,45.21l.38.2a6.26,6.26,0,0,0-.06.65c-.16-.15-.32-.3-.48-.48C382.3,45.45,382.35,45.33,382.41,45.21Z"/><path class="cls-39" d="M384,44.78a1.4,1.4,0,0,0,.33.27,1.4,1.4,0,0,0,0,.7,1.68,1.68,0,0,1-.58-.55A1.4,1.4,0,0,1,384,44.78Z"/><path class="cls-39" d="M385.68,44.08c.09.16.19.31.29.46a6,6,0,0,0-.18,1,7.61,7.61,0,0,1-.39-.93C385.49,44.4,385.58,44.23,385.68,44.08Z"/><path class="cls-39" d="M387.18,43.69a1.85,1.85,0,0,1,.4.29,2.47,2.47,0,0,1-.21.83,1.86,1.86,0,0,0-.34-.69A1.57,1.57,0,0,0,387.18,43.69Z"/><path class="cls-39" d="M388.58,43.23a2,2,0,0,1,.43.39,2.07,2.07,0,0,1-.31,1,1.78,1.78,0,0,0-.25-.88A1.74,1.74,0,0,0,388.58,43.23Z"/><path class="cls-42" d="M390.72,71.18c-.61-1-1.4-1.91-2-2.93s-.44-3.41-.13-4.55c1.22.63,2,2,3,2.88,5.87,5.15,11.47,11,17.35,16.16a9.06,9.06,0,0,1-2,1.62,1,1,0,0,1-.63.22,1.16,1.16,0,0,1-.56-.29C400.5,80.15,390.72,71.18,390.72,71.18Z"/><path class="cls-45" d="M377.58,70.67a55.53,55.53,0,0,1,4.11,5.2c.58.89,1.15,1.81,1.76,2.66s1.23,1.75,1.84,2.63a17,17,0,0,0,4.33,4.64h0l-.2-.36.22.35,0,0,0,0a17.34,17.34,0,0,1-4.56-4.48c-.65-.85-1.28-1.71-1.94-2.54s-1.27-1.73-1.89-2.6A56.56,56.56,0,0,0,377.58,70.67Z"/><path class="cls-45" d="M384.59,70.63c1.4,2.28,2.94,4.47,4.49,6.64.72,1.11,1.43,2.28,2.17,3.34a2.56,2.56,0,0,0,1.62.87l1.93.55,3.86,1.08,1.93.55,1,.27a4.21,4.21,0,0,0,.48.12c.07,0,.18,0,.19-.1s-.12-.18-.16-.08c0-.1.17,0,.17.08s-.12.12-.2.12a2.68,2.68,0,0,1-.49-.11l-1-.23-1.95-.48-3.89-1-2-.47a6.83,6.83,0,0,1-1-.29,2.37,2.37,0,0,1-.87-.66c-.82-1.1-1.54-2.19-2.31-3.3C387.21,75.3,385.83,73,384.59,70.63Z"/><path class="cls-45" d="M390.88,71.89c-.15,0-.19-.34,0-.28l.33.29.64.59,1.31,1.15c.88.77,1.77,1.51,2.67,2.25a114.29,114.29,0,0,0,10.8,8.81,112.4,112.4,0,0,1-11.18-8.39c-.84-.81-1.67-1.62-2.48-2.46l-1.22-1.26-.59-.64-.3-.31C390.77,71.56,390.72,71.9,390.88,71.89Z"/><path class="cls-45" d="M391.39,65.91A68,68,0,0,0,397,71.54c3.74,3.76,7.78,7.25,11.42,11.12-3.78-3.74-7.92-7.07-11.82-10.71A71.4,71.4,0,0,1,391.39,65.91Z"/><path class="cls-45" d="M391.39,66.82a10,10,0,0,0-1.8-2,9.48,9.48,0,0,0-1.94-1.8,5.49,5.49,0,0,0-2.46-1,5.59,5.59,0,0,1,2.61.76A10.44,10.44,0,0,1,390,64.44,10.93,10.93,0,0,1,391.39,66.82Z"/><path class="cls-45" d="M377.21,64.43c.22-.5.46-1,.67-1.48a13.88,13.88,0,0,0,1.76-2.63,14.28,14.28,0,0,1-1.29,3C378,63.66,377.59,64,377.21,64.43Z"/><path class="cls-45" d="M384.16,59.24a10.88,10.88,0,0,0,.68.95,11.18,11.18,0,0,0,.86,2.1,12.2,12.2,0,0,1-1.38-1.87C384.25,60,384.2,59.63,384.16,59.24Z"/><path class="cls-45" d="M375.86,67.39a60.41,60.41,0,0,0-.87,10,149.21,149.21,0,0,0,.75,20.15,151,151,0,0,1-1.32-20.17A60.19,60.19,0,0,1,375.86,67.39Z"/><path class="cls-45" d="M375.88,98.24a42.49,42.49,0,0,0,4.69.88,16.73,16.73,0,0,0,9.38-.35,17.1,17.1,0,0,1-9.48.91A42.15,42.15,0,0,1,375.88,98.24Z"/><path class="cls-45" d="M393.6,96.33a33.22,33.22,0,0,0-.25-3.73,34.33,34.33,0,0,0-.83-7.4,35.37,35.37,0,0,1,1.4,7.38A36,36,0,0,1,393.6,96.33Z"/><path class="cls-45" d="M390.34,69.1a.2.2,0,0,1,0-.36l0,0v0l.55,3.44a18.91,18.91,0,0,0,.6,3.8,11.74,11.74,0,0,1,.45,3.86,11.43,11.43,0,0,0-.73-3.78,20.59,20.59,0,0,1-.89-3.82l0-3.5.05,0A.17.17,0,0,0,390.34,69.1Z"/><path class="cls-45" d="M376.85,69.12a3.15,3.15,0,0,1,.21-3.22,3.26,3.26,0,0,1,3.15-.92,3.91,3.91,0,0,1,2.45,2,3.77,3.77,0,0,0-2.5-1.76,2.84,2.84,0,0,0-2.67,1A2.89,2.89,0,0,0,376.85,69.12Z"/><path class="cls-45" d="M380,60.25l1.32-.44A4.68,4.68,0,0,0,384,59.2a4.93,4.93,0,0,1-2.52,1.17Z"/><path class="cls-45" d="M390.4,85.65A28.9,28.9,0,0,1,395,85.3c1.52.12,3,.3,4.53.44l1.13.1c.36,0,.81.15,1-.08.39-.61.71-1.33,1.08-2-.33.69-.59,1.38-1,2.07a.73.73,0,0,1-.58.21h-.57l-1.14,0c-1.52,0-3-.14-4.54-.17A29.76,29.76,0,0,0,390.4,85.65Z"/><path class="cls-45" d="M406.94,84.54a4.72,4.72,0,0,0,.72-.84,5.66,5.66,0,0,0,1.56-1.49A5.86,5.86,0,0,1,408,84.13,5,5,0,0,1,406.94,84.54Z"/><path class="cls-5" d="M390.19,45.57a6.31,6.31,0,0,0-.05,2.8,6.59,6.59,0,0,0,.75,2.69,1.26,1.26,0,0,1,.08.77,1.66,1.66,0,0,1-.38.66,4.47,4.47,0,0,1-1.16.87,4.37,4.37,0,0,0,1.05-1,1.05,1.05,0,0,0,.15-1.23,7,7,0,0,1-1.05-2.74A6.56,6.56,0,0,1,390.19,45.57Z"/><path class="cls-5" d="M389.43,53.46a6,6,0,0,1-1,3,3.45,3.45,0,0,1-3,1,3.2,3.2,0,0,1-1.46-.6,3.55,3.55,0,0,0-1.33-.76,3.5,3.5,0,0,1,1.4.64,3.06,3.06,0,0,0,1.42.44A3,3,0,0,0,388,56.09,5.6,5.6,0,0,0,389.43,53.46Z"/><path class="cls-5" d="M388.67,52.77a14,14,0,0,1-2.74,0,13.15,13.15,0,0,1-1.26-.39l.27-.17a1.33,1.33,0,0,0,.25.83,4.6,4.6,0,0,0,.58.81A4.37,4.37,0,0,0,387.44,55a4.55,4.55,0,0,1-1.82-1,4.46,4.46,0,0,1-.7-.8,1.55,1.55,0,0,1-.4-1.08l0-.23.26.06c.41.11.82.19,1.24.26A14.51,14.51,0,0,0,388.67,52.77Z"/><path class="cls-5" d="M388.19,47.51a2.4,2.4,0,0,0-.07,1.65s0,.08.07.08.05,0,.07,0a1.07,1.07,0,0,0,.36-.89,1.7,1.7,0,0,0-.37-.9,1.54,1.54,0,0,1-.25.26"/><path class="cls-5" d="M383.36,55.73a6.57,6.57,0,0,0,.13,1.19,3.77,3.77,0,0,0,.21,2.27,4.09,4.09,0,0,1-.78-2.29A7.43,7.43,0,0,1,383.36,55.73Z"/><path class="cls-5" d="M380.16,54.47a3.85,3.85,0,0,1,.56,1.82,30.16,30.16,0,0,1-.59,3.67,28.4,28.4,0,0,0,0-3.69A3.66,3.66,0,0,0,380.16,54.47Z"/><path class="cls-3" d="M373.85,84.84a37.61,37.61,0,0,0-16.18,9.59,48.93,48.93,0,0,0-10.79,15.5,85.35,85.35,0,0,0-3.17,9,21,21,0,0,1-2,4.35,11.67,11.67,0,0,1-1.5,1.85,8.27,8.27,0,0,1-1.95,1.37,8.48,8.48,0,0,0,1.92-1.39,11,11,0,0,0,1.47-1.87,20.84,20.84,0,0,0,1.89-4.36,88.1,88.1,0,0,1,3.05-9A49.66,49.66,0,0,1,357.27,94,38,38,0,0,1,373.85,84.84Z"/></g></svg>