<svg id="Layer_1" data-name="Layer 1" xmlns="http://www.w3.org/2000/svg" xmlns:xlink="http://www.w3.org/1999/xlink" viewBox="0 0 366 304"><defs><style>.cls-1,.cls-4{fill:#fff;}.cls-1,.cls-13,.cls-14{stroke:#1776ff;}.cls-1,.cls-13,.cls-14,.cls-8{stroke-miterlimit:10;}.cls-2{opacity:0.1;}.cls-3{fill:#e76548;}.cls-5{fill:#308ff0;}.cls-6{fill:#1776ff;}.cls-7{fill:#3487ff;}.cls-13,.cls-14,.cls-8{fill:none;}.cls-8{stroke:#fff;}.cls-9{clip-path:url(#clip-path);}.cls-10{fill:#f8d135;}.cls-11{fill:#c6a82c;}.cls-12{fill:#53539b;}.cls-14{stroke-width:0.5px;}</style><clipPath id="clip-path"><path class="cls-1" d="M167.5,97c-5.9,7.9-8.1,19-3.32,27.59a29.46,29.46,0,0,0,6.28,7.57,43.21,43.21,0,0,0,12.36,7.75A24.58,24.58,0,0,0,195.09,142a26.13,26.13,0,0,0,5.82-1.52,38.69,38.69,0,0,0,11.46-6.28,23.47,23.47,0,0,0,7.5-10.56,34.45,34.45,0,0,0,1.31-6.54c.66-5.12,1.06-10.46-.67-15.33a21.71,21.71,0,0,0-11.64-12C203.64,87.39,180.71,79.28,167.5,97Z"/></clipPath></defs><title>VyteAPI-Automated</title><g class="cls-2"><path class="cls-3" d="M168.06,140.33c20.91-7.43,37-27,40.32-48.9,1.56-10.34-.12-22.15-8.13-28.87-5.09-4.28-11.93-5.81-18.55-6.46-20.2-2-40.51,3.13-59.37,10.63A210.26,210.26,0,0,0,69.33,97c-7.26,5.75-14.19,12.15-19,20.07-3.22,5.31-5.47,11.64-4.18,17.72a22.23,22.23,0,0,0,6,10.47c8.34,8.77,20.94,12.44,33,12.47s23.94-3.19,35.61-6.38l47.59-13"/></g><g class="cls-2"><path class="cls-3" d="M265.05,95.27a14.89,14.89,0,0,0,9.53-11.55c.36-2.45,0-5.24-1.92-6.83a7.93,7.93,0,0,0-4.39-1.52c-4.77-.47-9.57.74-14,2.51A49.53,49.53,0,0,0,241.72,85a18.38,18.38,0,0,0-4.49,4.74,6,6,0,0,0-1,4.19,5.17,5.17,0,0,0,1.41,2.47,10.74,10.74,0,0,0,7.81,2.95,31.6,31.6,0,0,0,8.41-1.51l11.25-3.07"/></g><g class="cls-2"><path class="cls-3" d="M110.85,187.73c-8.13,8.42-16.38,17-21.77,27.38s-7.63,23-3.19,33.87c4.21,10.28,13.93,17.59,24.49,21s21.93,3.45,33,2.45a322.66,322.66,0,0,0,36.53-5.89c34-7,68.28-16,97.38-34.91s52.6-49.23,55.39-83.81c.74-9.08-.09-18.71-5-26.4-4.75-7.45-12.91-12.29-21.49-14.41s-17.59-1.78-26.36-.62c-39.11,5.17-89.84,13-121.25,36.84C142.33,155.62,110.85,187.73,110.85,187.73Z"/></g><path class="cls-4" d="M270.47,274.94c-1.74-51.72-3.69-158.38-3.69-158.38-50.51-1.23-153.36,3.27-153.36,3.27-2.5,34.44-7.5,147-9.09,159.84"/><path class="cls-5" d="M270.47,274.94l-4.23-157.26,0-1.11.55.55c-12.76-.31-25.55-.27-38.33-.15s-25.56.36-38.34.66q-38.34.91-76.66,2.48l.27-.26c-1.83,26.61-3.15,53.27-4.6,79.91l-2.17,40-1.15,20c-.42,6.66-.78,13.32-1.45,20,.65-6.64,1-13.31,1.38-20l1.08-20,2-40c1.36-26.65,2.58-53.31,4.32-79.95v-.25h.26q38.32-1.68,76.67-2.76,19.17-.52,38.35-.81c12.79-.15,25.58-.25,38.37,0l.54,0v.54l0,1.11Z"/><path class="cls-4" d="M209.38,107.68a4.44,4.44,0,0,1,2.6.19,1.2,1.2,0,0,1,.61.42,1.28,1.28,0,0,1,.14.75,6.41,6.41,0,0,1-2.22,4.57c-.31.26-.74.51-1.11.33s-.45-.65-.47-1.06a19.88,19.88,0,0,1,.29-4.56.87.87,0,0,1,.26-.58"/><path class="cls-6" d="M117.33,215.88c47.47,0,139.94.48,139.94.48s0,.28.1.2.1-.28.06-.43a31.31,31.31,0,0,1-.92-8l-.37-12.86-131-1.16-6.37-.06Z"/><path class="cls-6" d="M258.6,227.65l0,22.31V250h-.06q-43.75.18-87.51-.83l-55.74-1.49h-.21v-.22l1.16-21.74v-.18h.17q35.53.77,71.06,1.35c23.68.38,47.37.71,71.06.73-23.69,0-47.38-.23-71.07-.54s-47.37-.72-71-1.18l.18-.18-1.1,21.76-.21-.23,55.74,1.34q43.74,1.17,87.5,1.29l-.06.05Z"/><path class="cls-6" d="M146.62,150.93V154h3.55v-3.08h1v7.36h-1v-3.45h-3.55v3.45h-1v-7.36Z"/><path class="cls-6" d="M153.28,155.82a1.69,1.69,0,0,0,1.81,1.83,3.5,3.5,0,0,0,1.46-.27l.17.69a4.34,4.34,0,0,1-1.76.33,2.46,2.46,0,0,1-2.6-2.67,2.56,2.56,0,0,1,2.48-2.84,2.23,2.23,0,0,1,2.18,2.48,4,4,0,0,1,0,.45Zm2.82-.69a1.37,1.37,0,0,0-1.34-1.56,1.6,1.6,0,0,0-1.47,1.56Z"/><path class="cls-6" d="M158.21,150.54h1v7.75h-1Z"/><path class="cls-6" d="M160.79,150.54h1v7.75h-1Z"/><path class="cls-6" d="M168.14,155.6a2.59,2.59,0,0,1-2.63,2.81,2.51,2.51,0,0,1-2.53-2.72,2.57,2.57,0,0,1,2.62-2.8A2.5,2.5,0,0,1,168.14,155.6Zm-4.19.06c0,1.15.66,2,1.6,2s1.6-.87,1.6-2.06c0-.89-.44-2-1.58-2S164,154.65,164,155.66Z"/><path class="cls-6" d="M171.17,154.87c.77,0,.88-.42.88-.81a7,7,0,0,0-.08-.91,5.61,5.61,0,0,1-.09-.91c0-1,.65-1.43,1.58-1.43h.23v.6h-.2c-.64,0-.86.35-.86.94a4.3,4.3,0,0,0,.08.78,5.46,5.46,0,0,1,.07.83,1,1,0,0,1-.78,1.17v0a1,1,0,0,1,.78,1.18,5.35,5.35,0,0,1-.07.83,4.41,4.41,0,0,0-.08.79c0,.61.25.95.86.95h.2v.6h-.23c-.9,0-1.58-.39-1.58-1.5a5.37,5.37,0,0,1,.09-.89,6.69,6.69,0,0,0,.08-.88c0-.34-.11-.81-.88-.81Z"/><path class="cls-6" d="M174.27,154.87c.77,0,.88-.42.88-.81a5.61,5.61,0,0,0-.09-.91,7,7,0,0,1-.08-.91c0-1,.65-1.43,1.58-1.43h.23v.6h-.2c-.64,0-.86.35-.86.94a4.3,4.3,0,0,0,.08.78,5.46,5.46,0,0,1,.07.83,1,1,0,0,1-.78,1.17v0a1,1,0,0,1,.78,1.18,5.35,5.35,0,0,1-.07.83,4.41,4.41,0,0,0-.08.79c0,.61.25.95.86.95h.2v.6h-.23c-.91,0-1.58-.39-1.58-1.5a6.69,6.69,0,0,1,.08-.89,5.36,5.36,0,0,0,.09-.88c0-.34-.11-.81-.88-.81Z"/><path class="cls-6" d="M182.9,158.05a4.81,4.81,0,0,1-2,.35,3.44,3.44,0,0,1-3.63-3.73,3.66,3.66,0,0,1,3.84-3.86,4,4,0,0,1,1.75.33l-.23.78a3.37,3.37,0,0,0-1.49-.31,2.73,2.73,0,0,0-2.87,3,2.68,2.68,0,0,0,2.83,3,3.71,3.71,0,0,0,1.55-.31Z"/><path class="cls-6" d="M184.05,150.54h1v7.75h-1Z"/><path class="cls-6" d="M187.69,151.52a.56.56,0,0,1-.61.59.56.56,0,0,1-.57-.59.58.58,0,0,1,.6-.6A.56.56,0,0,1,187.69,151.52Zm-1.06,6.77V153h1v5.28Z"/><path class="cls-6" d="M189.71,155.82a1.69,1.69,0,0,0,1.81,1.83,3.56,3.56,0,0,0,1.47-.27l.16.69a4.34,4.34,0,0,1-1.76.33,2.45,2.45,0,0,1-2.59-2.67,2.55,2.55,0,0,1,2.47-2.84,2.23,2.23,0,0,1,2.18,2.48,4,4,0,0,1,0,.45Zm2.82-.69a1.37,1.37,0,0,0-1.33-1.56,1.61,1.61,0,0,0-1.48,1.56Z"/><path class="cls-6" d="M194.64,154.43c0-.54,0-1,0-1.42h.85l.05.87h0a1.94,1.94,0,0,1,1.74-1c.73,0,1.87.43,1.87,2.24v3.16h-1v-3c0-.85-.32-1.56-1.22-1.56a1.36,1.36,0,0,0-1.29,1,1.25,1.25,0,0,0-.07.45v3.18h-1Z"/><path class="cls-6" d="M201.81,151.49V153h1.37v.73h-1.37v2.84c0,.66.18,1,.72,1a1.86,1.86,0,0,0,.56-.07l0,.72a2.26,2.26,0,0,1-.85.14,1.35,1.35,0,0,1-1-.41,2,2,0,0,1-.37-1.37v-2.88h-.82V153h.82v-1.27Z"/><path class="cls-6" d="M204,157.72a.65.65,0,0,1,.66-.69.69.69,0,0,1,0,1.38A.65.65,0,0,1,204,157.72Z"/><path class="cls-6" d="M206.52,158.29v-7.36h1l2.35,3.72a19,19,0,0,1,1.32,2.39h0c-.09-1-.11-1.87-.11-3v-3.08H212v7.36h-1l-2.33-3.74a21,21,0,0,1-1.38-2.45h0c0,.93.08,1.81.08,3v3.15Z"/><path class="cls-6" d="M216.59,158.29l-.08-.67h0a1.94,1.94,0,0,1-1.61.79,1.51,1.51,0,0,1-1.62-1.52c0-1.28,1.14-2,3.18-2v-.11a1.09,1.09,0,0,0-1.2-1.23,2.63,2.63,0,0,0-1.38.4l-.22-.64a3.33,3.33,0,0,1,1.74-.46c1.61,0,2,1.1,2,2.16v2a8.14,8.14,0,0,0,.08,1.27Zm-.14-2.7c-1,0-2.24.16-2.24,1.19a.86.86,0,0,0,.91.92,1.31,1.31,0,0,0,1.27-.89.8.8,0,0,0,.06-.3Z"/><path class="cls-6" d="M218.92,154.43c0-.54,0-1,0-1.42h.84l0,.85h0a1.79,1.79,0,0,1,1.65-1,1.56,1.56,0,0,1,1.5,1.05h0a2.09,2.09,0,0,1,.59-.68,1.82,1.82,0,0,1,1.17-.37c.7,0,1.73.45,1.73,2.29v3.11h-.94v-3c0-1-.37-1.63-1.14-1.63a1.26,1.26,0,0,0-1.14.87,1.73,1.73,0,0,0-.07.48v3.27h-.94v-3.17c0-.84-.37-1.45-1.1-1.45a1.31,1.31,0,0,0-1.19,1,1.22,1.22,0,0,0-.08.47v3.19h-.94Z"/><path class="cls-6" d="M228.56,155.82a1.69,1.69,0,0,0,1.81,1.83,3.54,3.54,0,0,0,1.46-.27l.16.69a4.3,4.3,0,0,1-1.76.33,2.45,2.45,0,0,1-2.59-2.67,2.56,2.56,0,0,1,2.48-2.84,2.23,2.23,0,0,1,2.18,2.48,2.31,2.31,0,0,1,0,.45Zm2.81-.69a1.37,1.37,0,0,0-1.33-1.56,1.59,1.59,0,0,0-1.47,1.56Z"/><path class="cls-6" d="M235.48,155.43c-.77,0-.88.47-.88.81a5.36,5.36,0,0,0,.09.88,6.69,6.69,0,0,1,.08.89c0,1.11-.68,1.5-1.58,1.5H233v-.6h.19c.61,0,.87-.34.87-.95a5.57,5.57,0,0,0-.08-.79,5.31,5.31,0,0,1-.08-.83,1.06,1.06,0,0,1,.78-1.18v0a1.05,1.05,0,0,1-.78-1.17,5.43,5.43,0,0,1,.08-.83,5.43,5.43,0,0,0,.08-.78c0-.59-.23-.93-.86-.94H233v-.6h.22c.93,0,1.59.43,1.59,1.43a7,7,0,0,1-.08.91,5.61,5.61,0,0,0-.09.91c0,.39.11.81.88.81Z"/><path class="cls-6" d="M238.58,155.43c-.77,0-.88.47-.88.81a6.69,6.69,0,0,0,.08.88,5.37,5.37,0,0,1,.09.89,1.38,1.38,0,0,1-1.58,1.5h-.23v-.6h.18c.62,0,.88-.34.88-.95a7.55,7.55,0,0,0-.08-.79,5.27,5.27,0,0,1-.09-.83,1.06,1.06,0,0,1,.79-1.18v0A1.06,1.06,0,0,1,237,154a5.41,5.41,0,0,1,.09-.83,7.37,7.37,0,0,0,.08-.78c0-.59-.23-.93-.86-.94h-.2v-.6h.22c.92,0,1.59.43,1.59,1.43a5.61,5.61,0,0,1-.09.91,7,7,0,0,0-.08.91c0,.39.11.81.88.81Z"/><path class="cls-4" d="M166.92,207.25a2.46,2.46,0,0,0,1.3.37c.75,0,1.18-.39,1.18-1s-.3-.83-1.06-1.12c-.92-.33-1.49-.8-1.49-1.6a1.63,1.63,0,0,1,1.82-1.53,2.59,2.59,0,0,1,1.25.28l-.2.59a2.29,2.29,0,0,0-1.07-.26c-.77,0-1.06.46-1.06.84s.34.79,1.12,1.09c.95.37,1.44.83,1.44,1.65s-.65,1.63-2,1.63a2.93,2.93,0,0,1-1.44-.36Z"/><path class="cls-4" d="M174.5,207c0,.42,0,.78,0,1.1h-.65l0-.66h0a1.49,1.49,0,0,1-1.33.75c-.64,0-1.4-.35-1.4-1.77v-2.37h.74v2.24c0,.77.23,1.29.9,1.29a1,1,0,0,0,1-1v-2.49h.73Z"/><path class="cls-4" d="M179.21,204.09c0,.3,0,.62,0,1.12v2.35a2.33,2.33,0,0,1-.58,1.84,2.13,2.13,0,0,1-1.47.49,2.6,2.6,0,0,1-1.35-.34L176,209a2.28,2.28,0,0,0,1.19.32c.75,0,1.31-.39,1.31-1.41v-.45h0a1.46,1.46,0,0,1-1.29.67,1.81,1.81,0,0,1-1.72-2,1.94,1.94,0,0,1,1.82-2.15,1.36,1.36,0,0,1,1.27.71h0l0-.62Zm-.76,1.6a1.15,1.15,0,0,0,0-.33,1.07,1.07,0,0,0-1-.78c-.7,0-1.21.59-1.21,1.53,0,.79.4,1.45,1.2,1.45a1.07,1.07,0,0,0,1-.75,1.32,1.32,0,0,0,.06-.39Z"/><path class="cls-4" d="M183.88,204.09c0,.3,0,.62,0,1.12v2.35a2.29,2.29,0,0,1-.58,1.84,2.13,2.13,0,0,1-1.47.49,2.56,2.56,0,0,1-1.34-.34l.18-.56a2.28,2.28,0,0,0,1.19.32c.75,0,1.3-.39,1.3-1.41v-.45h0a1.44,1.44,0,0,1-1.28.67,1.81,1.81,0,0,1-1.73-2,2,2,0,0,1,1.83-2.15,1.34,1.34,0,0,1,1.26.71h0l0-.62Zm-.76,1.6a1.15,1.15,0,0,0,0-.33,1.05,1.05,0,0,0-1-.78c-.7,0-1.2.59-1.2,1.53,0,.79.4,1.45,1.19,1.45a1.11,1.11,0,0,0,1.08-1.14Z"/><path class="cls-4" d="M185.48,206.25a1.3,1.3,0,0,0,1.39,1.41,2.78,2.78,0,0,0,1.12-.21l.12.52a3.15,3.15,0,0,1-1.34.26,1.88,1.88,0,0,1-2-2,2,2,0,0,1,1.9-2.18,1.72,1.72,0,0,1,1.67,1.91,2.22,2.22,0,0,1,0,.34Zm2.16-.53a1,1,0,0,0-1-1.19,1.21,1.21,0,0,0-1.13,1.19Z"/><path class="cls-4" d="M189.16,207.39a2,2,0,0,0,1,.29c.54,0,.79-.27.79-.6s-.21-.54-.76-.75c-.72-.25-1.07-.66-1.07-1.14a1.25,1.25,0,0,1,1.4-1.19,2,2,0,0,1,1,.25l-.18.54a1.57,1.57,0,0,0-.83-.24.59.59,0,0,0-.67.56c0,.33.24.48.77.68.7.27,1.06.62,1.06,1.22s-.56,1.22-1.52,1.22A2.25,2.25,0,0,1,189,208Z"/><path class="cls-4" d="M193.46,202.93v1.16h1v.56h-1v2.19c0,.5.14.78.55.78a1.53,1.53,0,0,0,.43-.05l0,.55a1.73,1.73,0,0,1-.65.11,1,1,0,0,1-.8-.31,1.51,1.51,0,0,1-.28-1.06v-2.21h-.63v-.56h.63v-1Z"/><path class="cls-4" d="M199.35,208.14l-.06-.51h0a1.51,1.51,0,0,1-1.24.6,1.15,1.15,0,0,1-1.24-1.16c0-1,.87-1.51,2.44-1.5v-.09a.83.83,0,0,0-.92-.93,2,2,0,0,0-1.06.3l-.16-.49a2.48,2.48,0,0,1,1.33-.36c1.23,0,1.53.85,1.53,1.66v1.51a5.66,5.66,0,0,0,.07,1Zm-.11-2.06c-.8,0-1.71.12-1.71.91a.65.65,0,0,0,.69.7,1,1,0,0,0,1-.68.62.62,0,0,0,0-.23Z"/><path class="cls-4" d="M202.94,202.58a10,10,0,0,1,1.55-.12,3.22,3.22,0,0,1,2.28.71,2.59,2.59,0,0,1,.79,2,3,3,0,0,1-.81,2.19,3.43,3.43,0,0,1-2.49.81,10,10,0,0,1-1.32-.07Zm.73,5a3.79,3.79,0,0,0,.73.05,2.17,2.17,0,0,0,2.4-2.4,2,2,0,0,0-2.28-2.17,3.51,3.51,0,0,0-.85.08Z"/><path class="cls-4" d="M210.73,208.14l-.06-.51h0a1.49,1.49,0,0,1-1.24.6,1.14,1.14,0,0,1-1.23-1.16c0-1,.87-1.51,2.43-1.5v-.09a.83.83,0,0,0-.92-.93,1.93,1.93,0,0,0-1.05.3l-.17-.49a2.48,2.48,0,0,1,1.33-.36c1.24,0,1.54.85,1.54,1.66v1.51a5.73,5.73,0,0,0,.06,1Zm-.11-2.06c-.81,0-1.72.12-1.72.91a.66.66,0,0,0,.7.7,1,1,0,0,0,1-.68.64.64,0,0,0,.05-.23Z"/><path class="cls-4" d="M213.37,202.93v1.16h1v.56h-1v2.19c0,.5.14.78.55.78a1.53,1.53,0,0,0,.43-.05l0,.55a1.73,1.73,0,0,1-.65.11,1,1,0,0,1-.8-.31,1.51,1.51,0,0,1-.28-1.06v-2.21H212v-.56h.63v-1Z"/><path class="cls-4" d="M215.61,206.25a1.3,1.3,0,0,0,1.39,1.41,2.81,2.81,0,0,0,1.12-.21l.12.52a3.18,3.18,0,0,1-1.34.26,1.88,1.88,0,0,1-2-2A2,2,0,0,1,216.8,204a1.72,1.72,0,0,1,1.68,1.91,2.22,2.22,0,0,1,0,.34Zm2.16-.53a1.06,1.06,0,0,0-1-1.19,1.21,1.21,0,0,0-1.13,1.19Z"/><path class="cls-6" d="M146.39,240.44,145,234.8h.77l.67,2.86c.17.7.32,1.4.42,1.94h0a19.58,19.58,0,0,1,.46-1.95l.75-2.85h.76l.69,2.86c.15.67.3,1.34.39,1.94h0c.11-.62.27-1.25.45-1.95l.74-2.85h.75l-1.6,5.64h-.76l-.71-2.93a15.33,15.33,0,0,1-.37-1.84h0a17.31,17.31,0,0,1-.43,1.84l-.81,2.93Z"/><path class="cls-6" d="M152.66,238.55A1.29,1.29,0,0,0,154,240a2.74,2.74,0,0,0,1.12-.21l.13.52a3.23,3.23,0,0,1-1.35.25,1.88,1.88,0,0,1-2-2,2,2,0,0,1,1.9-2.18,1.71,1.71,0,0,1,1.67,1.91,2.56,2.56,0,0,1,0,.34Zm2.15-.53a1,1,0,0,0-1-1.19,1.22,1.22,0,0,0-1.13,1.19Z"/><path class="cls-6" d="M156.4,240.44c0-.28,0-.69,0-1v-4.9h.72v2.55h0a1.5,1.5,0,0,1,1.38-.75c1,0,1.71.84,1.71,2.07a1.93,1.93,0,0,1-1.82,2.16,1.42,1.42,0,0,1-1.35-.76h0l0,.67Zm.76-1.62a1.26,1.26,0,0,0,0,.27,1.13,1.13,0,0,0,1.1.86c.77,0,1.23-.63,1.23-1.56s-.42-1.5-1.2-1.5a1.18,1.18,0,0,0-1.13.9,2,2,0,0,0,0,.3Z"/><path class="cls-6" d="M161.6,238.55A1.3,1.3,0,0,0,163,240a2.74,2.74,0,0,0,1.12-.21l.13.52a3.27,3.27,0,0,1-1.35.25,1.88,1.88,0,0,1-2-2,2,2,0,0,1,1.9-2.18,1.71,1.71,0,0,1,1.67,1.91c0,.15,0,.27,0,.34Zm2.16-.53a1,1,0,0,0-1-1.19,1.22,1.22,0,0,0-1.13,1.19Z"/><path class="cls-6" d="M165.7,236.39l.58.87c.15.23.27.44.41.66h0l.4-.67.57-.86h.8l-1.38,2,1.42,2.09h-.84l-.59-.91c-.16-.24-.29-.46-.44-.7h0c-.14.24-.28.46-.43.7l-.59.91h-.81l1.44-2.06-1.37-2Z"/><path class="cls-7" d="M218.41,174.34a.08.08,0,0,0,0-.15l-.13.14Z"/><path class="cls-7" d="M217.81,173.84c-.14,0-.32.14-.28.31.16-.12.17-.05.35-.2.11,0,.17.1.13.16s.15.08.24,0a.39.39,0,0,0-.48-.17S217.79,173.86,217.81,173.84Z"/><path class="cls-7" d="M207.35,174.4h0Z"/><path class="cls-7" d="M202.43,171.75s.06.05.07,0S202.44,171.73,202.43,171.75Z"/><path class="cls-7" d="M201.67,170.69l.07.06S201.7,170.69,201.67,170.69Z"/><path class="cls-7" d="M207.35,174.4l-.18,0C207.17,174.44,207.26,174.4,207.35,174.4Z"/><path class="cls-7" d="M216.32,173.92a.19.19,0,0,0,.1,0h-.09Z"/><path class="cls-7" d="M210.09,173.49h0l0-.08Z"/><path class="cls-7" d="M212.33,173c-.06,0-.06.15-.07.21a.18.18,0,0,1,.1-.11A.22.22,0,0,0,212.33,173Z"/><path class="cls-7" d="M215.91,173.29h0Z"/><path class="cls-7" d="M208.55,173.92l0,0S208.54,173.9,208.55,173.92Z"/><path class="cls-7" d="M160.59,169.2h0S160.59,169.18,160.59,169.2Z"/><path class="cls-7" d="M162.42,167.18l0,0,.07,0Z"/><path class="cls-7" d="M199.27,170.25h0C199.33,170.22,199.3,170.23,199.27,170.25Z"/><path class="cls-7" d="M184.12,171.39c0,.25-.28-.28-.29.08C183.87,171.42,184.14,171.68,184.12,171.39Z"/><path class="cls-7" d="M216.27,173.89h-.09S216.24,173.9,216.27,173.89Z"/><path class="cls-7" d="M183.83,171.47h0v0Z"/><path class="cls-7" d="M194.7,171.91a.11.11,0,0,0,.07,0S194.75,171.92,194.7,171.91Z"/><path class="cls-7" d="M198.13,170.84h0Z"/><path class="cls-7" d="M193.1,172.83s-.07,0-.12,0h0A.1.1,0,0,1,193.1,172.83Z"/><polygon class="cls-7" points="191.36 173.58 191.4 173.59 191.45 173.56 191.36 173.58"/><path class="cls-7" d="M159.85,175.32a.35.35,0,0,1,.07-.15C159.84,175.24,159.67,174.93,159.85,175.32Z"/><path class="cls-7" d="M216.33,173.84s0,0-.06,0h.06A.06.06,0,0,0,216.33,173.84Z"/><path class="cls-7" d="M193.48,173.87l-.29.11A1.53,1.53,0,0,0,193.48,173.87Z"/><path class="cls-7" d="M173.06,173.14l-.05.05S173.05,173.16,173.06,173.14Z"/><path class="cls-7" d="M192.37,174.36a.35.35,0,0,0-.2,0,.08.08,0,0,0,0,0Z"/><path class="cls-7" d="M159.92,175.17Z"/><path class="cls-7" d="M159.45,172.92c0,.3.16.16.26.24,0,.37-.16.15-.26.27s.19.44.19.62c0,0,0,0-.08,0,.14.24.08.81.39,1.05a.16.16,0,0,1,0,.06.45.45,0,0,1,.22-.14c.05.14.22.18.13.29,0-.08-.08-.06-.13-.09l.11.11c-.08.21-.15-.15-.27-.1.2.27.51.47.64.65-.09.18-.4-.38-.31,0a1.87,1.87,0,0,1-.17-.35c-.08.4-.1-.22-.21.17.28.48.43.45.82.8.15,0,.05-.14.2-.15.65.17.32.64.89.58.16-.08.24-.27.56-.11l-.15.17c.46.08.28-.24.73-.09-.08.08-.35.05-.28.07.3.17.22-.09.44-.1l.05.17a7.68,7.68,0,0,0,1.43-.36c0,.06-.09.13,0,.15a13.88,13.88,0,0,1,1.88-.46l.15-.21s.12,0,.07.07c.24,0,0-.09.06-.18s.19,0,.13.09a3.22,3.22,0,0,1,1.41-.69l-.06.08c.32-.08.22-.42.55-.42l0,0a9.59,9.59,0,0,1,1.91-.73c0-.24.67-.24.57-.52a2.54,2.54,0,0,0,.9-.15c.14-.06.11-.27.26-.39l.08.13.14-.26.21.09.14-.12c-.07,0-.17,0-.18,0a.8.8,0,0,1,.68-.19l.49-.45c0,.06-.06.14-.11.22.21-.32.14.1.33-.19-.05,0,0-.09,0-.12a1.6,1.6,0,0,0,.69-.38l0,.11c.42-.24.82-.61,1.26-.89-.19.06-.25-.12-.13-.22l.14.11c0-.14-.17,0-.06-.18s.21.08.14.19l.17-.18s0,.09,0,.15c0-.14.43-.08.46-.3l0,0c.44-.26.62-.41,1-.59,0-.13.11-.17.18-.32.3-.07.65-.07,1-.15s.05-.13.14-.23c0,.11.39.06.22.17.41-.06.52-.08,1-.14,0-.06-.12-.09-.08-.13s.22.08.19.14h0a1.16,1.16,0,0,1,.88.31c.25.2.43.4.67.43h0a2.32,2.32,0,0,1,.41.22c.12.17-.16,0-.12.13.47.25.38.67.67,1-.22.44.41,1.2.37,1.81l.08-.06c.12.1,0,.18,0,.28s0-.17.09-.11a5.29,5.29,0,0,0,1.08,1.69,3,3,0,0,0,2,.81c.5,0,.24-.46.83-.34l-.13.19a21.09,21.09,0,0,0,2.51-.86c0,.06,0,.1-.1.13.21.06.63-.21.59-.31.13,0,.06.08.15.09s.37-.29.5-.22,0,0-.06.08.5-.19.35-.28c.32,0,.53-.28.79-.3.09-.21.52-.15.48-.37.07.22.57-.05.7-.22,0,.09.19,0,.16.11.2-.09.37-.21.29-.3.48.08.66-.54,1-.31a14.56,14.56,0,0,1,1.6-.95c.07.22-.59.26-.48.47a4.4,4.4,0,0,1,1.25-.73c.14,0-.05.12-.08.18.49-.28,1-.33,1.45-.59,0,0,0,.06-.09.09s.23,0,.19-.13l-.08.06c-.2-.11.28-.4.28-.48-.08.32.49,0,.33.37,0,0,.12-.1.09-.16s.13,0,.06.13c.31-.13.18-.22.47-.27,0,0-.05.08-.07.14a.56.56,0,0,1,.51-.2s0,.06-.05.07c.37,0,.72-.23,1.07.1-.22.11.08.14,0,.3l.2.11v-.13c.14.13.36.21.43.4l-.16-.09a2.91,2.91,0,0,1,.26.33l-.07-.24c.21.14.19-.16.31.14,0,0,.12.2.09.36h0a.58.58,0,0,1,.28.33c0,.07-.2.07-.22.12.19,0,.33.48.55.51a.14.14,0,0,0-.15.06h.17c0,.12,0,.15,0,.18.2.3.12-.23.3.16,0,0,0,0-.1,0,.24.37.65.52.95.77,0,.23-.32-.15-.29.06a4.41,4.41,0,0,0,1.74.36l-.1,0c.09-.26.39.16.67,0-.07,0-.08.15-.07.12a3.25,3.25,0,0,0,1.27-.3l0,.08a4.31,4.31,0,0,0,.78-.11c0-.08.18-.1.08-.18.78.2,1.21-.57,1.88-.43-.07,0-.15.11-.09.09l.47-.2c-.07-.1-.08,0-.21-.11a.52.52,0,0,1,.3-.2c-.21.13.05.17.16.21s0-.08,0-.11c.31.13,0-.24.38-.19v.07a1.15,1.15,0,0,1,.39-.18c.09.12-.13.09-.12.2.2,0,.36-.33.57-.23-.08,0-.21.08-.29.13a.57.57,0,0,0,.4.07h0l.36,0-.1,0c.21-.38.52-.13.85-.38-.33.24-.05.12-.06.28s.22.07.19.12c.15-.14.27.07.5-.11,0,.05.17,0,.14.12.21-.05-.05-.08,0-.15.33-.17.77.2,1.24,0s.51-.23.9-.26c.12.09-.13.16-.13.16a.92.92,0,0,0,.56.08c-.05,0,0,.08,0,.14s.13-.16.32-.05a.57.57,0,0,1-.18.16c.18,0,.38-.07.58-.07,0,.09-.14.1-.22.15.22,0,.55,0,.65-.08l-.12-.08c.08,0,0,.13-.05.14a.18.18,0,0,1-.25-.16h.14c-.08-.31-.55-.06-.81-.12l.14-.19-.3.13c-.06-.07-.08-.19.06-.2-.18-.13-.19.05-.34-.09s0,0,0,0l-.2,0s0-.15.1-.11c-.34-.16-.58.1-.7-.07h0c-.5,0-.06.14-.43.31l-.24-.39-.05.15s-.15,0-.13-.08c-.19.11,0,.07-.08.17-.24-.15-.66.07-.72-.17-.09.12.23.08,0,.17-.09-.26-.3.06-.53,0,.06-.14.28-.09.05-.19-.12.23-.44,0-.63.05,0,.18-.4.13-.7.24,0-.07-.6,0-.91,0v0c0,.19-.32.22-.52.32,0-.11,0-.16.11-.24l-.21.06c0,.07-.08.11-.21.17l0-.15c-.27.09-.49.32-.85.33,0,.13.37.26,0,.45,0-.06-.08-.17,0-.23s-.09.09-.16.08l.11-.15c-.17,0-.05.11-.18.14s-.11,0-.11-.12.12,0,.15,0a.72.72,0,0,1-.4,0,.1.1,0,0,1-.06.16c-.26.09-.12-.08-.28-.09s-.23.06-.2.2-.11,0-.14-.07-.62.17-.44.28h0c-.42.24-.94.09-1.37.18v0a7,7,0,0,0-.77.12c-.08,0-.17-.12-.13-.17a.58.58,0,0,1-.48-.11c.21,0,0-.09.21,0-.23-.11-.24-.19-.53-.18.13-.07-.09-.22-.19-.25l.09.16a1,1,0,0,1-.29-.19l.14-.1c-.11-.22-.31-.28-.49-.4a.49.49,0,0,1-.3-.52c-.18-.06.08.28-.1.25-.12-.21,0-.56-.07-.63-.1-.35-.37-.16-.51-.52,0,.07-.14.19-.33,0s0-.41.16-.29,0,.08,0,.09.15.15.15,0h-.07c0-.15-.25-.47-.12-.45-.18-.14-.13,0-.06.13a2.43,2.43,0,0,0-.66-.75c0,.06,0,.16,0,.11-.47-.38-.28,0-.64-.18-.18-.15.15-.19-.27-.22-.23-.1,0-.17.09-.19a4.27,4.27,0,0,1-.93-.15l.19-.05a2,2,0,0,1-.31.05l.12.1c-.11,0-.2,0-.21,0s.11.18-.08.31c-.15,0-.39.14-.47,0,.43,0-.08-.15.27-.24a.63.63,0,0,1-.26.05s0,0,0-.05c-.43-.05-.14.21-.54.31,0-.1-.14-.14-.2-.1.16,0,.12.12,0,.22s-.26.13-.39.16h.16c0,.1-.16.12-.32.2s.14-.09.07-.1c-.14.2-.48,0-.71.17-.14,0-.07-.15-.19-.16-.26.21-.36,0-.64.21.13.07.14,0,0,.23l.48-.27-.27.29c.16-.06.3-.19.4-.2-.12.14-.12.11,0,.18-.27-.1-.38.25-.66.22l-.1-.28c-.41,0-.58.39-1.07.52l.17,0c0,.14-.28.14-.41.24,0-.09-.13-.09-.22-.12s-.34.14-.3.34l-.26,0c-.38.11-.3.44-.67.57.07-.15-.12-.14.08-.31-.11.05-.23.08-.2.14s-.27.27-.42.23,0,.16-.14.21,0,0,0,0-.18.15,0,.2c-.48-.13-1,.46-1.42.34a8,8,0,0,1-.77.39s0,0,0,0c-.36,0-.1.34-.51.38-.24-.07.17-.15,0-.16-.16-.28-.43.2-.75.11l.06,0c-.23,0-.43.27-.75.34a.05.05,0,0,0,0-.05,2.15,2.15,0,0,1-.87.52c.06-.15.12-.11,0-.22-.13.06.09.2-.18.3-.1-.05-.31-.07-.36-.2l.25-.06c-.17-.15-.32.07-.46.06v-.08c-.37.07-.36.27-.77.24l0,.06c-.25.17-.17-.12-.41,0v-.2a1.31,1.31,0,0,1-.77-.15c.21,0,.5.06.68,0-.12,0-.38-.18-.5-.15.05,0,.14,0,.17.07a.67.67,0,0,1-.66-.27c.16-.11.07-.26,0-.45s-.2-.43-.11-.59c-.33-.43-.28-1-.51-1.66-.2.32-.07-.19-.35-.05-.07-.14-.08-.2-.07-.22s0-.34,0-.52.13.11.18.07c-.13-.35.06-.19,0-.46-.07.1-.21-.05-.28-.26l0,.34c-.4-.37,0-.55-.51-.9l.19.07c-.21-.21-.83-.77-1.21-.67,0,0,0-.16.08-.12-.62-.38-1.47-.26-1.94-.42l0-.08c-.12,0-.21.13-.36.06,0,0,.05-.08,0-.08a1.1,1.1,0,0,1-.47.1l.13-.09c-.65,0-.94.33-1.39.52-.07-.22-.55-.13-.79-.06v0a5.19,5.19,0,0,0-1.48,1.08c-.47,0-1.16.63-1.73.85.1,0,.08.15,0,.23s-.25.34-.34.16l0,0c-.2-.1-.41.1-.61.21l.11.24c-.7,0-1.26.93-1.72.78-.09.13-.24.22-.34.34l-.06-.13a6.25,6.25,0,0,0-1,.49l0-.14c-.25.12-.12.52-.35.65l-.16-.16c-.43.22-1,.25-1.3.62a.1.1,0,0,1,.05-.13c-.21.09-.86.22-.67.45-.08-.17-.46.18-.67.36l0-.15c-.13.25-.12.3-.39.46-.08,0-.1-.08,0-.09-.25,0-.13.2-.43.23l.07-.12c-.23.08-.2.11-.29.26s-.46.13-.54,0a.29.29,0,0,1-.25.25s0-.09,0-.11c-.42.05-.53.34-.84.29,0,0,0-.07-.07-.07l.54-.14c0-.12-.29-.06-.15-.29-.16.15-.44.44-.7.44a.08.08,0,0,1,0,0l0,0a.25.25,0,0,0-.15.05H164c0-.1-.29,0-.41,0s-.14.13,0,.23c0,0,0,0,.11,0l.05,0h0l.31-.06a.28.28,0,0,1-.33.11,2.46,2.46,0,0,1-.16.24c-.2-.17-.53-.28-.57-.4-.38.08-.84,0-1.14.15-.11,0-.09-.11-.11-.16s.13,0,.17,0c-.22,0-.54-.21-.68-.1-.16-.21.21-.05-.08-.23h.07a2.08,2.08,0,0,0-.56-.65.84.84,0,0,1-.17-1c0,.06,0,.09-.06.1a8.7,8.7,0,0,1,.6-2.92c.12-.25,0-.31,0-.5h.16l-.07-.33c0-.43.59-.53.58-1.09l-.12,0c.09-.17.2-.57.29-.49s-.07-.1,0-.14l.08,0,.09-.47c.22-.28.24.2.51-.24.07-.17.09-.58,0-.55s-.15.15-.22.11l.06-.17c-.18-.16-.3-.41-.68-.11l0,.35-.15,0,.13-.23c-.17.07-.14.21-.14.33a.19.19,0,0,0-.17.06l.05.38c-.1,0-.1-.21-.24-.05,0,.18.25,0,.2.22-.16.09-.22,0-.22.21-.07,0-.08-.06-.08-.13,0,.18-.15.39-.07.52-.19.09-.18.5-.38.41a1,1,0,0,1,0,.46c-.15-.34-.2.51-.44.35.16.26-.12.72-.09,1.1,0,0,0-.08,0-.1-.06.18-.15.22-.22.34.18.07.16.38.24.56-.23.2-.2-.19-.39-.15.16,0,.07.44.22.39-.15.16-.08.14-.26.21.24.07,0,.18.14.35-.16.25-.24,0-.21.34C159.5,173.19,159.45,172.92,159.45,172.92Zm5.16,3.7h0l-.14,0Zm.57-.15-.25.06a.07.07,0,0,1,0-.11S165.08,176.45,165.18,176.47Zm-1.36-.71c.08,0,.11,0,.13,0l-.14,0v0A.19.19,0,0,1,163.82,175.76Z"/><path class="cls-7" d="M163.7,176h0l.06,0,0,0Z"/><path class="cls-7" d="M207.43,174.4h0l0,0Z"/><polygon class="cls-7" points="172.54 173.51 172.52 173.48 172.49 173.53 172.54 173.51"/><path class="cls-7" d="M210.55,174l0,0Z"/><path class="cls-7" d="M211.85,173.79l.19,0Z"/><path class="cls-7" d="M212.86,173.74a.42.42,0,0,1,0-.06h0Z"/><path class="cls-7" d="M198.46,171.72l0,0Z"/><path class="cls-7" d="M202.28,172.53l-.13-.1C202.18,172.51,202.21,172.57,202.28,172.53Z"/><polygon class="cls-7" points="193.51 173.86 193.51 173.86 193.48 173.87 193.51 173.86"/><path class="cls-7" d="M202,172.24a.36.36,0,0,0,.11.19A.72.72,0,0,0,202,172.24Z"/><path class="cls-7" d="M217.19,174.11h.05a0,0,0,0,0,0,0Z"/><path class="cls-7" d="M217.25,174.1h0Z"/><path class="cls-7" d="M217.43,174.09h-.12A.13.13,0,0,0,217.43,174.09Z"/><path class="cls-7" d="M215.89,173.81l0,0A.05.05,0,0,0,215.89,173.81Z"/><path class="cls-7" d="M215.49,173.77c.09,0,.23.14.37.12v0C215.8,173.92,215.59,173.7,215.49,173.77Z"/><path class="cls-7" d="M213.79,173.07l.35,0c-.06-.05-.14-.12,0-.14C213.71,172.81,214.25,173.09,213.79,173.07Z"/><path class="cls-7" d="M212.68,173.06c.19,0,0-.08,0-.11S212.53,173,212.68,173.06Z"/><path class="cls-7" d="M205.11,174.44l0-.13C205,174.31,205.14,174.36,205.11,174.44Z"/><path class="cls-7" d="M203.49,174.41l.07.16.13,0Z"/><polygon class="cls-7" points="203.57 173.17 203.62 173.2 203.46 173.05 203.57 173.17"/><path class="cls-7" d="M191.62,173.34l.1.12C191.8,173.4,191.75,173.23,191.62,173.34Z"/><path class="cls-7" d="M186.42,175a.21.21,0,0,0-.27-.08C186.25,174.93,186.36,175,186.42,175Z"/><polygon class="cls-7" points="173.2 171.66 173.26 171.56 173.11 171.71 173.2 171.66"/><path class="cls-8" d="M158.44,202c0,2.47,0,4.62,0,6.76"/><path class="cls-8" d="M155.47,205.21l5.93.13"/><path class="cls-4" d="M167.5,97c-5.9,7.9-8.1,19-3.32,27.59a29.46,29.46,0,0,0,6.28,7.57,43.21,43.21,0,0,0,12.36,7.75A24.58,24.58,0,0,0,195.09,142a26.13,26.13,0,0,0,5.82-1.52,38.69,38.69,0,0,0,11.46-6.28,23.47,23.47,0,0,0,7.5-10.56,34.45,34.45,0,0,0,1.31-6.54c.66-5.12,1.06-10.46-.67-15.33a21.71,21.71,0,0,0-11.64-12C203.64,87.39,180.71,79.28,167.5,97Z"/><g class="cls-9"><path class="cls-10" d="M182.55,97.42A137.26,137.26,0,0,0,173,125.15a133,133,0,0,0,19,2.76,2.54,2.54,0,0,0,1.57-.24,2.51,2.51,0,0,0,.8-1.21,120.25,120.25,0,0,0,7.63-28.87,1.56,1.56,0,0,0-.07-.91,1.48,1.48,0,0,0-.91-.61,24.35,24.35,0,0,0-19.36,1.58"/><path class="cls-4" d="M183.82,100a19.43,19.43,0,0,1-4.08,11.48c-.25.32-.51.73-.32,1.08s.44.32.69.44c1.08.55,1.18,2,1.55,3.16.82,2.54,3.57,4.11,6.24,4.17a9.9,9.9,0,0,0,3.41-.58s.28,7.56-4.34,13l3.87,9.89,5.46-1.67,4-5.6s-4.58-3.43-2.09-19.75,8.67-16.38,8.67-16.38l-19.33-3.74Z"/><path class="cls-6" d="M183.82,100a19.47,19.47,0,0,1-1.5,7.18,19.25,19.25,0,0,1-1.74,3.26c-.32.52-.75,1-1,1.5a.52.52,0,0,0,.1.72c.22.16.55.24.81.45a3,3,0,0,1,.93,1.62,16.16,16.16,0,0,0,.53,1.75,5.7,5.7,0,0,0,2.36,2.64,7.18,7.18,0,0,0,3.42,1,9.33,9.33,0,0,0,3.55-.58l.25-.09v.26a23,23,0,0,1-1,6.94,17.74,17.74,0,0,1-3.29,6.2l0-.28.23.57,3.61,9.33-.31-.15,5.47-1.66-.12.09,4-5.58,0,.29a9.33,9.33,0,0,1-2.21-4.55,26.22,26.22,0,0,1-.64-5,52.69,52.69,0,0,1,.68-10,46.3,46.3,0,0,1,2.42-9.69,19.26,19.26,0,0,1,2.39-4.39,6.7,6.7,0,0,1,4.06-2.82v.17l-19.33-3.8h0L183.82,100l3.73-4.56h0l19.35,3.68.55.1-.57.06a4.66,4.66,0,0,0-2.19,1A9.26,9.26,0,0,0,203,102a18.58,18.58,0,0,0-2.33,4.35,46.25,46.25,0,0,0-2.35,9.65,52.22,52.22,0,0,0-.61,9.91,26,26,0,0,0,.65,4.9,9.14,9.14,0,0,0,2.09,4.3l.15.15-.11.15-4,5.6,0,.07-.08,0-5.46,1.69-.22.07-.09-.21-3.67-9.31-.22-.58-.06-.15.11-.13a20.19,20.19,0,0,0,4.36-12.76l.25.17a9.66,9.66,0,0,1-3.69.55,7.49,7.49,0,0,1-3.56-1.12,6,6,0,0,1-2.43-2.79,17,17,0,0,1-.51-1.78,2.83,2.83,0,0,0-.85-1.53,6.52,6.52,0,0,0-.8-.45.7.7,0,0,1-.14-.94c.33-.56.74-1,1.07-1.51a18.65,18.65,0,0,0,1.77-3.22A19.32,19.32,0,0,0,183.82,100Z"/><path class="cls-10" d="M186.57,87.89A19.92,19.92,0,0,1,197.38,86a14.15,14.15,0,0,1,9.2,6,31.53,31.53,0,0,1,4.51,10.29,86.79,86.79,0,0,1,3.15,26,95.08,95.08,0,0,1-17.5,2.25c-.14-6.63,2.1-20.79,3-26.23.71-.1.18-.16,2.34-1.32a6.65,6.65,0,0,1-2.11,0c-7.48,0-13.86-1.16-20.63-5.12C179.36,97.76,181.61,90.35,186.57,87.89Z"/><path class="cls-6" d="M191.29,119.7a21.35,21.35,0,0,1-.32,5.1,21.69,21.69,0,0,1-4.84,8.93,21.61,21.61,0,0,0,4.29-9.06A21.31,21.31,0,0,0,191.29,119.7Z"/><path class="cls-6" d="M183.82,100a19.57,19.57,0,0,1-3.23,10.79c-.48.76-1.54,1.62-.59,1.89a2.2,2.2,0,0,1,1.13,1,6.78,6.78,0,0,1,.47,1.4,5.77,5.77,0,0,0,1.05,2.52,6.08,6.08,0,0,0,2.11,1.75,7.74,7.74,0,0,0,5.44.61,14.58,14.58,0,0,0,5.09-2.39,14.77,14.77,0,0,1-5.06,2.53,8,8,0,0,1-5.6-.5,6.07,6.07,0,0,1-3.45-4.42c-.23-.89-.54-1.81-1.38-2.09a1,1,0,0,1-.66-.6,1.13,1.13,0,0,1,.16-.89c.3-.45.57-.76.83-1.17A19.3,19.3,0,0,0,183.82,100Z"/><path class="cls-6" d="M182.56,115.27a5.85,5.85,0,0,0,2.31.89,6.2,6.2,0,0,0,4.84-.36,6.45,6.45,0,0,1-5,.9A5.92,5.92,0,0,1,182.56,115.27Z"/><path class="cls-6" d="M187.39,106.22a2.64,2.64,0,0,0-.38,1.21.88.88,0,0,0,.76.88,1.07,1.07,0,0,0,.82-.54,1.62,1.62,0,0,0,.29-1.44.83.83,0,0,0-1.23-.42"/><path class="cls-6" d="M185.67,131.34a11.63,11.63,0,0,0,14.65,1.86,9.95,9.95,0,0,1-14.65-1.86Z"/><path class="cls-11" d="M201.48,106.1c.11,2,.16,4,.11,6A75.62,75.62,0,0,1,199.54,124a75.89,75.89,0,0,0,1.48-11.9C201.26,110.1,201.4,108.1,201.48,106.1Z"/><path class="cls-11" d="M203.45,105.11c.3,2.45.52,4.91.6,7.39a79.69,79.69,0,0,1-1.69,14.7,79.68,79.68,0,0,0,1.12-14.7C203.59,110,203.57,107.57,203.45,105.11Z"/><path class="cls-11" d="M194.09,87.67A7.34,7.34,0,0,0,190.21,89a17.85,17.85,0,0,0-6.48,5.1,18,18,0,0,1,6.23-5.6A7.53,7.53,0,0,1,194.09,87.67Z"/><path class="cls-11" d="M195.31,88a11.59,11.59,0,0,0-2.65,3.32,17,17,0,0,0-2.67,8A17.27,17.27,0,0,1,192.18,91,11.82,11.82,0,0,1,195.31,88Z"/><path class="cls-11" d="M192.11,89.33c-.65.24-1,.87-1.46,1.38s-.81,1.09-1.18,1.65a21.53,21.53,0,0,0-3.77,7.17A21.7,21.7,0,0,1,189,92c.46-.52.93-1,1.42-1.5A4.18,4.18,0,0,1,192.11,89.33Z"/><path class="cls-11" d="M196,88.65a2.62,2.62,0,0,0-.63,1.63c-.06.59-.08,1.2-.11,1.8a48.36,48.36,0,0,0-.57,7.22,49.14,49.14,0,0,1,0-7.28c.12-.6.24-1.19.39-1.79A2.78,2.78,0,0,1,196,88.65Z"/><path class="cls-11" d="M197.71,88.41A18.61,18.61,0,0,1,199.15,92a18.94,18.94,0,0,1-.21,7.65,18.76,18.76,0,0,0-.34-7.54A18.37,18.37,0,0,0,197.71,88.41Z"/><path class="cls-11" d="M198.94,88.16a4,4,0,0,1,1.64,1.55,21.56,21.56,0,0,1,1.1,2,26.07,26.07,0,0,1,1.69,8.84,25.93,25.93,0,0,0-2.22-8.63,19.36,19.36,0,0,0-.82-2.07A3.76,3.76,0,0,0,198.94,88.16Z"/><path class="cls-11" d="M201.43,88.81c.37-.1.7.18.95.42s.5.51.74.77c.49.52,1,1.06,1.42,1.61a33.67,33.67,0,0,1,3.79,7.65,33.38,33.38,0,0,0-4.25-7.32c-.38-.59-.76-1.19-1.18-1.76-.2-.29-.41-.57-.63-.86S201.8,88.76,201.43,88.81Z"/><path class="cls-11" d="M206.86,104a76.85,76.85,0,0,1,1.34,7.84,77.93,77.93,0,0,1-.57,15.87,78.17,78.17,0,0,0,0-15.82A77.47,77.47,0,0,0,206.86,104Z"/><path class="cls-11" d="M209.37,104.94c.6,2.17,1.13,4.38,1.56,6.6a87.4,87.4,0,0,1,.71,13.52,86.37,86.37,0,0,0-1.27-13.44C210.13,109.39,209.79,107.16,209.37,104.94Z"/><path class="cls-11" d="M179.05,114.59a22.35,22.35,0,0,0-.87,3.45,21.26,21.26,0,0,0-.82,7,21.84,21.84,0,0,1,.27-7.16A21.56,21.56,0,0,1,179.05,114.59Z"/><path class="cls-11" d="M180.86,116.72a16.47,16.47,0,0,0-.19,2.2,16.2,16.2,0,0,0-.35,4.35,16.88,16.88,0,0,1-.21-4.44A17,17,0,0,1,180.86,116.72Z"/><path class="cls-11" d="M183.11,119.2a6.17,6.17,0,0,0-.27,2,16,16,0,0,0-.1,4.1,16.93,16.93,0,0,1-.47-4.17A6.71,6.71,0,0,1,183.11,119.2Z"/><path class="cls-11" d="M186,120.84a6.7,6.7,0,0,0-.11,1.6,6.41,6.41,0,0,0,.16,3.16,6.54,6.54,0,0,1-.72-3.22A6.25,6.25,0,0,1,186,120.84Z"/><path class="cls-11" d="M188.63,120.77a5.7,5.7,0,0,0-.07,1.48,6.23,6.23,0,0,0,.05,2.91,6.51,6.51,0,0,1-.62-3A6.68,6.68,0,0,1,188.63,120.77Z"/><path class="cls-12" d="M184.9,130.73c-8.55,2-13.76,11.22-22.15,13.82-4.74,1.47-9.83,0-14.56-1.47-4.13-1.32-7.83-3.16-10.67-6.43L135.1,139c6.58,3.07,11.54,9.87,18.46,12.05,6.21,2,12.88-.26,19-2.42-.83,4.72-6.45,9.36-7.69,14-.9,3.38,1.34,5.89,3.9,8.27-.74,3.37-2.13,6.84-2.82,10.21-.66,3.22-13.31,5.79-18.78,7.12a10,10,0,0,1,.32,5.22q9-1.23,17.94-3a235.82,235.82,0,0,1-9.79,35.08c9.4,4.24,19.93,5.46,30.23,5s20.45-2.45,30.55-4.47c-1.42-25.12-5-50-7.79-75-1.75-15.45-8-17.85-8-17.85a23.69,23.69,0,0,1-3.26,1.77,11.9,11.9,0,0,1-12.64-4.19Z"/><path class="cls-3" d="M183,104.47a1.22,1.22,0,0,0-.79-1.39,1.68,1.68,0,0,0-1.53.12,3,3,0,0,0-.73,1.45,5,5,0,0,0-.16,1.76,1.76,1.76,0,0,0,.86,1.43,1,1,0,0,0,1.43-.58,1.06,1.06,0,0,1-1.49.71,2,2,0,0,1-1.08-1.51,5.51,5.51,0,0,1,0-1.9,6,6,0,0,1,.26-.92,1.85,1.85,0,0,1,.55-.9,1.63,1.63,0,0,1,1-.21,2.46,2.46,0,0,1,1,.3A1.35,1.35,0,0,1,183,104.47Z"/><path class="cls-3" d="M182.81,106.1c-.1,0-.22-.11-.16-.27a.55.55,0,0,1,.31-.28.92.92,0,0,1,.73.74.63.63,0,0,0-.72-.17c0-.05-.06-.09-.09-.12S182.75,106,182.81,106.1Z"/><path class="cls-3" d="M187.89,103.55a4.83,4.83,0,0,1,1.6.73,2.84,2.84,0,0,1,.89,1.54,4.42,4.42,0,0,1-.59,3.52,3.4,3.4,0,0,1-3.31,1.34,2.91,2.91,0,0,1-1.6-.91,2.87,2.87,0,0,1-.68-1.68,7.06,7.06,0,0,1,.58-3.46,2.38,2.38,0,0,1,1.39-1.06,2.6,2.6,0,0,1,1.72,0,2.52,2.52,0,0,0-1.69.09,2.26,2.26,0,0,0-1.29,1,6.92,6.92,0,0,0-.43,3.37,2.43,2.43,0,0,0,2.08,2.2,2.9,2.9,0,0,0,2.78-1.26,4,4,0,0,0,.77-3.12,2.68,2.68,0,0,0-.72-1.49A4.51,4.51,0,0,0,187.89,103.55Z"/><path class="cls-3" d="M190.15,107.25q3.15-.37,6.31-.6c2.11,0,4.22,0,6.33.14l1.58.09a2.43,2.43,0,0,1,.82.12,1.29,1.29,0,0,1,.5.66,4.13,4.13,0,0,1,.08,3.11,4.07,4.07,0,0,0-.21-3,1.07,1.07,0,0,0-.45-.56,2.26,2.26,0,0,0-.75-.07h-1.58q-3.15,0-6.31.14Q193.32,107.15,190.15,107.25Z"/><path class="cls-4" d="M203.76,107.63a1.33,1.33,0,0,1,1.82.46,1.59,1.59,0,0,1,.13.72,3.66,3.66,0,0,1-1.22,2.71.34.34,0,0,1-.32.11.33.33,0,0,1-.13-.13,2.13,2.13,0,0,1-.22-1l-.09-2.88"/></g><path class="cls-13" d="M167.5,97c-5.9,7.9-8.1,19-3.32,27.59a29.46,29.46,0,0,0,6.28,7.57,43.21,43.21,0,0,0,12.36,7.75A24.58,24.58,0,0,0,195.09,142a26.13,26.13,0,0,0,5.82-1.52,38.69,38.69,0,0,0,11.46-6.28,23.47,23.47,0,0,0,7.5-10.56,34.45,34.45,0,0,0,1.31-6.54c.66-5.12,1.06-10.46-.67-15.33a21.71,21.71,0,0,0-11.64-12C203.64,87.39,180.71,79.28,167.5,97Z"/><circle class="cls-14" cx="132.87" cy="237.5" r="3.83"/><path class="cls-6" d="M130.23,236.14l3.23,2.78h-.32l.78-.94a61.85,61.85,0,0,1,8.36-7.06,61.62,61.62,0,0,0-7.95,7.45l-.86.84-.17.17-.15-.16Z"/></svg>