<svg id="Layer_1" data-name="Layer 1" xmlns="http://www.w3.org/2000/svg" viewBox="0 0 366 304"><defs><style>.cls-1{opacity:0.1;}.cls-2{fill:#f8d135;}.cls-3{fill:#fff;}.cls-17,.cls-4{fill:#1776ff;}.cls-5{fill:#6e7f7f;}.cls-6{fill:#eaeff4;}.cls-7{fill:#e2eef2;}.cls-8{fill:#f0d050;}.cls-9{fill:#e76548;}.cls-10{fill:#42c671;}.cls-11{fill:#35495e;}.cls-12{fill:#60d2e2;}.cls-13{fill:#308ff0;}.cls-14{fill:#e549a3;}.cls-15{fill:#14bc9b;}.cls-16{fill:#7d8996;}.cls-17{opacity:0.33;}.cls-18{opacity:0.32;}.cls-19{fill:#2196f3;}.cls-20{fill:#d4e8ff;}</style></defs><title>VyteAPI-Scheduling</title><g class="cls-1"><path class="cls-2" d="M159.92,137.2c20.91-7.42,37-26.95,40.32-48.9,1.56-10.33-.12-22.14-8.12-28.86-5.1-4.28-11.94-5.82-18.56-6.46-20.2-2-40.5,3.13-59.36,10.62a209.88,209.88,0,0,0-53,30.27C53.93,99.62,47,106,42.19,113.94,39,119.25,36.72,125.57,38,131.65a22.31,22.31,0,0,0,6,10.48c8.34,8.76,20.94,12.44,33,12.47s23.94-3.19,35.62-6.38l47.58-13"/></g><g class="cls-1"><path class="cls-2" d="M256.91,92.15a14.89,14.89,0,0,0,9.53-11.56c.36-2.44,0-5.23-1.92-6.82a7.91,7.91,0,0,0-4.39-1.52c-4.77-.47-9.57.73-14,2.51a49.53,49.53,0,0,0-12.52,7.15,18.55,18.55,0,0,0-4.49,4.74,6,6,0,0,0-1,4.19,5.25,5.25,0,0,0,1.41,2.47,10.78,10.78,0,0,0,7.81,3,32.26,32.26,0,0,0,8.41-1.51L257,91.68"/></g><g class="cls-1"><path class="cls-2" d="M102.71,184.61C94.58,193,86.33,201.6,80.94,212s-7.63,23-3.19,33.87c4.21,10.28,13.93,17.59,24.49,21s21.93,3.45,33,2.45a325,325,0,0,0,36.53-5.9c34-7,68.28-16,97.38-34.91s52.6-49.22,55.39-83.8c.74-9.09-.09-18.71-5-26.4-4.75-7.46-12.91-12.29-21.49-14.42s-17.59-1.78-26.36-.62c-39.11,5.18-89.84,13-121.25,36.85C134.19,152.49,102.71,184.61,102.71,184.61Z"/></g><path class="cls-3" d="M196.44,136.87l20.46.46s12.32,15.38,12.32,12.94v79.45L124.84,229l-4.65-78.68,13.59-14.14S176.26,136.41,196.44,136.87Z"/><path class="cls-4" d="M120.9,154.12a.17.17,0,0,0,.28-.13.59.59,0,0,0-.06-.37.31.31,0,0,0-.25-.22.48.48,0,0,0-.31.15,1.76,1.76,0,0,0-.2,1.45l.44,3.18.84,6.37c.56,4.24,1.06,8.5,1.54,12.76q1,23,.76,46l-.23,0,1.13-5.17-.9,5.22-.19,1.13,0-1.15q-.75-23-2.79-45.89c-.11-4.27-.23-8.55-.41-12.82l-.27-6.41-.16-3.2a2,2,0,0,1,.39-1.59.54.54,0,0,1,.41-.14.39.39,0,0,1,.31.29.71.71,0,0,1,0,.41A.19.19,0,0,1,120.9,154.12Z"/><path class="cls-4" d="M231.57,149.2q-18.24,0-36.46.53-36.44-.71-72.91.54,36.4-2.34,72.91-2.8Q213.37,148.08,231.57,149.2Z"/><path class="cls-4" d="M232.12,152.85l.57,24.8-1.13,24.77L231,214.8l-.28,6.19-.14,3.09c0,.5-.13,1.13-.64,1.39a.41.41,0,0,1-.4,0,.56.56,0,0,1-.24-.31.65.65,0,0,1,0-.39.22.22,0,0,1,.31-.15.21.21,0,0,0-.29.15.66.66,0,0,0,0,.37.4.4,0,0,0,.58.27c.45-.25.51-.85.52-1.33V177.6Z"/><path class="cls-4" d="M127.57,229.47q16-.65,32-1.53,32-.08,64-1.18-31.92,2.22-63.93,3.45Q143.57,230,127.57,229.47Z"/><path class="cls-4" d="M169.9,161.72a185.65,185.65,0,0,1,20.43-.92c1.71,0,3.42,0,5.13.11a30,30,0,0,1,5.24.46,6.21,6.21,0,0,1,4.54,3.55,4.55,4.55,0,0,1,0,3.21,7.27,7.27,0,0,1-1.58,2.54,11.14,11.14,0,0,1-4.94,2.66,32,32,0,0,1-5.19.89c-3.4.39-6.82.67-10.24.83a155.8,155.8,0,0,1-20.5-.37,29.54,29.54,0,0,1-10.1-2.16,8.08,8.08,0,0,1-4-3.44,4.78,4.78,0,0,1-.45-2.68A3.46,3.46,0,0,1,149.6,164a5.8,5.8,0,0,1,2.46-1c.85-.17,1.69-.3,2.54-.41,1.69-.23,3.39-.4,5.09-.53q5.1-.36,10.21-.39c-3.4.11-6.8.33-10.19.68-1.69.17-3.38.38-5.05.66-.83.14-1.67.29-2.49.47a5.53,5.53,0,0,0-2.22.94,3.47,3.47,0,0,0-.59,4.28,7.29,7.29,0,0,0,3.7,3,28.74,28.74,0,0,0,9.83,1.81,153.08,153.08,0,0,0,20.32-.2q5.07-.37,10.09-1.1a30.71,30.71,0,0,0,4.84-1,9,9,0,0,0,3.92-2.21c1.05-1,1.73-2.35,1.32-3.48a3.5,3.5,0,0,0-1.16-1.6,5.39,5.39,0,0,0-2-1,28.52,28.52,0,0,0-4.89-.69c-1.69-.16-3.38-.29-5.08-.4A187.39,187.39,0,0,0,169.9,161.72Z"/><polygon class="cls-4" points="125.22 148.48 127.19 144.19 133.78 137.73 128.96 145.61 125.22 148.48"/><path class="cls-4" d="M220.47,139.57c1.15.78,2.32,1.51,3.52,2.18a54.49,54.49,0,0,0,5.23,6.09,55,55,0,0,1-6.85-4.5C221.68,142.1,221.05,140.84,220.47,139.57Z"/><polygon class="cls-4" points="139.4 135.96 165.13 135.07 216.56 136.68 165.11 137.34 139.4 135.96"/><path class="cls-5" d="M171.43,74.59c0,2.37-.09,4.74-.13,7.11,7.59-.33,15.17,0,22.76-.33,3.07-.14,6,0,9.72-.13.1-2.87,0-5.1-.11-8.2-10.56.55-21.19,0-31.7,1.22a1.3,1.3,0,0,0-.75.25"/><path class="cls-6" d="M168.11,74.89a2.37,2.37,0,0,0,1.22,3,6.85,6.85,0,0,0,3.52.44l19.87-1c3.5-.17,7-.34,10.5-.18a3.75,3.75,0,0,0,2.37-.41,2.41,2.41,0,0,0,.9-1.82,7,7,0,0,0-.28-2.08c-5.89-.1-11.79.08-17.69.25a179.47,179.47,0,0,0-19.94,1.33c-.32,0-.75.3-.57.57"/><path class="cls-4" d="M202,30.2a20.34,20.34,0,0,0-1.29-4.46,3.27,3.27,0,0,0-.91-1.38,3.49,3.49,0,0,0-2.26-.46l-20.52.49a19.31,19.31,0,0,0-3.48.29,1.86,1.86,0,0,0-.86.34,2.1,2.1,0,0,0-.54.85,46.54,46.54,0,0,0-1.7,5l.76,2.1,14,.95,15.61-1.27Z"/><path class="cls-3" d="M205.07,74.35c2.17-.12,2.42-.57,3.1-1.33a5.17,5.17,0,0,0,1.15-2.79,16.57,16.57,0,0,0-.78-6.15L205.1,50.8l-.56-2.35q.77-6.39,1.11-12.82a8.55,8.55,0,0,0-.2-3,3,3,0,0,0-2-2.1l-.61-.05Q186,31.23,169,31.3l-.62.37a6.53,6.53,0,0,0-1.79,4.24,19.33,19.33,0,0,0,.4,4.67L168.6,50l0,.61-3.5,17.79a8.53,8.53,0,0,0-.06,3.76c.3,1.36,2.54,2.72,3.92,2.91Z"/><path class="cls-3" d="M175.69,26.41a1.4,1.4,0,0,0-.8.68,1.84,1.84,0,0,0,.19,1.84,1.72,1.72,0,0,0,1.72.63A1.69,1.69,0,0,0,178,28.35a1.71,1.71,0,0,0-.53-1.65,1.58,1.58,0,0,0-.72-.36A2.87,2.87,0,0,0,175.69,26.41Z"/><path class="cls-3" d="M195.45,25.71a1.36,1.36,0,0,0-.8.68,1.82,1.82,0,0,0,.19,1.83,1.73,1.73,0,0,0,1.72.64,1.69,1.69,0,0,0,1.24-1.21,1.71,1.71,0,0,0-.53-1.65,1.58,1.58,0,0,0-.72-.36A2.67,2.67,0,0,0,195.45,25.71Z"/><path class="cls-7" d="M169.23,31.3a2.31,2.31,0,0,0-1.31.95,3.57,3.57,0,0,0-.57,1.48,8.73,8.73,0,0,0-.08,1.63,10,10,0,0,0,.12,1.6,10.16,10.16,0,0,0,.17,1.56c.09.56.17,1.13.23,1.69.13,1.13.21,2.26.27,3.38l.18,3.36a14.79,14.79,0,0,0,.49,3.31l0,.08,0-.07-.15-.21.17.19,0,0a16,16,0,0,1-.88-3.27l-.56-3.32c-.19-1.1-.39-2.19-.64-3.27-.13-.54-.26-1.07-.41-1.6a10.74,10.74,0,0,1-.39-1.75,11,11,0,0,1,.27-1.82,10,10,0,0,1,.51-1.73,4,4,0,0,1,1-1.52A2.52,2.52,0,0,1,169.23,31.3Z"/><path class="cls-7" d="M168.5,51.41c-.55,3.06-.67,6.13-.95,9.25l-2.16,9a5.51,5.51,0,0,0-.1,2.17,3.34,3.34,0,0,0,1.05,1.85,4.5,4.5,0,0,0,2,1,7,7,0,0,0,2.29.19,7,7,0,0,1-2.33,0,4.79,4.79,0,0,1-2.17-.94,3.86,3.86,0,0,1-1.38-2,6.49,6.49,0,0,1-.1-2.44L166,60.39C166.78,57.41,167.44,54.33,168.5,51.41Z"/><path class="cls-7" d="M171.55,74.89c3.51-.23,7-.54,10.48-.91,3.49,0,7,0,10.48-.13s7-.17,10.52.07c-3.51,0-7,.37-10.47.72s-7,.68-10.48.92Q176.8,75.32,171.55,74.89Z"/><path class="cls-7" d="M168.86,31.38c3.7-.27,7.39-.56,11.08-.89q11.1.18,22.2,0-11.05,1-22.17,1.62Q174.4,31.78,168.86,31.38Z"/><path class="cls-7" d="M202.14,30.27a.33.33,0,0,0,.33.07l.37-.1a4,4,0,0,1,.81-.13,2.67,2.67,0,0,1,1.8.6,4.1,4.1,0,0,1,.65,1.65,8.23,8.23,0,0,1-.55,4.6,8.15,8.15,0,0,0-.12-2.92,4.31,4.31,0,0,0-1.18-2.31,1.44,1.44,0,0,0-.74-.85,3.19,3.19,0,0,0-.68-.24l-.38-.11C202.32,30.49,202.17,30.41,202.14,30.27Z"/><path class="cls-7" d="M205.58,37.16c.09,1.23.19,2.44.3,3.66-.55,2.25-1,4.53-1.51,6.81l0,.07,0-.06-.1-.21.14.18h0q-.07-3.49,0-7C204.73,39.46,205.15,38.31,205.58,37.16Z"/><path class="cls-7" d="M204.59,48.74c.94,3.2,1.87,6.4,2.94,9.53.35,1.62.73,3.23,1.17,4.82A33.5,33.5,0,0,1,209.87,68a9.37,9.37,0,0,1-.06,2.59,5.83,5.83,0,0,1-1,2.39,4.58,4.58,0,0,1-2,1.6,6.59,6.59,0,0,1-2.49.31,6.48,6.48,0,0,0,2.41-.49,4.25,4.25,0,0,0,1.72-1.64,5.18,5.18,0,0,0,.72-2.26,8.29,8.29,0,0,0-.13-2.38,33.09,33.09,0,0,0-1.52-4.68c-.57-1.57-1.08-3.17-1.56-4.78C205.43,55.35,205,52.05,204.59,48.74Z"/><path class="cls-5" d="M199.14,80.62a45.4,45.4,0,0,1,8.64.53,8.36,8.36,0,0,1-2.69.13,58.46,58.46,0,0,0-8.05.1"/><g id="Group_4" data-name="Group 4"><g id="Group_5" data-name="Group 5"><g id="Path"><path class="cls-8" d="M189.22,60.13a2.1,2.1,0,1,0,2,2.22A2.26,2.26,0,0,0,189.22,60.13Z"/></g><g id="Path_2" data-name="Path 2"><path class="cls-9" d="M182.68,60a2.11,2.11,0,0,0-3-.12,2,2,0,0,0-.13,3,2.12,2.12,0,0,0,3,.12A2,2,0,0,0,182.68,60Z"/></g><g id="Path_3" data-name="Path 3"><path class="cls-10" d="M178.37,55.2a2.1,2.1,0,1,0-2.22,2A2.25,2.25,0,0,0,178.37,55.2Z"/></g><g id="Path_4" data-name="Path 4"><path class="cls-11" d="M178.62,45.72a2,2,0,0,0-3-.13,2.12,2.12,0,0,0-.12,3,2.09,2.09,0,0,0,3.08-2.83Z"/></g><g id="Path_5" data-name="Path 5"><path class="cls-12" d="M183.18,44.11a2.1,2.1,0,0,0,.24-4.19,2.27,2.27,0,0,0-2.22,2A2.09,2.09,0,0,0,183.18,44.11Z"/></g><g id="Path_6" data-name="Path 6"><path class="cls-13" d="M189.71,44.36a2.12,2.12,0,0,0,3,.12,2,2,0,0,0,.12-2.95,2.12,2.12,0,0,0-3-.13A2,2,0,0,0,189.71,44.36Z"/></g><g id="Path_7" data-name="Path 7"><path class="cls-14" d="M194.14,49a2.1,2.1,0,1,0,2.22-2A2.09,2.09,0,0,0,194.14,49Z"/></g><g id="Path_8" data-name="Path 8"><path class="cls-15" d="M193.9,55.7a2.12,2.12,0,0,0-.12,3,2,2,0,0,0,2.95.12,2.12,2.12,0,0,0,.13-3A2,2,0,0,0,193.9,55.7Z"/></g></g></g><path class="cls-4" d="M183.3,89.58c.53.59,1.07,1.17,1.62,1.73-.86,0-1.74,0-2.62,0Q181.64,90.19,181,89C181.78,89.18,182.54,89.38,183.3,89.58Z"/><path class="cls-4" d="M180.9,94.14c.56.63,1.13,1.25,1.7,1.84q-1.41.49-2.88,1.08c-.45-.9-.88-1.84-1.31-2.82C179.25,94.19,180.08,94.15,180.9,94.14Z"/><path class="cls-4" d="M178.76,100.07q1,.81,2,1.59-1.34.69-2.7,1.47c-.57-.84-1.14-1.71-1.69-2.61C177.14,100.35,178,100.2,178.76,100.07Z"/><path class="cls-4" d="M177.44,106.23l2.1,1.37c-.84.57-1.68,1.16-2.53,1.76-.66-.78-1.31-1.59-2-2.41Z"/><path class="cls-4" d="M176.65,112.49c.7.44,1.4.91,2.09,1.41-.85.65-1.73,1.12-2.59,1.71-.64-.8-1.22-1.7-1.89-2.44C175.05,113,175.85,112.75,176.65,112.49Z"/><path class="cls-4" d="M175.69,118.73c.74.43,1.47.83,2.21,1.2q-1.18.88-2.37,1.95c-.72-.69-1.44-1.44-2.15-2.26C174.15,119.29,174.92,119,175.69,118.73Z"/><path class="cls-4" d="M175.86,125a23.71,23.71,0,0,0,2.38.06,16.07,16.07,0,0,0-1.82,1.86,18,18,0,0,1-2.57-.7C174.51,125.78,175.18,125.37,175.86,125Z"/><path class="cls-3" d="M228.61,15c-.1-.14-.74,28.66-.74,28.66l83,.69,2-26.11Z"/><path class="cls-4" d="M312.88,18.38q-18.79-.73-37.6-1.24Q252,16,228.61,15.2l.22-.2c-.39,4.73-.7,9.47-.9,14.22a127.81,127.81,0,0,0,0,14.25,130.42,130.42,0,0,1-.25-14.26q.21-7.12.69-14.25v-.2h.21Q252,15.21,275.33,16,294.11,17.09,312.88,18.38Z"/><polygon class="cls-4" points="312.88 18.22 312.74 27.49 310.86 44.97 310.86 45.03 310.82 44.99 310.13 44.33 310.86 44.94 310.81 44.96 311.61 27.41 312.88 18.22"/><path class="cls-4" d="M309.05,44.79q-13.11-.63-26.22-.73-6.54-.27-13.09-.4c-4.37-.12-8.74-.06-13.11-.1l-26.24-.1L256.62,43c4.38-.06,8.75-.2,13.12-.18s8.75,0,13.13.11Q296,43.6,309.05,44.79Z"/><path class="cls-4" d="M234.43,22.66l2.4.06,0,.68-1.59,0,0,1,1.36,0V25l-1.36,0,0,1.54-.81,0Z"/><path class="cls-4" d="M237.3,23.66l.66,0,0,.51h0a1.11,1.11,0,0,1,.38-.42.73.73,0,0,1,.46-.14.83.83,0,0,1,.34.06l-.15.7-.11,0a.62.62,0,0,0-.57.1,1,1,0,0,0-.3.42l0,1.73-.81,0Z"/><path class="cls-4" d="M239.61,23.71l.8,0-.07,2.93-.8,0Zm.08-.57a.44.44,0,0,1,0-.62.45.45,0,0,1,.33-.12.49.49,0,0,1,.32.13.45.45,0,0,1,0,.62.48.48,0,0,1-.33.12A.52.52,0,0,1,239.69,23.14Z"/><path class="cls-4" d="M242.16,26.23q.63-.57,1-.9a4,4,0,0,0,.53-.63,1,1,0,0,0,.21-.56.56.56,0,0,0-.14-.44.54.54,0,0,0-.41-.17.64.64,0,0,0-.35.1,1.44,1.44,0,0,0-.34.28l-.44-.45a2,2,0,0,1,.59-.43,1.3,1.3,0,0,1,.67-.13,1.19,1.19,0,0,1,.88.34,1.17,1.17,0,0,1,.32.87,1.68,1.68,0,0,1-.35.9,9,9,0,0,1-1,1.08l.63,0,.81,0v.68l-2.61-.06Z"/><path class="cls-4" d="M245.27,26.11l.83,0,.05-2.27h-.7v-.51a4,4,0,0,0,.51-.11,2.22,2.22,0,0,0,.41-.2l.6,0-.07,3.1.71,0v.65l-2.35-.05Z"/><path class="cls-4" d="M249.58,23l.9,0,.6,1.79c.06.17.1.33.14.48l.07.25h0l.11-.34a2.31,2.31,0,0,1,.14-.38l.66-1.76.89,0L253,27l-.74,0,0-1.53c0-.22,0-.57.1-1l0-.23h0l-.34.9-.6,1.55H251L250.5,25l-.29-.91h0v.23c0,.48.06.84.06,1.05l0,1.53h-.72Z"/><path class="cls-4" d="M254,26.79a.88.88,0,0,1-.23-.63.81.81,0,0,1,.42-.71,2.88,2.88,0,0,1,1.27-.33.43.43,0,0,0-.47-.48,1.19,1.19,0,0,0-.37.06,3.7,3.7,0,0,0-.42.19l-.28-.54a2.37,2.37,0,0,1,1.24-.35,1.09,1.09,0,0,1,.84.34,1.46,1.46,0,0,1,.27,1l0,1.69h-.66l-.05-.31h0a1.41,1.41,0,0,1-.88.36A.83.83,0,0,1,254,26.79Zm1.17-.42a1.32,1.32,0,0,0,.27-.2v-.56a2,2,0,0,0-.69.18.38.38,0,0,0-.21.32.31.31,0,0,0,.09.24.4.4,0,0,0,.26.08A.42.42,0,0,0,255.18,26.37Z"/><path class="cls-4" d="M256.86,28.14l.16-.62a.64.64,0,0,0,.2.05.53.53,0,0,0,.54-.41l.05-.17-1.07-2.89.82,0,.41,1.33.15.56c0,.1.05.2.07.27h0c0-.23.13-.5.22-.83l.42-1.31.77,0-1.1,3A2.22,2.22,0,0,1,258,28a1,1,0,0,1-.76.25A1.29,1.29,0,0,1,256.86,28.14Z"/><path class="cls-4" d="M261.05,26.66q.63-.57,1-.9a4,4,0,0,0,.53-.63,1,1,0,0,0,.21-.56.57.57,0,0,0-.14-.44.54.54,0,0,0-.41-.17.64.64,0,0,0-.35.1,1.44,1.44,0,0,0-.34.28l-.43-.45a1.85,1.85,0,0,1,.58-.43,1.3,1.3,0,0,1,.67-.13,1.23,1.23,0,0,1,.88.34,1.13,1.13,0,0,1,.32.87,1.6,1.6,0,0,1-.35.9,8.3,8.3,0,0,1-1,1.08l.64,0,.81,0,0,.68L261,27.13Z"/><path class="cls-4" d="M264.76,27.06a1.47,1.47,0,0,1-.44-.68,3,3,0,0,1-.14-1.08,2.38,2.38,0,0,1,.39-1.42,1.18,1.18,0,0,1,1.93,0,2.41,2.41,0,0,1,.32,1.44,3,3,0,0,1-.19,1.07,1.44,1.44,0,0,1-.47.66,1.06,1.06,0,0,1-.7.21A1.08,1.08,0,0,1,264.76,27.06Zm1.13-.68a2.63,2.63,0,0,0,.17-1,2.38,2.38,0,0,0-.13-1,.43.43,0,0,0-.81,0,2.32,2.32,0,0,0-.17,1,2.67,2.67,0,0,0,.12,1,.43.43,0,0,0,.82,0Z"/><path class="cls-4" d="M267.25,26.62h.83l.05-2.27h-.69v-.5a4.11,4.11,0,0,0,.5-.12,2.26,2.26,0,0,0,.42-.19H269l-.07,3.1.72,0,0,.66-2.35-.06Z"/><path class="cls-4" d="M270.71,27.29a1.06,1.06,0,0,1-.45-.38.86.86,0,0,1-.16-.54,1.05,1.05,0,0,1,.67-.92v0a1.11,1.11,0,0,1-.49-.89,1,1,0,0,1,.35-.74,1.23,1.23,0,0,1,.86-.26,1.09,1.09,0,0,1,.81.3,1,1,0,0,1,.29.75.8.8,0,0,1-.15.47,1.33,1.33,0,0,1-.36.35v0a1.45,1.45,0,0,1,.47.41,1,1,0,0,1,.16.58,1,1,0,0,1-.18.53,1.16,1.16,0,0,1-.47.36,1.85,1.85,0,0,1-.69.12A1.77,1.77,0,0,1,270.71,27.29Zm1.08-.54a.47.47,0,0,0,.16-.36.48.48,0,0,0-.09-.29.75.75,0,0,0-.26-.2,4.14,4.14,0,0,0-.46-.22.92.92,0,0,0-.24.28.61.61,0,0,0-.1.34.49.49,0,0,0,.17.41.63.63,0,0,0,.43.16A.61.61,0,0,0,271.79,26.75Zm.14-2.12a.56.56,0,0,0-.12-.38.5.5,0,0,0-.35-.15.48.48,0,0,0-.33.12.45.45,0,0,0-.13.33.43.43,0,0,0,.16.37,2,2,0,0,0,.5.29A.84.84,0,0,0,271.93,24.63Z"/><path class="cls-16" d="M236.29,33.72h-.45l0,.93h-.35l0-.93-1.48,0v-.24l1.49-2.09h.4l0,2.06h.46Zm-.8-.32,0-1c0-.13,0-.33,0-.61h0l-.17.27-.11.17-.84,1.17Z"/><path class="cls-16" d="M236.84,34.64a.28.28,0,0,1-.07-.22.33.33,0,0,1,.08-.22.32.32,0,0,1,.21-.08.25.25,0,0,1,.19.09.29.29,0,0,1,.08.22.26.26,0,0,1-.09.21.22.22,0,0,1-.2.08A.3.3,0,0,1,236.84,34.64Zm0-1.89a.28.28,0,0,1-.08-.21.29.29,0,0,1,.09-.22.24.24,0,0,1,.2-.08.27.27,0,0,1,.2.09.28.28,0,0,1,.07.22.29.29,0,0,1-.08.21.27.27,0,0,1-.2.08A.25.25,0,0,1,236.89,32.75Z"/><path class="cls-16" d="M238.18,34.3a2.31,2.31,0,0,1-.24-1.27,2.37,2.37,0,0,1,.3-1.25.84.84,0,0,1,.77-.42.86.86,0,0,1,.75.46,2.34,2.34,0,0,1,.24,1.26,2.44,2.44,0,0,1-.3,1.26.85.85,0,0,1-.77.43A.83.83,0,0,1,238.18,34.3Zm1.26-.18a2.46,2.46,0,0,0,.2-1,2.26,2.26,0,0,0-.16-1,.52.52,0,0,0-.48-.35.53.53,0,0,0-.5.33,2.38,2.38,0,0,0-.2,1,2.5,2.5,0,0,0,.15,1.06.54.54,0,0,0,.49.36A.53.53,0,0,0,239.44,34.12Z"/><path class="cls-16" d="M240.71,34.36a2.42,2.42,0,0,1-.24-1.27,2.35,2.35,0,0,1,.3-1.25.84.84,0,0,1,.77-.42.85.85,0,0,1,.75.45,2.31,2.31,0,0,1,.24,1.27,2.44,2.44,0,0,1-.3,1.26.87.87,0,0,1-1.52,0Zm1.26-.18a2.46,2.46,0,0,0,.2-1,2.43,2.43,0,0,0-.15-1.05.58.58,0,0,0-.49-.36.57.57,0,0,0-.5.33,2.46,2.46,0,0,0-.2,1.05,2.5,2.5,0,0,0,.15,1.06.53.53,0,0,0,1,0Z"/><path class="cls-16" d="M243.22,32.31h.31l0,.3h0a1.38,1.38,0,0,1,.82-.34.85.85,0,0,1,.72.36,1.48,1.48,0,0,1,.24.94,1.73,1.73,0,0,1-.17.71,1.15,1.15,0,0,1-.41.46,1,1,0,0,1-.54.15,1.23,1.23,0,0,1-.7-.31V35l0,.86h-.37Zm1.35,2.14a.82.82,0,0,0,.28-.35,1.27,1.27,0,0,0,.11-.54,1.2,1.2,0,0,0-.15-.7.56.56,0,0,0-.52-.27,1.1,1.1,0,0,0-.71.34l0,1.35a1.26,1.26,0,0,0,.33.22.92.92,0,0,0,.3.07A.69.69,0,0,0,244.57,34.45Z"/><path class="cls-16" d="M246.06,32.37h.31l0,.37h0a1.08,1.08,0,0,1,.79-.41.63.63,0,0,1,.67.5,1.61,1.61,0,0,1,.43-.35.81.81,0,0,1,.41-.12c.51,0,.75.34.74,1l0,1.59H249l0-1.54a.94.94,0,0,0-.1-.53.43.43,0,0,0-.37-.17.92.92,0,0,0-.66.38l-.05,1.83h-.37l0-1.54a.92.92,0,0,0-.1-.52.45.45,0,0,0-.36-.18,1,1,0,0,0-.67.39l0,1.83H246Z"/><path class="cls-16" d="M251.51,34.84a1,1,0,0,1-.15-.6l0-1.44H251v-.28l.39,0,.06-.7h.32l0,.7.68,0v.31l-.69,0,0,1.45a.64.64,0,0,0,.08.37.36.36,0,0,0,.3.13.93.93,0,0,0,.29-.06l.07.28a1.48,1.48,0,0,1-.45.09A.61.61,0,0,1,251.51,34.84Z"/><path class="cls-16" d="M253.3,34.94a1.15,1.15,0,0,1-.41-.46,1.44,1.44,0,0,1-.14-.7,1.42,1.42,0,0,1,.17-.7,1.1,1.1,0,0,1,.43-.45,1.16,1.16,0,0,1,.58-.14,1,1,0,0,1,.56.17,1.08,1.08,0,0,1,.41.46,1.48,1.48,0,0,1,.14.71,1.36,1.36,0,0,1-.17.69,1.07,1.07,0,0,1-.43.44,1.06,1.06,0,0,1-.57.15A1.12,1.12,0,0,1,253.3,34.94Zm1-.26a.79.79,0,0,0,.28-.34,1.42,1.42,0,0,0,.11-.52,1.38,1.38,0,0,0-.09-.52.82.82,0,0,0-.26-.36.66.66,0,0,0-.39-.14.7.7,0,0,0-.4.12.81.81,0,0,0-.27.35,1.38,1.38,0,0,0,.08,1.24.68.68,0,0,0,.94.17Z"/><path class="cls-16" d="M256.87,35.05a1.45,1.45,0,0,1-.45-.33l.2-.24a1.39,1.39,0,0,0,.37.28,1.08,1.08,0,0,0,.46.12.79.79,0,0,0,.38-.09.66.66,0,0,0,.28-.27.89.89,0,0,0,.1-.41.69.69,0,0,0-.7-.77.85.85,0,0,0-.29,0,1.34,1.34,0,0,0-.29.15l-.2-.13.14-1.57,1.61,0v.32l-1.28,0-.11,1a1.3,1.3,0,0,1,.25-.1,1.12,1.12,0,0,1,.27,0,1.06,1.06,0,0,1,.73.28,1,1,0,0,1,.26.77,1.1,1.1,0,0,1-.16.59,1.07,1.07,0,0,1-.41.38,1,1,0,0,1-.54.12A1.28,1.28,0,0,1,256.87,35.05Z"/><path class="cls-16" d="M259.24,35.15a.33.33,0,0,1-.08-.22.29.29,0,0,1,.09-.22.3.3,0,0,1,.2-.08.34.34,0,0,1,.2.09.33.33,0,0,1,.08.22.29.29,0,0,1-.09.22.3.3,0,0,1-.2.08A.34.34,0,0,1,259.24,35.15Zm0-1.89a.26.26,0,0,1-.07-.21.33.33,0,0,1,.08-.22.32.32,0,0,1,.2-.08.25.25,0,0,1,.2.09.29.29,0,0,1,.08.22.26.26,0,0,1-.09.21.24.24,0,0,1-.2.08A.27.27,0,0,1,259.28,33.26Z"/><path class="cls-16" d="M260.58,34.81a3,3,0,0,1,.05-2.52.89.89,0,0,1,.77-.42.87.87,0,0,1,.76.46,3.08,3.08,0,0,1-.06,2.52.86.86,0,0,1-.77.43A.83.83,0,0,1,260.58,34.81Zm1.25-.18a2.32,2.32,0,0,0,.2-1.05,2.28,2.28,0,0,0-.15-1,.52.52,0,0,0-1,0,2.24,2.24,0,0,0-.2,1,2.5,2.5,0,0,0,.15,1.06.51.51,0,0,0,1,0Z"/><path class="cls-16" d="M263.11,34.87a2.39,2.39,0,0,1-.25-1.27,2.55,2.55,0,0,1,.3-1.25.85.85,0,0,1,.78-.42.86.86,0,0,1,.75.46,3.08,3.08,0,0,1-.06,2.52.88.88,0,0,1-.77.43A.85.85,0,0,1,263.11,34.87Zm1.25-.18a2.44,2.44,0,0,0,.21-1,2.26,2.26,0,0,0-.16-1,.52.52,0,0,0-1,0,2.38,2.38,0,0,0-.2,1,2.5,2.5,0,0,0,.15,1.06.52.52,0,0,0,1,0Z"/><path class="cls-16" d="M265.62,32.82h.31l0,.29h0a1.31,1.31,0,0,1,.81-.35.89.89,0,0,1,.73.36,1.56,1.56,0,0,1,.23.94,1.58,1.58,0,0,1-.16.71,1.16,1.16,0,0,1-.41.46,1,1,0,0,1-.54.15,1.2,1.2,0,0,1-.7-.31v.44l0,.86h-.37ZM267,35a.91.91,0,0,0,.28-.35,1.66,1.66,0,0,0,.11-.54,1.27,1.27,0,0,0-.16-.7.56.56,0,0,0-.51-.27,1.13,1.13,0,0,0-.71.34l0,1.35a1.71,1.71,0,0,0,.33.22.92.92,0,0,0,.31.07A.69.69,0,0,0,267,35Z"/><path class="cls-16" d="M268.46,32.88h.31l0,.37h0a1.08,1.08,0,0,1,.78-.41.65.65,0,0,1,.68.5,1.84,1.84,0,0,1,.43-.35.78.78,0,0,1,.41-.12c.5,0,.75.34.73,1l0,1.59h-.38l0-1.54a.93.93,0,0,0-.11-.53.43.43,0,0,0-.37-.17.94.94,0,0,0-.66.39l0,1.82h-.38l0-1.54a.84.84,0,0,0-.11-.52.43.43,0,0,0-.36-.18,1,1,0,0,0-.67.39l0,1.83h-.37Z"/><circle class="cls-17" cx="289.63" cy="25.43" r="2.94"/><path class="cls-3" d="M236.92,37.11c-.1-.14,1.83,26.21,1.83,26.21l83.55,0,1.37-26.48Z"/><path class="cls-16" d="M246.58,55.29h-.46v.93h-.36V55.3h-1.49v-.24l1.42-2.13h.4l0,2.06h.46Zm-.82-.29V54c0-.13,0-.34,0-.62h0l-.16.28-.11.18L244.68,55Z"/><path class="cls-16" d="M247.14,54.31a.34.34,0,0,1,0-.44.29.29,0,0,1,.4,0,.34.34,0,0,1,.09.22.26.26,0,0,1-.09.21.25.25,0,0,1-.2.09A.32.32,0,0,1,247.14,54.31Zm0,1.88a.29.29,0,0,1-.09-.21.33.33,0,0,1,.08-.22.27.27,0,0,1,.2-.09.25.25,0,0,1,.2.09.26.26,0,0,1,.09.21.33.33,0,0,1-.08.22.3.3,0,0,1-.2.08A.24.24,0,0,1,247.16,56.19Z"/><path class="cls-16" d="M248.48,55.82a2.47,2.47,0,0,1-.28-1.27,2.4,2.4,0,0,1,.26-1.25.88.88,0,0,1,1.53,0,3,3,0,0,1,0,2.52.82.82,0,0,1-.75.45A.86.86,0,0,1,248.48,55.82Zm1.25-.22a3.24,3.24,0,0,0,0-2.1.55.55,0,0,0-.5-.34.52.52,0,0,0-.48.34,2.24,2.24,0,0,0-.17,1,2.44,2.44,0,0,0,.18,1.06.55.55,0,0,0,.49.35A.53.53,0,0,0,249.73,55.6Z"/><path class="cls-16" d="M251,55.8a2.56,2.56,0,0,1-.28-1.26,2.41,2.41,0,0,1,.27-1.26.85.85,0,0,1,.75-.44.84.84,0,0,1,.77.43,2.39,2.39,0,0,1,.28,1.25,2.48,2.48,0,0,1-.26,1.27.85.85,0,0,1-.76.45A.84.84,0,0,1,251,55.8Zm1.26-.22a2.59,2.59,0,0,0,.17-1.06,2.43,2.43,0,0,0-.19-1,.52.52,0,0,0-1,0,2.17,2.17,0,0,0-.17,1,2.41,2.41,0,0,0,.18,1.06.56.56,0,0,0,.5.35A.54.54,0,0,0,252.27,55.58Z"/><path class="cls-16" d="M253.46,53.67h.31l0,.3h0a1.39,1.39,0,0,1,.81-.37.85.85,0,0,1,.73.34,1.85,1.85,0,0,1,.12,1.65,1.22,1.22,0,0,1-.39.47,1,1,0,0,1-.54.16,1.13,1.13,0,0,1-.71-.28v1.3h-.37Zm1.42,2.11a.88.88,0,0,0,.26-.36,1.33,1.33,0,0,0,.1-.54,1.31,1.31,0,0,0-.17-.71.62.62,0,0,0-.53-.25,1.12,1.12,0,0,0-.7.37v1.35a1.17,1.17,0,0,0,.33.2.74.74,0,0,0,.31.06A.69.69,0,0,0,254.88,55.78Z"/><path class="cls-16" d="M256.3,53.65h.31l0,.37h0a1.13,1.13,0,0,1,.78-.44.66.66,0,0,1,.69.48,1.85,1.85,0,0,1,.41-.36.82.82,0,0,1,.41-.13c.51,0,.76.32.77,1v1.59h-.38V54.59a.87.87,0,0,0-.12-.52.43.43,0,0,0-.37-.17,1,1,0,0,0-.65.41v1.83h-.37l0-1.54a.89.89,0,0,0-.12-.52.42.42,0,0,0-.36-.17,1,1,0,0,0-.66.41v1.83h-.37Z"/><path class="cls-16" d="M261.82,56a1,1,0,0,1-.16-.6V53.93h-.38v-.29l.39,0,0-.71H262v.7h.69v.31H262v1.45a.71.71,0,0,0,.1.37.35.35,0,0,0,.3.12.75.75,0,0,0,.29-.07l.08.28a1.27,1.27,0,0,1-.45.1A.64.64,0,0,1,261.82,56Z"/><path class="cls-16" d="M263.61,56a1.15,1.15,0,0,1-.42-.45,1.38,1.38,0,0,1-.16-.69,1.54,1.54,0,0,1,.15-.7,1,1,0,0,1,.42-.46,1,1,0,0,1,.57-.16,1.16,1.16,0,0,1,.57.15,1,1,0,0,1,.42.45,1.42,1.42,0,0,1,.16.7,1.32,1.32,0,0,1-.15.7,1.15,1.15,0,0,1-.41.46,1.17,1.17,0,0,1-.57.16A1.08,1.08,0,0,1,263.61,56Zm1-.28a.82.82,0,0,0,.26-.36,1.21,1.21,0,0,0,.1-.52,1.46,1.46,0,0,0-.1-.52.89.89,0,0,0-.28-.35.65.65,0,0,0-.39-.12.59.59,0,0,0-.39.13.74.74,0,0,0-.27.35,1.46,1.46,0,0,0-.09.52,1.09,1.09,0,0,0,.22.72.65.65,0,0,0,.54.27A.7.7,0,0,0,264.58,55.72Z"/><path class="cls-16" d="M267.19,56a1.65,1.65,0,0,1-.46-.32l.19-.25a1.57,1.57,0,0,0,.37.28,1,1,0,0,0,.48.1.79.79,0,0,0,.37-.1.81.81,0,0,0,.27-.28.91.91,0,0,0,.09-.41.76.76,0,0,0-.2-.55.72.72,0,0,0-.52-.2.94.94,0,0,0-.3,0,1.73,1.73,0,0,0-.28.16l-.21-.13.1-1.57h1.61v.32h-1.28l-.08,1a.91.91,0,0,1,.25-.11.77.77,0,0,1,.27,0,1,1,0,0,1,.73.25,1,1,0,0,1,.29.77,1.1,1.1,0,0,1-.15.59,1,1,0,0,1-.39.39,1.14,1.14,0,0,1-.54.14A1.41,1.41,0,0,1,267.19,56Z"/><path class="cls-16" d="M269.55,54.15a.29.29,0,0,1-.09-.21.33.33,0,0,1,.08-.22.27.27,0,0,1,.2-.09.25.25,0,0,1,.2.09.26.26,0,0,1,.09.21.33.33,0,0,1-.08.22.3.3,0,0,1-.2.08A.24.24,0,0,1,269.55,54.15Zm0,1.88a.26.26,0,0,1-.09-.21.29.29,0,0,1,.09-.22.24.24,0,0,1,.2-.08.24.24,0,0,1,.2.08.33.33,0,0,1,.08.22A.32.32,0,0,1,270,56a.27.27,0,0,1-.2.09A.25.25,0,0,1,269.56,56Z"/><path class="cls-16" d="M270.88,55.66a2.56,2.56,0,0,1-.28-1.26,2.41,2.41,0,0,1,.27-1.26.85.85,0,0,1,.75-.44.86.86,0,0,1,.77.43,2.39,2.39,0,0,1,.28,1.25,2.48,2.48,0,0,1-.26,1.27.85.85,0,0,1-.76.45A.84.84,0,0,1,270.88,55.66Zm1.25-.22a2.36,2.36,0,0,0,.18-1,2.49,2.49,0,0,0-.19-1,.52.52,0,0,0-1,0,2.24,2.24,0,0,0-.17,1,2.36,2.36,0,0,0,.18,1.05.54.54,0,0,0,.5.35A.52.52,0,0,0,272.13,55.44Z"/><path class="cls-16" d="M273.41,55.64a2.5,2.5,0,0,1-.28-1.26,2.43,2.43,0,0,1,.27-1.26.88.88,0,0,1,1.52,0,2.4,2.4,0,0,1,.28,1.26,2.37,2.37,0,0,1-.26,1.26.87.87,0,0,1-1.53,0Zm1.26-.21a2.62,2.62,0,0,0,.17-1.06,2.49,2.49,0,0,0-.19-1,.54.54,0,0,0-.49-.34.55.55,0,0,0-.49.35,3.24,3.24,0,0,0,0,2.1.53.53,0,0,0,1,0Z"/><path class="cls-16" d="M275.87,53.52h.3l0,.3h0a1.31,1.31,0,0,1,.81-.36.84.84,0,0,1,.73.33,1.53,1.53,0,0,1,.26.93,1.47,1.47,0,0,1-.14.72,1.15,1.15,0,0,1-.39.47,1,1,0,0,1-.54.17,1.21,1.21,0,0,1-.71-.29v1.3h-.37Zm1.41,2.1a.82.82,0,0,0,.26-.36,1.52,1.52,0,0,0-.07-1.24.6.6,0,0,0-.53-.25,1.1,1.1,0,0,0-.7.36v1.35a1.26,1.26,0,0,0,.34.21.89.89,0,0,0,.3.06A.7.7,0,0,0,277.28,55.62Z"/><path class="cls-16" d="M278.71,53.5h.3l0,.37h0a1.11,1.11,0,0,1,.78-.44.65.65,0,0,1,.69.48,2.24,2.24,0,0,1,.41-.37.84.84,0,0,1,.42-.12c.5,0,.75.32.76,1V56h-.38V54.43a.89.89,0,0,0-.12-.52.42.42,0,0,0-.37-.16.94.94,0,0,0-.65.4V56h-.37V54.44a1,1,0,0,0-.13-.52.41.41,0,0,0-.36-.16,1,1,0,0,0-.66.4V56h-.37Z"/><polygon class="cls-4" points="236.92 37.11 237.52 41.46 237.02 50.17 236.39 41.47 236.92 37.11"/><path class="cls-4" d="M243.86,43.34l.9,0,.6,1.79c.06.17.1.33.14.48l.08.25h0l.11-.34c.07-.21.12-.34.14-.38l.66-1.76.9,0-.09,3.86-.74,0,0-1.53c0-.22,0-.57.1-1l0-.23h0l-.33.9-.61,1.55h-.46l-.54-1.58-.29-.91h0l0,.23c0,.48,0,.84,0,1l0,1.53h-.72Z"/><path class="cls-4" d="M248.72,47.2a1.34,1.34,0,0,1-.5-.55,1.76,1.76,0,0,1,0-1.63,1.26,1.26,0,0,1,.53-.52,1.4,1.4,0,0,1,1.39,0,1.27,1.27,0,0,1,.51.54,1.61,1.61,0,0,1,.18.83,1.74,1.74,0,0,1-.21.81,1.41,1.41,0,0,1-1.24.69A1.57,1.57,0,0,1,248.72,47.2Zm1.15-.68a1.1,1.1,0,0,0,.17-.64,1.14,1.14,0,0,0-.14-.65.51.51,0,0,0-.86,0,1.18,1.18,0,0,0-.17.64,1.14,1.14,0,0,0,.14.65.52.52,0,0,0,.86,0Z"/><path class="cls-4" d="M251.52,44.45h.66l0,.38h0a2.5,2.5,0,0,1,.45-.32,1.26,1.26,0,0,1,.51-.11.83.83,0,0,1,.68.32,1.49,1.49,0,0,1,.2.88l0,1.82-.81,0,0-1.72a.82.82,0,0,0-.09-.45.31.31,0,0,0-.29-.14.65.65,0,0,0-.29.06,1.34,1.34,0,0,0-.3.23l-.05,2-.8,0Z"/><path class="cls-4" d="M255.83,47c.42-.39.74-.69,1-.91a4,4,0,0,0,.53-.63,1,1,0,0,0,.21-.56.61.61,0,0,0-.14-.44.54.54,0,0,0-.41-.17.68.68,0,0,0-.36.1,1.64,1.64,0,0,0-.33.28l-.44-.45a2.11,2.11,0,0,1,.58-.43,1.48,1.48,0,0,1,.68-.13A1.25,1.25,0,0,1,258,44a1.13,1.13,0,0,1,.31.87,1.58,1.58,0,0,1-.34.9,9.12,9.12,0,0,1-1,1.08l.63,0,.81,0v.68l-2.61-.06Z"/><path class="cls-4" d="M261.66,46.68h-.45l0,.92h-.75l0-.92-1.64,0v-.56l1.47-2.25,1,0,0,2.23h.45ZM260.47,46l0-.69c0-.17,0-.44.05-.82h0l-.26.5-.06.1-.57.89Z"/><path class="cls-4" d="M263.52,43.78l.89,0,.6,1.78c.06.17.11.34.15.49l.07.25h0l.12-.34a4.06,4.06,0,0,1,.13-.39l.67-1.75.89,0L267,47.73l-.74,0,0-1.53a10.2,10.2,0,0,1,.1-1l0-.23h0l-.33.89-.61,1.56H265l-.54-1.58-.29-.91h0l0,.23a9.47,9.47,0,0,1,.05,1.05l0,1.53h-.73Z"/><path class="cls-4" d="M267.94,47.57a.87.87,0,0,1-.22-.63.81.81,0,0,1,.41-.72,3.1,3.1,0,0,1,1.28-.32.43.43,0,0,0-.48-.48,1,1,0,0,0-.37.06,2.51,2.51,0,0,0-.42.19l-.28-.54a2.39,2.39,0,0,1,1.24-.35,1.06,1.06,0,0,1,.85.34,1.46,1.46,0,0,1,.26,1l0,1.69-.67,0-.05-.3h0a1.32,1.32,0,0,1-.87.35A.83.83,0,0,1,267.94,47.57Zm1.18-.42a1.07,1.07,0,0,0,.26-.2l0-.56a2,2,0,0,0-.69.18.4.4,0,0,0-.22.32.32.32,0,0,0,.09.24.56.56,0,0,0,.54,0Z"/><path class="cls-4" d="M270.79,48.92l.16-.62a.64.64,0,0,0,.2.05.54.54,0,0,0,.54-.42l.05-.16-1.07-2.89.82,0,.41,1.33c.05.14.1.32.16.55s.05.2.07.28h0c.06-.22.13-.49.23-.82l.41-1.31.78,0-1.1,3a2.22,2.22,0,0,1-.51.82,1.06,1.06,0,0,1-.76.25A1.35,1.35,0,0,1,270.79,48.92Z"/><path class="cls-4" d="M275,47.44q.63-.57,1-.9a4.67,4.67,0,0,0,.53-.63,1.18,1.18,0,0,0,.21-.56.64.64,0,0,0-.14-.44.56.56,0,0,0-.41-.17.65.65,0,0,0-.36.1,2,2,0,0,0-.34.28l-.43-.45a2.22,2.22,0,0,1,.58-.44,1.43,1.43,0,0,1,.67-.12,1.19,1.19,0,0,1,.88.34,1.13,1.13,0,0,1,.32.87,1.66,1.66,0,0,1-.34.9,12.56,12.56,0,0,1-1,1.08l.63,0,.81,0,0,.68-2.6-.06Z"/><path class="cls-4" d="M278.7,47.84a1.45,1.45,0,0,1-.45-.68,3.18,3.18,0,0,1-.14-1.08,2.5,2.5,0,0,1,.39-1.42,1.18,1.18,0,0,1,1.93,0,2.48,2.48,0,0,1,.33,1.44,3.25,3.25,0,0,1-.19,1.07,1.46,1.46,0,0,1-.48.66,1.06,1.06,0,0,1-.7.21A1.09,1.09,0,0,1,278.7,47.84Zm1.12-.68a2.66,2.66,0,0,0,.17-1,2.5,2.5,0,0,0-.12-1,.45.45,0,0,0-.4-.3.43.43,0,0,0-.42.28,3.57,3.57,0,0,0,0,2,.43.43,0,0,0,.4.31A.43.43,0,0,0,279.82,47.16Z"/><path class="cls-4" d="M281.19,47.39l.83,0,.05-2.27h-.7v-.51a4.45,4.45,0,0,0,.51-.11,2.22,2.22,0,0,0,.41-.2l.6,0-.07,3.1.71,0v.65l-2.36-.05Z"/><path class="cls-4" d="M284.65,48.07a1.16,1.16,0,0,1-.46-.38.93.93,0,0,1-.16-.54,1.07,1.07,0,0,1,.68-.92v0a1.06,1.06,0,0,1-.49-.89.88.88,0,0,1,.35-.74,1.26,1.26,0,0,1,.85-.27,1.23,1.23,0,0,1,.82.3,1,1,0,0,1,.29.76.87.87,0,0,1-.15.47,1.24,1.24,0,0,1-.37.35v0a1.6,1.6,0,0,1,.47.41,1,1,0,0,1,.16.59.82.82,0,0,1-.18.52,1.1,1.1,0,0,1-.47.37,1.85,1.85,0,0,1-.69.12A1.68,1.68,0,0,1,284.65,48.07Zm1.08-.54a.47.47,0,0,0,.15-.37.35.35,0,0,0-.09-.28.87.87,0,0,0-.25-.21l-.47-.22a1,1,0,0,0-.24.29.83.83,0,0,0-.1.34.53.53,0,0,0,.17.4.67.67,0,0,0,.44.17A.61.61,0,0,0,285.73,47.53Zm.14-2.12a.52.52,0,0,0-.13-.38.43.43,0,0,0-.35-.15.44.44,0,0,0-.46.45.47.47,0,0,0,.16.37,1.91,1.91,0,0,0,.51.29A.94.94,0,0,0,285.87,45.41Z"/><polygon class="cls-4" points="238.04 36.45 260.22 36.06 304.58 36.96 260.22 37.19 238.04 36.45"/><path class="cls-4" d="M323.2,48.84l.23,4.7-.62,4.64-.31,2.32-.15,1.16-.08.58c0,.1-.06.22-.17.25s-.15-.23,0-.18c-.12,0-.06.2,0,.15s.1-.14.11-.23V60.48l0-2.34.05-4.68Z"/><polygon class="cls-4" points="237.92 55.66 238.91 63.3 238.75 63.16 259.43 62.71 316.18 63.16 259.43 63.84 238.75 63.47 238.61 63.47 238.6 63.33 237.92 55.66"/><path class="cls-3" d="M231,60.8c-.11-.13,3,27,3,27l84.31-7.07-.85-26.33Z"/><polygon class="cls-4" points="233.19 60.48 261.02 57.85 316.81 54.28 261.11 58.98 233.19 60.48"/><polygon class="cls-4" points="317.82 57.44 318.55 64.89 318.32 79.83 317.42 64.92 317.82 57.44"/><polygon class="cls-4" points="231.09 61.98 232.56 69.87 233.81 85.85 231.43 70 231.09 61.98"/><path class="cls-4" d="M234.43,87.67q13.94-2,27.95-3.58,28.1-2.25,56.28-2.55-28.16.88-56.18,3.68Q248.44,86.2,234.43,87.67Z"/><path class="cls-16" d="M242.24,78.87l-.45,0,.08.92-.35,0-.09-.92-1.47.13,0-.24,1.24-2.23.4,0,.19,2,.45,0Zm-.84-.23-.09-1c0-.13,0-.34,0-.62h0l-.13.29-.09.19-.71,1.25Z"/><path class="cls-16" d="M242.72,77.84a.3.3,0,0,1-.1-.21.28.28,0,0,1,.06-.22.27.27,0,0,1,.4,0,.27.27,0,0,1,.1.21.28.28,0,0,1-.06.22.24.24,0,0,1-.19.1A.26.26,0,0,1,242.72,77.84Zm.17,1.87a.3.3,0,0,1-.1-.2.31.31,0,0,1,.06-.23.3.3,0,0,1,.19-.1.27.27,0,0,1,.21.07.27.27,0,0,1,.1.21.29.29,0,0,1-.06.22.27.27,0,0,1-.19.1A.24.24,0,0,1,242.89,79.71Z"/><path class="cls-16" d="M244.18,79.23A2.33,2.33,0,0,1,243.8,78a2.45,2.45,0,0,1,.15-1.28.89.89,0,0,1,1.52-.14,2.41,2.41,0,0,1,.39,1.23,2.56,2.56,0,0,1-.16,1.28.87.87,0,0,1-1.52.14Zm1.23-.32a2.42,2.42,0,0,0,.08-1.07,2.25,2.25,0,0,0-.27-1,.54.54,0,0,0-.52-.3.55.55,0,0,0-.46.38,3.26,3.26,0,0,0,.19,2.1.52.52,0,0,0,1-.09Z"/><path class="cls-16" d="M246.7,79a2.42,2.42,0,0,1-.38-1.23,2.45,2.45,0,0,1,.15-1.28.88.88,0,0,1,.72-.5.86.86,0,0,1,.8.36,2.41,2.41,0,0,1,.39,1.23,2.51,2.51,0,0,1-.16,1.29.84.84,0,0,1-.72.51A.86.86,0,0,1,246.7,79Zm1.23-.32a2.28,2.28,0,0,0,.08-1.07,2.25,2.25,0,0,0-.27-1,.54.54,0,0,0-.52-.3.55.55,0,0,0-.46.38,2.55,2.55,0,0,0-.08,1.06,2.39,2.39,0,0,0,.27,1,.56.56,0,0,0,.52.31A.54.54,0,0,0,247.93,78.68Z"/><path class="cls-16" d="M249,76.68l.3,0,.06.3h0a1.32,1.32,0,0,1,.77-.43.83.83,0,0,1,.76.28,1.54,1.54,0,0,1,.34.9,1.73,1.73,0,0,1-.08.73,1.18,1.18,0,0,1-.36.5,1,1,0,0,1-.52.21,1.19,1.19,0,0,1-.73-.23l.05.44.08.86-.37,0Zm1.58,2a.83.83,0,0,0,.24-.38,1.4,1.4,0,0,0,0-.55,1.2,1.2,0,0,0-.23-.69.59.59,0,0,0-.54-.2,1.13,1.13,0,0,0-.67.42l.12,1.34a1.1,1.1,0,0,0,.36.18.83.83,0,0,0,.3,0A.72.72,0,0,0,250.55,78.66Z"/><path class="cls-16" d="M251.8,76.42l.3,0,.07.37h0a1.11,1.11,0,0,1,.74-.5.67.67,0,0,1,.73.42,2.11,2.11,0,0,1,.38-.4.81.81,0,0,1,.4-.16q.75-.08.84.9l.15,1.58-.38,0-.14-1.53a1,1,0,0,0-.16-.51.43.43,0,0,0-.39-.13,1,1,0,0,0-.61.46l.16,1.82-.37,0-.14-1.53a.87.87,0,0,0-.17-.51.4.4,0,0,0-.37-.14,1,1,0,0,0-.62.46l.16,1.82-.37,0Z"/><path class="cls-16" d="M257.49,78.26a1,1,0,0,1-.22-.58l-.13-1.43-.37,0,0-.28.39-.06,0-.71.32,0,.06.7.68-.06,0,.31-.68.06.13,1.44a.55.55,0,0,0,.12.36.36.36,0,0,0,.32.1,1.24,1.24,0,0,0,.28-.09l.1.27a1.39,1.39,0,0,1-.44.13A.59.59,0,0,1,257.49,78.26Z"/><path class="cls-16" d="M259.28,78.15a1.07,1.07,0,0,1-.46-.41,1.34,1.34,0,0,1-.22-.68,1.37,1.37,0,0,1,.09-.71,1.1,1.1,0,0,1,.38-.49,1.09,1.09,0,0,1,.55-.21,1,1,0,0,1,.58.1,1.09,1.09,0,0,1,.46.42,1.34,1.34,0,0,1,.22.68,1.37,1.37,0,0,1-.09.71,1.1,1.1,0,0,1-.38.49,1.09,1.09,0,0,1-.55.21A1,1,0,0,1,259.28,78.15Zm.93-.36a.83.83,0,0,0,.24-.38,1.25,1.25,0,0,0,.05-.52,1.27,1.27,0,0,0-.15-.51.69.69,0,0,0-.3-.33.68.68,0,0,0-.4-.09.65.65,0,0,0-.38.16.83.83,0,0,0-.24.38,1.45,1.45,0,0,0,0,.52,1.14,1.14,0,0,0,.27.7.66.66,0,0,0,.57.22A.64.64,0,0,0,260.21,77.79Z"/><path class="cls-16" d="M262.84,77.86a1.44,1.44,0,0,1-.48-.28l.16-.26a1.85,1.85,0,0,0,.4.24.94.94,0,0,0,.48.06.75.75,0,0,0,.36-.13.7.7,0,0,0,.24-.3.72.72,0,0,0,.06-.42.76.76,0,0,0-.24-.53.7.7,0,0,0-.54-.15.82.82,0,0,0-.29.07,1.57,1.57,0,0,0-.27.18l-.21-.11,0-1.57,1.61-.15,0,.33-1.28.11v1a1.41,1.41,0,0,1,.24-.13,1.07,1.07,0,0,1,.27-.06,1,1,0,0,1,.75.19,1,1,0,0,1,.35.74,1.21,1.21,0,0,1-.09.61,1.15,1.15,0,0,1-.37.42,1.2,1.2,0,0,1-.52.18A1.35,1.35,0,0,1,262.84,77.86Z"/><path class="cls-16" d="M265,75.81a.3.3,0,0,1-.1-.21.29.29,0,0,1,.06-.22.26.26,0,0,1,.19-.1.27.27,0,0,1,.31.27.28.28,0,0,1-.06.22.29.29,0,0,1-.19.11A.31.31,0,0,1,265,75.81Zm.17,1.88a.32.32,0,0,1-.1-.21.28.28,0,0,1,.06-.22.27.27,0,0,1,.2-.11.31.31,0,0,1,.2.07.27.27,0,0,1,.1.21.29.29,0,0,1-.06.22.27.27,0,0,1-.19.1A.26.26,0,0,1,265.2,77.69Z"/><path class="cls-16" d="M266.49,77.2a2.33,2.33,0,0,1-.38-1.23,2.45,2.45,0,0,1,.15-1.28.88.88,0,0,1,.72-.5.86.86,0,0,1,.8.36,2.41,2.41,0,0,1,.39,1.23,2.51,2.51,0,0,1-.16,1.29.86.86,0,0,1-.72.51A.84.84,0,0,1,266.49,77.2Zm1.23-.32a2.42,2.42,0,0,0,.08-1.07,2.29,2.29,0,0,0-.27-1,.54.54,0,0,0-.52-.3.55.55,0,0,0-.46.39,3.22,3.22,0,0,0,.19,2.09.53.53,0,0,0,.52.31A.55.55,0,0,0,267.72,76.88Z"/><path class="cls-16" d="M269,77a2.52,2.52,0,0,1-.38-1.23,2.46,2.46,0,0,1,.15-1.28.88.88,0,0,1,.72-.5.84.84,0,0,1,.8.37,2.34,2.34,0,0,1,.39,1.22,2.51,2.51,0,0,1-.16,1.29A.87.87,0,0,1,269,77Zm1.23-.32a3.21,3.21,0,0,0-.19-2.09.54.54,0,0,0-.52-.3.55.55,0,0,0-.46.39,2.51,2.51,0,0,0-.08,1.06,2.38,2.38,0,0,0,.27,1,.52.52,0,0,0,1-.09Z"/><path class="cls-16" d="M271.28,74.65l.3,0,.06.3h0a1.34,1.34,0,0,1,.77-.44.86.86,0,0,1,.76.28,1.54,1.54,0,0,1,.34.9,1.57,1.57,0,0,1-.09.73,1.08,1.08,0,0,1-.35.5,1,1,0,0,1-.52.21,1.13,1.13,0,0,1-.73-.23l.05.44.08.86-.37,0Zm1.58,2a.83.83,0,0,0,.24-.38,1.39,1.39,0,0,0,0-.55,1.14,1.14,0,0,0-.23-.68.57.57,0,0,0-.54-.21,1.13,1.13,0,0,0-.67.42l.12,1.34a1,1,0,0,0,.36.18.83.83,0,0,0,.3,0A.65.65,0,0,0,272.86,76.63Z"/><path class="cls-16" d="M274.11,74.39l.3,0,.07.36h0a1.09,1.09,0,0,1,.74-.5.67.67,0,0,1,.73.42,2.47,2.47,0,0,1,.38-.4.81.81,0,0,1,.4-.16q.75-.06.84.9l.14,1.58-.37,0-.14-1.53a1,1,0,0,0-.16-.51.43.43,0,0,0-.39-.13,1,1,0,0,0-.61.46l.16,1.82-.37,0-.14-1.53a.87.87,0,0,0-.17-.51.39.39,0,0,0-.37-.13.92.92,0,0,0-.62.46l.16,1.82-.37,0Z"/><path class="cls-4" d="M239.29,67.28l-1.08.06,0-.68,3-.18.05.68-1.08.07.19,3.17-.81,0Z"/><path class="cls-4" d="M241.84,70.07a1.43,1.43,0,0,1-.27-.85l-.11-1.82.8-.05.1,1.72a.82.82,0,0,0,.13.44.32.32,0,0,0,.31.12.5.5,0,0,0,.28-.1,1.46,1.46,0,0,0,.26-.28l-.12-2,.8-.05.18,2.92-.66,0-.08-.4h0a1.55,1.55,0,0,1-.39.38,1,1,0,0,1-.5.16A.78.78,0,0,1,241.84,70.07Z"/><path class="cls-4" d="M247.31,68.74l-1.81.11a.79.79,0,0,0,.32.5.91.91,0,0,0,.54.13,1.31,1.31,0,0,0,.64-.23l.29.47a1.8,1.8,0,0,1-.47.27,1.69,1.69,0,0,1-.53.12,1.61,1.61,0,0,1-.76-.14,1.26,1.26,0,0,1-.55-.5,1.58,1.58,0,0,1-.25-.8,1.67,1.67,0,0,1,.15-.82,1.39,1.39,0,0,1,.47-.57,1.22,1.22,0,0,1,.65-.23,1.15,1.15,0,0,1,.94.33,1.52,1.52,0,0,1,.38,1A1.43,1.43,0,0,1,247.31,68.74Zm-.69-.49a.65.65,0,0,0-.16-.44.44.44,0,0,0-.4-.14.6.6,0,0,0-.38.17.89.89,0,0,0-.2.47Z"/><path class="cls-4" d="M249,69.4l.88-1a4.8,4.8,0,0,0,.48-.68,1.13,1.13,0,0,0,.16-.58.59.59,0,0,0-.18-.42.49.49,0,0,0-.42-.13.64.64,0,0,0-.35.12,1.81,1.81,0,0,0-.31.31l-.47-.41a2.12,2.12,0,0,1,.54-.48A1.54,1.54,0,0,1,250,66a1.26,1.26,0,0,1,.91.27,1.15,1.15,0,0,1,.39.84A1.7,1.7,0,0,1,251,68a8.91,8.91,0,0,1-.87,1.16,5.43,5.43,0,0,1,.63-.08l.81,0,0,.68-2.6.16Z"/><path class="cls-4" d="M252,69.23l.33-.53a1.22,1.22,0,0,0,.86.33.66.66,0,0,0,.47-.2.6.6,0,0,0,.15-.47.61.61,0,0,0-.2-.45.59.59,0,0,0-.46-.13.68.68,0,0,0-.27,0l-.29.18-.38-.21V65.91l2.08-.13,0,.68-1.4.08v.78a1.18,1.18,0,0,1,.43-.13,1.28,1.28,0,0,1,.87.25,1.09,1.09,0,0,1,.39.85,1.28,1.28,0,0,1-.14.71,1.35,1.35,0,0,1-.47.48,1.5,1.5,0,0,1-.67.2A1.78,1.78,0,0,1,252,69.23Z"/><path class="cls-4" d="M256.4,65.55l.89,0,.75,1.73c.07.16.13.32.19.47l.09.24h0l.09-.34c.05-.22.08-.35.1-.4l.51-1.81.9,0,.23,3.85-.74,0-.09-1.53c0-.22,0-.57,0-1.06v-.23h0l-.26.92-.48,1.6-.46,0-.66-1.53-.37-.88h0l0,.23c.08.48.12.83.14,1l.09,1.53-.72,0Z"/><path class="cls-4" d="M261.13,69a.82.82,0,0,1-.28-.61.8.8,0,0,1,.35-.74,3,3,0,0,1,1.25-.43.43.43,0,0,0-.52-.44.8.8,0,0,0-.36.09,2.3,2.3,0,0,0-.4.22l-.33-.51a2.39,2.39,0,0,1,1.21-.46,1.09,1.09,0,0,1,.87.28,1.41,1.41,0,0,1,.35,1l.1,1.69-.66,0-.08-.31h0a1.27,1.27,0,0,1-.84.43A.78.78,0,0,1,261.13,69Zm1.13-.51a1.19,1.19,0,0,0,.25-.22l0-.56a2,2,0,0,0-.68.23.38.38,0,0,0-.18.34.27.27,0,0,0,.11.23.36.36,0,0,0,.27.06A.47.47,0,0,0,262.26,68.44Z"/><path class="cls-4" d="M264.08,70.06l.11-.63.2,0a.52.52,0,0,0,.5-.46l0-.16-1.31-2.79.82,0,.52,1.29c.06.13.12.31.2.54s.06.19.09.27h0c0-.23.09-.51.15-.84l.31-1.34.77,0-.85,3a2.08,2.08,0,0,1-.43.86,1,1,0,0,1-.74.31A1.37,1.37,0,0,1,264.08,70.06Z"/><path class="cls-4" d="M268.14,68.24c.38-.42.67-.74.87-1a3.72,3.72,0,0,0,.48-.68,1,1,0,0,0,.16-.57.63.63,0,0,0-.17-.43.55.55,0,0,0-.42-.13.63.63,0,0,0-.35.13,2.2,2.2,0,0,0-.32.3l-.46-.41a2,2,0,0,1,.54-.48,1.35,1.35,0,0,1,.66-.18,1.17,1.17,0,0,1,.9.26,1.12,1.12,0,0,1,.39.84,1.59,1.59,0,0,1-.27.93,9.14,9.14,0,0,1-.86,1.16,3.62,3.62,0,0,1,.63-.08l.81,0,0,.67-2.61.16Z"/><path class="cls-4" d="M271.86,68.32a1.51,1.51,0,0,1-.5-.64,3.15,3.15,0,0,1-.22-1.06,2.47,2.47,0,0,1,.26-1.45,1.18,1.18,0,0,1,1.93-.12,2.38,2.38,0,0,1,.44,1.41,3,3,0,0,1-.09,1.08,1.48,1.48,0,0,1-.42.7,1.15,1.15,0,0,1-.68.27A1.18,1.18,0,0,1,271.86,68.32Zm1.07-.77a2.71,2.71,0,0,0,.08-1,2.51,2.51,0,0,0-.21-1,.42.42,0,0,0-.42-.26.43.43,0,0,0-.39.31,2.36,2.36,0,0,0-.09,1,2.63,2.63,0,0,0,.21,1,.43.43,0,0,0,.82,0Z"/><path class="cls-4" d="M274.31,67.67l.83,0L275,65.35l-.7.05,0-.51a2.68,2.68,0,0,0,.5-.16,2.16,2.16,0,0,0,.39-.22l.6,0,.19,3.1.71,0,0,.65-2.35.15Z"/><path class="cls-4" d="M277.81,68.05a1.12,1.12,0,0,1-.48-.33.85.85,0,0,1-.2-.53,1,1,0,0,1,.59-1v0a1.06,1.06,0,0,1-.56-.85.93.93,0,0,1,.28-.77,1.27,1.27,0,0,1,.83-.33,1.16,1.16,0,0,1,.84.23,1,1,0,0,1,.35.73.81.81,0,0,1-.11.48,1.35,1.35,0,0,1-.33.38v0a1.48,1.48,0,0,1,.5.37,1,1,0,0,1,.21.57.92.92,0,0,1-.13.54,1.17,1.17,0,0,1-.45.4,1.69,1.69,0,0,1-.67.18A1.63,1.63,0,0,1,277.81,68.05Zm1-.63a.45.45,0,0,0,.12-.37.42.42,0,0,0-.12-.28.91.91,0,0,0-.27-.18,3.63,3.63,0,0,0-.48-.18,1.29,1.29,0,0,0-.22.3.72.72,0,0,0-.06.35.47.47,0,0,0,.2.39.61.61,0,0,0,.44.13A.56.56,0,0,0,278.85,67.42Zm0-2.12a.55.55,0,0,0-.16-.37.47.47,0,0,0-.36-.11A.4.4,0,0,0,278,65a.43.43,0,0,0-.11.34.46.46,0,0,0,.19.36,2.24,2.24,0,0,0,.53.24A.93.93,0,0,0,278.81,65.3Z"/><circle class="cls-17" cx="293.89" cy="65.04" r="2.94"/><g class="cls-18"><polygon class="cls-19" points="90.63 87.66 88.47 93.74 114.55 60.74 114.55 60.74 90.63 87.66"/><polygon class="cls-20" points="102.55 96.74 78.55 78.74 114.55 60.74 102.55 96.74"/><path class="cls-4" d="M102.55,96.74C94.7,91.12,86.36,85.59,77.84,79.68l-1.53-1.05L78,77.69l5.32-2.93,30.88-14.69,1.63-.77L115.26,61c-4.31,12.13-8.65,24-12.71,35.76,3.94-12.25,7.59-24.37,11.29-36.24l1,.91L84.61,77.3l-5.53,2.5.18-2C86.74,83.89,94.4,90.36,102.55,96.74Z"/><polygon class="cls-4" points="90.63 87.66 88.79 93.86 88.47 94.91 88.14 93.83 85.26 84.6 85.11 84.13 85.55 83.73 93.56 76.5 111.02 63.09 112.18 64.29 90.63 87.66 110.92 63.19 112.08 64.39 95.35 78.7 86.62 85.05 86.91 84.18 88.8 93.66 88.14 93.63 90.63 87.66"/></g><g class="cls-18"><polygon class="cls-19" points="273.58 168.68 268.99 173.22 306.82 154.82 306.82 154.82 273.58 168.68"/><polygon class="cls-20" points="280.37 182.03 266.57 155.4 306.82 154.82 280.37 182.03"/><path class="cls-4" d="M280.37,182c-4.63-8.46-9.74-17.08-14.84-26.09l-.92-1.62,1.95-.1,6.06-.33,34.19.18h1.81l-1.27,1.26c-9.14,9.06-18.22,17.88-27,26.69,8.88-9.32,17.43-18.65,25.91-27.73l.55,1.26-34.17,1.17-6.07-.15,1-1.73C271.71,163.6,275.8,172.74,280.37,182Z"/><polygon class="cls-4" points="273.58 168.68 269.23 173.46 268.49 174.27 268.66 173.15 270.07 163.59 270.15 163.1 270.71 162.93 281.07 159.9 302.62 155.4 303.14 156.99 273.58 168.68 302.48 155.45 303 157.03 281.72 162.66 271.1 164.58 271.74 163.93 269.32 173.28 268.75 172.97 273.58 168.68"/></g></svg>