<svg id="Layer_1" data-name="Layer 1" xmlns="http://www.w3.org/2000/svg" xmlns:xlink="http://www.w3.org/1999/xlink" viewBox="0 0 366 304"><defs><style>.cls-1,.cls-4{fill:#fff;}.cls-1,.cls-16,.cls-21,.cls-9{stroke:#1776ff;}.cls-1,.cls-16,.cls-21,.cls-8,.cls-9{stroke-miterlimit:10;}.cls-2{opacity:0.1;}.cls-3{fill:#23b899;}.cls-5{fill:#308ff0;}.cls-6{fill:#1776ff;}.cls-7{fill:#3487ff;}.cls-16,.cls-8,.cls-9{fill:none;}.cls-8{stroke:#fff;}.cls-9{stroke-width:0.5px;}.cls-10{clip-path:url(#clip-path);}.cls-11{fill:#e76548;}.cls-12{fill:#004d7d;}.cls-13{fill:#7a2118;}.cls-14{opacity:0.47;}.cls-15{fill:#843528;}.cls-17{clip-path:url(#clip-path-2);}.cls-18,.cls-21{fill:#f8d135;}.cls-19{fill:#3f1d9e;}.cls-20{fill:#5636cc;}.cls-21{stroke-width:0.25px;}.cls-22{clip-path:url(#clip-path-3);}.cls-23{fill:#c6a82c;}.cls-24{fill:#53539b;}</style><clipPath id="clip-path"><path class="cls-1" d="M189.77,48.58c-5.61,7.53-7.71,18.07-3.16,26.28a28.2,28.2,0,0,0,6,7.22,41.52,41.52,0,0,0,11.78,7.38,23.54,23.54,0,0,0,11.69,2,24.94,24.94,0,0,0,5.55-1.45,37,37,0,0,0,10.91-6A22.34,22.34,0,0,0,239.67,74a33.88,33.88,0,0,0,1.25-6.23c.63-4.88,1-10-.64-14.61a20.71,20.71,0,0,0-11.09-11.48C224.21,39.44,202.36,31.71,189.77,48.58Z"/></clipPath><clipPath id="clip-path-2"><path class="cls-1" d="M219.45,120.53c-5.55,7.44-7.63,17.87-3.12,26a27.89,27.89,0,0,0,5.91,7.13,40.79,40.79,0,0,0,11.64,7.3,23.27,23.27,0,0,0,11.56,2,25.5,25.5,0,0,0,5.49-1.43,36.51,36.51,0,0,0,10.79-5.92,22.06,22.06,0,0,0,7.06-10,33,33,0,0,0,1.24-6.16c.62-4.82,1-9.85-.63-14.44a20.47,20.47,0,0,0-11-11.34C253.5,111.49,231.9,103.86,219.45,120.53Z"/></clipPath><clipPath id="clip-path-3"><path class="cls-1" d="M87.71,94.32c-5.89,7.9-8.1,19-3.32,27.58a29.46,29.46,0,0,0,6.28,7.57A43.74,43.74,0,0,0,103,137.23a24.86,24.86,0,0,0,12.28,2.14,26.83,26.83,0,0,0,5.82-1.52,38.74,38.74,0,0,0,11.45-6.28A23.52,23.52,0,0,0,140.09,121a36.26,36.26,0,0,0,1.31-6.54c.65-5.13,1.06-10.47-.68-15.33a21.67,21.67,0,0,0-11.64-12C123.86,84.72,100.93,76.61,87.71,94.32Z"/></clipPath></defs><title>VyteAPI-Team</title><g class="cls-2"><path class="cls-3" d="M186.59,114.25c20.91-7.43,37-27,40.32-48.9,1.56-10.34-.12-22.15-8.12-28.87-5.1-4.28-11.94-5.81-18.56-6.46-20.2-2-40.5,3.13-59.36,10.63a210.15,210.15,0,0,0-53,30.26C80.6,76.66,73.67,83.06,68.86,91c-3.22,5.31-5.47,11.64-4.18,17.72a22.23,22.23,0,0,0,6,10.47c8.34,8.77,20.94,12.44,33,12.47s23.94-3.19,35.62-6.38l47.58-13"/></g><g class="cls-2"><path class="cls-3" d="M239.79,95.27a14.86,14.86,0,0,0,9.52-11.55c.37-2.45,0-5.24-1.92-6.83A7.87,7.87,0,0,0,243,75.37c-4.77-.47-9.57.74-14,2.51A49.53,49.53,0,0,0,216.46,85,18.38,18.38,0,0,0,212,89.77,5.86,5.86,0,0,0,211,94a5.17,5.17,0,0,0,1.41,2.47,10.74,10.74,0,0,0,7.8,2.95,31.6,31.6,0,0,0,8.42-1.51l11.24-3.07"/></g><g class="cls-2"><path class="cls-3" d="M136.81,161.79c-8.14,8.42-16.39,17-21.78,27.39s-7.63,23-3.19,33.87c4.21,10.27,13.93,17.59,24.49,21s21.93,3.44,33,2.45a325.32,325.32,0,0,0,36.53-5.9c34-7,68.27-16,97.38-34.91s52.59-49.23,55.39-83.8c.73-9.09-.1-18.71-5-26.4-4.74-7.46-12.91-12.29-21.49-14.42s-17.59-1.78-26.35-.62c-39.12,5.18-89.85,13-121.26,36.84C168.28,129.68,136.81,161.79,136.81,161.79Z"/></g><path class="cls-4" d="M289.62,224.47c-1.73-51.72-3.69-158.38-3.69-158.38-50.5-1.23-153.36,3.26-153.36,3.26-2.49,34.44-7.49,147-9.08,159.85"/><path class="cls-5" d="M289.62,224.47,285.39,67.2l0-1.1.55.55c-12.77-.32-25.55-.27-38.33-.16s-25.56.37-38.34.67q-38.34.91-76.66,2.48l.27-.27c-1.83,26.62-3.15,53.27-4.61,79.92l-2.16,40-1.15,20c-.43,6.65-.78,13.32-1.45,20,.64-6.64,1-13.31,1.37-20l1.09-20,2-40c1.36-26.65,2.58-53.3,4.31-79.94l0-.26h.26q38.33-1.66,76.66-2.75c12.79-.35,25.57-.65,38.36-.81s25.57-.25,38.37,0h.54v.55l0,1.1Z"/><path class="cls-4" d="M228.54,57.21a4.36,4.36,0,0,1,2.6.19,1.18,1.18,0,0,1,.6.42,1.25,1.25,0,0,1,.14.74,6.35,6.35,0,0,1-2.22,4.57,1.11,1.11,0,0,1-1.11.34c-.36-.18-.44-.66-.46-1.07a20.4,20.4,0,0,1,.28-4.55.86.86,0,0,1,.27-.58"/><path class="cls-6" d="M136.49,165.4c47.47,0,139.94.49,139.94.49-.15,0,0,.28.1.19s.1-.27.05-.42a31.35,31.35,0,0,1-.91-8l-.37-12.86-131-1.16-6.38-.06Z"/><path class="cls-6" d="M277.75,177.17l.05,22.32v.06h-.06q-43.76.16-87.51-.84l-55.73-1.48h-.22V197l1.16-21.74v-.18h.18q35.52.78,71.05,1.36c23.69.37,47.37.71,71.06.72-23.69.05-47.37-.23-71.06-.54s-47.37-.72-71.06-1.17l.19-.18L134.72,197l-.21-.22,55.74,1.34q43.74,1.17,87.49,1.28l-.05.06Z"/><path class="cls-6" d="M171,104.58c-.05-1-.12-2.25-.11-3.17h0c-.25.86-.56,1.78-.93,2.79l-1.3,3.57h-.72l-1.19-3.5c-.35-1-.64-2-.85-2.86h0c0,.92-.08,2.15-.14,3.25l-.2,3.15h-.9l.51-7.35h1.21l1.26,3.56c.3.9.55,1.71.74,2.47h0c.19-.74.45-1.55.77-2.47l1.31-3.56h1.21l.46,7.35h-.92Z"/><path class="cls-6" d="M174.16,105.35a1.69,1.69,0,0,0,1.81,1.83,3.5,3.5,0,0,0,1.46-.27l.17.69a4.38,4.38,0,0,1-1.76.32,2.45,2.45,0,0,1-2.6-2.66,2.57,2.57,0,0,1,2.48-2.85,2.24,2.24,0,0,1,2.18,2.49,4,4,0,0,1,0,.45Zm2.81-.69a1.37,1.37,0,0,0-1.33-1.56,1.6,1.6,0,0,0-1.47,1.56Z"/><path class="cls-6" d="M179.62,105.35a1.7,1.7,0,0,0,1.82,1.83,3.54,3.54,0,0,0,1.46-.27l.16.69a4.34,4.34,0,0,1-1.76.32,2.45,2.45,0,0,1-2.59-2.66,2.57,2.57,0,0,1,2.48-2.85,2.24,2.24,0,0,1,2.18,2.49,2.31,2.31,0,0,1,0,.45Zm2.82-.69a1.37,1.37,0,0,0-1.33-1.56,1.59,1.59,0,0,0-1.47,1.56Z"/><path class="cls-6" d="M185.71,101v1.51h1.38v.73h-1.38v2.85c0,.66.19,1,.72,1a2.26,2.26,0,0,0,.56-.07l0,.72a2.25,2.25,0,0,1-.85.13,1.34,1.34,0,0,1-1-.4,2,2,0,0,1-.37-1.38v-2.88H184v-.73h.82v-1.26Z"/><path class="cls-6" d="M195.26,105.13a2.58,2.58,0,0,1-2.63,2.8,2.5,2.5,0,0,1-2.53-2.71,2.58,2.58,0,0,1,2.61-2.81A2.5,2.5,0,0,1,195.26,105.13Zm-4.19.05c0,1.16.66,2,1.6,2s1.6-.86,1.6-2c0-.89-.44-2-1.58-2S191.07,104.18,191.07,105.18Z"/><path class="cls-6" d="M200.88,106.37c0,.55,0,1,.05,1.44h-.85L200,107h0a2,2,0,0,1-1.74,1c-.83,0-1.83-.45-1.83-2.31v-3.09h1v2.93c0,1,.31,1.68,1.18,1.68a1.39,1.39,0,0,0,1.27-.88,1.48,1.48,0,0,0,.08-.49v-3.24h1Z"/><path class="cls-6" d="M202.48,104.18c0-.62,0-1.16,0-1.65h.84l0,1h0a1.59,1.59,0,0,1,1.46-1.16.73.73,0,0,1,.27,0v.9a1.45,1.45,0,0,0-.32,0,1.34,1.34,0,0,0-1.29,1.23,2.89,2.89,0,0,0,0,.45v2.81h-1Z"/><path class="cls-6" d="M208.26,106.66a3.34,3.34,0,0,0,1.7.48c1,0,1.54-.52,1.54-1.26s-.39-1.08-1.39-1.46c-1.2-.42-1.94-1-1.94-2.08a2.12,2.12,0,0,1,2.38-2,3.25,3.25,0,0,1,1.62.36l-.26.77a3,3,0,0,0-1.39-.34c-1,0-1.39.6-1.39,1.1,0,.69.45,1,1.46,1.42,1.25.48,1.88,1.08,1.88,2.16s-.84,2.11-2.58,2.11a3.81,3.81,0,0,1-1.87-.47Z"/><path class="cls-6" d="M216.69,107.81l-.08-.66h0a2,2,0,0,1-1.61.78,1.51,1.51,0,0,1-1.62-1.51c0-1.28,1.14-2,3.18-2v-.11a1.09,1.09,0,0,0-1.2-1.22,2.62,2.62,0,0,0-1.38.39l-.22-.63a3.33,3.33,0,0,1,1.74-.47c1.61,0,2,1.1,2,2.16v2a8,8,0,0,0,.08,1.26Zm-.14-2.69c-1.05,0-2.24.16-2.24,1.19a.85.85,0,0,0,.91.91,1.3,1.3,0,0,0,1.27-.88.84.84,0,0,0,.06-.3Z"/><path class="cls-6" d="M219,100.07h1v7.74h-1Z"/><path class="cls-6" d="M222.13,105.35a1.69,1.69,0,0,0,1.81,1.83,3.56,3.56,0,0,0,1.47-.27l.16.69a4.38,4.38,0,0,1-1.76.32,2.45,2.45,0,0,1-2.59-2.66,2.56,2.56,0,0,1,2.47-2.85,2.23,2.23,0,0,1,2.18,2.49,4,4,0,0,1,0,.45Zm2.82-.69a1.37,1.37,0,0,0-1.33-1.56,1.61,1.61,0,0,0-1.48,1.56Z"/><path class="cls-6" d="M226.93,106.83a2.51,2.51,0,0,0,1.27.38c.7,0,1-.35,1-.78s-.27-.71-1-1c-1-.34-1.4-.87-1.4-1.5a1.63,1.63,0,0,1,1.83-1.55,2.65,2.65,0,0,1,1.29.33l-.24.7a2,2,0,0,0-1.08-.31c-.56,0-.88.33-.88.72s.32.64,1,.9c.92.35,1.39.8,1.39,1.59s-.72,1.58-2,1.58a3,3,0,0,1-1.49-.36Z"/><path class="cls-6" d="M234.68,101.27h-2.24v-.81h5.44v.81h-2.24v6.54h-1Z"/><path class="cls-6" d="M238.43,105.35a1.69,1.69,0,0,0,1.81,1.83,3.5,3.5,0,0,0,1.46-.27l.16.69a4.28,4.28,0,0,1-1.75.32,2.45,2.45,0,0,1-2.6-2.66,2.57,2.57,0,0,1,2.48-2.85,2.24,2.24,0,0,1,2.18,2.49,4,4,0,0,1,0,.45Zm2.81-.69a1.37,1.37,0,0,0-1.33-1.56,1.6,1.6,0,0,0-1.47,1.56Z"/><path class="cls-6" d="M246.28,107.81l-.07-.66h0a2,2,0,0,1-1.61.78,1.51,1.51,0,0,1-1.62-1.51c0-1.28,1.14-2,3.18-2v-.11a1.09,1.09,0,0,0-1.2-1.22,2.65,2.65,0,0,0-1.38.39l-.21-.63a3.29,3.29,0,0,1,1.73-.47c1.62,0,2,1.1,2,2.16v2a8,8,0,0,0,.08,1.26Zm-.14-2.69c-1,0-2.24.16-2.24,1.19a.85.85,0,0,0,.91.91,1.32,1.32,0,0,0,1.28-.88,1.11,1.11,0,0,0,0-.3Z"/><path class="cls-6" d="M248.62,104c0-.54,0-1-.05-1.43h.84l.05.85h0a1.81,1.81,0,0,1,1.66-1,1.56,1.56,0,0,1,1.49,1.06h0a2.38,2.38,0,0,1,.59-.69,1.82,1.82,0,0,1,1.17-.37c.7,0,1.73.46,1.73,2.29v3.11h-.93v-3c0-1-.37-1.62-1.15-1.62a1.24,1.24,0,0,0-1.13.87,1.42,1.42,0,0,0-.08.48v3.26h-.94v-3.16c0-.84-.37-1.45-1.1-1.45a1.31,1.31,0,0,0-1.19,1,1.4,1.4,0,0,0-.08.47v3.18h-.93Z"/><path class="cls-4" d="M186.07,156.78a2.62,2.62,0,0,0,1.31.37c.74,0,1.18-.39,1.18-1s-.3-.83-1.06-1.12c-.92-.33-1.49-.8-1.49-1.6a1.62,1.62,0,0,1,1.82-1.53,2.62,2.62,0,0,1,1.25.28l-.21.59a2.19,2.19,0,0,0-1.07-.27c-.76,0-1.06.46-1.06.85s.35.78,1.12,1.08c1,.37,1.44.83,1.44,1.66s-.64,1.62-2,1.62a2.9,2.9,0,0,1-1.44-.36Z"/><path class="cls-4" d="M193.66,156.57c0,.41,0,.78,0,1.1H193l0-.66h0a1.53,1.53,0,0,1-1.34.75c-.63,0-1.39-.35-1.39-1.77v-2.37H191v2.24c0,.77.24,1.29.91,1.29a1.07,1.07,0,0,0,1-.67,1.1,1.1,0,0,0,.06-.37v-2.49h.74Z"/><path class="cls-4" d="M198.37,153.62c0,.29,0,.62,0,1.11v2.35a2.34,2.34,0,0,1-.57,1.85,2.17,2.17,0,0,1-1.48.49,2.56,2.56,0,0,1-1.34-.34l.18-.56a2.28,2.28,0,0,0,1.19.32c.75,0,1.3-.39,1.3-1.41V157h0a1.44,1.44,0,0,1-1.29.68,1.81,1.81,0,0,1-1.72-2,1.94,1.94,0,0,1,1.82-2.15,1.34,1.34,0,0,1,1.26.7h0l0-.61Zm-.77,1.6a.91.91,0,0,0,0-.34,1.05,1.05,0,0,0-1-.77c-.7,0-1.2.59-1.2,1.53s.4,1.45,1.2,1.45a1.07,1.07,0,0,0,1-.75,1.35,1.35,0,0,0,0-.39Z"/><path class="cls-4" d="M203,153.62c0,.29,0,.62,0,1.11v2.35a2.34,2.34,0,0,1-.58,1.85,2.13,2.13,0,0,1-1.47.49,2.6,2.6,0,0,1-1.35-.34l.19-.56a2.21,2.21,0,0,0,1.18.32c.76,0,1.31-.39,1.31-1.41V157h0a1.43,1.43,0,0,1-1.29.68,1.81,1.81,0,0,1-1.72-2,2,2,0,0,1,1.82-2.15,1.36,1.36,0,0,1,1.27.7h0l0-.61Zm-.76,1.6a1.18,1.18,0,0,0,0-.34,1.07,1.07,0,0,0-1-.77c-.7,0-1.21.59-1.21,1.53s.41,1.45,1.2,1.45a1.07,1.07,0,0,0,1-.75,1.37,1.37,0,0,0,.06-.39Z"/><path class="cls-4" d="M204.64,155.78a1.29,1.29,0,0,0,1.38,1.4,2.67,2.67,0,0,0,1.13-.21l.12.53a3.23,3.23,0,0,1-1.35.25,1.88,1.88,0,0,1-2-2,2,2,0,0,1,1.9-2.18,1.72,1.72,0,0,1,1.68,1.91,2.36,2.36,0,0,1,0,.34Zm2.15-.53a1,1,0,0,0-1-1.19,1.2,1.2,0,0,0-1.12,1.19Z"/><path class="cls-4" d="M208.32,156.92a1.92,1.92,0,0,0,1,.29c.53,0,.78-.27.78-.6s-.21-.55-.75-.75c-.73-.26-1.07-.66-1.07-1.14a1.25,1.25,0,0,1,1.4-1.19,2,2,0,0,1,1,.25l-.18.54a1.57,1.57,0,0,0-.83-.24c-.44,0-.68.25-.68.55s.24.49.77.69c.7.27,1.06.62,1.06,1.22s-.55,1.21-1.51,1.21a2.43,2.43,0,0,1-1.14-.27Z"/><path class="cls-4" d="M212.61,152.46v1.16h1.06v.56h-1.06v2.18c0,.51.15.79.56.79a1.83,1.83,0,0,0,.42-.05l0,.55a1.83,1.83,0,0,1-.66.1,1,1,0,0,1-.79-.31,1.47,1.47,0,0,1-.28-1.05v-2.21h-.63v-.56h.63v-1Z"/><path class="cls-4" d="M218.51,157.67l-.06-.51h0a1.51,1.51,0,0,1-1.24.6A1.16,1.16,0,0,1,216,156.6c0-1,.87-1.52,2.43-1.51V155a.84.84,0,0,0-.92-.94,2,2,0,0,0-1.05.3l-.17-.48a2.5,2.5,0,0,1,1.33-.36c1.24,0,1.54.84,1.54,1.66v1.51a5.74,5.74,0,0,0,.07,1Zm-.11-2.07c-.8,0-1.71.13-1.71.91a.65.65,0,0,0,.69.71,1,1,0,0,0,1-.91Z"/><path class="cls-4" d="M222.1,152.11a9.93,9.93,0,0,1,1.54-.12,3.25,3.25,0,0,1,2.29.7,2.62,2.62,0,0,1,.79,2,3,3,0,0,1-.81,2.19,3.51,3.51,0,0,1-2.49.81,11.94,11.94,0,0,1-1.32-.07Zm.72,5a5.13,5.13,0,0,0,.74,0,2.17,2.17,0,0,0,2.4-2.39,2,2,0,0,0-2.28-2.17,4.46,4.46,0,0,0-.86.07Z"/><path class="cls-4" d="M229.88,157.67l-.06-.51h0a1.51,1.51,0,0,1-1.24.6,1.16,1.16,0,0,1-1.24-1.16c0-1,.87-1.52,2.44-1.51V155a.84.84,0,0,0-.92-.94,2.08,2.08,0,0,0-1.06.3l-.17-.48a2.53,2.53,0,0,1,1.33-.36c1.24,0,1.54.84,1.54,1.66v1.51a5.74,5.74,0,0,0,.07,1Zm-.11-2.07c-.8,0-1.71.13-1.71.91a.66.66,0,0,0,.69.71,1,1,0,0,0,1-.68.66.66,0,0,0,0-.23Z"/><path class="cls-4" d="M232.52,152.46v1.16h1.06v.56h-1.06v2.18c0,.51.15.79.56.79a1.83,1.83,0,0,0,.42-.05l0,.55a1.83,1.83,0,0,1-.66.1,1,1,0,0,1-.79-.31,1.47,1.47,0,0,1-.29-1.05v-2.21h-.62v-.56h.62v-1Z"/><path class="cls-4" d="M234.77,155.78a1.29,1.29,0,0,0,1.38,1.4,2.58,2.58,0,0,0,1.12-.21l.13.53a3.23,3.23,0,0,1-1.35.25,1.88,1.88,0,0,1-2-2,2,2,0,0,1,1.9-2.18,1.71,1.71,0,0,1,1.67,1.91,2.68,2.68,0,0,1,0,.34Zm2.15-.53a1,1,0,0,0-1-1.19,1.22,1.22,0,0,0-1.13,1.19Z"/><path class="cls-6" d="M165.55,190l-1.43-5.64h.77l.67,2.85c.16.71.32,1.41.42,1.95h0c.1-.56.27-1.23.46-2l.75-2.84H168l.68,2.86c.16.67.31,1.34.39,1.93h0c.12-.62.28-1.24.45-2l.75-2.84H171L169.4,190h-.76l-.71-2.94c-.17-.72-.29-1.27-.37-1.84h0a17,17,0,0,1-.44,1.84l-.8,2.94Z"/><path class="cls-6" d="M171.81,188.08a1.3,1.3,0,0,0,1.39,1.4,2.61,2.61,0,0,0,1.12-.21l.13.53a3.27,3.27,0,0,1-1.35.25,1.88,1.88,0,0,1-2-2,2,2,0,0,1,1.9-2.18,1.71,1.71,0,0,1,1.67,1.91c0,.15,0,.26,0,.34Zm2.16-.53a1,1,0,0,0-1-1.19,1.21,1.21,0,0,0-1.13,1.19Z"/><path class="cls-6" d="M175.56,190c0-.28,0-.69,0-1.05V184h.73v2.54h0a1.5,1.5,0,0,1,1.38-.74,1.81,1.81,0,0,1,1.7,2.06,1.92,1.92,0,0,1-1.81,2.17,1.45,1.45,0,0,1-1.36-.76h0l0,.67Zm.76-1.62a2.06,2.06,0,0,0,0,.26,1.14,1.14,0,0,0,1.11.86c.77,0,1.23-.62,1.23-1.55s-.42-1.51-1.21-1.51a1.18,1.18,0,0,0-1.12.91,2,2,0,0,0,0,.3Z"/><path class="cls-6" d="M180.76,188.08a1.3,1.3,0,0,0,1.39,1.4,2.65,2.65,0,0,0,1.12-.21l.12.53a3.21,3.21,0,0,1-1.34.25,1.88,1.88,0,0,1-2-2,2,2,0,0,1,1.89-2.18,1.72,1.72,0,0,1,1.68,1.91,2.36,2.36,0,0,1,0,.34Zm2.16-.53a1,1,0,0,0-1-1.19,1.21,1.21,0,0,0-1.13,1.19Z"/><path class="cls-6" d="M184.86,185.92l.57.87c.15.23.28.44.41.66h0c.13-.24.27-.45.4-.67l.57-.86h.79l-1.38,2,1.43,2.09h-.84l-.59-.91c-.16-.24-.3-.46-.44-.71h0c-.13.25-.27.46-.42.71l-.59.91H184l1.44-2.07-1.37-2Z"/><path class="cls-7" d="M237.57,123.86c.05,0,.06-.13,0-.14l-.12.14Z"/><path class="cls-7" d="M237,123.36c-.15,0-.32.15-.28.32.16-.13.17-.05.35-.2.11,0,.16.1.13.15s.15.09.23,0a.38.38,0,0,0-.47-.16S237,123.39,237,123.36Z"/><path class="cls-7" d="M226.5,123.93h.07A.08.08,0,0,0,226.5,123.93Z"/><path class="cls-7" d="M221.59,121.27s.06.06.07,0S221.59,121.26,221.59,121.27Z"/><path class="cls-7" d="M220.83,120.22l.06,0A.07.07,0,0,0,220.83,120.22Z"/><path class="cls-7" d="M226.5,123.93l-.17,0S226.42,123.93,226.5,123.93Z"/><path class="cls-7" d="M235.47,123.45a.29.29,0,0,0,.1,0h-.09Z"/><path class="cls-7" d="M229.25,123l.05,0,0-.07Z"/><path class="cls-7" d="M231.48,122.55s0,.14-.06.21.05-.1.1-.11Z"/><path class="cls-7" d="M235.07,122.81h0Z"/><path class="cls-7" d="M227.71,123.44a.08.08,0,0,0,0,0A.08.08,0,0,0,227.71,123.44Z"/><path class="cls-7" d="M179.74,118.72h0S179.75,118.71,179.74,118.72Z"/><path class="cls-7" d="M181.57,116.71v0l.06.05Z"/><path class="cls-7" d="M218.42,119.77h0C218.49,119.75,218.46,119.76,218.42,119.77Z"/><path class="cls-7" d="M203.28,120.92c0,.25-.29-.29-.29.08C203,121,203.29,121.21,203.28,120.92Z"/><path class="cls-7" d="M235.42,123.42h0Z"/><path class="cls-7" d="M203,121h0v0Z"/><path class="cls-7" d="M213.86,121.43l.07,0Z"/><path class="cls-7" d="M217.29,120.37h0Z"/><path class="cls-7" d="M212.25,122.35s-.07,0-.12.05h0A.13.13,0,0,1,212.25,122.35Z"/><polygon class="cls-7" points="210.51 123.11 210.56 123.12 210.61 123.09 210.51 123.11"/><path class="cls-7" d="M179,124.85a.31.31,0,0,1,.08-.15C179,124.77,178.83,124.45,179,124.85Z"/><path class="cls-7" d="M235.49,123.37s0,0-.07,0h.06S235.5,123.38,235.49,123.37Z"/><path class="cls-7" d="M212.63,123.4l-.28.1Z"/><path class="cls-7" d="M192.22,122.66l-.06,0S192.21,122.69,192.22,122.66Z"/><path class="cls-7" d="M211.52,123.88a.65.65,0,0,0-.19,0s0,0,0,0Z"/><path class="cls-7" d="M179.08,124.7Z"/><path class="cls-7" d="M178.61,122.44c-.05.31.16.17.25.25,0,.36-.15.15-.26.27s.2.43.19.61c0,0,0,.05-.08,0,.14.25.09.82.39,1.06a.11.11,0,0,1,0,.06.33.33,0,0,1,.21-.14c.06.13.22.18.14.28,0-.07-.08-.06-.14-.08l.12.11c-.08.21-.15-.15-.27-.1.19.27.51.47.64.65-.1.17-.41-.39-.32,0-.05-.12-.13-.23-.17-.35-.08.4-.1-.22-.21.17.29.48.44.45.83.8.15,0,.05-.14.19-.16.66.17.33.65.9.59.16-.08.24-.27.55-.12l-.14.18c.45.08.28-.25.73-.09-.08.08-.35,0-.28.07.29.17.21-.1.43-.1l.06.17a8.21,8.21,0,0,0,1.42-.36s-.09.13,0,.15a12.42,12.42,0,0,1,1.87-.46l.16-.21s.11,0,.07.07c.23,0,0-.09.06-.18s.19,0,.13.09a3.13,3.13,0,0,1,1.4-.69l-.05.07c.32-.07.22-.42.55-.41l0,0a10.92,10.92,0,0,1,1.9-.73c0-.23.67-.23.58-.52a2.3,2.3,0,0,0,.9-.14c.14-.06.11-.27.26-.39l.08.13.14-.27.21.1.13-.13c-.06,0-.16,0-.17,0a.81.81,0,0,1,.68-.18l.49-.45c0,.06-.06.13-.12.21.22-.32.14.11.34-.19,0,0,0-.09,0-.12a1.44,1.44,0,0,0,.7-.38v.12c.43-.24.82-.61,1.27-.9-.19.07-.26-.11-.13-.21l.14.1c0-.14-.17,0-.07-.18s.21.09.15.19l.17-.17s0,.08,0,.14c0-.14.43-.07.46-.29l0,0c.44-.25.61-.4,1-.58-.05-.13.11-.17.18-.32.29-.07.64-.07,1-.16s.05-.13.14-.23c0,.12.38.07.22.18.4-.06.51-.09,1-.15,0-.06-.11-.09-.07-.13s.21.08.19.14h0a1.21,1.21,0,0,1,.89.32c.25.19.42.39.67.42h0a4.11,4.11,0,0,1,.42.21c.12.17-.16,0-.12.14.47.25.38.66.67,1-.23.44.41,1.21.37,1.81l.07-.06c.13.11,0,.18,0,.29s0-.17.1-.11a5.47,5.47,0,0,0,1.07,1.69,3,3,0,0,0,2,.81c.5,0,.23-.47.83-.35l-.13.2a21.72,21.72,0,0,0,2.51-.86s0,.1-.1.13c.21,0,.62-.21.59-.31.13,0,.06.07.15.09s.37-.3.49-.22,0,0-.05.07.5-.18.35-.27c.31-.06.53-.29.79-.31.09-.2.52-.14.47-.36.07.22.58,0,.71-.23,0,.09.19,0,.15.12.21-.1.38-.22.29-.31.49.08.67-.53,1-.3a12.42,12.42,0,0,1,1.6-1c.06.22-.59.26-.48.47a4.49,4.49,0,0,1,1.24-.73c.15,0,0,.12-.07.17.49-.28,1-.33,1.44-.58,0,0,0,.06-.08.09s.22,0,.18-.13l-.08,0c-.19-.1.29-.4.29-.47-.09.32.49-.06.32.37.06,0,.13-.1.1-.16s.13,0,.06.12c.31-.13.17-.21.47-.26,0,0-.05.08-.07.14a.58.58,0,0,1,.51-.21s0,.07-.06.07c.38,0,.73-.22,1.07.11-.22.11.09.13,0,.3a.93.93,0,0,1,.2.1v-.13c.14.14.36.22.42.41l-.15-.09c.09.1.17.21.26.32l-.07-.24c.2.15.18-.15.31.14-.05,0,.12.21.08.37h0a.54.54,0,0,1,.27.33c0,.07-.2.07-.22.11.19,0,.33.48.56.52a.14.14,0,0,0-.15.06h.16c0,.12,0,.15,0,.18.2.3.11-.23.29.16,0,0,0,0-.09,0,.24.38.65.53.95.78,0,.23-.33-.15-.29.06a4.79,4.79,0,0,0,1.73.36l-.1,0c.1-.25.4.17.68,0-.07,0-.09.14-.07.11a2.93,2.93,0,0,0,1.27-.3l0,.08a4.27,4.27,0,0,0,.78-.1c0-.08.17-.11.07-.18.78.19,1.22-.57,1.89-.43-.07,0-.15.1-.1.09l.48-.2c-.07-.1-.08-.06-.21-.11a.5.5,0,0,1,.29-.21c-.2.14.05.18.17.22,0,0,0-.08,0-.11.31.13,0-.24.38-.19v.06c.13-.06.23-.17.39-.17s-.14.08-.12.19c.2,0,.35-.32.56-.22-.08,0-.2.07-.28.12a.52.52,0,0,0,.39.08h0l.35,0-.09,0c.21-.38.51-.13.84-.39-.32.24,0,.13-.06.28s.23.08.2.12c.15-.13.27.08.49-.11,0,.05.18,0,.14.13.21,0-.05-.09,0-.15.33-.18.76.2,1.24,0s.5-.22.9-.26c.12.1-.13.17-.13.17a1,1,0,0,0,.56.08c-.05,0,0,.07,0,.14s.13-.16.32,0a.64.64,0,0,1-.19.16c.19,0,.39-.07.58-.07,0,.09-.14.1-.21.14.21,0,.55.05.65-.07l-.13-.08c.08,0,0,.12,0,.13s-.25-.1-.25-.15h.14c-.08-.32-.55-.07-.82-.13l.15-.19-.31.13c-.05-.06-.07-.18.07-.19-.19-.13-.19,0-.34-.09s0,0,0,0l-.21,0s0-.15.11-.1c-.35-.17-.59.09-.71-.07h0c-.49,0,0,.14-.43.3l-.23-.38,0,.15c-.05,0-.15,0-.13-.08-.19.1,0,.06-.08.16-.24-.14-.66.07-.73-.16-.08.12.24.08,0,.17-.08-.26-.29,0-.52,0,.06-.14.27-.08,0-.19-.12.24-.44,0-.62.06,0,.18-.4.12-.7.23a4.1,4.1,0,0,0-.91,0v0c0,.19-.32.23-.52.33,0-.11,0-.16.11-.24l-.2,0a.39.39,0,0,1-.21.18V123a2.68,2.68,0,0,1-.84.33c0,.13.37.26,0,.45,0-.07-.08-.18,0-.23s-.09.09-.16.08l.11-.16c-.17,0-.05.12-.18.15s-.11,0-.12-.12.12,0,.16,0a.57.57,0,0,1-.4,0,.11.11,0,0,1-.06.17c-.26.08-.12-.09-.29-.09s-.22.06-.19.2-.11,0-.15-.07-.62.16-.43.28h0c-.42.25-.94.1-1.37.19v0a7.17,7.17,0,0,0-.78.12c-.07,0-.16-.12-.12-.18a.53.53,0,0,1-.48-.1c.21,0,0-.09.2,0-.22-.11-.23-.2-.52-.18.12-.08-.09-.22-.19-.26l.09.17a1.31,1.31,0,0,1-.3-.2l.15-.09c-.11-.23-.32-.28-.5-.4a.51.51,0,0,1-.3-.52c-.17-.06.08.28-.1.25-.11-.22,0-.56-.07-.63-.09-.35-.37-.17-.5-.52,0,.07-.14.18-.33,0s0-.42.16-.3,0,.09,0,.1.15.15.15,0h-.07c0-.14-.26-.46-.13-.44-.18-.15-.13,0-.06.13-.15-.35-.36-.46-.66-.76,0,.07,0,.16,0,.12-.46-.38-.28,0-.63-.18-.18-.16.15-.2-.27-.22-.23-.1,0-.17.09-.19a4.27,4.27,0,0,1-.94-.15l.2-.06a2.19,2.19,0,0,1-.31,0l.12.11c-.11,0-.21,0-.21,0s.11.19-.09.32c-.15,0-.39.14-.46,0,.42,0-.09-.15.27-.25a.5.5,0,0,1-.26,0s0,0,0,0c-.43,0-.14.22-.54.32,0-.1-.13-.14-.19-.11.16,0,.11.13,0,.23-.28,0-.26.13-.39.16l.15,0c0,.1-.15.13-.31.21s.14-.09.07-.1c-.15.2-.48,0-.71.17-.15,0-.07-.16-.19-.16-.26.21-.36,0-.64.2.13.08.13,0,0,.24l.48-.27-.27.28c.15,0,.3-.19.4-.2-.13.15-.12.11,0,.18-.27-.09-.37.25-.65.23l-.1-.28c-.41,0-.59.39-1.07.51h.16c0,.13-.27.13-.4.24,0-.1-.14-.09-.22-.12s-.34.14-.3.34l-.26,0c-.39.11-.3.44-.67.56.06-.14-.12-.13.08-.31-.12,0-.23.08-.21.15s-.27.26-.41.22,0,.17-.14.22,0-.05,0-.05-.18.15,0,.2c-.49-.12-1,.46-1.42.35-.25.14-.55.29-.78.39,0,0,0,0,0-.05-.35,0-.1.34-.5.38-.25-.08.16-.15,0-.17-.17-.28-.44.21-.75.11l0,0c-.22,0-.42.28-.75.35a.05.05,0,0,0,0,0,2.18,2.18,0,0,1-.87.51c.07-.15.13-.1,0-.21-.13,0,.09.2-.18.29-.11,0-.32-.06-.37-.2l.26-.05c-.17-.15-.33.07-.47.06v-.08c-.37.06-.37.27-.78.24l0,.06c-.25.17-.17-.13-.42,0v-.21a1.26,1.26,0,0,1-.76-.14c.2,0,.49.06.68,0-.12,0-.39-.17-.5-.14,0,0,.14,0,.16.06a.62.62,0,0,1-.65-.27c.16-.1.07-.26,0-.45s-.21-.43-.11-.58c-.33-.43-.28-1-.51-1.66-.21.32-.07-.19-.35,0-.07-.14-.09-.2-.07-.22a4.84,4.84,0,0,0,0-.53c0-.14.13.12.19.08-.14-.35,0-.2,0-.46-.08.09-.21,0-.29-.27l0,.35c-.41-.37,0-.56-.52-.91l.2.08c-.22-.22-.84-.78-1.21-.67,0,0,0-.16.08-.12-.62-.39-1.48-.26-1.94-.43l.05-.07c-.12,0-.22.13-.36,0s.05-.07,0-.08a1,1,0,0,1-.48.11l.13-.09c-.64-.06-.94.32-1.39.51-.06-.21-.54-.12-.78,0v0a5.08,5.08,0,0,0-1.49,1.09c-.46,0-1.15.63-1.72.85.1,0,.08.15,0,.23s-.24.34-.33.15l0,0c-.19-.11-.41.09-.6.21l.11.24c-.7,0-1.26.92-1.72.78-.09.13-.25.21-.34.34l-.06-.13a5.83,5.83,0,0,0-1,.49l0-.14c-.25.12-.13.52-.35.64l-.16-.15c-.44.21-1,.25-1.31.62a.13.13,0,0,1,0-.13c-.2.09-.85.22-.66.45-.08-.17-.46.18-.68.35v-.14c-.14.24-.13.3-.39.45-.08,0-.1-.08,0-.08-.25,0-.13.19-.43.23l.07-.12c-.24.08-.2.11-.3.26s-.45.13-.53,0a.3.3,0,0,1-.25.24s0-.08,0-.1c-.42,0-.52.34-.83.28a.12.12,0,0,0-.07-.07c.31-.07.56-.15.54-.13s-.29-.07-.15-.3c-.16.16-.45.45-.71.44l0,0,0,0a.24.24,0,0,0-.14,0,.49.49,0,0,0-.21,0c0-.11-.29,0-.41,0s-.15.12,0,.23c0,0,0,0,.1,0l.06,0v0l.31-.06a.29.29,0,0,1-.34.1,1.63,1.63,0,0,1-.15.25c-.2-.18-.53-.28-.57-.4-.38.08-.84,0-1.14.15-.11,0-.09-.11-.11-.16s.13,0,.17,0c-.23,0-.54-.2-.68-.09-.16-.22.21,0-.08-.24h.07a2.23,2.23,0,0,0-.57-.65.83.83,0,0,1-.16-1c0,.06,0,.09-.07.1a9.16,9.16,0,0,1,.6-2.92c.13-.25,0-.31,0-.5h.16l-.07-.33c0-.44.59-.53.58-1.09h-.12c.09-.16.19-.56.28-.48s-.06-.1,0-.14l.07,0,.1-.47c.22-.29.24.2.51-.24.07-.18.09-.58,0-.55s-.15.14-.22.11l.06-.18c-.18-.15-.3-.4-.68-.1l0,.35-.15,0,.13-.24c-.17.08-.14.21-.14.34a.19.19,0,0,0-.17.06l0,.38c-.09,0-.09-.21-.23,0,0,.18.24,0,.19.22-.16.08-.22,0-.21.21-.07,0-.09-.06-.08-.13,0,.17-.16.39-.08.52-.18.09-.18.5-.37.4a1,1,0,0,1,0,.47c-.16-.35-.2.51-.44.35.15.26-.13.72-.09,1.09,0,0,0-.07,0-.1a1.05,1.05,0,0,1-.23.34c.19.07.16.38.25.57-.24.2-.2-.19-.39-.16.15,0,.07.45.22.39-.15.16-.09.15-.26.22.23.07,0,.17.13.35-.15.25-.23,0-.2.34C178.66,122.72,178.61,122.44,178.61,122.44Zm5.15,3.7h0l-.14,0Zm.58-.14-.25.06s0-.1,0-.11S184.24,126,184.34,126Zm-1.36-.71c.08,0,.11,0,.13,0l-.15,0v0A.19.19,0,0,1,183,125.29Z"/><path class="cls-7" d="M182.85,125.49s0,0,0,0l.05,0,0,0Z"/><path class="cls-7" d="M226.59,123.93h0Z"/><polygon class="cls-7" points="191.69 123.04 191.68 123.01 191.65 123.06 191.69 123.04"/><path class="cls-7" d="M229.71,123.56s0,0,0,0S229.73,123.57,229.71,123.56Z"/><path class="cls-7" d="M231,123.32l.2,0Z"/><path class="cls-7" d="M232,123.27a.2.2,0,0,0,0-.07h0Z"/><path class="cls-7" d="M217.62,121.25l0,0C217.5,121.32,217.56,121.29,217.62,121.25Z"/><path class="cls-7" d="M221.44,122.06l-.13-.1C221.34,122,221.37,122.1,221.44,122.06Z"/><polygon class="cls-7" points="212.66 123.39 212.66 123.39 212.63 123.4 212.66 123.39"/><path class="cls-7" d="M221.19,121.77a.41.41,0,0,0,.12.19A.47.47,0,0,0,221.19,121.77Z"/><path class="cls-7" d="M236.35,123.63l.05,0s0,0,0,0Z"/><path class="cls-7" d="M236.41,123.63h0Z"/><path class="cls-7" d="M236.58,123.62h-.12S236.55,123.65,236.58,123.62Z"/><path class="cls-7" d="M235.05,123.33l0,0A.06.06,0,0,0,235.05,123.33Z"/><path class="cls-7" d="M234.65,123.3c.09,0,.22.14.36.12l0,0C235,123.45,234.75,123.23,234.65,123.3Z"/><path class="cls-7" d="M232.94,122.6l.36,0c-.06,0-.15-.13,0-.14C232.87,122.34,233.41,122.62,232.94,122.6Z"/><path class="cls-7" d="M231.84,122.58c.18,0,0-.08,0-.11S231.69,122.55,231.84,122.58Z"/><path class="cls-7" d="M224.27,124l0-.12C224.18,123.84,224.3,123.89,224.27,124Z"/><path class="cls-7" d="M222.65,123.94l.07.16.13,0Z"/><polygon class="cls-7" points="222.73 122.69 222.78 122.73 222.62 122.58 222.73 122.69"/><path class="cls-7" d="M210.78,122.86l.1.13C211,122.93,210.9,122.76,210.78,122.86Z"/><path class="cls-7" d="M205.57,124.51a.2.2,0,0,0-.26-.08C205.41,124.46,205.51,124.53,205.57,124.51Z"/><polygon class="cls-7" points="192.35 121.19 192.42 121.09 192.26 121.23 192.35 121.19"/><path class="cls-8" d="M177.59,151.49c0,2.47,0,4.62,0,6.76"/><path class="cls-8" d="M174.62,154.74l5.94.13"/><circle class="cls-9" cx="152.03" cy="187.03" r="3.83"/><path class="cls-6" d="M149.38,185.67l3.23,2.77h-.31l.78-.93a60.54,60.54,0,0,1,8.36-7.06,60.3,60.3,0,0,0-7.95,7.45l-.86.84-.17.17-.15-.16Z"/><path class="cls-4" d="M189.77,48.58c-5.61,7.53-7.71,18.07-3.16,26.28a28.2,28.2,0,0,0,6,7.22,41.52,41.52,0,0,0,11.78,7.38,23.54,23.54,0,0,0,11.69,2,24.94,24.94,0,0,0,5.55-1.45,37,37,0,0,0,10.91-6A22.34,22.34,0,0,0,239.67,74a33.88,33.88,0,0,0,1.25-6.23c.63-4.88,1-10-.64-14.61a20.71,20.71,0,0,0-11.09-11.48C224.21,39.44,202.36,31.71,189.77,48.58Z"/><g class="cls-10"><path class="cls-11" d="M224.71,80.54a1.77,1.77,0,0,0,0-.23A.31.31,0,0,1,224.71,80.54Z"/><path class="cls-11" d="M224.63,80.21h.1a.34.34,0,0,0,0,.1A.18.18,0,0,0,224.63,80.21Z"/><path class="cls-11" d="M197,99.36a17.34,17.34,0,0,1-4.34-.94,19.62,19.62,0,0,1-5.31-3.87c-4.13-3.8-7.72-7.94-11.61-12-.34-.34,1.48-2.22,3.12-3.18v.21a72,72,0,0,0,13.65,9.2A21.11,21.11,0,0,0,198.17,91c5.3,1,10.54-1.57,15.31-4l.32.19a14,14,0,0,1,.55-5.11.87.87,0,0,1,.33-.55,1,1,0,0,1,.44-.1l9-.58a.8.8,0,0,0,.48-.14.24.24,0,0,0,.06-.09c-.11,2.42-.12,4.84,0,7.26l.08-.21a11.57,11.57,0,0,1,4.77,2.93c1.55,1.82,2,4.33,2.29,6.7a456.45,456.45,0,0,1,4.36,66.9,80.08,80.08,0,0,1-34.59.32L199,163.37c-.58-8.46-.17-21,1.17-33.24-5.9-.89-25.13-3.78-25.38-3.88s1.45-6.52,1.45-6.52,19.51,2.11,25.07,1.52a114.94,114.94,0,0,1,4.84-21.13c.1,0-2.78.24-2.78.24C201.45,100.11,199,99.62,197,99.36Z"/><path class="cls-12" d="M222.87,72.09c1-3.58,4.59-5.78,6.74-8.84a12.16,12.16,0,0,0,1.16-11.87,22.67,22.67,0,0,0-3.12-4.55,14.51,14.51,0,0,0-2.61-2.7,10.1,10.1,0,0,0-4.65-1.72,16,16,0,0,0-8.65,1.23c-2.14,1-4.14,2.41-6.47,2.68-1.75.2-3.87-.14-5,1.25a3.4,3.4,0,0,0-.59,2,7.15,7.15,0,0,0,5.8,6.9c1.74.28,8.75.54,9.75,2a8.93,8.93,0,0,1,.78,2.49c.25.83,1,1.69,1.83,1.52a2.21,2.21,0,0,0,1.22-.94l2.56-3.15a2.71,2.71,0,0,1,1.19-1c1-.31,2,.65,2.19,1.67a8.47,8.47,0,0,1-.29,3.07C224.11,66,222.87,72.09,222.87,72.09Z"/><path class="cls-6" d="M222.15,70.36c-.14,1.39-.27,2.79-.33,4.17a19.42,19.42,0,0,0-.57,8.17,19.83,19.83,0,0,1-.54-8.37C221.14,73,221.65,71.66,222.15,70.36Z"/><path class="cls-6" d="M215.28,80.11a23,23,0,0,0,.05-2.75,24.8,24.8,0,0,0,.93-5.32,25.38,25.38,0,0,1,.19,5.52A24.58,24.58,0,0,1,215.28,80.11Z"/><path class="cls-6" d="M205.83,64.18c-.12.6-.21,1.27.06,1.59a2.14,2.14,0,0,0,.54,1.36,7.7,7.7,0,0,0,1.22,1.27,7.58,7.58,0,0,1-1.61-.86,3,3,0,0,1-1.28-1.61A2.86,2.86,0,0,1,205.83,64.18Z"/><path class="cls-6" d="M201.67,56a17,17,0,0,1,.12,2.47l.05,2.48a43.78,43.78,0,0,0,.38,4.88,18.88,18.88,0,0,0,.79,4.74,6.32,6.32,0,0,0,2.7,3.69A16.07,16.07,0,0,0,208,75a9.83,9.83,0,0,0,2.36.54,3.52,3.52,0,0,0,2.28-.61,6,6,0,0,1,2.2-1.08,5.68,5.68,0,0,0-2.12,1.2,3.78,3.78,0,0,1-2.37.77,9.74,9.74,0,0,1-2.47-.41,14.09,14.09,0,0,1-2.41-.73,6.92,6.92,0,0,1-3.25-3.9,19.75,19.75,0,0,1-1.12-4.94,46,46,0,0,1,.18-5l.24-2.47A18.48,18.48,0,0,0,201.67,56Z"/><path class="cls-6" d="M220.68,60.9a.93.93,0,0,1,1.2-.38,2.2,2.2,0,0,1,1.07,1,3.08,3.08,0,0,1-.59,2.57,4.59,4.59,0,0,1-1.94,1.41,4.38,4.38,0,0,0,1.46-1.7,2.23,2.23,0,0,0,0-1.91,1.35,1.35,0,0,0-.29-.86A.63.63,0,0,0,220.68,60.9Z"/><path class="cls-6" d="M206.48,70A22.22,22.22,0,0,0,210.63,69c.66-.1,1.32-.24,2-.4l.48-.12.07.44a1.79,1.79,0,0,1-.18,1,5,5,0,0,1-.46.75,7.21,7.21,0,0,1-4,2.86,6.85,6.85,0,0,0,2.6-1.89,6.66,6.66,0,0,0,.89-1.3,2,2,0,0,0,.35-1.28l.55.33a20.29,20.29,0,0,1-2,.68A23.09,23.09,0,0,1,206.48,70Z"/><path class="cls-6" d="M211.37,60.28a4,4,0,0,1,.14,2.63c0,.06,0,.13-.11.14a.16.16,0,0,1-.11,0,1.67,1.67,0,0,1-.6-1.39,2.62,2.62,0,0,1,.58-1.44,2.46,2.46,0,0,0,.39.4"/><path class="cls-6" d="M203.72,60.28a4,4,0,0,1,.15,2.63c0,.06-.05.13-.11.14a.18.18,0,0,1-.12,0,1.66,1.66,0,0,1-.59-1.39,2.53,2.53,0,0,1,.57-1.44,2.52,2.52,0,0,0,.4.4"/><path class="cls-6" d="M176.83,77.51a37.87,37.87,0,0,0-2.72-2.93c-.36-.54-.74-1.08-1.13-1.61s-.75-1-1.29-1.15a8.81,8.81,0,0,0-1.91,0l-2,.15,2-.43a8.55,8.55,0,0,1,2-.31,3.15,3.15,0,0,1,1.84,1.16c.48.48.94,1,1.39,1.47A39.51,39.51,0,0,1,176.83,77.51Z"/><path class="cls-6" d="M168.61,73.42a11,11,0,0,0-11.48-3.64l.31-.72a1.33,1.33,0,0,0,1,.5c.68.14,1.52.09,2.39.25a7.89,7.89,0,0,1,2.41.86,8.12,8.12,0,0,1,3.45,3.65l.22.48-.5.06a6.37,6.37,0,0,1-2.49-.6,1.76,1.76,0,0,0-1,0,.64.64,0,0,0-.43.66c.06.67.81,1.06,1.57,1.29s1.55.56,2.31.86a55,55,0,0,1,8.77,4.43,55.42,55.42,0,0,0-8.9-4.08c-.77-.27-1.55-.52-2.33-.76a4.61,4.61,0,0,1-1.19-.49,1.74,1.74,0,0,1-.79-1.18,1.24,1.24,0,0,1,.74-1.29,2.34,2.34,0,0,1,1.4-.14c.89.2,1.6.63,2.24.5l-.28.54a7.22,7.22,0,0,0-3.21-3.14,6.75,6.75,0,0,0-2.14-.67c-.72-.12-1.51,0-2.43-.17a2.36,2.36,0,0,1-1.65-1.13l-.29-.6.61-.13A11.43,11.43,0,0,1,168.61,73.42Z"/><path class="cls-13" d="M222.9,98.57c.22.09.37-.15.43-.32a3,3,0,0,0,.09-.62,5.26,5.26,0,0,0-.13-1.25,5,5,0,0,0-1.1-2.12,4.38,4.38,0,0,0-4-2.14,4.71,4.71,0,0,0-4.14,2.49,5,5,0,0,1,4.09-3.06,5.28,5.28,0,0,1,2.74.32,5.34,5.34,0,0,1,2.24,1.75,5.7,5.7,0,0,1,.73,2.7,5,5,0,0,1-.15,1.35,3.1,3.1,0,0,1-.24.64C223.36,98.49,223.1,98.72,222.9,98.57Z"/><path class="cls-13" d="M175,126.73a21.2,21.2,0,0,1,1.63-7.34l.06-.15.16,0a120.31,120.31,0,0,0,12.56,1.13q5.78.46,11.59.37l-.33.2.47-.77,0,0Q207,107.67,214,95.64q-6.63,12.21-12.21,24.92v0l-.45.78-.11.19H201q-5.85.26-11.7,0a120.49,120.49,0,0,1-12.55-1.85l.23-.12A21.19,21.19,0,0,0,175,126.73Z"/><path class="cls-13" d="M205.89,130.34c-3.18-.16-6.35-.35-9.53-.6q-9.41-1.58-18.69-3.67,9.39,1.53,18.85,2.55Q201.19,129.55,205.89,130.34Z"/><polygon class="cls-13" points="220.84 107.23 216.31 114.99 206.08 129.25 206.05 129.28 206.05 129.24 206.1 128.85 206.08 129.24 206.06 129.23 215.37 114.36 220.84 107.23"/><path class="cls-13" d="M225,80.42c.25.09.14.51-.12.58a4.5,4.5,0,0,1-.69.15l-1.35.23-2.7.45-2.73,0-1.37,0h-.66c-.19,0-.21,0-.31.18a13.55,13.55,0,0,0-.9,5.26,13.72,13.72,0,0,1,.39-5.5.92.92,0,0,1,.28-.39,1,1,0,0,1,.46-.18l.7-.09L217.3,81,220,80.7l2.74.11,1.37,0a3.79,3.79,0,0,0,.67,0C225,80.86,225.15,80.57,225,80.42Z"/><path class="cls-13" d="M225.05,80.42c.14.85.3,1.7.47,2.54-.22,1.67-.38,3.36-.49,5.05-.27-1.67-.48-3.36-.64-5.07C224.59,82.09,224.82,81.26,225.05,80.42Z"/><path class="cls-13" d="M225.12,87.8a13.36,13.36,0,0,1,4.2,2.26,8.25,8.25,0,0,1,2.4,4.13,42.54,42.54,0,0,1,.87,4.72l.69,4.74q1.32,9.48,2.27,19,1.56,20.81,1.24,41.68v.2l-.2.05a80.35,80.35,0,0,1-34.65.06,80,80,0,0,0,34.54-.57l-.2.25q0-20.82-1.86-41.57-.66-9.54-1.71-19L232.17,99a40.85,40.85,0,0,0-.73-4.71,7.93,7.93,0,0,0-2.22-4.09A13.12,13.12,0,0,0,225.12,87.8Z"/><path class="cls-13" d="M213.8,87.13c-3.71,2.12-7.56,4.32-12.05,4.81a15,15,0,0,1-3.34-.27,16.38,16.38,0,0,1-3.15-1,53.24,53.24,0,0,1-5.71-3.11,72.34,72.34,0,0,1-10.36-7.71A71.47,71.47,0,0,0,189.84,87c3.74,2,7.65,4.25,11.84,3.77C205.87,90.73,209.93,88.93,213.8,87.13Z"/><path class="cls-13" d="M179.18,79.6A12.22,12.22,0,0,0,178,81.12,12.79,12.79,0,0,0,175,83.44a13.17,13.17,0,0,1,2.24-3.21A14.34,14.34,0,0,1,179.18,79.6Z"/><path class="cls-13" d="M175.06,81.75q4.22,4,8.57,7.82,2,2.06,4.11,4.08a24.81,24.81,0,0,0,4.36,3.68,14.19,14.19,0,0,0,5.45,1.6l5.73.88-5.77-.6a14.77,14.77,0,0,1-5.68-1.38,25.27,25.27,0,0,1-4.67-3.56q-2.17-1.92-4.32-3.89Q178.87,86.14,175.06,81.75Z"/><path class="cls-13" d="M209.76,92.71A17.54,17.54,0,0,0,208,96.94c-.42,1.47-.81,3-1.18,4.45a140,140,0,0,0-4.93,17.72A140.67,140.67,0,0,1,205.75,101c.56-1.44,1.13-2.87,1.74-4.29A17.62,17.62,0,0,1,209.76,92.71Z"/><path class="cls-13" d="M201,130.6c-.4,3.66-.69,7.32-.82,11a146.71,146.71,0,0,0-.85,22,146.71,146.71,0,0,1-.28-22.09C199.59,137.83,200.26,134.2,201,130.6Z"/><path class="cls-13" d="M214.15,87.62a15.11,15.11,0,0,1,2.87-.85,19.88,19.88,0,0,1,2.9.53,2.57,2.57,0,0,0,2.58-.61,2.81,2.81,0,0,1-2.63,1.17,20.69,20.69,0,0,0-2.85,0A14.25,14.25,0,0,0,214.15,87.62Z"/><g class="cls-14"><path class="cls-15" d="M220.91,107.28a19.23,19.23,0,0,0-3.35,4.62c-3.51,5.95-7.13,11.48-11.2,17.06a3.77,3.77,0,0,1-.7.87,2.1,2.1,0,0,1-.94.23c-1.36-.12-2.59-.19-3.95-.31a25.26,25.26,0,0,0-.66,5.68c1.06-.24,1.93.77,2.72,1.52a8,8,0,0,0,2.72,1.71,5.46,5.46,0,0,0,1.87.37,5.2,5.2,0,0,0,3.33-1.35,10,10,0,0,0,2.19-2.93c2.39-4.56,2.8-10,5.59-14.35a22.71,22.71,0,0,0,1.88-3c1.13-2.5.62-5.38.32-8.11a3.48,3.48,0,0,1,.21-2"/></g><path class="cls-6" d="M174.5,118.94l-5.49-1a21,21,0,0,0-5.42-.56,32,32,0,0,0-7.2,1,17.63,17.63,0,0,0-3.46,1.09,5.52,5.52,0,0,0-1.49.92.7.7,0,0,0-.25.64c0,.24.2.45.39.45l-.09,0a17.59,17.59,0,0,1,7.2-2,17.44,17.44,0,0,0-7,2.31l0,0h0a.87.87,0,0,1-.82-.75,1.21,1.21,0,0,1,.31-1,6.18,6.18,0,0,1,1.59-1.11,19.26,19.26,0,0,1,3.53-1.31,32.42,32.42,0,0,1,7.38-1.39,21.37,21.37,0,0,1,5.57,1.14Z"/><path class="cls-6" d="M160.85,118.63a1.82,1.82,0,0,0-2,1.18,5.4,5.4,0,0,0-.15,2.51l-.34-.42,1.58.16c1.07.19,2.4.73,3,.32.35-.21.57-.79,1.08-1.28a2.75,2.75,0,0,1,1.83-.59,19.83,19.83,0,0,1,6.84,1.3,19.23,19.23,0,0,0-6.81-.73,2.1,2.1,0,0,0-1.37.53c-.33.32-.47.94-1.06,1.45a2.65,2.65,0,0,1-2,.36l-1.74-.25-1.56-.42-.37-.1,0-.32a6,6,0,0,1,.63-2.71A2,2,0,0,1,160.85,118.63Z"/></g><path class="cls-16" d="M189.77,48.58c-5.61,7.53-7.71,18.07-3.16,26.28a28.2,28.2,0,0,0,6,7.22,41.52,41.52,0,0,0,11.78,7.38,23.54,23.54,0,0,0,11.69,2,24.94,24.94,0,0,0,5.55-1.45,37,37,0,0,0,10.91-6A22.34,22.34,0,0,0,239.67,74a33.88,33.88,0,0,0,1.25-6.23c.63-4.88,1-10-.64-14.61a20.71,20.71,0,0,0-11.09-11.48C224.21,39.44,202.36,31.71,189.77,48.58Z"/><path class="cls-4" d="M321.67,297.34C319.93,245.62,318,139,318,139c-50.51-1.23-153.36,3.26-153.36,3.26-2.5,34.44-7.5,147-9.09,159.85"/><path class="cls-5" d="M321.67,297.34l-4.23-157.27,0-1.1.55.55c-12.77-.32-25.55-.27-38.33-.16s-25.56.37-38.34.67q-38.34.91-76.66,2.48l.27-.27c-1.83,26.62-3.15,53.28-4.6,79.92l-2.17,40-1.15,20c-.42,6.65-.78,13.32-1.45,20,.65-6.64,1-13.31,1.38-20l1.08-20,2-40c1.36-26.65,2.58-53.3,4.32-79.94V142l.26,0q38.33-1.67,76.67-2.75c12.78-.35,25.56-.65,38.35-.81s25.58-.25,38.37,0h.54V139l0,1.1Z"/><path class="cls-4" d="M260.58,130.08a4.36,4.36,0,0,1,2.6.19,1,1,0,0,1,.75,1.16,6.37,6.37,0,0,1-2.22,4.57,1.11,1.11,0,0,1-1.11.34c-.37-.18-.45-.66-.47-1.06a19.88,19.88,0,0,1,.29-4.56.85.85,0,0,1,.26-.58"/><path class="cls-6" d="M168.53,238.27c47.47,0,139.94.49,139.94.49-.15,0,0,.28.1.2s.1-.28.06-.43a31.36,31.36,0,0,1-.92-8l-.37-12.86-131-1.16-6.37-.06Z"/><path class="cls-6" d="M309.79,250l0,22.32v.06h0q-43.76.16-87.51-.84l-55.74-1.48h-.22l0-.22,1.16-21.74V248h.17q35.53.78,71,1.36c23.69.37,47.38.71,71.06.72-23.68.05-47.37-.23-71.06-.54s-47.37-.72-71-1.17l.18-.18-1.1,21.75-.21-.22L222.29,271q43.74,1.17,87.5,1.28l-.06.06Z"/><path class="cls-6" d="M203.06,177.45c-.05-1-.12-2.25-.11-3.17h0c-.25.86-.56,1.78-.93,2.79l-1.3,3.57H200l-1.19-3.5c-.35-1-.65-2-.85-2.86h0c0,.92-.07,2.15-.14,3.25l-.2,3.15h-.9l.51-7.35h1.21l1.26,3.56c.3.9.55,1.71.74,2.47h0c.19-.74.45-1.55.78-2.47l1.31-3.56h1.21l.46,7.35h-.93Z"/><path class="cls-6" d="M206.2,178.22a1.69,1.69,0,0,0,1.81,1.83,3.56,3.56,0,0,0,1.47-.27l.16.69a4.38,4.38,0,0,1-1.76.32,2.45,2.45,0,0,1-2.59-2.66,2.56,2.56,0,0,1,2.47-2.85,2.23,2.23,0,0,1,2.18,2.49,4,4,0,0,1,0,.45Zm2.82-.69a1.37,1.37,0,0,0-1.33-1.56,1.61,1.61,0,0,0-1.48,1.56Z"/><path class="cls-6" d="M211.67,178.22a1.69,1.69,0,0,0,1.81,1.83,3.5,3.5,0,0,0,1.46-.27l.16.69a4.28,4.28,0,0,1-1.75.32,2.45,2.45,0,0,1-2.6-2.66,2.57,2.57,0,0,1,2.48-2.85,2.24,2.24,0,0,1,2.18,2.49,4,4,0,0,1,0,.45Zm2.81-.69a1.37,1.37,0,0,0-1.33-1.56,1.59,1.59,0,0,0-1.47,1.56Z"/><path class="cls-6" d="M217.75,173.89v1.51h1.38v.73h-1.38V179c0,.66.19,1,.72,1a2.19,2.19,0,0,0,.56-.07l0,.72a2.25,2.25,0,0,1-.85.13,1.33,1.33,0,0,1-1-.4,1.92,1.92,0,0,1-.37-1.38v-2.88H216v-.73h.82v-1.26Z"/><path class="cls-6" d="M227.3,178a2.58,2.58,0,0,1-2.63,2.8,2.5,2.5,0,0,1-2.53-2.71,2.58,2.58,0,0,1,2.62-2.81A2.5,2.5,0,0,1,227.3,178Zm-4.19.05c0,1.16.66,2,1.6,2s1.61-.86,1.61-2.05c0-.89-.45-2-1.59-2S223.11,177.05,223.11,178.05Z"/><path class="cls-6" d="M232.93,179.24c0,.55,0,1,0,1.44h-.85l-.05-.86h0a2,2,0,0,1-1.74,1c-.83,0-1.82-.45-1.82-2.31V175.4h1v2.93c0,1,.3,1.68,1.17,1.68a1.38,1.38,0,0,0,1.27-.88,1.26,1.26,0,0,0,.09-.49V175.4h1Z"/><path class="cls-6" d="M234.52,177.05c0-.62,0-1.16,0-1.65h.84l0,1h0a1.59,1.59,0,0,1,1.46-1.16.82.82,0,0,1,.28,0v.9a1.61,1.61,0,0,0-.33,0,1.34,1.34,0,0,0-1.29,1.23,3,3,0,0,0,0,.45v2.81h-.95Z"/><path class="cls-6" d="M240.3,179.53a3.4,3.4,0,0,0,1.7.48c1,0,1.54-.52,1.54-1.26s-.39-1.08-1.39-1.46c-1.2-.42-1.94-1-1.94-2.08a2.12,2.12,0,0,1,2.38-2,3.33,3.33,0,0,1,1.63.36l-.26.77a3,3,0,0,0-1.4-.34c-1,0-1.39.6-1.39,1.1,0,.69.45,1,1.47,1.42,1.24.48,1.87,1.08,1.87,2.16s-.84,2.11-2.57,2.11a3.82,3.82,0,0,1-1.88-.47Z"/><path class="cls-6" d="M248.73,180.68l-.07-.66h0a2,2,0,0,1-1.61.78,1.51,1.51,0,0,1-1.62-1.51c0-1.28,1.14-2,3.18-2v-.11a1.09,1.09,0,0,0-1.2-1.22,2.65,2.65,0,0,0-1.38.39l-.21-.63a3.29,3.29,0,0,1,1.73-.47c1.62,0,2,1.1,2,2.16v2a6.91,6.91,0,0,0,.09,1.26Zm-.14-2.69c-1.05,0-2.24.16-2.24,1.19a.85.85,0,0,0,.91.91,1.32,1.32,0,0,0,1.28-.88,1.11,1.11,0,0,0,.05-.3Z"/><path class="cls-6" d="M251.07,172.94h1v7.74h-1Z"/><path class="cls-6" d="M254.18,178.22a1.69,1.69,0,0,0,1.81,1.83,3.54,3.54,0,0,0,1.46-.27l.16.69a4.32,4.32,0,0,1-1.75.32,2.45,2.45,0,0,1-2.6-2.66,2.57,2.57,0,0,1,2.48-2.85,2.24,2.24,0,0,1,2.18,2.49,2.31,2.31,0,0,1,0,.45Zm2.81-.69a1.37,1.37,0,0,0-1.33-1.56,1.59,1.59,0,0,0-1.47,1.56Z"/><path class="cls-6" d="M259,179.7a2.51,2.51,0,0,0,1.27.38c.7,0,1-.35,1-.78s-.28-.71-1-1c-.95-.34-1.39-.87-1.39-1.5a1.62,1.62,0,0,1,1.82-1.55,2.72,2.72,0,0,1,1.3.33l-.24.7a2.07,2.07,0,0,0-1.08-.31c-.57,0-.89.33-.89.72s.32.64,1,.9c.91.35,1.38.8,1.38,1.59s-.72,1.58-2,1.58a3,3,0,0,1-1.49-.36Z"/><path class="cls-6" d="M266.72,174.14h-2.24v-.81h5.45v.81h-2.25v6.54h-1Z"/><path class="cls-6" d="M270.47,178.22a1.69,1.69,0,0,0,1.81,1.83,3.5,3.5,0,0,0,1.46-.27l.17.69a4.38,4.38,0,0,1-1.76.32,2.45,2.45,0,0,1-2.59-2.66,2.56,2.56,0,0,1,2.47-2.85,2.23,2.23,0,0,1,2.18,2.49,4,4,0,0,1,0,.45Zm2.82-.69A1.37,1.37,0,0,0,272,176a1.6,1.6,0,0,0-1.47,1.56Z"/><path class="cls-6" d="M278.33,180.68l-.08-.66h0a2,2,0,0,1-1.62.78,1.5,1.5,0,0,1-1.61-1.51c0-1.28,1.13-2,3.17-2v-.11A1.09,1.09,0,0,0,277,176a2.61,2.61,0,0,0-1.37.39l-.22-.63a3.32,3.32,0,0,1,1.73-.47c1.62,0,2,1.1,2,2.16v2a6.91,6.91,0,0,0,.09,1.26Zm-.15-2.69c-1,0-2.23.16-2.23,1.19a.84.84,0,0,0,.9.91,1.31,1.31,0,0,0,1.28-.88,1.11,1.11,0,0,0,.05-.3Z"/><path class="cls-6" d="M280.66,176.83c0-.54,0-1,0-1.43h.84l0,.85h0a1.84,1.84,0,0,1,1.66-1,1.57,1.57,0,0,1,1.5,1.06h0a2.24,2.24,0,0,1,.59-.69,1.77,1.77,0,0,1,1.16-.37c.7,0,1.74.46,1.74,2.29v3.11h-.94v-3c0-1-.37-1.62-1.15-1.62a1.24,1.24,0,0,0-1.13.87,1.72,1.72,0,0,0-.08.48v3.26H284v-3.16c0-.84-.38-1.45-1.11-1.45a1.32,1.32,0,0,0-1.19,1,1.41,1.41,0,0,0-.07.47v3.18h-.94Z"/><path class="cls-4" d="M218.12,229.65a2.56,2.56,0,0,0,1.3.37c.75,0,1.18-.39,1.18-1s-.3-.83-1.06-1.12c-.92-.33-1.49-.8-1.49-1.6a1.62,1.62,0,0,1,1.82-1.53,2.59,2.59,0,0,1,1.25.28l-.2.59a2.26,2.26,0,0,0-1.07-.27c-.77,0-1.06.46-1.06.85s.34.78,1.12,1.08c1,.37,1.43.83,1.43,1.66s-.64,1.62-2,1.62a2.93,2.93,0,0,1-1.44-.36Z"/><path class="cls-4" d="M225.7,229.44c0,.41,0,.78,0,1.1h-.65l0-.66h0a1.51,1.51,0,0,1-1.33.75c-.64,0-1.4-.35-1.4-1.77v-2.37H223v2.24c0,.77.24,1.29.91,1.29a1.07,1.07,0,0,0,1-.67A1.1,1.1,0,0,0,225,229v-2.49h.74Z"/><path class="cls-4" d="M230.41,226.49c0,.29,0,.62,0,1.11V230a2.34,2.34,0,0,1-.57,1.85,2.15,2.15,0,0,1-1.47.49A2.6,2.6,0,0,1,227,232l.18-.56a2.28,2.28,0,0,0,1.19.32c.75,0,1.31-.39,1.31-1.41v-.46h0a1.44,1.44,0,0,1-1.29.68,1.81,1.81,0,0,1-1.72-2,1.94,1.94,0,0,1,1.82-2.15,1.34,1.34,0,0,1,1.26.7h0l0-.61Zm-.76,1.6a1.18,1.18,0,0,0,0-.34,1.07,1.07,0,0,0-1-.77c-.71,0-1.21.59-1.21,1.53s.4,1.45,1.2,1.45a1.07,1.07,0,0,0,1-.75,1.37,1.37,0,0,0,.06-.39Z"/><path class="cls-4" d="M235.08,226.49c0,.29,0,.62,0,1.11V230a2.3,2.3,0,0,1-.58,1.85,2.13,2.13,0,0,1-1.47.49,2.63,2.63,0,0,1-1.35-.34l.19-.56a2.25,2.25,0,0,0,1.19.32c.75,0,1.3-.39,1.3-1.41v-.46h0a1.43,1.43,0,0,1-1.28.68,1.81,1.81,0,0,1-1.73-2,2,2,0,0,1,1.83-2.15,1.36,1.36,0,0,1,1.26.7h0l0-.61Zm-.76,1.6a1.18,1.18,0,0,0,0-.34,1.05,1.05,0,0,0-1-.77c-.7,0-1.2.59-1.2,1.53s.4,1.45,1.19,1.45a1.06,1.06,0,0,0,1-.75,1.09,1.09,0,0,0,.06-.39Z"/><path class="cls-4" d="M236.68,228.65a1.3,1.3,0,0,0,1.39,1.4,2.65,2.65,0,0,0,1.12-.21l.12.53a3.21,3.21,0,0,1-1.34.25,1.88,1.88,0,0,1-2-2,2,2,0,0,1,1.9-2.18,1.71,1.71,0,0,1,1.67,1.91,2.36,2.36,0,0,1,0,.34Zm2.16-.53a1,1,0,0,0-1-1.19,1.21,1.21,0,0,0-1.13,1.19Z"/><path class="cls-4" d="M240.36,229.79a2,2,0,0,0,1,.29c.53,0,.78-.27.78-.6s-.2-.55-.75-.75c-.72-.26-1.07-.66-1.07-1.14a1.25,1.25,0,0,1,1.4-1.19,2,2,0,0,1,1,.25l-.18.54a1.57,1.57,0,0,0-.83-.24c-.43,0-.68.25-.68.55s.25.49.77.69c.71.27,1.07.62,1.07,1.22s-.56,1.21-1.52,1.21a2.36,2.36,0,0,1-1.13-.27Z"/><path class="cls-4" d="M244.66,225.33v1.16h1.05v.56h-1.05v2.18c0,.51.14.79.55.79a1.53,1.53,0,0,0,.43-.05l0,.55a1.77,1.77,0,0,1-.65.1,1,1,0,0,1-.8-.31,1.47,1.47,0,0,1-.28-1.05v-2.21h-.63v-.56h.63v-1Z"/><path class="cls-4" d="M250.55,230.54l-.06-.51h0a1.51,1.51,0,0,1-1.24.6,1.16,1.16,0,0,1-1.24-1.16c0-1,.87-1.51,2.44-1.51v-.08a.84.84,0,0,0-.92-.94,2.08,2.08,0,0,0-1.06.3l-.16-.48a2.48,2.48,0,0,1,1.33-.36c1.23,0,1.53.84,1.53,1.66v1.51a5.74,5.74,0,0,0,.07,1Zm-.11-2.07c-.8,0-1.71.13-1.71.91a.66.66,0,0,0,.69.71,1,1,0,0,0,1-.68.66.66,0,0,0,0-.23Z"/><path class="cls-4" d="M254.14,225a10,10,0,0,1,1.55-.12,3.22,3.22,0,0,1,2.28.7,2.62,2.62,0,0,1,.79,2,3,3,0,0,1-.81,2.19,3.48,3.48,0,0,1-2.49.81,12.09,12.09,0,0,1-1.32-.07Zm.73,5a3.89,3.89,0,0,0,.73,0,2.16,2.16,0,0,0,2.4-2.39,2,2,0,0,0-2.28-2.17,4.27,4.27,0,0,0-.85.07Z"/><path class="cls-4" d="M261.92,230.54l-.05-.51h0a1.51,1.51,0,0,1-1.24.6,1.15,1.15,0,0,1-1.23-1.16c0-1,.86-1.51,2.43-1.51v-.08a.84.84,0,0,0-.92-.94,2,2,0,0,0-1.05.3l-.17-.48a2.48,2.48,0,0,1,1.33-.36c1.24,0,1.54.84,1.54,1.66v1.51a5.8,5.8,0,0,0,.06,1Zm-.1-2.07c-.81,0-1.72.13-1.72.91a.66.66,0,0,0,.7.71,1,1,0,0,0,1-.68.68.68,0,0,0,.05-.23Z"/><path class="cls-4" d="M264.57,225.33v1.16h1.05v.56h-1.05v2.18c0,.51.14.79.55.79a1.4,1.4,0,0,0,.42-.05l0,.55a1.77,1.77,0,0,1-.65.1,1,1,0,0,1-.8-.31,1.47,1.47,0,0,1-.28-1.05v-2.21h-.63v-.56h.63v-1Z"/><path class="cls-4" d="M266.81,228.65a1.29,1.29,0,0,0,1.39,1.4,2.65,2.65,0,0,0,1.12-.21l.12.53a3.21,3.21,0,0,1-1.34.25,1.88,1.88,0,0,1-2-2A2,2,0,0,1,268,226.4a1.72,1.72,0,0,1,1.68,1.91,2.36,2.36,0,0,1,0,.34Zm2.16-.53a1.05,1.05,0,0,0-1-1.19,1.2,1.2,0,0,0-1.12,1.19Z"/><path class="cls-6" d="M197.59,262.84l-1.43-5.64h.77l.67,2.85c.17.71.32,1.41.42,1.95h0c.1-.56.27-1.23.47-2l.75-2.84H200l.68,2.86c.16.67.31,1.34.4,1.93h0c.11-.61.27-1.24.45-1.95l.74-2.84H203l-1.59,5.64h-.76L200,259.9a15,15,0,0,1-.37-1.84h0c-.1.56-.23,1.12-.43,1.84l-.81,2.94Z"/><path class="cls-6" d="M203.86,261a1.29,1.29,0,0,0,1.38,1.4,2.58,2.58,0,0,0,1.12-.21l.13.53a3.23,3.23,0,0,1-1.35.25,1.88,1.88,0,0,1-2-2,2,2,0,0,1,1.9-2.18,1.71,1.71,0,0,1,1.67,1.91,2.68,2.68,0,0,1,0,.34Zm2.15-.53a1,1,0,0,0-1-1.19,1.22,1.22,0,0,0-1.13,1.19Z"/><path class="cls-6" d="M207.6,262.84c0-.28,0-.69,0-1V256.9h.73v2.54h0a1.51,1.51,0,0,1,1.38-.74,1.81,1.81,0,0,1,1.7,2.06,1.92,1.92,0,0,1-1.81,2.17,1.44,1.44,0,0,1-1.35-.76h0l0,.67Zm.76-1.62a1.09,1.09,0,0,0,0,.26,1.12,1.12,0,0,0,1.1.86c.77,0,1.23-.62,1.23-1.55s-.42-1.51-1.21-1.51a1.18,1.18,0,0,0-1.12.91,2,2,0,0,0,0,.3Z"/><path class="cls-6" d="M212.8,261a1.3,1.3,0,0,0,1.39,1.4,2.61,2.61,0,0,0,1.12-.21l.13.53a3.27,3.27,0,0,1-1.35.25,1.88,1.88,0,0,1-2-2,2,2,0,0,1,1.9-2.18,1.71,1.71,0,0,1,1.67,1.91c0,.15,0,.26,0,.34Zm2.16-.53a1,1,0,0,0-1-1.19,1.21,1.21,0,0,0-1.13,1.19Z"/><path class="cls-6" d="M216.9,258.79l.58.87c.15.23.27.44.41.66h0c.13-.24.27-.45.4-.67l.57-.86h.8l-1.38,2,1.42,2.09h-.84l-.59-.91c-.16-.24-.29-.46-.44-.71h0c-.14.25-.28.46-.43.71l-.59.91H216l1.44-2.07-1.37-2Z"/><path class="cls-7" d="M269.61,196.73c.05,0,.06-.13-.05-.14l-.12.14Z"/><path class="cls-7" d="M269,196.23c-.15.05-.32.15-.28.32.16-.13.17-.05.35-.2.11,0,.17.1.13.15s.15.09.24,0a.39.39,0,0,0-.48-.17C268.94,196.29,269,196.26,269,196.23Z"/><path class="cls-7" d="M258.55,196.8h.07S258.57,196.79,258.55,196.8Z"/><path class="cls-7" d="M253.63,194.14c0,.05.06.06.07.05S253.64,194.13,253.63,194.14Z"/><path class="cls-7" d="M252.87,193.09l.07,0S252.9,193.09,252.87,193.09Z"/><path class="cls-7" d="M258.55,196.8l-.18,0C258.37,196.83,258.46,196.8,258.55,196.8Z"/><path class="cls-7" d="M267.52,196.32l.1,0h-.09Z"/><path class="cls-7" d="M261.29,195.89l0,0,0-.07Z"/><path class="cls-7" d="M263.53,195.42c-.06,0-.06.14-.07.21a.16.16,0,0,1,.1-.11A.22.22,0,0,0,263.53,195.42Z"/><path class="cls-7" d="M267.11,195.68h0Z"/><path class="cls-7" d="M259.75,196.31l0,0S259.74,196.3,259.75,196.31Z"/><path class="cls-7" d="M211.79,191.59h0Z"/><path class="cls-7" d="M213.61,189.58v0l.06,0Z"/><path class="cls-7" d="M250.47,192.65h0C250.53,192.62,250.5,192.63,250.47,192.65Z"/><path class="cls-7" d="M235.32,193.79c0,.25-.28-.29-.29.08C235.07,193.82,235.34,194.08,235.32,193.79Z"/><path class="cls-7" d="M267.46,196.29h0Z"/><path class="cls-7" d="M235,193.87h0v0Z"/><path class="cls-7" d="M245.9,194.3l.07,0Z"/><path class="cls-7" d="M249.33,193.24h0Z"/><path class="cls-7" d="M244.3,195.23c-.05,0-.07,0-.12,0h0S244.24,195.23,244.3,195.23Z"/><polygon class="cls-7" points="242.56 195.98 242.6 195.99 242.65 195.96 242.56 195.98"/><path class="cls-7" d="M211.05,197.72a.35.35,0,0,1,.07-.15C211,197.64,210.87,197.32,211.05,197.72Z"/><path class="cls-7" d="M267.53,196.24s0,0-.07,0h.07A0,0,0,0,0,267.53,196.24Z"/><path class="cls-7" d="M244.68,196.27l-.29.1Z"/><path class="cls-7" d="M224.26,195.53l0,.05A.08.08,0,0,0,224.26,195.53Z"/><path class="cls-7" d="M243.57,196.76a.49.49,0,0,0-.2,0s0,0,0,.05Z"/><path class="cls-7" d="M211.12,197.57Z"/><path class="cls-7" d="M210.65,195.32c-.05.3.16.16.26.24,0,.36-.16.15-.26.27s.19.43.19.61c0,0,0,.06-.08,0,.14.25.08.82.39,1.06l0,.06a.34.34,0,0,1,.22-.14c0,.14.22.18.13.29,0-.08-.08-.07-.14-.09l.12.11c-.08.21-.15-.15-.27-.1.2.27.51.47.64.65-.09.18-.4-.38-.31,0a1.87,1.87,0,0,1-.17-.35c-.09.4-.1-.22-.21.17.28.48.43.45.82.8.15,0,.05-.14.19-.16.66.17.33.65.9.59.16-.08.24-.27.55-.12l-.14.18c.46.08.28-.25.73-.09-.08.08-.35,0-.28.07.3.17.22-.1.44-.1l0,.17a8.56,8.56,0,0,0,1.43-.36c0,.06-.09.13,0,.15a12.53,12.53,0,0,1,1.88-.46l.15-.21c.05,0,.12,0,.07.07.24,0,0-.09.06-.18s.19,0,.13.09a3.22,3.22,0,0,1,1.41-.69l-.06.07c.32-.07.22-.41.55-.41l0,0a11,11,0,0,1,1.91-.73c0-.23.67-.23.57-.51a2.54,2.54,0,0,0,.9-.15c.14-.06.11-.27.26-.39l.08.13.14-.26.21.09.14-.13c-.07,0-.17,0-.18,0a.81.81,0,0,1,.68-.18l.49-.45c0,.06-.06.13-.11.21.21-.32.14.11.33-.19,0,0,0-.09,0-.12a1.4,1.4,0,0,0,.7-.38l0,.12c.42-.24.82-.61,1.26-.89-.19.06-.25-.12-.13-.22l.14.1c0-.14-.17,0-.06-.18s.21.09.14.19l.17-.17s0,.08,0,.14c0-.14.43-.07.45-.29l0,0c.44-.25.62-.4,1-.58-.05-.13.11-.17.18-.32.3-.07.65-.07,1-.16s0-.12.14-.23c0,.12.38.07.22.18.41-.06.51-.09,1.05-.15-.05,0-.12-.09-.08-.12s.22.07.19.13h0a1.21,1.21,0,0,1,.88.32c.25.19.43.4.67.43h0a2.74,2.74,0,0,1,.42.21c.12.17-.16,0-.12.14.47.25.38.66.67,1-.22.44.41,1.21.37,1.81l.08-.06c.12.11,0,.18,0,.29s0-.17.09-.11a5.4,5.4,0,0,0,1.08,1.69,3,3,0,0,0,2,.81c.5,0,.24-.47.83-.35l-.13.2a21.09,21.09,0,0,0,2.51-.86s0,.1-.1.13c.21,0,.63-.21.59-.31.13,0,.06.07.15.09s.37-.3.5-.22,0,0-.06.07.5-.18.35-.27c.32-.06.53-.29.79-.31.09-.2.52-.14.48-.36.07.22.57-.05.7-.23,0,.09.19,0,.16.12.2-.1.37-.22.29-.31.48.08.66-.53,1-.3a13.14,13.14,0,0,1,1.6-1c.07.22-.59.26-.48.47a4.4,4.4,0,0,1,1.25-.73c.14,0,0,.12-.08.17.49-.28,1-.32,1.44-.58,0,0,0,.06-.08.09s.22,0,.19-.13l-.09.06c-.19-.11.29-.41.29-.48-.08.32.49,0,.33.37.05,0,.12-.1.09-.16s.13,0,.06.12c.31-.13.18-.21.47-.26,0,.05-.05.08-.07.14a.59.59,0,0,1,.51-.21s0,.07-.05.07c.37,0,.72-.22,1.07.11-.22.11.08.13,0,.3a.93.93,0,0,1,.2.1V194c.14.14.36.22.43.41l-.16-.09a4,4,0,0,1,.26.32l-.07-.24c.21.15.19-.15.31.14-.05,0,.12.21.08.37h0a.51.51,0,0,1,.27.33c0,.07-.19.07-.21.11.19,0,.33.48.55.52a.14.14,0,0,0-.15.06h.16c0,.12,0,.15,0,.18.2.3.12-.23.3.16,0,0,0,0-.1,0,.24.38.65.53,1,.78,0,.23-.32-.15-.29.06a4.8,4.8,0,0,0,1.74.36l-.1,0c.09-.25.39.17.67,0-.07,0-.08.15-.07.12a3.12,3.12,0,0,0,1.27-.31l-.05.08a4.27,4.27,0,0,0,.78-.1c0-.08.18-.11.08-.18.78.19,1.21-.57,1.88-.43-.07,0-.15.11-.09.09l.47-.2c-.07-.1-.08-.05-.21-.11a.53.53,0,0,1,.3-.21c-.21.14.05.18.16.22s0-.08,0-.11c.31.13,0-.24.38-.19v.06c.13-.06.24-.17.39-.17s-.13.08-.12.19c.2,0,.36-.32.57-.22a2.55,2.55,0,0,0-.29.13.57.57,0,0,0,.4.07h0l.36,0-.1,0c.21-.38.52-.13.84-.39-.32.24,0,.13-.05.29s.22.07.19.11c.15-.13.27.08.5-.11,0,0,.17,0,.14.13.21-.05-.06-.09,0-.15.33-.18.77.2,1.24,0s.51-.23.9-.26c.12.09-.13.16-.13.16a1,1,0,0,0,.56.08c-.05,0,0,.07,0,.14s.13-.16.32-.05a.73.73,0,0,1-.18.16c.18,0,.38-.07.57-.07s-.13.1-.21.14c.22,0,.55,0,.65-.07l-.12-.08c.08,0,0,.12-.05.13a.17.17,0,0,1-.25-.15h.14c-.08-.32-.55-.07-.81-.13l.14-.18-.31.12c-.05-.06-.07-.18.07-.19-.18-.13-.19.05-.34-.09s0,0,0,0l-.2,0s0-.15.1-.1c-.34-.16-.58.09-.7-.07h0c-.5,0-.06.14-.43.3l-.24-.38-.05.15c-.05,0-.15,0-.13-.08-.19.1,0,.06-.08.16-.24-.14-.66.07-.72-.16-.09.12.23.08,0,.17-.09-.26-.3.05-.53,0,.06-.14.28-.08,0-.18-.11.23-.43,0-.62.05,0,.18-.4.12-.7.23a4.09,4.09,0,0,0-.91,0v0c0,.19-.32.23-.52.33,0-.11,0-.16.11-.24l-.21.05c0,.07-.08.12-.21.18l0-.15a2.84,2.84,0,0,1-.85.33c0,.13.37.26,0,.45,0-.07-.08-.17,0-.23s-.09.09-.16.08l.11-.16c-.17,0-.05.12-.18.15s-.11,0-.11-.12.12,0,.15-.05a.58.58,0,0,1-.4,0,.11.11,0,0,1-.06.17c-.26.08-.12-.09-.28-.09s-.23.06-.2.2-.11,0-.15-.07-.62.16-.43.28h0l0,0h0c-.42.24-.94.09-1.37.18V197a7,7,0,0,0-.77.12c-.08,0-.17-.12-.13-.18a.53.53,0,0,1-.48-.1c.21,0,0-.09.21,0-.23-.11-.24-.2-.53-.18.13-.08-.09-.22-.19-.25l.09.16a1,1,0,0,1-.29-.2l.14-.09c-.11-.23-.31-.28-.49-.4a.5.5,0,0,1-.3-.52c-.18-.06.08.28-.1.25-.12-.22,0-.56-.08-.63-.09-.35-.36-.17-.5-.52,0,.07-.14.19-.33,0s0-.42.16-.3,0,.09,0,.1.15.15.15,0h-.07c0-.14-.25-.46-.12-.44-.18-.15-.13,0-.06.13a2.46,2.46,0,0,0-.66-.76c0,.07,0,.16,0,.12-.47-.38-.29,0-.64-.18-.18-.15.15-.2-.27-.22-.23-.1,0-.17.09-.19a4.27,4.27,0,0,1-.93-.15l.19-.06a1.24,1.24,0,0,1-.31,0l.12.11c-.11,0-.2,0-.21-.05s.11.19-.08.32c-.15,0-.39.14-.47,0,.42,0-.09-.15.27-.24a.65.65,0,0,1-.26,0s0,0,0,0c-.43-.05-.14.21-.54.31,0-.1-.14-.14-.2-.11.16,0,.12.13,0,.23s-.26.13-.39.16l.16,0c0,.1-.16.13-.32.21s.14-.09.07-.1c-.14.2-.48,0-.71.17-.14,0-.07-.16-.19-.16-.26.21-.36,0-.64.2.13.08.14.05,0,.24l.48-.27-.27.28c.16,0,.3-.19.4-.2-.13.15-.12.11,0,.18-.27-.09-.38.25-.66.23l-.1-.28c-.41,0-.58.39-1.07.52l.17,0c0,.13-.28.13-.41.24,0-.1-.13-.09-.22-.12s-.34.14-.3.34l-.26,0c-.39.11-.3.44-.67.57.07-.15-.12-.14.08-.32-.12,0-.23.08-.2.15s-.27.26-.42.22,0,.17-.14.22,0-.05,0-.05-.18.16,0,.21c-.48-.13-1,.46-1.42.34a8,8,0,0,1-.77.39s0,0,0,0c-.36,0-.1.34-.51.38-.24-.08.17-.15,0-.16-.16-.29-.43.2-.75.1l.06,0c-.23,0-.43.27-.75.34a.13.13,0,0,0,0-.05,2.14,2.14,0,0,1-.87.51c.06-.15.12-.1,0-.21-.13,0,.09.2-.18.3-.1,0-.31-.07-.36-.2l.25-.06c-.17-.15-.33.07-.46.06v-.08c-.37.06-.36.27-.78.24l0,.06c-.25.17-.17-.12-.41,0l0-.21a1.27,1.27,0,0,1-.76-.14c.21,0,.5.06.68,0-.12,0-.38-.17-.5-.14,0,0,.14,0,.17.06a.63.63,0,0,1-.66-.27c.16-.1.07-.26,0-.44s-.2-.44-.11-.59c-.33-.43-.28-1-.51-1.66-.21.32-.07-.19-.35,0-.07-.14-.08-.2-.07-.22,0-.17,0-.35,0-.53s.13.12.18.08c-.13-.35.06-.19,0-.46-.07.09-.21-.05-.28-.26l0,.34c-.4-.37,0-.56-.52-.91l.2.08c-.21-.22-.83-.78-1.21-.67,0,0,0-.16.08-.12-.62-.39-1.47-.26-1.94-.43l.05-.07c-.12,0-.21.13-.36.05,0,0,.05-.07,0-.08a1,1,0,0,1-.47.11l.13-.09c-.65-.06-.94.32-1.39.52-.07-.22-.55-.13-.79-.06v0a5,5,0,0,0-1.48,1.08c-.47,0-1.16.63-1.73.85.1,0,.08.15,0,.23s-.25.34-.34.16l.05,0c-.2-.11-.41.09-.61.21l.11.24c-.7,0-1.26.92-1.72.78-.09.13-.24.21-.34.34l-.06-.13a6.25,6.25,0,0,0-1,.49l0-.14c-.25.12-.12.52-.35.64l-.16-.15c-.43.21-.95.25-1.3.62a.1.1,0,0,1,.05-.13c-.21.09-.86.22-.67.45-.08-.17-.46.18-.67.35l0-.14c-.13.25-.12.3-.39.45-.08,0-.1-.08,0-.08-.25,0-.13.19-.43.23l.07-.12c-.24.08-.2.11-.29.26s-.46.13-.54,0a.28.28,0,0,1-.25.24s0-.08,0-.1c-.42,0-.53.34-.84.28a.12.12,0,0,0-.07-.07l.54-.13c0-.12-.29-.07-.15-.3-.16.16-.44.45-.7.44,0,0,0,0,0,0l0,0a.25.25,0,0,0-.15.05.5.5,0,0,0-.21,0c0-.1-.29,0-.41,0s-.14.12,0,.23c0,0,0,0,.11,0l0,0v0l.31-.06a.27.27,0,0,1-.33.1,2.86,2.86,0,0,1-.16.25c-.2-.18-.53-.28-.57-.4-.38.08-.84,0-1.14.15-.11,0-.09-.11-.11-.16s.13,0,.17,0c-.22,0-.54-.2-.68-.09-.16-.21.21,0-.08-.24h.07a2.2,2.2,0,0,0-.56-.65.83.83,0,0,1-.17-1c0,.06,0,.09-.06.1a8.65,8.65,0,0,1,.6-2.92c.12-.25,0-.31,0-.5h.16l-.07-.33c0-.44.59-.53.58-1.09l-.12,0c.09-.17.2-.57.29-.49s-.07-.1,0-.14l.07,0,.1-.47c.22-.28.24.2.51-.24.07-.18.09-.58,0-.55s-.15.14-.22.11l.06-.18c-.18-.15-.3-.4-.68-.1l0,.35-.15,0,.13-.24c-.17.08-.14.21-.14.34a.19.19,0,0,0-.17.06l0,.38c-.1,0-.1-.21-.24-.05,0,.18.25,0,.2.22-.17.08-.23,0-.22.21-.07,0-.08-.06-.08-.13,0,.17-.15.39-.07.52-.19.09-.18.5-.38.4a1,1,0,0,1,0,.47c-.15-.35-.2.51-.44.35.15.26-.12.72-.09,1.09,0,0,0-.07,0-.09a1.34,1.34,0,0,1-.22.33c.18.07.16.38.24.57-.23.2-.2-.19-.39-.16.16,0,.07.45.22.39-.15.16-.09.15-.26.22.23.07,0,.17.14.35-.16.25-.24,0-.21.34C210.7,195.59,210.65,195.32,210.65,195.32Zm5.16,3.69h0l-.14,0Zm.57-.14-.25.06a.07.07,0,0,1,0-.11S216.28,198.85,216.38,198.87Zm-1.36-.71c.08,0,.11,0,.13,0l-.14,0v0A.19.19,0,0,1,215,198.16Z"/><path class="cls-7" d="M214.9,198.36l0,0,.06,0,0,0Z"/><path class="cls-7" d="M258.63,196.8h0l0,0Z"/><polygon class="cls-7" points="223.74 195.91 223.72 195.88 223.69 195.93 223.74 195.91"/><path class="cls-7" d="M261.75,196.43a.06.06,0,0,0,.05,0Z"/><path class="cls-7" d="M263.05,196.19l.19,0Z"/><path class="cls-7" d="M264.06,196.14s0,0,0-.06h0Z"/><path class="cls-7" d="M249.66,194.12l0,0Z"/><path class="cls-7" d="M253.48,194.93l-.13-.1C253.38,194.91,253.41,195,253.48,194.93Z"/><polygon class="cls-7" points="244.71 196.26 244.71 196.26 244.68 196.27 244.71 196.26"/><path class="cls-7" d="M253.24,194.64a.36.36,0,0,0,.11.19A.59.59,0,0,0,253.24,194.64Z"/><path class="cls-7" d="M268.39,196.51h.05s0,0,0,0Z"/><path class="cls-7" d="M268.45,196.5h0Z"/><path class="cls-7" d="M268.63,196.49h-.12A.13.13,0,0,0,268.63,196.49Z"/><path class="cls-7" d="M267.09,196.2l0,.05A.06.06,0,0,0,267.09,196.2Z"/><path class="cls-7" d="M266.69,196.17c.09,0,.23.14.36.12l0,0C267,196.32,266.79,196.1,266.69,196.17Z"/><path class="cls-7" d="M265,195.47l.35,0c-.06,0-.14-.13,0-.14C264.91,195.21,265.45,195.49,265,195.47Z"/><path class="cls-7" d="M263.88,195.45c.19,0,0-.07,0-.11S263.73,195.42,263.88,195.45Z"/><path class="cls-7" d="M256.31,196.83l0-.12C256.22,196.71,256.34,196.76,256.31,196.83Z"/><path class="cls-7" d="M254.69,196.81l.07.16.13-.05Z"/><polygon class="cls-7" points="254.77 195.57 254.82 195.6 254.66 195.45 254.77 195.57"/><path class="cls-7" d="M242.82,195.73l.1.13C243,195.8,243,195.63,242.82,195.73Z"/><path class="cls-7" d="M237.62,197.38a.21.21,0,0,0-.27-.08C237.45,197.33,237.56,197.4,237.62,197.38Z"/><polygon class="cls-7" points="224.4 194.06 224.46 193.96 224.31 194.1 224.4 194.06"/><path class="cls-8" d="M209.63,224.36c0,2.47,0,4.62,0,6.76"/><path class="cls-8" d="M206.67,227.61l5.93.13"/><circle class="cls-9" cx="184.07" cy="259.9" r="3.83"/><path class="cls-6" d="M181.43,258.54l3.23,2.77h-.32l.78-.93a61.13,61.13,0,0,1,8.36-7.06,61,61,0,0,0-7.95,7.45l-.86.84-.17.17-.15-.16Z"/><path class="cls-4" d="M219.45,120.53c-5.55,7.44-7.63,17.87-3.12,26a27.89,27.89,0,0,0,5.91,7.13,40.79,40.79,0,0,0,11.64,7.3,23.27,23.27,0,0,0,11.56,2,25.5,25.5,0,0,0,5.49-1.43,36.51,36.51,0,0,0,10.79-5.92,22.06,22.06,0,0,0,7.06-10,33,33,0,0,0,1.24-6.16c.62-4.82,1-9.85-.63-14.44a20.47,20.47,0,0,0-11-11.34C253.5,111.49,231.9,103.86,219.45,120.53Z"/><g class="cls-17"><path class="cls-18" d="M271.63,119.8c-.09-.1-.13.21,0,.18s.16-.21.16-.35a30.1,30.1,0,0,0-1.89-10.18,16.57,16.57,0,0,0-6.41-8,16.32,16.32,0,0,0-4.36-1.8,19.53,19.53,0,0,0-16.86,3.43c-4.64,3.71-2.31,8.41-6.44,15.79Z"/><path class="cls-6" d="M271.63,119.8c-.09-.06-.1.13-.05.16s.16,0,.18-.11a1.68,1.68,0,0,0,0-.5l-.07-1q-.07-1-.21-2a29.21,29.21,0,0,0-.79-4,19.62,19.62,0,0,0-3.51-7.14,13.88,13.88,0,0,0-6.34-4.56,19,19,0,0,0-7.77-1,19.44,19.44,0,0,0-6.83,1.61,18.19,18.19,0,0,0-3.06,1.75,8.62,8.62,0,0,0-2.43,2.42c-1.24,1.93-1.46,4.41-2,6.77a24.51,24.51,0,0,1-2.62,6.84l-.26-.47c11.81.4,23.74.89,35.78,1.22-11.82-.27-23.75-.39-35.8-.59h-.51l.25-.46A23.79,23.79,0,0,0,238,112c.26-1.17.44-2.36.71-3.56A10.93,10.93,0,0,1,240,105a9.44,9.44,0,0,1,2.62-2.72,19.75,19.75,0,0,1,3.19-1.9A20.33,20.33,0,0,1,253,98.53a20,20,0,0,1,8.14,1.35,14.62,14.62,0,0,1,6.48,5A20.15,20.15,0,0,1,271,112.3a30.18,30.18,0,0,1,.65,4c.06.67.11,1.35.14,2l0,1a1.68,1.68,0,0,1,0,.5c0,.08-.11.17-.2.12S271.54,119.73,271.63,119.8Z"/><path class="cls-19" d="M234.23,126c-5.6,14.14-12.19,28.25-22.68,39.26,4.29,3.8,9.77,6,15.26,7.63a108.71,108.71,0,0,0,19.31,4,1.27,1.27,0,0,0,.7-.07,1.13,1.13,0,0,0,.42-.52,37.9,37.9,0,0,0,3.24-11.38A151.38,151.38,0,0,0,252.35,137a26.06,26.06,0,0,1,.41-7.12,1.22,1.22,0,0,0,0-.94,1.15,1.15,0,0,0-.71-.42,70.58,70.58,0,0,0-18.44-2.59"/><path class="cls-20" d="M230,141.48a21.73,21.73,0,0,1-.85,3.52,21.52,21.52,0,0,1-4.06,5.94,21.41,21.41,0,0,0,3.54-6.16A21.24,21.24,0,0,0,230,141.48Z"/><path class="cls-20" d="M230.6,148a8.2,8.2,0,0,1-.5,2.22c-.38.66-.8,1.27-1.21,1.89a6.3,6.3,0,0,0-1,2,5.88,5.88,0,0,1,.75-2.1c.32-.68.66-1.34.94-2A8.33,8.33,0,0,0,230.6,148Z"/><path class="cls-20" d="M233.17,151.51a9.31,9.31,0,0,1-.54,2.26,12.23,12.23,0,0,0-1.43,4.28,12.41,12.41,0,0,1,.92-4.52A9.24,9.24,0,0,0,233.17,151.51Z"/><path class="cls-20" d="M235.79,153.42c0,.71-.07,1.44-.13,2.15a6.88,6.88,0,0,0-.29,4.13,7.08,7.08,0,0,1-.26-4.25C235.36,154.77,235.61,154.11,235.79,153.42Z"/><path class="cls-20" d="M238.67,153a12,12,0,0,1,.19,2.4,27.74,27.74,0,0,0-.77,4.67,27.73,27.73,0,0,1,.21-4.74A11.54,11.54,0,0,0,238.67,153Z"/><path class="cls-4" d="M250,150a21.2,21.2,0,0,1-11.39,1.57,9,9,0,0,1-4.76-1.87c-2.64-2.3-2.59-6.38-2-9.83a58.28,58.28,0,0,1,3.34-12l2-5.76,21.77,2.32-2.31,20.84Z"/><path class="cls-4" d="M240.31,151.87a18.19,18.19,0,0,1-2.7,14.69l-9,9.5,27.33,3.24s8.8-35.21-1.39-31S240.31,151.87,240.31,151.87Z"/><path class="cls-19" d="M249.92,170.27c2.21,1.07,4.79,1,7.22.72a76.55,76.55,0,0,0,22.31-5.73,124.53,124.53,0,0,0-11.66-46.64l-17.15.74c0,12.66-.5,37.76-1.09,50.42"/><path class="cls-20" d="M253.32,128.7c.06.37.11.75.16,1.13a18.55,18.55,0,0,1-.72,2.1,17.88,17.88,0,0,0,.15-2.18C253.06,129.4,253.19,129.05,253.32,128.7Z"/><path class="cls-20" d="M252.53,135.18a47.88,47.88,0,0,1,1.16,5.57,47.8,47.8,0,0,1-.53,11.34,47.82,47.82,0,0,0,0-11.28A48.42,48.42,0,0,0,252.53,135.18Z"/><polygon class="cls-20" points="256.96 129.5 257.17 130.12 256.74 131.24 256.61 130.05 256.96 129.5"/><path class="cls-20" d="M255.88,134.56A21.65,21.65,0,0,1,257,141l0,6.49a15.73,15.73,0,0,1-.87,6.39,15.67,15.67,0,0,0,.59-6.39l-.33-6.46A21.59,21.59,0,0,0,255.88,134.56Z"/><path class="cls-20" d="M260.27,130.64q0,.35,0,.69c-.26.34-.5.7-.73,1.07.05-.43.12-.87.21-1.31C259.9,130.93,260.08,130.78,260.27,130.64Z"/><path class="cls-20" d="M260.62,140.72a27.84,27.84,0,0,1,.88,3.74,27.11,27.11,0,0,1-.68,7.63,27.12,27.12,0,0,0,.12-7.58A26.92,26.92,0,0,0,260.62,140.72Z"/><path class="cls-20" d="M263.28,130.67a6.19,6.19,0,0,1,.47,3c-.05,1-.2,2-.22,3a19.81,19.81,0,0,0,.62,6l1.31,6-1.59-5.88a20.61,20.61,0,0,1-.91-6.07c.12-1,.37-2,.51-3A6.07,6.07,0,0,0,263.28,130.67Z"/><path class="cls-20" d="M266.13,130.88a9,9,0,0,1,.8,4.44,15.81,15.81,0,0,0-.43,4.41,21.42,21.42,0,0,0,1,4.34,21.2,21.2,0,0,1-1.32-4.3,16.26,16.26,0,0,1,.15-4.52A8.56,8.56,0,0,0,266.13,130.88Z"/><path class="cls-20" d="M268.42,129.39c.05.77.12,1.53.24,2.28a23.22,23.22,0,0,0,.31,4.55,23.86,23.86,0,0,1-.87-4.53A21.57,21.57,0,0,1,268.42,129.39Z"/><path class="cls-21" d="M232.29,118.85c3.4-2.13,7.55-2.59,11.56-2.42,8,.34,16,2.13,24,1a17.62,17.62,0,0,1,4.15-.33,4.38,4.38,0,0,1,3.48,2,4.12,4.12,0,0,1,.3,2.81,7.67,7.67,0,0,1-5,5.17,21.32,21.32,0,0,1-7.43.92c-7.26,0-14.51-.28-21.76-.57a30,30,0,0,1-7-.85,6.17,6.17,0,0,1-3.37-2C230.35,123.52,230.43,120,232.29,118.85Z"/><path class="cls-6" d="M234.58,117.9a15.48,15.48,0,0,0-.67,2.64,16.11,16.11,0,0,0-.84,5.35,16.43,16.43,0,0,1,.29-5.5A16,16,0,0,1,234.58,117.9Z"/><path class="cls-6" d="M235.26,126.81a22.25,22.25,0,0,1-.11-3.27,22.29,22.29,0,0,1,2-6.19,21.63,21.63,0,0,0-1.47,6.26A21.45,21.45,0,0,0,235.26,126.81Z"/><path class="cls-6" d="M239.5,116.8a9,9,0,0,0-.71,3.29l-.68,3.35a8.94,8.94,0,0,0-.13,3.38,9.16,9.16,0,0,1-.15-3.42l.4-3.4A9.1,9.1,0,0,1,239.5,116.8Z"/><path class="cls-6" d="M240.29,127.17l0-3.49A17.39,17.39,0,0,1,242,117a17.16,17.16,0,0,0-1.19,6.77Z"/><path class="cls-6" d="M244.28,116.65a27.05,27.05,0,0,0-.87,3.41,26.12,26.12,0,0,0-1.16,6.93,26.31,26.31,0,0,1,.62-7.07A25,25,0,0,1,244.28,116.65Z"/><path class="cls-6" d="M244.93,127.1a31.08,31.08,0,0,1,0-3.48,33.92,33.92,0,0,1,1.9-6.67,33.91,33.91,0,0,0-1.34,6.75A31.73,31.73,0,0,0,244.93,127.1Z"/><path class="cls-6" d="M249.47,117a30.31,30.31,0,0,0-.76,3.47A28.75,28.75,0,0,0,248,124c-.09.58-.16,1.17-.21,1.76l-.07.88,0,.45a.49.49,0,0,0,0,.21c0,.09.16,0,.07-.06.11,0,0,.18-.08.07a.35.35,0,0,1,0-.22l0-.45v-.89c0-.59,0-1.19.07-1.78a28.68,28.68,0,0,1,.47-3.56A30,30,0,0,1,249.47,117Z"/><path class="cls-6" d="M250.39,127.51l.33-3.27a51.26,51.26,0,0,1,1.74-6.31,51.44,51.44,0,0,0-1.18,6.42Z"/><path class="cls-6" d="M254.26,118.07c0,1.08,0,2.17,0,3.25-.33,2.14-.77,4.26-1.28,6.35q.49-3.19.72-6.41C253.9,120.2,254.09,119.14,254.26,118.07Z"/><path class="cls-6" d="M255.67,127.69l.07-3.12a35.43,35.43,0,0,1,1.3-6.1,35.38,35.38,0,0,0-.74,6.16Z"/><path class="cls-6" d="M258.88,118.15c.07,1.12.13,2.24.16,3.37-.21,2.23-.51,4.45-.88,6.66q.27-3.34.32-6.69C258.63,120.38,258.77,119.27,258.88,118.15Z"/><path class="cls-6" d="M261.75,118.38c.1,1.11.16,2.22.16,3.34a37.77,37.77,0,0,1-1.42,6.51,37.29,37.29,0,0,0,.85-6.56C261.53,120.59,261.66,119.49,261.75,118.38Z"/><path class="cls-6" d="M264.07,117.92c.19,1.18.38,2.35.5,3.54a16.79,16.79,0,0,1-1.36,7,16.31,16.31,0,0,0,.79-7C264.07,120.3,264.07,119.11,264.07,117.92Z"/><path class="cls-6" d="M267.19,117.86a25.19,25.19,0,0,1,.44,3.12,25.18,25.18,0,0,1-.35,3.13c-.09.51-.2,1-.32,1.53l-.19.76a1.22,1.22,0,0,1-.36.68,1.23,1.23,0,0,0,.29-.7l.12-.76c.08-.52.13-1,.18-1.55a29,29,0,0,0,.07-3.09A27,27,0,0,0,267.19,117.86Z"/><path class="cls-6" d="M269.77,117.64a14.85,14.85,0,0,1,.69,3.51,14.94,14.94,0,0,1-1.94,6.81,14.67,14.67,0,0,0,1.37-6.81A14.76,14.76,0,0,0,269.77,117.64Z"/><path class="cls-6" d="M272.68,118.09a13.25,13.25,0,0,1,.53,2.68A14.15,14.15,0,0,1,271.9,126a13.92,13.92,0,0,0,.74-5.26A13.32,13.32,0,0,0,272.68,118.09Z"/><path class="cls-5" d="M237,132.77l-.69,3.36a23.1,23.1,0,0,0-1.36,3,2.66,2.66,0,0,0,.75,3,2.92,2.92,0,0,1-1.31-3.05,24.49,24.49,0,0,1,.86-3.35Z"/><path class="cls-5" d="M235.53,144.2l5.14-.85h2.83l-.51.71a6.76,6.76,0,0,1-3.64,2.45,11.74,11.74,0,0,1-2.11.41,3.27,3.27,0,0,1-1.08,0,1.21,1.21,0,0,1-.86-.59,1.19,1.19,0,0,0,.88.48,3.26,3.26,0,0,0,1-.08,11.11,11.11,0,0,0,2-.62,6.07,6.07,0,0,0,3-2.51l.42.71-1.9.21Z"/><path class="cls-5" d="M244.45,132.83a1.25,1.25,0,0,0-.55.52,1.34,1.34,0,0,0-.25.49.55.55,0,0,0,.11.51.52.52,0,0,0,.52.12,1.15,1.15,0,0,0,.46-.33,1.06,1.06,0,0,0,.28-.79.57.57,0,0,0-.6-.5"/><path class="cls-5" d="M234.82,133.55a1.46,1.46,0,0,0,.3-.71,1.64,1.64,0,0,0,0-.54.49.49,0,0,0-.83-.33,1.07,1.07,0,0,0-.29.48,1,1,0,0,0,.06.84.57.57,0,0,0,.74.22"/><path class="cls-6" d="M240.24,151.7a29.19,29.19,0,0,0,8.69-1.5c1-.41,1,.38.88.91-.45,2.23-2.29,7.38-9.76,10.33C239.85,161.56,241.49,156.07,240.24,151.7Z"/></g><path class="cls-16" d="M219.45,120.53c-5.55,7.44-7.63,17.87-3.12,26a27.89,27.89,0,0,0,5.91,7.13,40.79,40.79,0,0,0,11.64,7.3,23.27,23.27,0,0,0,11.56,2,25.5,25.5,0,0,0,5.49-1.43,36.51,36.51,0,0,0,10.79-5.92,22.06,22.06,0,0,0,7.06-10,33,33,0,0,0,1.24-6.16c.62-4.82,1-9.85-.63-14.44a20.47,20.47,0,0,0-11-11.34C253.5,111.49,231.9,103.86,219.45,120.53Z"/><path class="cls-18" d="M232.53,129.75a3.77,3.77,0,0,0-3.51,1.72,4.69,4.69,0,0,0-.53,3.74,2.89,2.89,0,0,0,2.55,2.24,3.5,3.5,0,0,0,3.32-1.57A4.46,4.46,0,0,0,235,132a3.29,3.29,0,0,0-3.1-2.36,3.42,3.42,0,0,1,3.36,2.26,4.84,4.84,0,0,1-.41,4.28,4.15,4.15,0,0,1-6.09,1.3,3.7,3.7,0,0,1-1.35-2,5.48,5.48,0,0,1,1.18-4.34A4,4,0,0,1,232.53,129.75Z"/><path class="cls-18" d="M235.3,133.63a2,2,0,0,1,.53-1,2.11,2.11,0,0,1,1.77.71,1.53,1.53,0,0,0-1.41.37A1.38,1.38,0,0,0,235.3,133.63Z"/><path class="cls-18" d="M241.48,129.68a4.48,4.48,0,0,0-3.26,3.09,4.14,4.14,0,0,0,1.13,4,4,4,0,0,0,3.93,1.22,3.85,3.85,0,0,0,1.91-1.05,4.93,4.93,0,0,0,.22-6.3,4.77,4.77,0,0,0-4.46-1,4.89,4.89,0,0,1,4.65.83,3.76,3.76,0,0,1,1.24,2.17,6.62,6.62,0,0,1,0,2.51,4.85,4.85,0,0,1-1.1,2.32,4.78,4.78,0,0,1-2.22,1.39,4.68,4.68,0,0,1-5.81-6.28A4.79,4.79,0,0,1,241.48,129.68Z"/><path class="cls-18" d="M247,132.42c1.74-.14,3.48-.25,5.23-.31,1.73.21,3.46.47,5.17.77.86.15,1.71.3,2.57.48a3.18,3.18,0,0,1,1.22.53,1.48,1.48,0,0,1,.61,1.14,1.4,1.4,0,0,0-.69-1,3,3,0,0,0-1.19-.37c-.85-.08-1.72-.14-2.59-.2-1.72-.1-3.45-.17-5.18-.2C250.44,132.92,248.72,132.65,247,132.42Z"/><path class="cls-4" d="M189.48,302.07C187.74,250.35,187,113.89,187,113.89c-50.5-1.22-153.36,3.27-153.36,3.27-2.49,34.44-8.92,172.1-10.51,184.91"/><path class="cls-5" d="M189.48,302.07c-.53-14.63-.84-29.26-1.14-43.89l-.76-43.9q-.66-43.89-1.08-87.8l-.05-12.58.53.54c-12.77-.32-25.55-.27-38.33-.15s-25.57.37-38.34.67q-38.34.92-76.67,2.5l.29-.28C32.85,132.57,32,148,31.14,163.39l-2.53,46.24-2.53,46.23L24.75,279c-.48,7.71-.89,15.42-1.63,23.1.71-7.69,1.1-15.4,1.56-23.1l1.25-23.12,2.38-46.24,2.38-46.24c.82-15.41,1.61-30.83,2.64-46.23l0-.27h.27q38.32-1.67,76.66-2.74c12.79-.35,25.57-.64,38.36-.8s25.57-.25,38.37,0h.53v.53l.1,12.59q.15,43.89.51,87.8l.47,43.89C188.83,272.81,189.05,287.44,189.48,302.07Z"/><path class="cls-4" d="M129.6,105a4.44,4.44,0,0,1,2.6.19,1.18,1.18,0,0,1,.6.42,1.28,1.28,0,0,1,.14.75,6.37,6.37,0,0,1-2.22,4.57,1.08,1.08,0,0,1-1.11.33c-.37-.17-.45-.65-.47-1.06a20.54,20.54,0,0,1,.29-4.56.85.85,0,0,1,.27-.57"/><path class="cls-6" d="M37.55,213.21c47.47,0,139.94.49,139.94.49-.15,0,0,.27.1.19s.1-.28,0-.43a31.3,31.3,0,0,1-.91-8l-.37-12.85-131-1.17-6.38-.05Z"/><path class="cls-6" d="M178.81,225l.05,22.32v0h-.06q-43.76.18-87.51-.83L35.56,245h-.22v-.22l1.16-21.73v-.18h.18q35.52.76,71.05,1.36c23.69.37,47.37.71,71.06.72-23.69.05-47.38-.23-71.06-.54s-47.37-.72-71.06-1.17l.19-.18-1.11,21.75-.2-.23L91.31,246q43.74,1.17,87.49,1.29l-.05.06Z"/><path class="cls-6" d="M72.08,152.39c-.06-1-.12-2.26-.11-3.18h0c-.25.87-.56,1.78-.93,2.8l-1.3,3.57H69l-1.19-3.51c-.35-1-.64-2-.85-2.86h0c0,.92-.08,2.15-.14,3.26l-.2,3.15h-.9l.51-7.35h1.21l1.25,3.55c.31.91.56,1.72.75,2.48h0c.18-.74.45-1.55.77-2.48l1.31-3.55h1.21l.46,7.35h-.92Z"/><path class="cls-6" d="M75.22,153.15A1.69,1.69,0,0,0,77,155a3.33,3.33,0,0,0,1.46-.28l.17.69a4.34,4.34,0,0,1-1.76.33,2.45,2.45,0,0,1-2.6-2.66,2.56,2.56,0,0,1,2.48-2.85A2.24,2.24,0,0,1,79,152.71a3.76,3.76,0,0,1,0,.44Zm2.81-.68a1.37,1.37,0,0,0-1.33-1.56,1.59,1.59,0,0,0-1.47,1.56Z"/><path class="cls-6" d="M80.68,153.15A1.69,1.69,0,0,0,82.49,155a3.38,3.38,0,0,0,1.47-.28l.16.69a4.34,4.34,0,0,1-1.76.33,2.45,2.45,0,0,1-2.59-2.66,2.56,2.56,0,0,1,2.47-2.85,2.24,2.24,0,0,1,2.19,2.49,3.33,3.33,0,0,1,0,.44Zm2.82-.68a1.37,1.37,0,0,0-1.33-1.56,1.6,1.6,0,0,0-1.48,1.56Z"/><path class="cls-6" d="M86.77,148.82v1.52h1.37v.73H86.77v2.85c0,.65.19,1,.72,1a2.36,2.36,0,0,0,.56-.06l0,.72a2.48,2.48,0,0,1-.85.13,1.31,1.31,0,0,1-1-.41,2,2,0,0,1-.37-1.37v-2.88H85v-.73h.82v-1.27Z"/><path class="cls-6" d="M96.32,152.94a2.58,2.58,0,0,1-2.63,2.8A2.51,2.51,0,0,1,91.16,153a2.57,2.57,0,0,1,2.61-2.8A2.5,2.5,0,0,1,96.32,152.94Zm-4.19.05c0,1.16.66,2,1.6,2s1.6-.86,1.6-2.05c0-.9-.44-2-1.58-2S92.13,152,92.13,153Z"/><path class="cls-6" d="M101.94,154.18c0,.54,0,1,0,1.44h-.85l-.06-.86h0a2,2,0,0,1-1.75,1c-.82,0-1.82-.46-1.82-2.31v-3.09h1v2.92c0,1,.31,1.68,1.18,1.68a1.4,1.4,0,0,0,1.27-.87,1.53,1.53,0,0,0,.08-.49v-3.24h1Z"/><path class="cls-6" d="M103.54,152c0-.63,0-1.16-.05-1.65h.84l0,1h0a1.59,1.59,0,0,1,1.46-1.16,1.06,1.06,0,0,1,.27,0v.91a1,1,0,0,0-.32,0,1.35,1.35,0,0,0-1.29,1.24,2.81,2.81,0,0,0,0,.44v2.82h-.94Z"/><path class="cls-6" d="M109.32,154.46a3.34,3.34,0,0,0,1.7.48c1,0,1.54-.51,1.54-1.25s-.4-1.08-1.39-1.46c-1.2-.43-1.94-1-1.94-2.09a2.12,2.12,0,0,1,2.38-2,3.25,3.25,0,0,1,1.62.36l-.26.77a2.93,2.93,0,0,0-1.39-.35c-1,0-1.39.6-1.39,1.1,0,.69.45,1,1.46,1.42,1.24.48,1.88,1.08,1.88,2.16s-.84,2.12-2.58,2.12a3.78,3.78,0,0,1-1.87-.47Z"/><path class="cls-6" d="M117.75,155.62l-.08-.67h0a2,2,0,0,1-1.62.79,1.5,1.5,0,0,1-1.61-1.52c0-1.27,1.13-2,3.18-2v-.11a1.09,1.09,0,0,0-1.21-1.22,2.61,2.61,0,0,0-1.37.39l-.22-.63a3.24,3.24,0,0,1,1.74-.47c1.61,0,2,1.1,2,2.16v2a8.06,8.06,0,0,0,.09,1.27Zm-.14-2.7c-1,0-2.24.17-2.24,1.19a.84.84,0,0,0,.9.92,1.32,1.32,0,0,0,1.28-.88.85.85,0,0,0,.06-.31Z"/><path class="cls-6" d="M120.08,147.87h1v7.75h-1Z"/><path class="cls-6" d="M123.19,153.15A1.69,1.69,0,0,0,125,155a3.3,3.3,0,0,0,1.46-.28l.17.69a4.34,4.34,0,0,1-1.76.33,2.46,2.46,0,0,1-2.6-2.66,2.56,2.56,0,0,1,2.48-2.85,2.23,2.23,0,0,1,2.18,2.49,3.76,3.76,0,0,1,0,.44Zm2.82-.68a1.37,1.37,0,0,0-1.33-1.56,1.59,1.59,0,0,0-1.48,1.56Z"/><path class="cls-6" d="M128,154.64a2.58,2.58,0,0,0,1.27.38c.69,0,1-.35,1-.79s-.27-.71-1-1c-1-.34-1.4-.86-1.4-1.49a1.63,1.63,0,0,1,1.83-1.55,2.54,2.54,0,0,1,1.29.33l-.24.69a2,2,0,0,0-1.08-.3c-.56,0-.88.33-.88.72s.32.63,1,.89c.92.35,1.39.81,1.39,1.6s-.72,1.58-2,1.58a3,3,0,0,1-1.48-.36Z"/><path class="cls-6" d="M135.74,149.07H133.5v-.8h5.44v.8h-2.25v6.55h-.95Z"/><path class="cls-6" d="M139.49,153.15A1.69,1.69,0,0,0,141.3,155a3.33,3.33,0,0,0,1.46-.28l.16.69a4.25,4.25,0,0,1-1.75.33,2.45,2.45,0,0,1-2.6-2.66,2.56,2.56,0,0,1,2.48-2.85,2.24,2.24,0,0,1,2.18,2.49,3.76,3.76,0,0,1,0,.44Zm2.81-.68a1.37,1.37,0,0,0-1.33-1.56,1.58,1.58,0,0,0-1.47,1.56Z"/><path class="cls-6" d="M147.34,155.62l-.07-.67h0a1.94,1.94,0,0,1-1.61.79,1.51,1.51,0,0,1-1.62-1.52c0-1.27,1.14-2,3.18-2v-.11a1.09,1.09,0,0,0-1.2-1.22,2.65,2.65,0,0,0-1.38.39l-.22-.63a3.24,3.24,0,0,1,1.74-.47c1.61,0,2,1.1,2,2.16v2a8.14,8.14,0,0,0,.08,1.27Zm-.14-2.7c-1,0-2.24.17-2.24,1.19a.85.85,0,0,0,.91.92,1.33,1.33,0,0,0,1.28-.88,1.12,1.12,0,0,0,0-.31Z"/><path class="cls-6" d="M149.68,151.77c0-.55,0-1-.05-1.43h.84l.05.85h0a1.81,1.81,0,0,1,1.66-1,1.56,1.56,0,0,1,1.49,1.06h0a2.15,2.15,0,0,1,.59-.69,1.82,1.82,0,0,1,1.17-.37c.7,0,1.73.46,1.73,2.29v3.11h-.93v-3c0-1-.37-1.63-1.15-1.63a1.24,1.24,0,0,0-1.13.88,1.38,1.38,0,0,0-.08.48v3.26H153v-3.16c0-.84-.37-1.46-1.1-1.46a1.31,1.31,0,0,0-1.19,1,1.5,1.5,0,0,0-.08.47v3.19h-.93Z"/><path class="cls-4" d="M87.13,204.59a2.62,2.62,0,0,0,1.31.37c.74,0,1.18-.4,1.18-1s-.3-.82-1.07-1.12c-.92-.32-1.48-.8-1.48-1.59a1.62,1.62,0,0,1,1.82-1.53,2.56,2.56,0,0,1,1.24.27l-.2.6a2.23,2.23,0,0,0-1.07-.27c-.76,0-1.06.46-1.06.84,0,.53.34.79,1.12,1.09,1,.37,1.44.83,1.44,1.66s-.64,1.62-2,1.62A2.9,2.9,0,0,1,87,205.2Z"/><path class="cls-4" d="M94.72,204.37c0,.42,0,.79,0,1.1H94.1l0-.66h0a1.52,1.52,0,0,1-1.34.76c-.63,0-1.4-.35-1.4-1.78v-2.36H92v2.24c0,.77.23,1.29.9,1.29a1.06,1.06,0,0,0,1-.67,1,1,0,0,0,.07-.38v-2.48h.74Z"/><path class="cls-4" d="M99.43,201.43c0,.29,0,.62,0,1.11v2.35a2.3,2.3,0,0,1-.58,1.85,2.12,2.12,0,0,1-1.47.48,2.56,2.56,0,0,1-1.34-.33l.18-.56a2.25,2.25,0,0,0,1.19.32c.75,0,1.3-.4,1.3-1.42v-.45h0a1.46,1.46,0,0,1-1.29.68,1.81,1.81,0,0,1-1.73-2,1.94,1.94,0,0,1,1.83-2.14,1.34,1.34,0,0,1,1.26.7h0l0-.61ZM98.66,203a.88.88,0,0,0,0-.33,1.05,1.05,0,0,0-1-.78c-.7,0-1.2.6-1.2,1.53s.4,1.46,1.2,1.46a1.09,1.09,0,0,0,1-.75,1.37,1.37,0,0,0,0-.4Z"/><path class="cls-4" d="M104.1,201.43c0,.29,0,.62,0,1.11v2.35a2.34,2.34,0,0,1-.58,1.85,2.12,2.12,0,0,1-1.47.48,2.6,2.6,0,0,1-1.35-.33l.19-.56a2.21,2.21,0,0,0,1.18.32c.75,0,1.31-.4,1.31-1.42v-.45h0a1.43,1.43,0,0,1-1.29.68,1.81,1.81,0,0,1-1.72-2,1.93,1.93,0,0,1,1.82-2.14,1.34,1.34,0,0,1,1.27.7h0l0-.61Zm-.76,1.59a1.15,1.15,0,0,0,0-.33,1.07,1.07,0,0,0-1-.78c-.7,0-1.21.6-1.21,1.53s.4,1.46,1.2,1.46a1.09,1.09,0,0,0,1-.75,1.39,1.39,0,0,0,.06-.4Z"/><path class="cls-4" d="M105.7,203.58a1.29,1.29,0,0,0,1.38,1.41,2.58,2.58,0,0,0,1.12-.21l.13.53a3.4,3.4,0,0,1-1.35.25,1.88,1.88,0,0,1-2-2,2,2,0,0,1,1.9-2.18,1.71,1.71,0,0,1,1.67,1.9,2.56,2.56,0,0,1,0,.34Zm2.15-.52a1,1,0,0,0-1-1.2,1.23,1.23,0,0,0-1.13,1.2Z"/><path class="cls-4" d="M109.37,204.72a2,2,0,0,0,1,.29c.53,0,.78-.26.78-.6s-.21-.54-.75-.74c-.73-.26-1.07-.66-1.07-1.15a1.24,1.24,0,0,1,1.39-1.18,2,2,0,0,1,1,.25l-.18.53a1.61,1.61,0,0,0-.83-.23c-.44,0-.68.25-.68.55s.24.48.77.68c.7.27,1.06.62,1.06,1.23s-.55,1.21-1.51,1.21a2.31,2.31,0,0,1-1.14-.28Z"/><path class="cls-4" d="M113.67,200.27v1.16h1.06V202h-1.06v2.18c0,.5.15.79.56.79a1.83,1.83,0,0,0,.42-.05l0,.55a1.83,1.83,0,0,1-.66.1,1,1,0,0,1-.79-.31,1.5,1.5,0,0,1-.29-1.05V202h-.62v-.56H113v-1Z"/><path class="cls-4" d="M119.57,205.47l-.06-.51h0a1.49,1.49,0,0,1-1.23.61A1.16,1.16,0,0,1,117,204.4c0-1,.87-1.51,2.43-1.5v-.08a.83.83,0,0,0-.92-.94,2,2,0,0,0-1,.3l-.17-.48a2.5,2.5,0,0,1,1.33-.36c1.24,0,1.54.84,1.54,1.65v1.51a5.58,5.58,0,0,0,.07,1Zm-.11-2.06c-.8,0-1.71.13-1.71.91a.64.64,0,0,0,.69.7.95.95,0,0,0,1-.91Z"/><path class="cls-4" d="M123.16,199.91a11.34,11.34,0,0,1,1.54-.11,3.21,3.21,0,0,1,2.28.7,2.56,2.56,0,0,1,.8,2,3,3,0,0,1-.81,2.19,3.47,3.47,0,0,1-2.49.81,12.23,12.23,0,0,1-1.32-.06Zm.72,5a5.13,5.13,0,0,0,.74,0,2.17,2.17,0,0,0,2.4-2.39,2,2,0,0,0-2.28-2.18,4.31,4.31,0,0,0-.86.08Z"/><path class="cls-4" d="M130.94,205.47l-.06-.51h0a1.51,1.51,0,0,1-1.24.61,1.16,1.16,0,0,1-1.24-1.17c0-1,.87-1.51,2.43-1.5v-.08a.83.83,0,0,0-.92-.94,2.07,2.07,0,0,0-1,.3l-.17-.48a2.5,2.5,0,0,1,1.33-.36c1.24,0,1.54.84,1.54,1.65v1.51a5.58,5.58,0,0,0,.07,1Zm-.11-2.06c-.8,0-1.71.13-1.71.91a.65.65,0,0,0,.69.7.95.95,0,0,0,1-.91Z"/><path class="cls-4" d="M133.58,200.27v1.16h1.06V202h-1.06v2.18c0,.5.14.79.55.79a1.86,1.86,0,0,0,.43-.05l0,.55a1.83,1.83,0,0,1-.66.1,1,1,0,0,1-.79-.31,1.5,1.5,0,0,1-.29-1.05V202h-.62v-.56h.62v-1Z"/><path class="cls-4" d="M135.82,203.58a1.3,1.3,0,0,0,1.39,1.41,2.58,2.58,0,0,0,1.12-.21l.13.53a3.4,3.4,0,0,1-1.35.25,1.88,1.88,0,0,1-2-2,2,2,0,0,1,1.9-2.18,1.71,1.71,0,0,1,1.67,1.9,2.56,2.56,0,0,1,0,.34Zm2.16-.52a1,1,0,0,0-1-1.2,1.23,1.23,0,0,0-1.13,1.2Z"/><path class="cls-6" d="M65.59,236.89a2.55,2.55,0,0,0,1.3.36c.75,0,1.18-.39,1.18-1s-.3-.82-1.06-1.12c-.92-.32-1.49-.8-1.49-1.59a1.62,1.62,0,0,1,1.82-1.53,2.6,2.6,0,0,1,1.25.27l-.2.6a2.12,2.12,0,0,0-1.07-.27c-.77,0-1.06.46-1.06.84,0,.53.34.79,1.12,1.09,1,.37,1.44.83,1.44,1.65s-.65,1.63-2,1.63a3,3,0,0,1-1.44-.36Z"/><path class="cls-6" d="M70.51,235.58h0c.1-.14.24-.32.36-.46l1.19-1.39H73l-1.56,1.66,1.78,2.38h-.89l-1.4-1.94-.38.42v1.52h-.72v-5.93h.72Z"/><path class="cls-6" d="M74.08,233.73l.89,2.39c.09.27.19.58.26.83h0c.07-.25.15-.56.26-.85l.8-2.37h.78L76,236.61a6,6,0,0,1-1.39,2.53,2,2,0,0,1-.9.48l-.18-.62a1.92,1.92,0,0,0,.64-.36,2.25,2.25,0,0,0,.62-.82.58.58,0,0,0,.06-.17.76.76,0,0,0,0-.19l-1.5-3.73Z"/><path class="cls-6" d="M77.75,235.05c0-.52,0-.94,0-1.32h.66l0,.69h0a1.6,1.6,0,0,1,1.44-.79,1.83,1.83,0,0,1,1.71,2.06c0,1.46-.88,2.18-1.84,2.18a1.42,1.42,0,0,1-1.24-.64h0v2.2h-.73Zm.73,1.08a1.54,1.54,0,0,0,0,.3,1.12,1.12,0,0,0,1.1.86c.78,0,1.23-.64,1.23-1.57s-.43-1.5-1.21-1.5a1.17,1.17,0,0,0-1.11.91,1.45,1.45,0,0,0,0,.3Z"/><path class="cls-6" d="M82.92,235.88a1.3,1.3,0,0,0,1.39,1.41,2.61,2.61,0,0,0,1.12-.21l.13.53a3.45,3.45,0,0,1-1.35.25,1.88,1.88,0,0,1-2-2,2,2,0,0,1,1.9-2.19,1.72,1.72,0,0,1,1.67,1.91c0,.15,0,.27,0,.34Zm2.16-.52a1,1,0,0,0-1-1.2,1.23,1.23,0,0,0-1.13,1.2Z"/><path class="cls-7" d="M138.63,171.67c.05,0,.06-.13,0-.14l-.12.13Z"/><path class="cls-7" d="M138,171.17c-.15.05-.32.14-.28.31.16-.12.17,0,.35-.2.11,0,.16.11.13.16s.15.08.23,0a.38.38,0,0,0-.47-.16C138,171.23,138,171.2,138,171.17Z"/><path class="cls-7" d="M127.56,171.73h0Z"/><path class="cls-7" d="M122.65,169.08a.11.11,0,0,0,.07,0S122.65,169.06,122.65,169.08Z"/><path class="cls-7" d="M121.89,168l.06.05A.07.07,0,0,0,121.89,168Z"/><path class="cls-7" d="M127.56,171.73l-.17,0C127.38,171.77,127.48,171.74,127.56,171.73Z"/><path class="cls-7" d="M136.53,171.25l.1,0h-.09Z"/><path class="cls-7" d="M130.31,170.83l.05,0,0-.08Z"/><path class="cls-7" d="M132.54,170.36s0,.14-.06.2a.16.16,0,0,1,.1-.11Z"/><path class="cls-7" d="M136.13,170.62h0Z"/><path class="cls-7" d="M128.77,171.25s0,0,0,0Z"/><path class="cls-7" d="M80.8,166.53h0S80.81,166.51,80.8,166.53Z"/><path class="cls-7" d="M82.63,164.51v0l.06,0Z"/><path class="cls-7" d="M119.48,167.58h0C119.55,167.55,119.51,167.56,119.48,167.58Z"/><path class="cls-7" d="M104.34,168.72c0,.26-.29-.28-.29.08C104.09,168.75,104.35,169,104.34,168.72Z"/><path class="cls-7" d="M136.48,171.23h0Z"/><path class="cls-7" d="M104.05,168.8h0v0Z"/><path class="cls-7" d="M114.92,169.24l.07,0S115,169.25,114.92,169.24Z"/><path class="cls-7" d="M118.34,168.17h0Z"/><path class="cls-7" d="M113.31,170.16s-.07,0-.12,0h0S113.26,170.16,113.31,170.16Z"/><polygon class="cls-7" points="111.57 170.92 111.62 170.93 111.67 170.9 111.57 170.92"/><path class="cls-7" d="M80.06,172.65a.35.35,0,0,1,.07-.15C80.06,172.58,79.89,172.26,80.06,172.65Z"/><path class="cls-7" d="M136.54,171.18s0,0-.06,0h.06S136.56,171.19,136.54,171.18Z"/><path class="cls-7" d="M113.69,171.21l-.28.1Z"/><path class="cls-7" d="M93.27,170.47l0,.05S93.27,170.49,93.27,170.47Z"/><path class="cls-7" d="M112.58,171.69a.43.43,0,0,0-.19,0,.08.08,0,0,0,0,.05Z"/><path class="cls-7" d="M80.14,172.5h0Z"/><path class="cls-7" d="M79.66,170.25c0,.3.16.17.26.24,0,.37-.15.16-.26.28s.2.43.19.61c0,0,0,.05-.08,0,.14.24.09.81.39,1.06a.08.08,0,0,1,0,.05.43.43,0,0,1,.21-.14c.06.14.22.19.14.29,0-.08-.09-.06-.14-.08l.12.11c-.09.21-.15-.16-.27-.11.19.27.51.47.64.66-.1.17-.41-.39-.32,0a2.26,2.26,0,0,1-.17-.35c-.08.4-.1-.22-.21.18.29.47.44.44.83.79.15,0,0-.13.19-.15.66.17.33.65.9.59.15-.09.24-.27.55-.12l-.14.17c.45.08.28-.24.73-.09-.08.08-.35,0-.28.08.29.17.21-.1.43-.1l.05.17a8.1,8.1,0,0,0,1.43-.36c0,.05-.09.12,0,.15a11.32,11.32,0,0,1,1.87-.46l.16-.22s.11,0,.07.08c.23,0,0-.09.06-.19s.19,0,.13.09a3.11,3.11,0,0,1,1.4-.68l-.06.07c.33-.07.23-.42.56-.42l0,.05a10.51,10.51,0,0,1,1.91-.73c0-.23.67-.23.58-.52a2.82,2.82,0,0,0,.9-.14c.14-.07.11-.28.26-.39l.08.13.14-.27.21.09.13-.12a.16.16,0,0,1-.18,0c.21-.2.64-.25.69-.18l.49-.46c0,.06-.06.14-.12.22.22-.32.14.1.34-.19-.06,0,0-.09,0-.12a1.44,1.44,0,0,0,.7-.38v.12c.43-.25.82-.61,1.26-.9-.18.06-.25-.11-.13-.21l.15.1c0-.14-.17,0-.07-.18s.21.08.15.19l.17-.18s0,.09,0,.15c0-.14.43-.08.46-.3l0,0c.44-.25.61-.41,1-.58,0-.13.1-.17.18-.32.29-.07.64-.08,1-.16s0-.13.14-.23c0,.12.38.06.21.18.41-.07.52-.09,1-.15,0-.06-.11-.09-.07-.13s.21.08.19.14h0a1.17,1.17,0,0,1,.88.31c.26.2.43.4.68.43h0a1.77,1.77,0,0,1,.41.21c.12.17-.15,0-.11.13.47.25.38.67.67,1-.23.44.41,1.21.37,1.81l.07-.06c.13.1,0,.18,0,.29.06,0,0-.18.1-.11a5.32,5.32,0,0,0,1.07,1.68,3,3,0,0,0,2,.82c.5,0,.23-.47.83-.35l-.14.19a23.24,23.24,0,0,0,2.52-.85s0,.1-.1.12c.21.06.62-.21.59-.3.12,0,.06.07.15.09s.36-.3.49-.23,0,.06-.06.08.51-.19.36-.28c.31-.05.52-.28.79-.3.08-.2.51-.14.47-.36.07.21.58-.05.71-.23,0,.09.18,0,.15.11.21-.09.37-.21.29-.3.48.08.67-.53,1-.31a16.43,16.43,0,0,1,1.61-1c.06.22-.59.27-.48.48a4,4,0,0,1,1.24-.73c.15,0,0,.12-.07.17.49-.28,1-.33,1.44-.58,0,0,0,.05-.08.09s.22,0,.18-.13l-.08,0c-.19-.1.29-.4.29-.48-.09.33.49-.05.32.38.06,0,.13-.1.1-.17s.13,0,.05.13c.32-.13.18-.21.48-.26,0,0,0,.07-.07.14a.56.56,0,0,1,.51-.21s0,.07-.06.07c.38,0,.73-.22,1.07.1-.22.11.09.14,0,.3l.2.11V169c.15.13.37.21.43.4l-.15-.08c.09.1.17.21.26.32l-.07-.24c.2.14.18-.15.31.14,0-.05.12.2.08.37h0a.55.55,0,0,1,.27.32c0,.07-.2.07-.22.12.19,0,.33.48.56.52-.06,0-.15,0-.15,0l.16,0c0,.12,0,.14-.05.17.2.3.12-.23.3.17,0,0,0,0-.09,0,.23.38.65.53,1,.78,0,.23-.33-.15-.29.05a4.61,4.61,0,0,0,1.73.37l-.1,0c.09-.26.4.16.67,0-.06,0-.08.15-.06.12a3.12,3.12,0,0,0,1.27-.3l0,.08a4.31,4.31,0,0,0,.78-.11c0-.08.17-.1.07-.18.78.2,1.21-.56,1.89-.42-.07,0-.15.1-.1.09l.48-.21c-.07-.1-.08-.05-.21-.11a.49.49,0,0,1,.29-.2c-.2.13.05.18.16.21s0-.07,0-.11c.3.14,0-.23.38-.18v.06c.13-.06.23-.17.38-.18s-.13.09-.11.2c.2,0,.35-.33.56-.23-.08.05-.2.08-.28.13a.57.57,0,0,0,.39.08h0l.35,0-.09,0c.21-.38.51-.13.84-.38-.32.24,0,.13-.06.28s.23.07.19.12c.16-.14.28.08.5-.11,0,0,.18,0,.14.12.21,0,0-.08,0-.14.33-.18.76.19,1.24,0s.5-.22.9-.26c.12.09-.13.17-.13.17a.9.9,0,0,0,.56.07c-.05,0,0,.08,0,.14s.14-.16.33-.05a.79.79,0,0,1-.19.17c.19,0,.38-.07.58-.08,0,.1-.14.1-.21.15.21,0,.55,0,.65-.08l-.13-.07c.08,0,0,.12-.05.13s-.24-.1-.24-.15h.14c-.08-.32-.55-.07-.82-.13l.15-.19-.31.13c0-.06-.08-.18.07-.2-.19-.13-.19,0-.35-.09s0,0,0,0l-.21,0c.05,0,0-.15.1-.11-.34-.16-.58.1-.7-.07h0c-.49,0-.06.15-.43.31l-.23-.38-.05.15s-.15,0-.13-.09c-.19.11,0,.07-.08.17-.24-.14-.67.07-.73-.17-.08.12.24.08,0,.17-.08-.26-.29.06-.52,0,.06-.14.27-.08,0-.19-.12.24-.44,0-.62,0,0,.18-.4.13-.7.24a3.89,3.89,0,0,0-.91,0v0c0,.19-.32.23-.52.32a.2.2,0,0,1,.11-.23l-.2.05a.34.34,0,0,1-.21.17v-.14c-.26.08-.48.31-.84.32,0,.13.37.26,0,.45,0-.06-.08-.17,0-.22s-.09.08-.16.07l.11-.15c-.17,0-.06.12-.18.14s-.11,0-.12-.12.12,0,.16,0a.62.62,0,0,1-.4,0,.12.12,0,0,1-.06.17c-.26.08-.12-.09-.29-.1s-.23.06-.19.21-.11-.05-.15-.08-.62.17-.43.29h0c-.42.24-.94.1-1.37.18v-.05c-.26.07-.58,0-.78.12s-.16-.12-.12-.17a.53.53,0,0,1-.48-.1c.21,0,0-.09.2,0-.22-.11-.24-.19-.53-.18.13-.07-.08-.21-.19-.25l.1.17a1.31,1.31,0,0,1-.3-.2l.15-.1c-.11-.22-.32-.28-.5-.4a.5.5,0,0,1-.3-.52c-.17-.05.08.29-.1.26-.11-.22,0-.57-.07-.64-.09-.34-.37-.16-.5-.52,0,.08-.14.19-.33,0s0-.41.16-.29,0,.09,0,.1.15.14.15,0h-.07c0-.15-.26-.46-.13-.45-.18-.14-.13,0-.06.13a2.43,2.43,0,0,0-.66-.75c0,.06,0,.16,0,.12-.46-.39-.28,0-.63-.19-.19-.15.14-.19-.27-.22-.24-.1,0-.17.09-.19a5.12,5.12,0,0,1-.94-.14l.2-.06a2.19,2.19,0,0,1-.31,0l.12.11c-.11,0-.21,0-.21-.05s.11.18-.09.32c-.15,0-.39.14-.47,0,.43,0-.08-.14.28-.24a.67.67,0,0,1-.26,0s0,0,0,0c-.43-.05-.14.22-.54.31,0-.1-.13-.14-.19-.1.16,0,.11.12,0,.23s-.25.13-.39.15h.16c0,.1-.15.13-.31.21,0-.07.14-.1.07-.11-.15.21-.48,0-.72.17-.14,0-.06-.15-.18-.15-.26.21-.37,0-.64.2.13.08.13,0,0,.23l.47-.26-.26.28c.15,0,.29-.19.39-.2-.12.14-.11.11,0,.18-.27-.1-.37.25-.65.22l-.1-.27c-.41,0-.59.39-1.07.51h.16c0,.13-.27.13-.4.24,0-.1-.14-.09-.22-.12s-.34.14-.3.34l-.26,0c-.39.12-.3.45-.67.57.06-.14-.13-.14.08-.31-.12,0-.23.08-.21.14s-.27.27-.41.23,0,.16-.14.21a0,0,0,0,1,0,0s-.18.15,0,.2c-.49-.12-1,.46-1.42.35-.25.13-.55.29-.78.39,0,0,0,0,0-.06-.35,0-.1.34-.5.39s.16-.16,0-.17c-.16-.28-.43.21-.74.11l0,0c-.22,0-.42.27-.75.35,0,0,0,0,0-.05a2.18,2.18,0,0,1-.87.51c.07-.15.13-.1,0-.21-.13,0,.09.19-.18.29-.11-.05-.32-.07-.37-.2l.26-.06c-.17-.14-.33.08-.47.06v-.08c-.37.07-.37.27-.78.24l0,.07c-.25.17-.17-.13-.42,0v-.21a1.28,1.28,0,0,1-.76-.15,5.22,5.22,0,0,0,.67,0c-.12,0-.38-.18-.49-.14,0,0,.14,0,.16.06a.64.64,0,0,1-.65-.27c.16-.1.07-.26,0-.45s-.2-.43-.1-.58c-.33-.44-.28-1-.51-1.67-.21.33-.08-.18-.35,0-.07-.14-.09-.2-.08-.22a4.61,4.61,0,0,0,0-.52c0-.15.13.12.19.08-.14-.35.05-.2,0-.47-.07.1-.2,0-.28-.26l0,.34c-.41-.37,0-.55-.52-.9l.2.08c-.22-.22-.84-.78-1.21-.67,0-.06,0-.16.07-.12-.61-.39-1.47-.26-1.93-.43l0-.07c-.12,0-.22.12-.36,0s0-.08,0-.08a1.36,1.36,0,0,1-.48.11l.13-.1c-.65-.05-.94.33-1.39.52-.06-.21-.54-.12-.78-.06v0a5.08,5.08,0,0,0-1.49,1.09c-.46,0-1.15.63-1.72.84.1,0,.08.16,0,.23s-.24.34-.33.16l0,0c-.19-.11-.41.09-.6.2l.1.25c-.7,0-1.25.92-1.71.78-.09.12-.25.21-.34.33l-.06-.12a5.71,5.71,0,0,0-1,.48l0-.13c-.25.11-.13.52-.35.64l-.16-.16c-.44.22-.95.26-1.31.63a.14.14,0,0,1,0-.14c-.2.09-.85.23-.66.46-.08-.17-.47.18-.68.35V172c-.14.25-.13.3-.4.46-.07,0-.1-.08,0-.08-.26,0-.13.19-.43.23l.07-.13c-.24.08-.2.12-.3.26s-.45.14-.53,0a.31.31,0,0,1-.25.24s0-.09,0-.11c-.42.05-.52.35-.84.29a.11.11,0,0,0-.06-.07,4,4,0,0,1,.54-.13c-.05-.12-.29-.07-.15-.3-.16.15-.45.45-.71.44l0,0,0,0a.3.3,0,0,0-.15.05,1.33,1.33,0,0,0-.2,0c0-.1-.29,0-.42,0,0,.14-.14.13,0,.23l.1,0,0,0h0l.31,0a.29.29,0,0,1-.34.1,1.75,1.75,0,0,1-.15.24c-.2-.17-.53-.27-.58-.39-.38.08-.83,0-1.13.15-.12,0-.09-.11-.11-.16s.13,0,.17,0c-.23,0-.54-.21-.68-.09-.16-.22.21-.06-.08-.24h.07a2.11,2.11,0,0,0-.57-.65.83.83,0,0,1-.16-1s0,.08-.07.1a8.84,8.84,0,0,1,.6-2.92c.13-.25,0-.31,0-.5h.16l-.07-.33c0-.44.58-.53.57-1.1l-.12,0c.1-.16.2-.56.29-.48s-.06-.1,0-.15l.07,0,.1-.47c.22-.29.24.19.51-.24.07-.18.09-.59,0-.55s-.15.14-.22.1l.06-.17c-.18-.15-.3-.41-.68-.1l0,.34-.14,0,.12-.24c-.16.08-.13.21-.13.34a.22.22,0,0,0-.17,0l0,.38c-.09,0-.09-.21-.23,0,0,.18.24,0,.19.21-.16.09-.22,0-.22.21-.06,0-.08-.05-.07-.13,0,.18-.16.4-.08.52-.18.1-.18.51-.37.41a1,1,0,0,1,0,.46c-.16-.34-.21.51-.44.35.15.27-.13.72-.09,1.1,0,0,0-.07,0-.1a1.05,1.05,0,0,1-.23.34c.18.07.16.38.24.56-.23.2-.19-.19-.38-.15.15,0,.07.45.22.39-.16.16-.09.15-.27.21.24.08,0,.18.14.35-.16.25-.24,0-.2.34C79.71,170.53,79.66,170.25,79.66,170.25Zm5.16,3.7h0l-.14,0Zm.57-.15-.24.07c0-.05,0-.1,0-.11S85.3,173.79,85.39,173.8ZM84,173.1c.08,0,.11,0,.12,0l-.14,0v0A.14.14,0,0,1,84,173.1Z"/><path class="cls-7" d="M83.91,173.3h0l.05,0,0-.05Z"/><path class="cls-7" d="M127.65,171.74h0Z"/><polygon class="cls-7" points="92.75 170.85 92.73 170.82 92.71 170.87 92.75 170.85"/><path class="cls-7" d="M130.76,171.36l.05,0Z"/><path class="cls-7" d="M132.06,171.13l.2,0A.83.83,0,0,0,132.06,171.13Z"/><path class="cls-7" d="M133.08,171.07a.13.13,0,0,0,0-.06h0Z"/><path class="cls-7" d="M118.68,169.06h0C118.56,169.13,118.62,169.1,118.68,169.06Z"/><path class="cls-7" d="M122.5,169.87l-.13-.1C122.4,169.84,122.43,169.9,122.5,169.87Z"/><polygon class="cls-7" points="113.72 171.2 113.72 171.19 113.69 171.21 113.72 171.2"/><path class="cls-7" d="M122.25,169.57a.34.34,0,0,0,.12.2A.51.51,0,0,0,122.25,169.57Z"/><path class="cls-7" d="M137.41,171.44l.05,0s0,0,0,0Z"/><path class="cls-7" d="M137.47,171.44h.05S137.48,171.42,137.47,171.44Z"/><path class="cls-7" d="M137.64,171.42h-.12S137.61,171.46,137.64,171.42Z"/><path class="cls-7" d="M136.11,171.14l0,.05A.08.08,0,0,0,136.11,171.14Z"/><path class="cls-7" d="M135.7,171.11c.1,0,.23.13.37.12l0,0C136,171.25,135.81,171,135.7,171.11Z"/><path class="cls-7" d="M134,170.41l.36,0c-.06-.06-.15-.13,0-.14C133.92,170.14,134.47,170.43,134,170.41Z"/><path class="cls-7" d="M132.89,170.39c.19,0,0-.08,0-.11S132.75,170.36,132.89,170.39Z"/><path class="cls-7" d="M125.33,171.77l0-.12C125.24,171.64,125.35,171.69,125.33,171.77Z"/><path class="cls-7" d="M123.7,171.74l.08.17.13-.06A1.06,1.06,0,0,1,123.7,171.74Z"/><polygon class="cls-7" points="123.79 170.5 123.83 170.54 123.67 170.39 123.79 170.5"/><path class="cls-7" d="M111.83,170.67l.11.13C112,170.73,112,170.56,111.83,170.67Z"/><path class="cls-7" d="M106.63,172.32c0-.08-.17-.15-.26-.09C106.47,172.26,106.57,172.33,106.63,172.32Z"/><polygon class="cls-7" points="93.41 169 93.48 168.89 93.32 169.04 93.41 169"/><path class="cls-8" d="M78.65,199.3c0,2.47,0,4.62,0,6.75"/><path class="cls-8" d="M75.68,202.55l5.94.12"/><path class="cls-4" d="M87.71,94.32c-5.89,7.9-8.1,19-3.32,27.58a29.46,29.46,0,0,0,6.28,7.57A43.74,43.74,0,0,0,103,137.23a24.86,24.86,0,0,0,12.28,2.14,26.83,26.83,0,0,0,5.82-1.52,38.74,38.74,0,0,0,11.45-6.28A23.52,23.52,0,0,0,140.09,121a36.26,36.26,0,0,0,1.31-6.54c.65-5.13,1.06-10.47-.68-15.33a21.67,21.67,0,0,0-11.64-12C123.86,84.72,100.93,76.61,87.71,94.32Z"/><g class="cls-22"><path class="cls-18" d="M102.77,94.76a136.35,136.35,0,0,0-9.52,27.72,131.17,131.17,0,0,0,19,2.76,1.87,1.87,0,0,0,2.37-1.45,120.23,120.23,0,0,0,7.62-28.87,1.53,1.53,0,0,0-.06-.9,1.48,1.48,0,0,0-.91-.62A24.38,24.38,0,0,0,101.94,95"/><path class="cls-4" d="M104,97.31A19.41,19.41,0,0,1,100,108.8c-.24.31-.51.72-.31,1.07s.44.32.69.44c1.08.55,1.17,2,1.54,3.16.82,2.55,3.58,4.12,6.25,4.17a9.65,9.65,0,0,0,3.4-.58s.29,7.56-4.34,13l3.87,9.89,5.47-1.68,4-5.59s-4.59-3.44-2.09-19.75,8.67-16.39,8.67-16.39l-19.34-3.74Z"/><path class="cls-6" d="M104,97.31a19.27,19.27,0,0,1-1.5,7.18,18.83,18.83,0,0,1-1.73,3.26c-.32.52-.76,1-1,1.51a.53.53,0,0,0,.11.72,7.28,7.28,0,0,1,.8.44,3,3,0,0,1,.94,1.62,18.08,18.08,0,0,0,.52,1.76,5.78,5.78,0,0,0,2.37,2.64,7.25,7.25,0,0,0,3.42,1,9.38,9.38,0,0,0,3.55-.57l.25-.09v.26a22.55,22.55,0,0,1-1,6.93,17.88,17.88,0,0,1-3.29,6.21l0-.29.23.58,3.62,9.33-.31-.15,5.47-1.66-.12.08,4-5.58,0,.3a9.37,9.37,0,0,1-2.21-4.56,25.23,25.23,0,0,1-.63-5,52.79,52.79,0,0,1,.68-10,46.3,46.3,0,0,1,2.42-9.69,19.26,19.26,0,0,1,2.39-4.39,6.66,6.66,0,0,1,4.06-2.81l0,.16-19.32-3.8h0L104,97.31l3.74-4.56h0l19.34,3.68.56.1-.57.06a4.57,4.57,0,0,0-2.19,1,9.25,9.25,0,0,0-1.71,1.77,18.88,18.88,0,0,0-2.34,4.36,46.14,46.14,0,0,0-2.34,9.64,51.46,51.46,0,0,0-.61,9.91,25.11,25.11,0,0,0,.65,4.9,9.25,9.25,0,0,0,2.08,4.31l.15.14-.1.15-4,5.61,0,.06-.07,0-5.46,1.7-.23.07-.08-.22-3.67-9.31-.23-.57-.06-.16.11-.13a20.08,20.08,0,0,0,4.36-12.76l.25.17a9.63,9.63,0,0,1-3.69.55,7.56,7.56,0,0,1-3.55-1.11,6,6,0,0,1-2.44-2.79,17.16,17.16,0,0,1-.51-1.79,2.82,2.82,0,0,0-.84-1.53c-.22-.19-.52-.26-.8-.45a.7.7,0,0,1-.15-.94c.33-.55.75-1,1.08-1.51a18.89,18.89,0,0,0,1.76-3.21A19.32,19.32,0,0,0,104,97.31Z"/><path class="cls-18" d="M106.79,85.23a19.9,19.9,0,0,1,10.8-1.93,14.24,14.24,0,0,1,9.21,6,32.15,32.15,0,0,1,4.51,10.29,86.83,86.83,0,0,1,3.15,26A93.5,93.5,0,0,1,117,127.79c-.14-6.63,2.11-20.79,3-26.23.72-.1.19-.15,2.35-1.32a6.23,6.23,0,0,1-2.11,0c-7.48,0-13.86-1.16-20.64-5.12C99.57,95.09,101.83,87.68,106.79,85.23Z"/><path class="cls-6" d="M111.51,117a22,22,0,0,1-.32,5.11,22,22,0,0,1-4.84,8.92,21.48,21.48,0,0,0,4.28-9.06A21.32,21.32,0,0,0,111.51,117Z"/><path class="cls-6" d="M104,97.31a19.62,19.62,0,0,1-3.22,10.8c-.49.76-1.54,1.61-.6,1.88a2.15,2.15,0,0,1,1.13,1.05,5.7,5.7,0,0,1,.47,1.39,6,6,0,0,0,1,2.52,6.32,6.32,0,0,0,2.11,1.76,7.81,7.81,0,0,0,5.44.6,14.48,14.48,0,0,0,5.09-2.38,14.88,14.88,0,0,1-5,2.52,8,8,0,0,1-5.61-.49,6.65,6.65,0,0,1-2.26-1.79,6.3,6.3,0,0,1-1.18-2.64c-.24-.89-.54-1.81-1.39-2.09a1,1,0,0,1-.66-.6,1.06,1.06,0,0,1,.17-.88c.29-.46.56-.77.82-1.18A19.3,19.3,0,0,0,104,97.31Z"/><path class="cls-6" d="M102.77,112.61a5.78,5.78,0,0,0,2.32.88,6.13,6.13,0,0,0,4.83-.36,6.42,6.42,0,0,1-5,.91A6.31,6.31,0,0,1,102.77,112.61Z"/><path class="cls-6" d="M107.6,103.55a2.55,2.55,0,0,0-.37,1.21.87.87,0,0,0,.76.88,1,1,0,0,0,.81-.54,1.61,1.61,0,0,0,.3-1.44.85.85,0,0,0-1.24-.42"/><path class="cls-6" d="M105.88,128.68a10.74,10.74,0,0,0,4.44,2.92,10.56,10.56,0,0,0,10.22-1.07,10.84,10.84,0,0,1-10.43,1.6A11.05,11.05,0,0,1,105.88,128.68Z"/><path class="cls-23" d="M121.69,103.43c.12,2,.16,4,.11,6a75.22,75.22,0,0,1-2,11.86,74.74,74.74,0,0,0,1.49-11.9Q121.59,106.45,121.69,103.43Z"/><path class="cls-23" d="M123.66,102.44c.31,2.45.52,4.92.6,7.39a80.66,80.66,0,0,1-1.68,14.71,80.74,80.74,0,0,0,1.12-14.71C123.81,107.37,123.78,104.91,123.66,102.44Z"/><path class="cls-23" d="M114.3,85a7.19,7.19,0,0,0-3.87,1.29A17.64,17.64,0,0,0,104,91.39a18,18,0,0,1,6.22-5.6A7.45,7.45,0,0,1,114.3,85Z"/><path class="cls-23" d="M115.53,85.29a11.56,11.56,0,0,0-2.65,3.32,16.93,16.93,0,0,0-2.67,8,17.2,17.2,0,0,1,2.19-8.34A12,12,0,0,1,115.53,85.29Z"/><path class="cls-23" d="M112.33,86.67c-.66.23-1,.87-1.46,1.37s-.81,1.09-1.18,1.66a21.21,21.21,0,0,0-3.77,7.16,21.58,21.58,0,0,1,3.32-7.5,20.28,20.28,0,0,1,1.42-1.51A4,4,0,0,1,112.33,86.67Z"/><path class="cls-23" d="M116.25,86a2.66,2.66,0,0,0-.64,1.63c0,.59-.08,1.21-.1,1.81a48.23,48.23,0,0,0-.57,7.21,47.82,47.82,0,0,1,0-7.28c.12-.6.23-1.19.39-1.79A2.73,2.73,0,0,1,116.25,86Z"/><path class="cls-23" d="M117.92,85.74a18.64,18.64,0,0,1,1.45,3.58,19.17,19.17,0,0,1-.21,7.66,18.75,18.75,0,0,0-.35-7.54A18.46,18.46,0,0,0,117.92,85.74Z"/><path class="cls-23" d="M119.16,85.5A3.86,3.86,0,0,1,120.8,87c.41.65.75,1.32,1.09,2a25.93,25.93,0,0,1,1.69,8.85,25.55,25.55,0,0,0-2.21-8.63c-.25-.7-.51-1.41-.82-2.08A3.74,3.74,0,0,0,119.16,85.5Z"/><path class="cls-23" d="M121.64,86.14c.37-.1.71.18,1,.42s.5.51.74.77q.73.78,1.41,1.62a33.19,33.19,0,0,1,3.79,7.64,32.92,32.92,0,0,0-4.25-7.31q-.56-.9-1.17-1.77c-.2-.29-.42-.57-.63-.85S122,86.09,121.64,86.14Z"/><path class="cls-23" d="M127.08,101.38a79.21,79.21,0,0,1,1.34,7.84,78.56,78.56,0,0,1-.58,15.86,77.45,77.45,0,0,0,0-15.82A77.53,77.53,0,0,0,127.08,101.38Z"/><path class="cls-23" d="M129.59,102.27c.6,2.18,1.13,4.38,1.56,6.6a87.53,87.53,0,0,1,.71,13.53A86.38,86.38,0,0,0,130.58,109C130.34,106.72,130,104.49,129.59,102.27Z"/><path class="cls-23" d="M99.27,111.93a19.93,19.93,0,0,0-.87,3.44,21.33,21.33,0,0,0-.83,7,21.55,21.55,0,0,1,.28-7.16A20.24,20.24,0,0,1,99.27,111.93Z"/><path class="cls-23" d="M101.08,114.06a16.19,16.19,0,0,0-.19,2.19,16.74,16.74,0,0,0-.36,4.36,16.48,16.48,0,0,1-.2-4.44A16.48,16.48,0,0,1,101.08,114.06Z"/><path class="cls-23" d="M103.32,116.54a6.39,6.39,0,0,0-.27,2,16.57,16.57,0,0,0-.1,4.11,16.57,16.57,0,0,1-.46-4.17A6.69,6.69,0,0,1,103.32,116.54Z"/><path class="cls-23" d="M106.19,118.17a6.26,6.26,0,0,0-.1,1.61,6.14,6.14,0,0,0,.16,3.15,6.51,6.51,0,0,1-.72-3.22A6.22,6.22,0,0,1,106.19,118.17Z"/><path class="cls-23" d="M108.84,118.1a6.17,6.17,0,0,0-.07,1.48,6.23,6.23,0,0,0,.06,2.91,6.5,6.5,0,0,1-.62-3A6.26,6.26,0,0,1,108.84,118.1Z"/><path class="cls-24" d="M105.11,128.06c-8.55,2-13.76,11.23-22.14,13.82-4.75,1.47-9.84.05-14.57-1.47-4.12-1.32-7.82-3.15-10.67-6.42l-2.41,2.32c6.58,3.07,11.53,9.87,18.46,12.06,6.21,1.95,12.88-.27,19-2.42-.83,4.71-6.46,9.36-7.69,14-.9,3.38,1.33,5.89,3.89,8.28-.73,3.37-2.12,6.83-2.82,10.21-.66,3.22-13.3,5.78-18.77,7.11a9.85,9.85,0,0,1,.31,5.22q9-1.23,17.94-3a235.91,235.91,0,0,1-9.78,35.09c9.39,4.23,19.92,5.46,30.22,5s20.45-2.46,30.56-4.47c-1.43-25.13-5-50.06-7.79-75.06-1.75-15.44-8-17.85-8-17.85a23,23,0,0,1-3.25,1.77,11.89,11.89,0,0,1-12.64-4.18Z"/><path class="cls-11" d="M103.18,101.81a1.21,1.21,0,0,0-.8-1.39,1.63,1.63,0,0,0-1.52.11,2.92,2.92,0,0,0-.73,1.46,5,5,0,0,0-.16,1.76,1.72,1.72,0,0,0,.86,1.43,1,1,0,0,0,1.43-.59,1.07,1.07,0,0,1-1.49.72,2,2,0,0,1-1.08-1.52,5.51,5.51,0,0,1,0-1.9A6,6,0,0,1,100,101a1.93,1.93,0,0,1,.56-.89,1.56,1.56,0,0,1,1-.21,2.24,2.24,0,0,1,.94.29A1.37,1.37,0,0,1,103.18,101.81Z"/><path class="cls-11" d="M103,103.43c-.1,0-.23-.11-.16-.27a.51.51,0,0,1,.31-.27.93.93,0,0,1,.73.73.64.64,0,0,0-.72-.17s-.06-.09-.1-.12S103,103.36,103,103.43Z"/><path class="cls-11" d="M108.11,100.88a4.78,4.78,0,0,1,1.59.73,2.92,2.92,0,0,1,.9,1.54,4.51,4.51,0,0,1-.59,3.53,3.4,3.4,0,0,1-3.32,1.33,2.79,2.79,0,0,1-2.28-2.58A7.09,7.09,0,0,1,105,102a2.36,2.36,0,0,1,1.39-1,2.54,2.54,0,0,1,1.72,0,2.54,2.54,0,0,0-1.7.09,2.3,2.3,0,0,0-1.29,1.06,7,7,0,0,0-.43,3.36,2.56,2.56,0,0,0,.67,1.48,2.6,2.6,0,0,0,1.41.73,2.92,2.92,0,0,0,2.78-1.26,4.06,4.06,0,0,0,.77-3.13,2.61,2.61,0,0,0-.71-1.49A5,5,0,0,0,108.11,100.88Z"/><path class="cls-11" d="M110.37,104.58c2.09-.25,4.2-.45,6.31-.6s4.22,0,6.33.15l1.58.08a2.38,2.38,0,0,1,.81.12,1.19,1.19,0,0,1,.5.66,4.18,4.18,0,0,1,.09,3.11,4.13,4.13,0,0,0-.21-3,1.13,1.13,0,0,0-.46-.56,2.45,2.45,0,0,0-.74-.07H123q-3.16,0-6.31.14Q113.54,104.49,110.37,104.58Z"/><path class="cls-4" d="M124,105a1.28,1.28,0,0,1,1.45.07,1.06,1.06,0,0,1,.37.39,1.38,1.38,0,0,1,.13.72,3.66,3.66,0,0,1-1.22,2.71c-.09.08-.21.16-.32.11a.32.32,0,0,1-.13-.13,2.1,2.1,0,0,1-.21-1l-.1-2.88"/></g><path class="cls-16" d="M87.71,94.32c-5.89,7.9-8.1,19-3.32,27.58a29.46,29.46,0,0,0,6.28,7.57A43.74,43.74,0,0,0,103,137.23a24.86,24.86,0,0,0,12.28,2.14,26.83,26.83,0,0,0,5.82-1.52,38.74,38.74,0,0,0,11.45-6.28A23.52,23.52,0,0,0,140.09,121a36.26,36.26,0,0,0,1.31-6.54c.65-5.13,1.06-10.47-.68-15.33a21.67,21.67,0,0,0-11.64-12C123.86,84.72,100.93,76.61,87.71,94.32Z"/><circle class="cls-9" cx="53.09" cy="234.83" r="3.83"/><path class="cls-6" d="M50.44,233.47l3.23,2.78h-.31l.77-.93a60.51,60.51,0,0,1,8.37-7.06,60.9,60.9,0,0,0-8,7.44l-.86.85-.18.16-.14-.15Z"/></svg>