<svg id="Layer_1" data-name="Layer 1" xmlns="http://www.w3.org/2000/svg" xmlns:xlink="http://www.w3.org/1999/xlink" viewBox="0 0 366 304"><defs><style>.cls-1,.cls-7{fill:#fff;}.cls-1,.cls-14{stroke:#1776ff;stroke-miterlimit:10;}.cls-2{fill:#f3faff;}.cls-3{opacity:0.32;}.cls-4{fill:#2196f3;}.cls-5{fill:#d4e8ff;}.cls-6{fill:#1776ff;}.cls-8{clip-path:url(#clip-path);}.cls-9{fill:#e76548;}.cls-10{fill:#004d7d;}.cls-11{fill:#7a2118;}.cls-12{opacity:0.47;}.cls-13{fill:#843528;}.cls-14{fill:none;}.cls-15{fill:#7d8996;}.cls-16{fill:#82abd1;}.cls-17{fill:#e2cf64;}.cls-18{fill:#d478ea;}.cls-19{fill:#61ce7d;}.cls-20{fill:#28d150;}.cls-21{fill:#6e7f7f;}.cls-22{fill:#eaeff4;}.cls-23{fill:#e2eef2;}.cls-24{fill:#f0d050;}.cls-25{fill:#42c671;}.cls-26{fill:#35495e;}.cls-27{fill:#60d2e2;}.cls-28{fill:#308ff0;}.cls-29{fill:#e549a3;}.cls-30{fill:#14bc9b;}</style><clipPath id="clip-path"><path class="cls-1" d="M27,146.62c-9,12-12.34,28.89-5.05,42a45.08,45.08,0,0,0,9.56,11.54A66.72,66.72,0,0,0,50.36,212c5.91,2.44,12.34,4,18.69,3.25a39.46,39.46,0,0,0,8.86-2.31,58.92,58.92,0,0,0,17.45-9.57,35.79,35.79,0,0,0,11.43-16.08,53.42,53.42,0,0,0,2-10c1-7.8,1.62-15.94-1-23.35C104.83,145.73,98,139.22,90,135.61S47.15,119.65,27,146.62Z"/></clipPath></defs><title>VyteAPI-Webhooks</title><path class="cls-2" d="M161.12,65.08c-10.85.29-21,5.52-29.84,11.77a126.31,126.31,0,0,0-41,48.68c-2.64,5.56-4.89,11.39-5.61,17.5s.2,12.57,3.51,17.75c5,7.79,14.62,11.58,23.85,11.75,12.93.24,25.16-5.53,36.52-11.71,22.65-12.33,45.08-27.87,56.54-51,3.94-7.92,6.48-16.81,5.44-25.6s-6.14-17.4-14.19-21.06c-4.26-1.93-9-2.41-13.72-2.47A86.53,86.53,0,0,0,157.73,64"/><path class="cls-2" d="M268.91,86.22a23.43,23.43,0,0,0,15-18.2c.58-3.84-.05-8.24-3-10.74a12.44,12.44,0,0,0-6.9-2.4c-7.52-.73-15.07,1.16-22.09,3.95a78.46,78.46,0,0,0-19.73,11.26,29.35,29.35,0,0,0-7.07,7.47,9.31,9.31,0,0,0-1.55,6.59,8.2,8.2,0,0,0,2.21,3.9c3.11,3.26,7.8,4.63,12.3,4.64s8.91-1.18,13.25-2.37L269,85.48"/><path class="cls-2" d="M130,191.77c-6,6.27-12.19,12.65-16.2,20.39s-5.68,17.14-2.38,25.2c3.14,7.65,10.37,13.09,18.23,15.65s16.32,2.57,24.55,1.83a242.78,242.78,0,0,0,27.19-4.39c25.28-5.23,50.82-11.94,72.48-26S293,187.83,295.07,162.1c.55-6.77-.07-13.93-3.71-19.65-3.54-5.55-9.61-9.15-16-10.73s-13.09-1.32-19.61-.46c-29.11,3.85-66.87,9.65-90.25,27.42C153.41,167.88,130,191.77,130,191.77Z"/><g class="cls-3"><polygon class="cls-4" points="277.97 55.41 275.8 61.49 301.89 28.49 301.89 28.49 277.97 55.41"/><polygon class="cls-5" points="289.89 64.49 265.89 46.49 301.89 28.49 289.89 64.49"/><path class="cls-6" d="M289.89,64.49c-7.85-5.61-16.2-11.15-24.71-17l-1.53-1.06,1.71-.94,5.32-2.93,30.87-14.68,1.64-.78-.6,1.68c-4.3,12.13-8.64,24-12.7,35.76,3.94-12.25,7.59-24.37,11.29-36.23l1,.9L272,45.05l-5.54,2.5.19-2C274.08,51.65,281.73,58.11,289.89,64.49Z"/><polygon class="cls-6" points="277.97 55.41 276.13 61.61 275.81 62.66 275.48 61.58 272.6 52.35 272.45 51.88 272.89 51.48 280.9 44.25 298.36 30.84 299.52 32.04 277.97 55.41 298.26 30.94 299.42 32.14 282.69 46.45 273.96 52.8 274.24 51.93 276.13 61.41 275.48 61.38 277.97 55.41"/></g><g class="cls-3"><polygon class="cls-4" points="78.29 78.11 78.44 84.56 91.01 44.42 91.01 44.42 78.29 78.11"/><polygon class="cls-5" points="92.67 82.33 63.82 74.1 91.01 44.42 92.67 82.33"/><path class="cls-6" d="M92.67,82.33c-9.34-2.44-19.11-4.63-29.17-7.1l-1.81-.44L63,73.3l3.92-4.63L90.46,43.92l1.25-1.31.05,1.78c.31,12.87.5,25.52.91,37.94-.7-12.85-1.62-25.47-2.4-37.88l1.29.48L69,70.58l-4.27,4.31L64.14,73C73.31,76,82.77,79.28,92.67,82.33Z"/><polygon class="cls-6" points="78.29 78.11 78.78 84.56 78.87 85.65 78.17 84.76 72.18 77.17 71.87 76.78 72.14 76.26 77.04 66.64 88.56 47.88 90.07 48.59 78.29 78.11 88.5 48.01 90.01 48.72 79.5 68.06 73.61 77.11 73.57 76.19 78.72 84.37 78.1 84.57 78.29 78.11"/></g><path class="cls-7" d="M27,146.62c-9,12-12.34,28.89-5.05,42a45.08,45.08,0,0,0,9.56,11.54A66.72,66.72,0,0,0,50.36,212c5.91,2.44,12.34,4,18.69,3.25a39.46,39.46,0,0,0,8.86-2.31,58.92,58.92,0,0,0,17.45-9.57,35.79,35.79,0,0,0,11.43-16.08,53.42,53.42,0,0,0,2-10c1-7.8,1.62-15.94-1-23.35C104.83,145.73,98,139.22,90,135.61S47.15,119.65,27,146.62Z"/><g class="cls-8"><path class="cls-9" d="M82.88,197.7c0-.11,0-.23,0-.35A.47.47,0,0,1,82.88,197.7Z"/><path class="cls-9" d="M82.74,197.18h.16a1,1,0,0,0,0,.17A.26.26,0,0,0,82.74,197.18Z"/><path class="cls-9" d="M38.57,227.8a27.66,27.66,0,0,1-6.93-1.5c-3-1.22-6.08-4-8.5-6.19C16.55,214,10.8,207.42,4.58,201c-.53-.55,2.37-3.56,5-5.09v.33a114.39,114.39,0,0,0,21.82,14.71,33.36,33.36,0,0,0,9,3.47c8.46,1.59,16.84-2.5,24.47-6.47l.51.31a22.18,22.18,0,0,1,.88-8.18,1.53,1.53,0,0,1,.52-.88,1.57,1.57,0,0,1,.71-.16L82,198.08a1.18,1.18,0,0,0,.76-.23.42.42,0,0,0,.11-.15q-.28,5.81,0,11.62L83,209c2.8,1.09,5.65,2.4,7.61,4.69,2.49,2.91,3.14,6.92,3.67,10.71a730.08,730.08,0,0,1,7,107,128.14,128.14,0,0,1-55.3.5l-4.13-1.71c-.92-13.51-.26-33.51,1.87-53.13-9.43-1.42-40.16-6-40.57-6.2s2.32-10.44,2.32-10.44,31.19,3.38,40.07,2.45C47.45,249.89,50,237.91,53.26,229c.16,0-4.44.39-4.44.39C45.68,229,41.7,228.21,38.57,227.8Z"/><path class="cls-10" d="M79.93,184.21c1.67-5.74,7.33-9.24,10.77-14.13a19.4,19.4,0,0,0,1.85-19,35.71,35.71,0,0,0-5-7.26,23.39,23.39,0,0,0-4.17-4.32A16.29,16.29,0,0,0,76,136.75a25.65,25.65,0,0,0-13.83,2c-3.42,1.53-6.62,3.85-10.34,4.29-2.8.32-6.19-.23-7.91,2a5.46,5.46,0,0,0-1,3.28,11.42,11.42,0,0,0,9.27,11c2.79.45,14,.87,15.58,3.2.79,1.15.84,2.64,1.25,4s1.56,2.71,2.94,2.45a3.64,3.64,0,0,0,2-1.51l4.09-5a4.25,4.25,0,0,1,1.89-1.58c1.58-.49,3.18,1,3.51,2.66s-.19,3.29-.47,4.92C81.91,174.49,79.93,184.21,79.93,184.21Z"/><path class="cls-6" d="M78.78,181.43c-.33,2.21-.66,4.41-.86,6.61a30.94,30.94,0,0,0-.57,13.13,31.51,31.51,0,0,1-.54-13.33C77.39,185.67,78.08,183.55,78.78,181.43Z"/><path class="cls-6" d="M67.79,197a39.85,39.85,0,0,0,.43-4.34,40.19,40.19,0,0,0,1.15-8.57,40.83,40.83,0,0,1,0,8.77A38.63,38.63,0,0,1,67.79,197Z"/><path class="cls-6" d="M52.69,171.56a4.07,4.07,0,0,0-.25,2.59,3.85,3.85,0,0,0,1.1,2.24,11.36,11.36,0,0,0,2.06,1.91,11.83,11.83,0,0,1-2.46-1.5,4.67,4.67,0,0,1-1.82-2.5A4.57,4.57,0,0,1,52.69,171.56Z"/><path class="cls-6" d="M46,158.4a27.45,27.45,0,0,1,.12,3.95v4a70.36,70.36,0,0,0,.45,7.84,29.81,29.81,0,0,0,1.35,7.64,10.22,10.22,0,0,0,4.49,6A24.43,24.43,0,0,0,56.1,189a16.2,16.2,0,0,0,3.81.82,5.73,5.73,0,0,0,3.67-1,9.21,9.21,0,0,1,3.5-1.77A9.3,9.3,0,0,0,63.66,189a5.88,5.88,0,0,1-3.76,1.18,15.74,15.74,0,0,1-3.92-.7l-1.9-.51a9.68,9.68,0,0,1-1.91-.68,8.79,8.79,0,0,1-3.1-2.61,14.31,14.31,0,0,1-1.93-3.56,31.11,31.11,0,0,1-1.68-7.83,70.17,70.17,0,0,1,.11-8l.3-3.95A27.34,27.34,0,0,0,46,158.4Z"/><path class="cls-6" d="M76.43,166.31a1.4,1.4,0,0,1,1.83-.46,3.21,3.21,0,0,1,1.47,1.53,4.67,4.67,0,0,1-.76,3.9,7.41,7.41,0,0,1-3,2.34A7.22,7.22,0,0,0,78.49,171a3.91,3.91,0,0,0,.17-3.25,2.4,2.4,0,0,0-.7-1.41A1.12,1.12,0,0,0,76.43,166.31Z"/><path class="cls-6" d="M53.73,180.93a35.79,35.79,0,0,0,6.7-1.42c1.07-.19,2.12-.44,3.17-.72l.48-.14.08.46a2.6,2.6,0,0,1-.26,1.51,9.19,9.19,0,0,1-.68,1.19,10.93,10.93,0,0,1-1.73,2,11.48,11.48,0,0,1-4.56,2.62,11.24,11.24,0,0,0,4.25-2.92,10.53,10.53,0,0,0,1.49-2.08,3.48,3.48,0,0,0,.64-2.19l.56.33c-1,.38-2.11.72-3.19,1A37.71,37.71,0,0,1,53.73,180.93Z"/><path class="cls-6" d="M61.54,165.32a6.28,6.28,0,0,1,.23,4.21c0,.09-.07.2-.17.21s-.13,0-.19-.07a2.71,2.71,0,0,1-.95-2.23,4.22,4.22,0,0,1,.92-2.3,4.37,4.37,0,0,0,.64.65"/><path class="cls-6" d="M49.32,165.32a6.28,6.28,0,0,1,.23,4.21c0,.09-.08.2-.17.21a.23.23,0,0,1-.19-.07,2.68,2.68,0,0,1-.95-2.23,4.22,4.22,0,0,1,.92-2.3,4.84,4.84,0,0,0,.63.65"/><path class="cls-6" d="M6.32,192.87A58,58,0,0,0,2.25,188c-.6-.86-1.23-1.7-1.88-2.53a4.23,4.23,0,0,0-2.22-1.85,14.28,14.28,0,0,0-3.1.14l-3.17.31,3.13-.59,1.57-.29A5.27,5.27,0,0,1-1.77,183a3.08,3.08,0,0,1,1.6.71A10.68,10.68,0,0,1,1,184.89c.74.78,1.45,1.58,2.14,2.4A59.22,59.22,0,0,1,6.32,192.87Z"/><path class="cls-6" d="M-6.81,186.33a17.65,17.65,0,0,0-18.44-6.1l.32-.73a2.32,2.32,0,0,0,1.76,1c1.14.23,2.47.13,3.82.38a12.15,12.15,0,0,1,3.78,1.32,12.66,12.66,0,0,1,5.44,5.68l.22.47-.5.07c-1.54.2-2.75-.67-3.91-.93a3.1,3.1,0,0,0-1.74.1,1.21,1.21,0,0,0-.78,1.25,2,2,0,0,0,.91,1.41,6.86,6.86,0,0,0,1.72.76c1.24.42,2.48.87,3.7,1.35a86.71,86.71,0,0,1,14.05,7,87.51,87.51,0,0,0-14.18-6.63c-1.23-.44-2.47-.86-3.71-1.25a6.88,6.88,0,0,1-1.87-.78,2.62,2.62,0,0,1-1.19-1.77,1.81,1.81,0,0,1,1.1-1.88,3.6,3.6,0,0,1,2.12-.19c1.36.3,2.52,1,3.66.83l-.29.54A11.69,11.69,0,0,0-16,183a10.93,10.93,0,0,0-3.51-1.13c-1.2-.21-2.48-.06-3.87-.3a4.61,4.61,0,0,1-1.36-.51A2.79,2.79,0,0,1-25.82,180l-.3-.59.62-.14A18.16,18.16,0,0,1-6.81,186.33Z"/><path class="cls-11" d="M80,226.53c.36.17.63-.21.74-.49a4.54,4.54,0,0,0,.18-1,8,8,0,0,0-.12-2,8.14,8.14,0,0,0-1.65-3.57,7.28,7.28,0,0,0-2.83-2.62,7.51,7.51,0,0,0-3.86-.78,7.66,7.66,0,0,0-6.6,4.15,8,8,0,0,1,6.55-4.72,8.27,8.27,0,0,1,4.27.58,8.45,8.45,0,0,1,3.41,2.75A9.23,9.23,0,0,1,81.34,223a9,9,0,0,1-.17,2.14,5.19,5.19,0,0,1-.33,1,1.29,1.29,0,0,1-.36.41A.44.44,0,0,1,80,226.53Z"/><path class="cls-11" d="M3.36,271.55a34,34,0,0,1,2.73-11.68l.06-.15.17,0a193,193,0,0,0,20.06,2q9.27.69,18.57.49l-.34.2.75-1.22,0,0q9.39-20.13,20.44-39.42-10.7,19.46-19.73,39.75h0v0l-.72,1.24-.11.19H45c-6.21.24-12.45.19-18.66-.17a190.53,190.53,0,0,1-20.07-2.74l.23-.12A34,34,0,0,0,3.36,271.55Z"/><path class="cls-11" d="M52.78,277.32c-5.06-.36-10.12-.78-15.18-1.29q-15-2.34-29.93-5.54,15,2.63,30.09,4.42C42.75,275.79,47.76,276.58,52.78,277.32Z"/><polygon class="cls-11" points="76.68 240.38 69.17 252.6 53.08 275.57 53.05 275.61 53.05 275.56 53.13 274.94 53.08 275.56 53.06 275.56 68.22 251.97 76.68 240.38"/><path class="cls-11" d="M83.25,197.52c.39.17.19.8-.2.89a6.08,6.08,0,0,1-1.09.19l-2.17.28-4.33.56-4.36.13-2.18.07-1.07,0a.63.63,0,0,0-.62.4,22,22,0,0,0-1.29,8.48,21.94,21.94,0,0,1,.78-8.72,1.3,1.3,0,0,1,.4-.55,1.39,1.39,0,0,1,.65-.25l1.11-.11,2.17-.21,4.34-.41h6.55a5.39,5.39,0,0,0,1.07,0,.5.5,0,0,0,.37-.29A.36.36,0,0,0,83.25,197.52Z"/><path class="cls-11" d="M83.41,197.52c.12,1.36.26,2.71.42,4.06-.24,2.68-.38,5.38-.44,8.08q-.48-4-.69-8.1C82.91,200.21,83.15,198.86,83.41,197.52Z"/><path class="cls-11" d="M83.52,209.32A21.17,21.17,0,0,1,90.21,213,13.1,13.1,0,0,1,94,219.55a65.12,65.12,0,0,1,1.35,7.54c.37,2.53.73,5,1.06,7.58q2,15.17,3.46,30.41,2.6,33.23,2.17,66.59v.2l-.2.05a128.06,128.06,0,0,1-55.35.25,128,128,0,0,0,55.24-.75l-.2.24q.11-33.29-2.79-66.49-1.12-15.24-2.89-30.43-.44-3.8-.92-7.59a65.22,65.22,0,0,0-1.2-7.53,13,13,0,0,0-3.6-6.55A21.27,21.27,0,0,0,83.52,209.32Z"/><path class="cls-11" d="M65.44,208.25a97.15,97.15,0,0,1-9.23,4.65,33.37,33.37,0,0,1-10.06,2.69,23.19,23.19,0,0,1-5.26-.38,25.37,25.37,0,0,1-5-1.61,85.92,85.92,0,0,1-9.14-4.87A115.63,115.63,0,0,1,10.1,196.54,115.5,115.5,0,0,0,27,208.24a87.24,87.24,0,0,0,9.18,4.58,25.37,25.37,0,0,0,4.85,1.42,22.13,22.13,0,0,0,5,.22A32.57,32.57,0,0,0,56,212.37,94.93,94.93,0,0,0,65.44,208.25Z"/><path class="cls-11" d="M10.09,196.21a21.91,21.91,0,0,0-2.15,2.16,20.76,20.76,0,0,0-4.51,4,21.36,21.36,0,0,1,3.8-4.86A22,22,0,0,1,10.09,196.21Z"/><path class="cls-11" d="M3.5,199.64q6.62,6.51,13.47,12.75c2.19,2.17,4.39,4.33,6.63,6.47a39.57,39.57,0,0,0,7.06,5.84c2.63,1.59,5.74,2.06,8.78,2.49l9.18,1.33-9.22-1.05c-3-.34-6.23-.71-9-2.27A39.94,39.94,0,0,1,23,219.48q-3.45-3.1-6.84-6.28Q9.7,206.54,3.5,199.64Z"/><path class="cls-11" d="M59,217.16A27.65,27.65,0,0,0,56,223.87c-.74,2.34-1.42,4.7-2.07,7.06a224.27,224.27,0,0,0-7.55,28.44,226.11,226.11,0,0,1,6.47-28.78q1.24-3.48,2.61-6.91A28.36,28.36,0,0,1,59,217.16Z"/><path class="cls-11" d="M45,277.73c-.75,5.84-1.33,11.69-1.65,17.55a233.4,233.4,0,0,0-1,35.18,234.73,234.73,0,0,1-.11-35.28C42.94,289.32,43.89,283.51,45,277.73Z"/><path class="cls-11" d="M66,209a25.2,25.2,0,0,1,4.59-1,34.64,34.64,0,0,1,4.63.67,5.92,5.92,0,0,0,2.22,0,3.14,3.14,0,0,0,1.9-1.15A3.25,3.25,0,0,1,77.51,209a6.47,6.47,0,0,1-2.35.29,33.56,33.56,0,0,0-4.58-.1A24.18,24.18,0,0,0,66,209Z"/><g class="cls-12"><path class="cls-13" d="M76.79,240.46a30.9,30.9,0,0,0-5.35,7.38c-5.61,9.51-11.4,18.36-17.91,27.28a6.59,6.59,0,0,1-1.11,1.39,3.65,3.65,0,0,1-1.51.37c-2.17-.2-4.14-.31-6.31-.51a40.32,40.32,0,0,0-1.06,9.09c1.7-.38,3.1,1.23,4.35,2.43a12.8,12.8,0,0,0,4.36,2.73,8.69,8.69,0,0,0,3,.59,8.22,8.22,0,0,0,5.33-2.16,15.79,15.79,0,0,0,3.49-4.68c3.82-7.29,4.48-16,8.94-22.93a37.93,37.93,0,0,0,3-4.78c1.81-4,1-8.61.51-13a5.61,5.61,0,0,1,.33-3.28"/></g><path class="cls-6" d="M2.61,259.1l-8.73-1.79a34.26,34.26,0,0,0-8.71-1.06A50.49,50.49,0,0,0-26.4,258,28,28,0,0,0-32,259.77a9.2,9.2,0,0,0-2.41,1.51,1.32,1.32,0,0,0-.42,1.16c.06.41.37.81.76.8l-.09,0A28,28,0,0,1-22.67,260a28,28,0,0,0-11.26,3.6l0,0H-34a1.28,1.28,0,0,1-1.19-1.1,1.8,1.8,0,0,1,.48-1.55,5.49,5.49,0,0,1,1.21-1c.43-.27.87-.51,1.31-.74a29.31,29.31,0,0,1,5.62-2,52,52,0,0,1,11.75-2.11A35.41,35.41,0,0,1-6,256.76Z"/></g><path class="cls-14" d="M27,146.62c-9,12-12.34,28.89-5.05,42a45.08,45.08,0,0,0,9.56,11.54A66.72,66.72,0,0,0,50.36,212c5.91,2.44,12.34,4,18.69,3.25a39.46,39.46,0,0,0,8.86-2.31,58.92,58.92,0,0,0,17.45-9.57,35.79,35.79,0,0,0,11.43-16.08,53.42,53.42,0,0,0,2-10c1-7.8,1.62-15.94-1-23.35C104.83,145.73,98,139.22,90,135.61S47.15,119.65,27,146.62Z"/><path class="cls-7" d="M161.13,195.9c-.19-.28-1.45,56.53-1.45,56.53L323.4,253.8l4-51.5Z"/><path class="cls-6" d="M327.36,202.61q-37.07-1.73-74.15-3-46-2.1-92.08-3.5l.22-.2q-1.11,14-1.67,28.07a251.06,251.06,0,0,0,.18,28.11,248.86,248.86,0,0,1-.39-28.12q.43-14.05,1.45-28.1v-.2h.21q46.07,1,92.12,2.8Q290.33,200.32,327.36,202.61Z"/><polygon class="cls-6" points="327.37 202.3 326.54 220.54 323.35 255.05 323.35 255.11 323.31 255.07 321.93 253.8 323.35 255.03 323.3 255.05 325.41 220.46 327.37 202.3"/><path class="cls-6" d="M319.8,254.7q-25.83-1.51-51.69-2-12.93-.45-25.85-.65l-6.47-.08h-6.47l-12.93,0-51.74.08,51.74-.64,12.94-.17,6.46-.08h6.47q12.94.06,25.88.37Q294,252.62,319.8,254.7Z"/><path class="cls-6" d="M172.61,211.05l4.73.11,0,1.34-3.13-.07-.05,1.9,2.69.06,0,1.34-2.68-.06-.07,3-1.59,0Z"/><path class="cls-6" d="M178.27,213l1.29,0,.1,1h0a2.42,2.42,0,0,1,.77-.84,1.61,1.61,0,0,1,.89-.28,1.64,1.64,0,0,1,.68.14l-.3,1.37-.21-.06a1.62,1.62,0,0,0-.4-.05,1.19,1.19,0,0,0-.73.25,2,2,0,0,0-.6.83l-.08,3.4-1.58,0Z"/><path class="cls-6" d="M182.82,213.13l1.59,0-.14,5.78-1.58,0ZM183,212a.84.84,0,0,1-.24-.61.83.83,0,0,1,.27-.61,1,1,0,0,1,1.29,0,.77.77,0,0,1,.24.62.8.8,0,0,1-.26.6.93.93,0,0,1-.66.23A.89.89,0,0,1,183,212Z"/><path class="cls-6" d="M187.86,218.1c.83-.75,1.46-1.35,1.89-1.78a7.49,7.49,0,0,0,1.05-1.25,2,2,0,0,0,.41-1.11,1.19,1.19,0,0,0-.27-.86,1.08,1.08,0,0,0-.81-.33,1.25,1.25,0,0,0-.7.19,3.6,3.6,0,0,0-.67.55l-.85-.88a4.07,4.07,0,0,1,1.14-.86,3,3,0,0,1,1.33-.26,2.47,2.47,0,0,1,1.74.68,2.23,2.23,0,0,1,.62,1.71,3.15,3.15,0,0,1-.68,1.78,17.67,17.67,0,0,1-1.89,2.13,11,11,0,0,1,1.25-.05l1.6,0,0,1.35-5.15-.12Z"/><path class="cls-6" d="M194,217.86l1.64,0,.1-4.48-1.38,0,0-1a6.62,6.62,0,0,0,1-.23,4.71,4.71,0,0,0,.82-.38l1.17,0-.13,6.13,1.41,0,0,1.29-4.64-.1Z"/><path class="cls-6" d="M202.5,211.73l1.76,0,1.19,3.53c.11.34.21.66.28,1l.15.49h0l.23-.66c.13-.42.22-.67.26-.77l1.32-3.47,1.76,0-.18,7.62-1.45,0,.06-3c0-.42.08-1.11.2-2.07l.06-.45h-.05l-.65,1.77-1.21,3.06-.91,0-1.06-3.12-.56-1.79h-.05l0,.45c.08,1,.11,1.65.1,2.08l-.07,3-1.43,0Z"/><path class="cls-6" d="M211.23,219.2a1.71,1.71,0,0,1-.45-1.25,1.63,1.63,0,0,1,.82-1.41,6.1,6.1,0,0,1,2.52-.63.86.86,0,0,0-.93-1,2.18,2.18,0,0,0-.74.13,5.21,5.21,0,0,0-.83.37l-.54-1.06a4.51,4.51,0,0,1,2.44-.7,2.12,2.12,0,0,1,1.66.68,2.86,2.86,0,0,1,.53,1.95l-.07,3.33-1.31,0-.1-.61h0a2.63,2.63,0,0,1-1.73.71A1.63,1.63,0,0,1,211.23,219.2Zm2.32-.83a2.26,2.26,0,0,0,.52-.39l0-1.1a3.46,3.46,0,0,0-1.36.35.76.76,0,0,0-.43.63.61.61,0,0,0,.18.47.87.87,0,0,0,.52.17A1.11,1.11,0,0,0,213.55,218.37Z"/><path class="cls-6" d="M216.85,221.86l.31-1.22a1.77,1.77,0,0,0,.4.1,1.07,1.07,0,0,0,1.07-.82l.1-.33-2.11-5.69,1.61,0,.81,2.62c.09.27.19.64.3,1.09,0,.21.1.39.14.55h.05q.16-.66.45-1.62l.81-2.59,1.53,0-2.16,5.85a4.39,4.39,0,0,1-1,1.63,2.08,2.08,0,0,1-1.5.49A2.63,2.63,0,0,1,216.85,221.86Z"/><path class="cls-6" d="M225.13,219c.82-.75,1.45-1.35,1.89-1.78a8.6,8.6,0,0,0,1-1.25,2.21,2.21,0,0,0,.41-1.11,1.24,1.24,0,0,0-.28-.86,1.06,1.06,0,0,0-.8-.33,1.29,1.29,0,0,0-.71.19,4,4,0,0,0-.67.55l-.85-.88a4,4,0,0,1,1.15-.86,2.8,2.8,0,0,1,1.33-.25,2.4,2.4,0,0,1,1.73.67,2.28,2.28,0,0,1,.63,1.71,3.17,3.17,0,0,1-.69,1.78,17.67,17.67,0,0,1-1.89,2.13,11,11,0,0,1,1.25,0l1.6,0,0,1.35-5.14-.12Z"/><path class="cls-6" d="M232.44,219.73a2.9,2.9,0,0,1-.88-1.35,6.14,6.14,0,0,1-.27-2.12,4.82,4.82,0,0,1,.77-2.81,2.34,2.34,0,0,1,3.81.09,4.83,4.83,0,0,1,.63,2.84,6.15,6.15,0,0,1-.36,2.11,2.84,2.84,0,0,1-.94,1.3,2.34,2.34,0,0,1-2.76-.06Zm2.22-1.34a5.15,5.15,0,0,0,.34-2,4.79,4.79,0,0,0-.25-2,.85.85,0,0,0-1.61,0,4.89,4.89,0,0,0-.33,2,5.24,5.24,0,0,0,.24,2,.84.84,0,0,0,1.61,0Z"/><path class="cls-6" d="M237.36,218.85l1.63,0,.1-4.48-1.37,0,0-1a5.88,5.88,0,0,0,1-.24,4.22,4.22,0,0,0,.81-.37l1.18,0-.14,6.13,1.41,0,0,1.29-4.64-.1Z"/><path class="cls-6" d="M244.18,220.18a2.14,2.14,0,0,1-.9-.74,1.73,1.73,0,0,1-.31-1.07,2.07,2.07,0,0,1,1.32-1.81v-.05a2.13,2.13,0,0,1-1-1.76,1.88,1.88,0,0,1,.69-1.46,2.47,2.47,0,0,1,1.69-.51,2.28,2.28,0,0,1,1.6.59,1.87,1.87,0,0,1,.58,1.49,1.56,1.56,0,0,1-.3.92,2.37,2.37,0,0,1-.71.7v.05a2.74,2.74,0,0,1,.93.81,1.86,1.86,0,0,1,.31,1.15,1.73,1.73,0,0,1-.35,1,2.13,2.13,0,0,1-.93.72,3.1,3.1,0,0,1-1.35.23A3,3,0,0,1,244.18,220.18Zm2.13-1.06a.9.9,0,0,0,.31-.72.81.81,0,0,0-.18-.57,1.83,1.83,0,0,0-.5-.4c-.21-.11-.51-.25-.92-.43a1.84,1.84,0,0,0-.48.56,1.47,1.47,0,0,0-.19.67,1,1,0,0,0,.33.8,1.24,1.24,0,0,0,.86.32A1.11,1.11,0,0,0,246.31,219.12Zm.27-4.19a1,1,0,0,0-.24-.74.85.85,0,0,0-.69-.29.88.88,0,0,0-.64.22.92.92,0,0,0-.27.67.9.9,0,0,0,.32.72,3.83,3.83,0,0,0,1,.57A1.75,1.75,0,0,0,246.58,214.93Z"/><path class="cls-15" d="M176.29,232.87l-.91,0,0,1.82h-.7l0-1.83-2.92-.07v-.47l2.93-4.11.79,0-.09,4.06.9,0Zm-1.59-.63,0-2c0-.26,0-.66.08-1.22h0c-.14.24-.25.42-.33.53l-.22.35-1.67,2.3Z"/><path class="cls-15" d="M177.37,234.67a.56.56,0,0,1-.15-.42.58.58,0,0,1,.17-.43.54.54,0,0,1,.4-.16.52.52,0,0,1,.39.18.54.54,0,0,1,.15.43.57.57,0,0,1-.17.42.54.54,0,0,1-.4.16A.51.51,0,0,1,177.37,234.67Zm.09-3.71a.6.6,0,0,1-.16-.43.56.56,0,0,1,.18-.42.49.49,0,0,1,.39-.16.54.54,0,0,1,.4.17.65.65,0,0,1,.15.44.57.57,0,0,1-.17.42.57.57,0,0,1-.79,0Z"/><path class="cls-15" d="M180,234a6,6,0,0,1,.11-5,1.74,1.74,0,0,1,3,.07,4.64,4.64,0,0,1,.48,2.49,4.84,4.84,0,0,1-.59,2.49,1.72,1.72,0,0,1-3-.07Zm2.48-.36a4.88,4.88,0,0,0,.39-2.08,4.76,4.76,0,0,0-.3-2.07,1,1,0,0,0-1.94,0,4.69,4.69,0,0,0-.39,2.05,4.61,4.61,0,0,0,.3,2.1,1.07,1.07,0,0,0,.95.72A1.11,1.11,0,0,0,182.49,233.66Z"/><path class="cls-15" d="M185,234.13a4.72,4.72,0,0,1-.48-2.51,4.66,4.66,0,0,1,.59-2.46,1.74,1.74,0,0,1,3,.07,4.78,4.78,0,0,1,.48,2.48,4.9,4.9,0,0,1-.6,2.49,1.71,1.71,0,0,1-3-.07Zm2.48-.35a4.86,4.86,0,0,0,.4-2.08,4.54,4.54,0,0,0-.31-2.07,1,1,0,0,0-1.93,0,4.58,4.58,0,0,0-.4,2.06,4.86,4.86,0,0,0,.3,2.09,1.07,1.07,0,0,0,1,.72A1.08,1.08,0,0,0,187.48,233.78Z"/><path class="cls-15" d="M190,230.08h.6l.05.59h0a2.57,2.57,0,0,1,1.61-.68,1.67,1.67,0,0,1,1.43.71,3,3,0,0,1,.46,1.84,3.26,3.26,0,0,1-.32,1.41,2.33,2.33,0,0,1-.81.91,1.91,1.91,0,0,1-1.06.29,2.32,2.32,0,0,1-1.39-.61v.88l0,1.69-.73,0Zm2.66,4.23a1.58,1.58,0,0,0,.54-.69,2.72,2.72,0,0,0,.22-1.07,2.48,2.48,0,0,0-.3-1.39,1.13,1.13,0,0,0-1-.52,2.16,2.16,0,0,0-1.4.67L190.6,234a2.22,2.22,0,0,0,.65.43,1.53,1.53,0,0,0,.59.14A1.28,1.28,0,0,0,192.62,234.31Z"/><path class="cls-15" d="M195.56,230.21h.61l0,.73h0a2.15,2.15,0,0,1,1.55-.82,1.29,1.29,0,0,1,1.34,1,4.12,4.12,0,0,1,.84-.69,1.47,1.47,0,0,1,.82-.22q1.49,0,1.44,1.95l-.07,3.12h-.74l.07-3a1.82,1.82,0,0,0-.21-1,.84.84,0,0,0-.72-.34,1.94,1.94,0,0,0-1.31.76l-.08,3.61-.74,0,.07-3a1.8,1.8,0,0,0-.21-1,.85.85,0,0,0-.72-.35,2,2,0,0,0-1.31.76l-.08,3.61-.74,0Z"/><path class="cls-15" d="M206.3,235.08a2,2,0,0,1-.29-1.19l.07-2.83-.74,0v-.56l.77,0,.12-1.39.62,0,0,1.39,1.35,0v.61l-1.35,0-.07,2.86a1.32,1.32,0,0,0,.16.73.71.71,0,0,0,.6.26,1.81,1.81,0,0,0,.57-.12l.14.56a2.83,2.83,0,0,1-.88.16A1.2,1.2,0,0,1,206.3,235.08Z"/><path class="cls-15" d="M209.83,235.27a2.25,2.25,0,0,1-.81-.91,3.18,3.18,0,0,1,.07-2.76,2.13,2.13,0,0,1,2-1.16,2.13,2.13,0,0,1,1.12.34,2.16,2.16,0,0,1,.8.91,2.93,2.93,0,0,1,.28,1.39,2.84,2.84,0,0,1-.34,1.37,2.22,2.22,0,0,1-.85.87,2.12,2.12,0,0,1-1.13.29A2.2,2.2,0,0,1,209.83,235.27Zm1.92-.51a1.55,1.55,0,0,0,.54-.68,2.47,2.47,0,0,0,.22-1,2.59,2.59,0,0,0-.17-1,1.56,1.56,0,0,0-.52-.7,1.31,1.31,0,0,0-.77-.27,1.26,1.26,0,0,0-.78.23,1.61,1.61,0,0,0-.54.68,2.73,2.73,0,0,0-.21,1,2.2,2.2,0,0,0,.38,1.43A1.29,1.29,0,0,0,211,235,1.38,1.38,0,0,0,211.75,234.76Z"/><path class="cls-15" d="M216.88,235.5a3.38,3.38,0,0,1-.89-.66l.39-.48a3.11,3.11,0,0,0,.72.56,1.94,1.94,0,0,0,.93.23,1.43,1.43,0,0,0,.74-.18,1.31,1.31,0,0,0,.54-.53,1.76,1.76,0,0,0-.15-1.9,1.37,1.37,0,0,0-1-.42,2,2,0,0,0-.58.08,3.07,3.07,0,0,0-.57.29l-.4-.26.28-3.09,3.18.07v.64l-2.53-.06-.23,2a2.27,2.27,0,0,1,.5-.2,2.35,2.35,0,0,1,.54-.06,2,2,0,0,1,1.43.55,2,2,0,0,1,.53,1.53,2.32,2.32,0,0,1-.33,1.16,2.13,2.13,0,0,1-.81.74,2.18,2.18,0,0,1-1.07.24A2.71,2.71,0,0,1,216.88,235.5Z"/><path class="cls-15" d="M221.55,235.68a.53.53,0,0,1-.15-.42.58.58,0,0,1,.17-.43.54.54,0,0,1,.4-.16.51.51,0,0,1,.39.18.54.54,0,0,1,.15.43.57.57,0,0,1-.17.42.54.54,0,0,1-.4.16A.57.57,0,0,1,221.55,235.68Zm.08-3.71a.66.66,0,0,1,0-.86.54.54,0,0,1,.79,0,.61.61,0,0,1,.16.44.56.56,0,0,1-.18.41.49.49,0,0,1-.39.16A.54.54,0,0,1,221.63,232Z"/><path class="cls-15" d="M224.18,235a4.88,4.88,0,0,1-.48-2.5,4.79,4.79,0,0,1,.6-2.47,1.73,1.73,0,0,1,3,.07,4.6,4.6,0,0,1,.48,2.49,4.8,4.8,0,0,1-.59,2.48,1.72,1.72,0,0,1-3-.07Zm2.48-.35a6.33,6.33,0,0,0,.1-4.15,1,1,0,0,0-1.94-.05,6.27,6.27,0,0,0-.09,4.16,1.07,1.07,0,0,0,1,.71A1.06,1.06,0,0,0,226.66,234.67Z"/><path class="cls-15" d="M229.18,235.14a4.72,4.72,0,0,1-.48-2.51,4.64,4.64,0,0,1,.59-2.46,1.74,1.74,0,0,1,3,.06,4.73,4.73,0,0,1,.49,2.49,4.9,4.9,0,0,1-.6,2.49,1.71,1.71,0,0,1-3-.07Zm2.48-.36a4.83,4.83,0,0,0,.39-2.07,4.63,4.63,0,0,0-.3-2.08,1,1,0,0,0-1.94,0,4.71,4.71,0,0,0-.39,2.06,4.88,4.88,0,0,0,.3,2.09,1.07,1.07,0,0,0,.95.72A1.09,1.09,0,0,0,231.66,234.78Z"/><path class="cls-15" d="M234.13,231.09h.61l0,.59h0a2.58,2.58,0,0,1,1.61-.67,1.67,1.67,0,0,1,1.43.71,3,3,0,0,1,.46,1.84A3.12,3.12,0,0,1,238,235a2.23,2.23,0,0,1-.8.91,1.91,1.91,0,0,1-1.06.29,2.32,2.32,0,0,1-1.39-.61v.87l0,1.7-.73,0Zm2.66,4.23a1.57,1.57,0,0,0,.55-.7,2.63,2.63,0,0,0,.22-1.06,2.54,2.54,0,0,0-.3-1.39,1.14,1.14,0,0,0-1-.53,2.18,2.18,0,0,0-1.4.68l-.07,2.66a2.35,2.35,0,0,0,.65.43,1.84,1.84,0,0,0,.6.14A1.23,1.23,0,0,0,236.79,235.32Z"/><path class="cls-15" d="M239.74,231.22h.6l0,.73h0a2.14,2.14,0,0,1,1.55-.81,1.29,1.29,0,0,1,1.34,1,3.81,3.81,0,0,1,.84-.69,1.54,1.54,0,0,1,.81-.23c1,0,1.48.68,1.45,2l-.07,3.12-.74,0,.07-3a1.82,1.82,0,0,0-.21-1,.84.84,0,0,0-.72-.34,1.88,1.88,0,0,0-1.31.76l-.08,3.6h-.74l.07-3a1.8,1.8,0,0,0-.21-1,.83.83,0,0,0-.72-.35,2,2,0,0,0-1.31.76l-.09,3.61-.73,0Z"/><circle class="cls-16" cx="278.15" cy="218.15" r="5.8"/><circle class="cls-17" cx="293.79" cy="218.29" r="5.8"/><circle class="cls-18" cx="309.27" cy="218.29" r="5.8"/><circle class="cls-19" cx="278.15" cy="233.63" r="5.8"/><path class="cls-20" d="M326.47,194.19c-1.9-.56-4.19,1.06-5.46,2.58a9.52,9.52,0,0,0-1.89,5.52A8.76,8.76,0,0,0,320,207a7.3,7.3,0,0,0,5.54,3.52,9,9,0,0,0,10.13-9.44,5.58,5.58,0,0,0-1.23-3.42,11,11,0,0,0-2.47-2.4A12.82,12.82,0,0,0,326.47,194.19Z"/><polygon class="cls-7" points="322.45 201.83 326.93 203.06 327.28 203.38 325.57 203.56 332.17 198.31 327.5 205.43 327.02 206.16 325.79 205.62 325.37 205.43 322.45 201.83"/><path class="cls-21" d="M167.62,109.53q-.1,5.39-.2,10.78c11.5-.5,23,0,34.5-.5,4.66-.21,9.13.06,14.73-.2.15-4.34,0-7.72-.16-12.43-16,.84-32.13,0-48.06,1.85a2.07,2.07,0,0,0-1.14.38"/><path class="cls-22" d="M162.59,110c-.87,1.6.23,3.69,1.84,4.53a10.35,10.35,0,0,0,5.34.68l30.13-1.51c5.3-.26,10.61-.53,15.91-.28a5.69,5.69,0,0,0,3.59-.61,3.66,3.66,0,0,0,1.37-2.77,11.28,11.28,0,0,0-.42-3.15c-8.94-.14-17.88.12-26.82.38-10.1.3-20.22.6-30.23,2-.49.07-1.14.46-.86.87"/><path class="cls-6" d="M214,42.25a30.54,30.54,0,0,0-2-6.77,4.82,4.82,0,0,0-1.38-2.09,5.29,5.29,0,0,0-3.43-.7l-31.09.74a29.21,29.21,0,0,0-5.29.44,2.84,2.84,0,0,0-1.3.51,3.08,3.08,0,0,0-.81,1.3,67.54,67.54,0,0,0-2.59,7.57l1.16,3.17,21.27,1.44,23.66-1.92Z"/><path class="cls-7" d="M218.61,109.17c3.29-.19,3.68-.86,4.7-2a7.85,7.85,0,0,0,1.74-4.23c.4-3.12-.39-6.26-1.18-9.31l-5.21-20.14-.85-3.57q1.17-9.69,1.69-19.43a13,13,0,0,0-.31-4.58,4.57,4.57,0,0,0-3.05-3.2l-.92-.07Q189.63,43.8,164,43.9l-.94.57a9.84,9.84,0,0,0-2.72,6.42,29.18,29.18,0,0,0,.6,7.09l2.38,14.25,0,.93-5.32,27a12.76,12.76,0,0,0-.08,5.7c.45,2.07,3.84,4.13,5.94,4.41Z"/><path class="cls-7" d="M174.07,36.5a2.08,2.08,0,0,0-1.21,1,2.78,2.78,0,0,0,.28,2.78,2.66,2.66,0,0,0,2.61,1,2.51,2.51,0,0,0,1.09-4.34,2.51,2.51,0,0,0-1.09-.55A4.19,4.19,0,0,0,174.07,36.5Z"/><path class="cls-7" d="M204,35.43a2.14,2.14,0,0,0-1.22,1,2.78,2.78,0,0,0,.29,2.78,2.62,2.62,0,0,0,2.61,1,2.5,2.5,0,0,0,1.08-4.34,2.51,2.51,0,0,0-1.09-.55A4.33,4.33,0,0,0,204,35.43Z"/><path class="cls-23" d="M164.29,43.9a3.61,3.61,0,0,0-2,1.45,5.23,5.23,0,0,0-.87,2.24,13.42,13.42,0,0,0-.12,2.47,13.31,13.31,0,0,0,.19,2.43,13.85,13.85,0,0,0,.25,2.36c.13.85.25,1.71.35,2.57.19,1.71.31,3.42.4,5.13l.27,5.09a23.51,23.51,0,0,0,.75,5l0,.13-.08-.11-.21-.31.25.29,0,0a23.51,23.51,0,0,1-1.33-5l-.85-5c-.29-1.67-.6-3.33-1-5-.19-.82-.39-1.62-.62-2.43a15.35,15.35,0,0,1-.58-2.66,16.38,16.38,0,0,1,.4-2.75,15.11,15.11,0,0,1,.77-2.63,6.07,6.07,0,0,1,1.56-2.3A3.93,3.93,0,0,1,164.29,43.9Z"/><path class="cls-23" d="M163.18,74.39c-.84,4.64-1,9.3-1.45,14l-3.27,13.71a8.55,8.55,0,0,0-.16,3.29,5.2,5.2,0,0,0,1.6,2.81,6.84,6.84,0,0,0,3,1.59,10.34,10.34,0,0,0,3.47.28,10.78,10.78,0,0,1-3.54,0,7.38,7.38,0,0,1-3.3-1.43,6,6,0,0,1-2.08-3,9.6,9.6,0,0,1-.15-3.69L159.38,88C160.57,83.49,161.57,78.82,163.18,74.39Z"/><path class="cls-23" d="M167.8,110q8-.54,15.88-1.38c5.3,0,10.59,0,15.89-.19s10.64-.26,15.94.1c-5.31,0-10.58.55-15.86,1.09s-10.59,1-15.9,1.39Q175.76,110.66,167.8,110Z"/><path class="cls-23" d="M163.72,44q8.42-.6,16.8-1.35,16.81.28,33.65-.06-16.77,1.53-33.6,2.45Q172.13,44.63,163.72,44Z"/><path class="cls-23" d="M214.18,42.35a.49.49,0,0,0,.49.1l.56-.15a6.58,6.58,0,0,1,1.23-.2,4,4,0,0,1,2.72.91,6.29,6.29,0,0,1,1,2.5,11.92,11.92,0,0,1,.16,2.44,12.37,12.37,0,0,1-1,4.54,11.73,11.73,0,0,0-.18-4.43,6.44,6.44,0,0,0-1.77-3.49,2.23,2.23,0,0,0-1.13-1.3,5.94,5.94,0,0,0-1-.37l-.58-.15C214.45,42.69,214.21,42.56,214.18,42.35Z"/><path class="cls-23" d="M219.39,52.8c.13,1.85.28,3.7.44,5.54q-1.23,5.13-2.28,10.32l0,.12,0-.1-.16-.32.22.28-.07,0q-.1-5.31,0-10.62C218.09,56.28,218.74,54.53,219.39,52.8Z"/><path class="cls-23" d="M217.89,70.34c1.42,4.85,2.83,9.71,4.46,14.46.52,2.45,1.1,4.88,1.76,7.3a50.31,50.31,0,0,1,1.78,7.45,13.85,13.85,0,0,1-.09,3.91,9,9,0,0,1-1.48,3.63,6.88,6.88,0,0,1-3,2.42,9.84,9.84,0,0,1-3.76.48,9.66,9.66,0,0,0,3.64-.75,6.45,6.45,0,0,0,2.62-2.48,8.14,8.14,0,0,0,1.09-3.42,12.6,12.6,0,0,0-.2-3.62,49.08,49.08,0,0,0-2.31-7.08c-.86-2.39-1.64-4.82-2.36-7.25C219.17,80.37,218.53,75.36,217.89,70.34Z"/><path class="cls-21" d="M209.62,118.67a68.35,68.35,0,0,1,13.1.81,12.33,12.33,0,0,1-4.07.19,90.61,90.61,0,0,0-12.22.16"/><g id="Group_4" data-name="Group 4"><g id="Group_5" data-name="Group 5"><g id="Path"><path class="cls-24" d="M194.58,87.62a3.18,3.18,0,1,0,3,3.36A3.43,3.43,0,0,0,194.58,87.62Z"/></g><g id="Path_2" data-name="Path 2"><path class="cls-9" d="M184.68,87.43a3.21,3.21,0,0,0-4.49-.18,3,3,0,0,0-.18,4.48,3.21,3.21,0,0,0,4.48.19A3.07,3.07,0,0,0,184.68,87.43Z"/></g><g id="Path_3" data-name="Path 3"><path class="cls-25" d="M178.14,80.15a3.18,3.18,0,1,0-3.37,3A3.43,3.43,0,0,0,178.14,80.15Z"/></g><g id="Path_4" data-name="Path 4"><path class="cls-26" d="M178.51,65.76a3.05,3.05,0,0,0-4.48-.19,3.22,3.22,0,0,0-.19,4.49,3.17,3.17,0,0,0,4.67-4.3Z"/></g><g id="Path_5" data-name="Path 5"><path class="cls-27" d="M185.42,63.33a3.18,3.18,0,1,0-3-3.36A3.16,3.16,0,0,0,185.42,63.33Z"/></g><g id="Path_6" data-name="Path 6"><path class="cls-28" d="M195.32,63.71a3.23,3.23,0,0,0,4.49.18,3.05,3.05,0,0,0,.19-4.48,3.22,3.22,0,0,0-4.49-.19A3.06,3.06,0,0,0,195.32,63.71Z"/></g><g id="Path_7" data-name="Path 7"><path class="cls-29" d="M202.05,70.8a3.18,3.18,0,1,0,3.36-3A3.16,3.16,0,0,0,202.05,70.8Z"/></g><g id="Path_8" data-name="Path 8"><path class="cls-30" d="M201.68,80.89a3.22,3.22,0,0,0-.19,4.49,3.05,3.05,0,0,0,4.48.18,3.21,3.21,0,0,0,.19-4.48A3.05,3.05,0,0,0,201.68,80.89Z"/></g></g></g><path class="cls-6" d="M228.89,74.39a8.07,8.07,0,0,1,5.48.15,47.18,47.18,0,0,1,5.12,2.19,90.14,90.14,0,0,1,9.77,5.38c1.6,1,3.1,2.07,4.64,3.11s3,2.21,4.44,3.42a89.93,89.93,0,0,1,8.26,7.6,84.21,84.21,0,0,1,12.56,18.56A77.14,77.14,0,0,1,286,136.05c2.48,14.69.69,30.16-5.81,43.5a71.73,71.73,0,0,0,4.69-43.29,75.56,75.56,0,0,0-7.26-20.69,81.91,81.91,0,0,0-12.73-17.8,86.18,86.18,0,0,0-7.69-7.84c-1.33-1.26-2.78-2.39-4.18-3.58s-2.89-2.27-4.42-3.29a92.43,92.43,0,0,0-9.39-5.83,49.6,49.6,0,0,0-5-2.43A7.92,7.92,0,0,0,228.89,74.39Z"/><path class="cls-6" d="M276.38,177.63a43,43,0,0,1,8.28,1.29q-4,4.44-7.64,9.14l-1.23-10.4"/><path class="cls-6" d="M148.68,225.62a79.38,79.38,0,0,1-15.17,1.79A79.31,79.31,0,0,1,118.4,225a39.34,39.34,0,0,1-7.2-2.57A20.59,20.59,0,0,1,105,218a20.18,20.18,0,0,0,6.34,4,38.51,38.51,0,0,0,7.21,2.13,77.86,77.86,0,0,0,15,1.54A77.87,77.87,0,0,0,148.68,225.62Z"/><polygon class="cls-6" points="81.33 122.47 83.05 119.21 83.9 117.58 84.86 116 86.79 112.84 88.91 109.82 89.97 108.3 91.12 106.85 93.43 103.95 95.91 101.19 97.16 99.81 98.48 98.51 101.24 96.02 104.14 93.7 105.58 92.54 107.1 91.47 110.13 89.33 113.27 87.37 114.84 86.39 116.47 85.5 119.72 83.74 123.07 82.17 124.75 81.38 126.46 80.7 129.9 79.33 133.41 78.18 135.16 77.6 136.95 77.13 140.51 76.2 144.13 75.49 145.94 75.14 147.77 74.91 151.42 74.43 147.79 75.01 145.97 75.3 144.18 75.7 140.59 76.51 137.06 77.54 135.3 78.06 133.57 78.68 130.12 79.93 126.75 81.38 125.07 82.11 123.44 82.93 120.17 84.58 117 86.43 115.42 87.35 113.89 88.36 110.85 90.38 107.92 92.58 106.46 93.68 105.07 94.86 102.29 97.22 99.65 99.75 98.28 100.95 96.98 102.23 94.38 104.8 91.94 107.53 90.72 108.89 89.58 110.33 87.31 113.21 85.22 116.23 84.17 117.74 83.23 119.32 81.33 122.47"/><path class="cls-6" d="M111.24,217.63a42.31,42.31,0,0,1-4,7.37q-2.84-5.24-6-10.26l10.22,2.32"/><path class="cls-6" d="M146,78.51a42.67,42.67,0,0,1-.23-8.38q5.09,3.12,10.37,5.86l-10,3.1"/></svg>